G05
M48
;#@! TF.GenerationSoftware,DesignSpark,DesignSpark PCB,13.0.
;#@! TF.CreationDate,2026-02-18T09:44:57--8:00*
;#@! TF.FileFunction,Plated,1,2,PTH
;FILE_FORMAT=3:5
;TYPE=PLATED
INCH,TZ
FMAT,2
T1C000.02400
T2C000.02953
T3C000.03200
T4C000.03386
T5C000.03500
T6C000.09000
%
T001
X1.21721Y0.77750
X1.21721Y3.32750
X1.21721Y5.82750
X1.21721Y8.02750
X1.26721Y0.87750
X1.26721Y3.42750
X1.26721Y5.92750
X1.49221Y3.00250
T002
X0.29221Y0.25112
X0.29221Y0.32986
X0.29221Y0.40860
X0.29221Y0.48734
X0.29221Y0.56608
X0.29221Y0.64482
X0.29221Y0.72356
X0.29221Y0.80230
X0.29221Y0.88104
X0.29221Y0.95978
X0.29221Y1.03852
X0.29221Y1.11726
X0.29221Y1.19600
X0.29221Y1.27474
X0.29221Y1.35348
X0.29221Y1.43222
X0.29221Y1.51096
X0.29221Y1.58970
X0.29221Y1.66844
X0.29221Y1.74719
X0.29221Y1.82593
X0.29221Y1.90467
X0.29221Y1.98341
X0.29221Y2.06215
X0.29221Y2.14089
X0.29221Y2.21963
X0.29221Y2.29837
X0.29221Y2.37711
X0.29221Y2.45585
X0.29221Y2.53459
X0.29221Y2.61333
X0.29221Y2.69207
X0.29221Y2.77081
X0.29221Y2.84955
X0.29221Y2.92829
X0.29221Y3.00703
X0.29221Y3.08577
X0.29221Y3.16451
X0.29221Y3.24325
X0.29221Y3.32199
X0.29221Y3.40073
X0.29221Y3.47947
X0.29221Y3.55821
X0.29221Y3.63695
X0.29221Y3.71569
X0.29221Y3.79443
X0.29221Y3.87317
X0.29221Y3.95191
X0.29221Y4.03065
X0.29221Y4.10939
X0.29221Y4.18813
X0.29221Y4.26687
X0.29221Y4.34561
X0.29221Y4.42435
X0.29221Y4.50309
X0.29221Y4.58183
X0.29221Y4.66057
X0.29221Y4.73931
X0.29221Y4.81805
X0.29221Y4.89679
X0.29221Y4.97553
X0.29221Y5.05427
X0.29221Y5.13301
X0.29221Y5.21175
X0.29221Y5.29049
X0.29221Y5.36923
X0.29221Y5.44797
X0.29221Y5.52671
X0.29221Y5.60545
X0.29221Y5.68419
X0.29221Y5.76293
X0.29221Y5.84167
X0.29221Y5.92041
X0.29221Y5.99915
X0.29221Y6.07789
X0.29221Y6.15663
X0.29221Y6.23537
X0.29221Y6.31411
X0.29221Y6.39285
X0.29221Y6.47159
X0.29221Y6.55033
X0.29221Y6.62907
X0.29221Y6.70781
X0.29221Y6.78656
X0.29221Y6.86530
X0.29221Y6.94404
X0.29221Y7.02278
X0.29221Y7.10152
X0.29221Y7.18026
X0.29221Y7.25900
X0.29221Y7.33774
X0.29221Y7.41648
X0.29221Y7.49522
X0.29221Y7.57396
X0.29221Y7.65270
X0.29221Y7.73144
X0.29221Y7.81018
X0.29221Y7.88892
X0.29221Y7.96766
X0.29221Y8.04640
X0.29221Y8.12514
X0.29221Y8.20388
X0.39221Y0.25112
X0.39221Y0.32986
X0.39221Y0.40860
X0.39221Y0.48734
X0.39221Y0.56608
X0.39221Y0.64482
X0.39221Y0.72356
X0.39221Y0.80230
X0.39221Y0.88104
X0.39221Y0.95978
X0.39221Y1.03852
X0.39221Y1.11726
X0.39221Y1.19600
X0.39221Y1.27474
X0.39221Y1.35348
X0.39221Y1.43222
X0.39221Y1.51096
X0.39221Y1.58970
X0.39221Y1.66844
X0.39221Y1.74719
X0.39221Y1.82593
X0.39221Y1.90467
X0.39221Y1.98341
X0.39221Y2.06215
X0.39221Y2.14089
X0.39221Y2.21963
X0.39221Y2.29837
X0.39221Y2.37711
X0.39221Y2.45585
X0.39221Y2.53459
X0.39221Y2.61333
X0.39221Y2.69207
X0.39221Y2.77081
X0.39221Y2.84955
X0.39221Y2.92829
X0.39221Y3.00703
X0.39221Y3.08577
X0.39221Y3.16451
X0.39221Y3.24325
X0.39221Y3.32199
X0.39221Y3.40073
X0.39221Y3.47947
X0.39221Y3.55821
X0.39221Y3.63695
X0.39221Y3.71569
X0.39221Y3.79443
X0.39221Y3.87317
X0.39221Y3.95191
X0.39221Y4.03065
X0.39221Y4.10939
X0.39221Y4.18813
X0.39221Y4.26687
X0.39221Y4.34561
X0.39221Y4.42435
X0.39221Y4.50309
X0.39221Y4.58183
X0.39221Y4.66057
X0.39221Y4.73931
X0.39221Y4.81805
X0.39221Y4.89679
X0.39221Y4.97553
X0.39221Y5.05427
X0.39221Y5.13301
X0.39221Y5.21175
X0.39221Y5.29049
X0.39221Y5.36923
X0.39221Y5.44797
X0.39221Y5.52671
X0.39221Y5.60545
X0.39221Y5.68419
X0.39221Y5.76293
X0.39221Y5.84167
X0.39221Y5.92041
X0.39221Y5.99915
X0.39221Y6.07789
X0.39221Y6.15663
X0.39221Y6.23537
X0.39221Y6.31411
X0.39221Y6.39285
X0.39221Y6.47159
X0.39221Y6.55033
X0.39221Y6.62907
X0.39221Y6.70781
X0.39221Y6.78656
X0.39221Y6.86530
X0.39221Y6.94404
X0.39221Y7.02278
X0.39221Y7.10152
X0.39221Y7.18026
X0.39221Y7.25900
X0.39221Y7.33774
X0.39221Y7.41648
X0.39221Y7.49522
X0.39221Y7.57396
X0.39221Y7.65270
X0.39221Y7.73144
X0.39221Y7.81018
X0.39221Y7.88892
X0.39221Y7.96766
X0.39221Y8.04640
X0.39221Y8.12514
X0.39221Y8.20388
X0.49221Y0.25112
X0.49221Y0.32986
X0.49221Y0.40860
X0.49221Y0.48734
X0.49221Y0.56608
X0.49221Y0.64482
X0.49221Y0.72356
X0.49221Y0.80230
X0.49221Y0.88104
X0.49221Y0.95978
X0.49221Y1.03852
X0.49221Y1.11726
X0.49221Y1.19600
X0.49221Y1.27474
X0.49221Y1.35348
X0.49221Y1.43222
X0.49221Y1.51096
X0.49221Y1.58970
X0.49221Y1.66844
X0.49221Y1.74719
X0.49221Y1.82593
X0.49221Y1.90467
X0.49221Y1.98341
X0.49221Y2.06215
X0.49221Y2.14089
X0.49221Y2.21963
X0.49221Y2.29837
X0.49221Y2.37711
X0.49221Y2.45585
X0.49221Y2.53459
X0.49221Y2.61333
X0.49221Y2.69207
X0.49221Y2.77081
X0.49221Y2.84955
X0.49221Y2.92829
X0.49221Y3.00703
X0.49221Y3.08577
X0.49221Y3.16451
X0.49221Y3.24325
X0.49221Y3.32199
X0.49221Y3.40073
X0.49221Y3.47947
X0.49221Y3.55821
X0.49221Y3.63695
X0.49221Y3.71569
X0.49221Y3.79443
X0.49221Y3.87317
X0.49221Y3.95191
X0.49221Y4.03065
X0.49221Y4.10939
X0.49221Y4.18813
X0.49221Y4.26687
X0.49221Y4.34561
X0.49221Y4.42435
X0.49221Y4.50309
X0.49221Y4.58183
X0.49221Y4.66057
X0.49221Y4.73931
X0.49221Y4.81805
X0.49221Y4.89679
X0.49221Y4.97553
X0.49221Y5.05427
X0.49221Y5.13301
X0.49221Y5.21175
X0.49221Y5.29049
X0.49221Y5.36923
X0.49221Y5.44797
X0.49221Y5.52671
X0.49221Y5.60545
X0.49221Y5.68419
X0.49221Y5.76293
X0.49221Y5.84167
X0.49221Y5.92041
X0.49221Y5.99915
X0.49221Y6.07789
X0.49221Y6.15663
X0.49221Y6.23537
X0.49221Y6.31411
X0.49221Y6.39285
X0.49221Y6.47159
X0.49221Y6.55033
X0.49221Y6.62907
X0.49221Y6.70781
X0.49221Y6.78656
X0.49221Y6.86530
X0.49221Y6.94404
X0.49221Y7.02278
X0.49221Y7.10152
X0.49221Y7.18026
X0.49221Y7.25900
X0.49221Y7.33774
X0.49221Y7.41648
X0.49221Y7.49522
X0.49221Y7.57396
X0.49221Y7.65270
X0.49221Y7.73144
X0.49221Y7.81018
X0.49221Y7.88892
X0.49221Y7.96766
X0.49221Y8.04640
X0.49221Y8.12514
X0.49221Y8.20388
X0.59221Y0.25112
X0.59221Y0.32986
X0.59221Y0.40860
X0.59221Y0.48734
X0.59221Y0.56608
X0.59221Y0.64482
X0.59221Y0.72356
X0.59221Y0.80230
X0.59221Y0.88104
X0.59221Y0.95978
X0.59221Y1.03852
X0.59221Y1.11726
X0.59221Y1.19600
X0.59221Y1.27474
X0.59221Y1.35348
X0.59221Y1.43222
X0.59221Y1.51096
X0.59221Y1.58970
X0.59221Y1.66844
X0.59221Y1.74719
X0.59221Y1.82593
X0.59221Y1.90467
X0.59221Y1.98341
X0.59221Y2.06215
X0.59221Y2.14089
X0.59221Y2.21963
X0.59221Y2.29837
X0.59221Y2.37711
X0.59221Y2.45585
X0.59221Y2.53459
X0.59221Y2.61333
X0.59221Y2.69207
X0.59221Y2.77081
X0.59221Y2.84955
X0.59221Y2.92829
X0.59221Y3.00703
X0.59221Y3.08577
X0.59221Y3.16451
X0.59221Y3.24325
X0.59221Y3.32199
X0.59221Y3.40073
X0.59221Y3.47947
X0.59221Y3.55821
X0.59221Y3.63695
X0.59221Y3.71569
X0.59221Y3.79443
X0.59221Y3.87317
X0.59221Y3.95191
X0.59221Y4.03065
X0.59221Y4.10939
X0.59221Y4.18813
X0.59221Y4.26687
X0.59221Y4.34561
X0.59221Y4.42435
X0.59221Y4.50309
X0.59221Y4.58183
X0.59221Y4.66057
X0.59221Y4.73931
X0.59221Y4.81805
X0.59221Y4.89679
X0.59221Y4.97553
X0.59221Y5.05427
X0.59221Y5.13301
X0.59221Y5.21175
X0.59221Y5.29049
X0.59221Y5.36923
X0.59221Y5.44797
X0.59221Y5.52671
X0.59221Y5.60545
X0.59221Y5.68419
X0.59221Y5.76293
X0.59221Y5.84167
X0.59221Y5.92041
X0.59221Y5.99915
X0.59221Y6.07789
X0.59221Y6.15663
X0.59221Y6.23537
X0.59221Y6.31411
X0.59221Y6.39285
X0.59221Y6.47159
X0.59221Y6.55033
X0.59221Y6.62907
X0.59221Y6.70781
X0.59221Y6.78656
X0.59221Y6.86530
X0.59221Y6.94404
X0.59221Y7.02278
X0.59221Y7.10152
X0.59221Y7.18026
X0.59221Y7.25900
X0.59221Y7.33774
X0.59221Y7.41648
X0.59221Y7.49522
X0.59221Y7.57396
X0.59221Y7.65270
X0.59221Y7.73144
X0.59221Y7.81018
X0.59221Y7.88892
X0.59221Y7.96766
X0.59221Y8.04640
X0.59221Y8.12514
X0.59221Y8.20388
T003
X0.31721Y0.12750
X0.31721Y8.32750
X0.71721Y0.12750
X0.71721Y0.20250
X0.71721Y0.60250
X0.71721Y7.85250
X0.71721Y8.25250
X0.71721Y8.32750
X0.84221Y0.77750
X0.84221Y0.87750
X0.84221Y0.97750
X0.84221Y1.07750
X0.84221Y1.17750
X0.84221Y1.27750
X0.84221Y1.37750
X0.84221Y1.47750
X0.84221Y1.57750
X0.84221Y1.67750
X0.84221Y1.77750
X0.84221Y1.87750
X0.84221Y1.97750
X0.84221Y2.07750
X0.84221Y2.17750
X0.84221Y2.27750
X0.84221Y2.37750
X0.84221Y2.47750
X0.84221Y2.57750
X0.84221Y2.67750
X0.84221Y3.32750
X0.84221Y3.42750
X0.84221Y3.52750
X0.84221Y3.62750
X0.84221Y3.72750
X0.84221Y3.82750
X0.84221Y3.92750
X0.84221Y4.02750
X0.84221Y4.12750
X0.84221Y4.22750
X0.84221Y4.32750
X0.84221Y4.42750
X0.84221Y4.52750
X0.84221Y4.62750
X0.84221Y4.72750
X0.84221Y4.82750
X0.84221Y4.92750
X0.84221Y5.02750
X0.84221Y5.12750
X0.84221Y5.22750
X0.84221Y5.82750
X0.84221Y5.92750
X0.84221Y6.02750
X0.84221Y6.12750
X0.84221Y6.22750
X0.84221Y6.32750
X0.84221Y6.42750
X0.84221Y6.52750
X0.84221Y6.62750
X0.84221Y6.72750
X0.84221Y6.82750
X0.84221Y6.92750
X0.84221Y7.02750
X0.84221Y7.12750
X0.84221Y7.22750
X0.84221Y7.32750
X0.84221Y7.42750
X0.84221Y7.52750
X0.84221Y7.62750
X0.84221Y7.72750
X0.86721Y0.30250
X0.86721Y0.60250
X0.86721Y2.87750
X0.86721Y3.00250
X0.86721Y5.42750
X0.86721Y7.92750
X0.96721Y0.30250
X0.96721Y0.60250
X0.99221Y2.87750
X0.99221Y5.42750
X0.99221Y7.92750
X1.06721Y0.30250
X1.06721Y0.60250
X1.06721Y0.77750
X1.06721Y2.77750
X1.06721Y2.87750
X1.06721Y3.32750
X1.06721Y5.32750
X1.06721Y5.42750
X1.06721Y5.82750
X1.06721Y7.82750
X1.06721Y7.92750
X1.16721Y0.30250
X1.16721Y0.60250
X1.26721Y0.30250
X1.26721Y0.60250
X1.26721Y2.77750
X1.26721Y3.00250
X1.26721Y5.32750
X1.26721Y7.82750
X1.36721Y0.30250
X1.36721Y0.60250
X1.41721Y2.77750
X1.44221Y0.77750
X1.44221Y0.87750
X1.44221Y0.97750
X1.44221Y1.07750
X1.44221Y1.17750
X1.44221Y1.27750
X1.44221Y1.37750
X1.44221Y1.47750
X1.44221Y1.57750
X1.44221Y1.67750
X1.44221Y1.77750
X1.44221Y1.87750
X1.44221Y1.97750
X1.44221Y2.07750
X1.44221Y2.17750
X1.44221Y2.27750
X1.44221Y2.37750
X1.44221Y2.47750
X1.44221Y2.57750
X1.44221Y2.67750
X1.44221Y3.32750
X1.44221Y3.42750
X1.44221Y3.52750
X1.44221Y3.62750
X1.44221Y3.72750
X1.44221Y3.82750
X1.44221Y3.92750
X1.44221Y4.02750
X1.44221Y4.12750
X1.44221Y4.22750
X1.44221Y4.32750
X1.44221Y4.42750
X1.44221Y4.52750
X1.44221Y4.62750
X1.44221Y4.72750
X1.44221Y4.82750
X1.44221Y4.92750
X1.44221Y5.02750
X1.44221Y5.12750
X1.44221Y5.22750
X1.44221Y5.32750
X1.44221Y5.82750
X1.44221Y5.92750
X1.44221Y6.02750
X1.44221Y6.12750
X1.44221Y6.22750
X1.44221Y6.32750
X1.44221Y6.42750
X1.44221Y6.52750
X1.44221Y6.62750
X1.44221Y6.72750
X1.44221Y6.82750
X1.44221Y6.92750
X1.44221Y7.02750
X1.44221Y7.12750
X1.44221Y7.22750
X1.44221Y7.32750
X1.44221Y7.42750
X1.44221Y7.52750
X1.44221Y7.62750
X1.44221Y7.72750
X1.44221Y7.82750
X1.46721Y0.30250
X1.46721Y0.60250
T004
X0.19221Y0.27750
X0.19221Y0.37750
X0.19221Y0.47750
X0.19221Y0.57750
X0.19221Y0.67750
X0.19221Y0.77750
X0.19221Y0.87750
X0.19221Y0.97750
X0.19221Y1.07750
X0.19221Y1.17750
X0.19221Y1.27750
X0.19221Y1.37750
X0.19221Y1.47750
X0.19221Y1.57750
X0.19221Y1.67750
X0.19221Y1.77750
X0.19221Y1.87750
X0.19221Y1.97750
X0.19221Y2.07750
X0.19221Y2.17750
X0.19221Y2.27750
X0.19221Y2.37750
X0.19221Y2.47750
X0.19221Y2.57750
X0.19221Y2.67750
X0.19221Y2.77750
X0.19221Y2.87750
X0.19221Y2.97750
X0.19221Y3.07750
X0.19221Y3.17750
X0.19221Y3.27750
X0.19221Y3.37750
X0.19221Y3.47750
X0.19221Y3.57750
X0.19221Y3.67750
X0.19221Y3.77750
X0.19221Y3.87750
X0.19221Y3.97750
X0.19221Y4.07750
X0.19221Y4.17750
X0.19221Y4.27750
X0.19221Y4.37750
X0.19221Y4.47750
X0.19221Y4.57750
X0.19221Y4.67750
X0.19221Y4.77750
X0.19221Y4.87750
X0.19221Y4.97750
X0.19221Y5.07750
X0.19221Y5.17750
X0.19221Y5.27750
X0.19221Y5.37750
X0.19221Y5.47750
X0.19221Y5.57750
X0.19221Y5.67750
X0.19221Y5.77750
X0.19221Y5.87750
X0.19221Y5.97750
X0.19221Y6.07750
X0.19221Y6.17750
X0.19221Y6.27750
X0.19221Y6.37750
X0.19221Y6.47750
X0.19221Y6.57750
X0.19221Y6.67750
X0.19221Y6.77750
X0.19221Y6.87750
X0.19221Y6.97750
X0.19221Y7.07750
X0.19221Y7.17750
X0.19221Y7.27750
X0.19221Y7.37750
X0.19221Y7.47750
X0.19221Y7.57750
X0.19221Y7.67750
X0.19221Y7.77750
X0.19221Y7.87750
X0.19221Y7.97750
X0.19221Y8.07750
X0.19221Y8.17750
T005
X0.71721Y0.70250
X0.71721Y7.75250
X0.84221Y8.15250
X0.84221Y8.25250
X0.94221Y8.15250
X0.94221Y8.25250
X1.04221Y8.15250
X1.04221Y8.25250
X1.14221Y8.15250
X1.14221Y8.25250
X1.24221Y8.15250
X1.24221Y8.25250
X1.34221Y8.15250
X1.34221Y8.25250
T006
X0.19221Y0.12750
X0.19221Y8.32750
X1.49221Y0.12750
X1.49221Y8.32750
M30
