G04 DesignSpark PCB Gerber Version 13.0 Build *
%FSLAX35Y35*%
%MOIN*%
%ADD19R,0.06000X0.06000*%
%ADD20O,0.06000X0.11000*%
%ADD14C,0.01500*%
%ADD15C,0.04800*%
%ADD12C,0.05000*%
%ADD71C,0.05512*%
%ADD13C,0.05600*%
%ADD70C,0.06000*%
%ADD18C,0.06614*%
%ADD16C,0.10000*%
%ADD17O,0.11000X0.06000*%
X0Y0D02*
D02*
D12*
X31721Y832750D02*
X59221D01*
Y820388D01*
X49221Y812514D02*
X59221D01*
X49221Y820388D02*
X59221D01*
Y25112D02*
Y12750D01*
X31721D01*
X59221Y25112D02*
X49221D01*
X59221Y32986D02*
X49221D01*
X59221Y40860D02*
X79221D01*
X59221D02*
X49221D01*
X59221Y804640D02*
X49221D01*
X71721Y12750D02*
X79221D01*
Y40860D01*
X71721Y20250D02*
Y12750D01*
Y70250D02*
Y60250D01*
Y785250D02*
Y775250D01*
Y825250D02*
Y805250D01*
X59831D01*
X59221Y804640D01*
X71721Y825250D02*
Y832750D01*
X79221Y40860D02*
Y70250D01*
X86721Y287750D02*
X84221D01*
Y267750D01*
X86721Y542750D02*
X84221D01*
Y522750D01*
X86721Y792750D02*
X84221D01*
Y772750D01*
X94221Y815250D02*
Y805250D01*
X99221D01*
Y792750D01*
Y542750D02*
Y287750D01*
Y792750D02*
Y542750D01*
X104221Y825250D02*
Y815250D01*
X106721Y277750D02*
Y77750D01*
Y287750D02*
Y277750D01*
Y332750D02*
Y287750D01*
Y532750D02*
Y332750D01*
Y542750D02*
Y532750D01*
Y582750D02*
Y542750D01*
Y782750D02*
Y582750D01*
Y792750D02*
Y782750D01*
Y792750D02*
Y807750D01*
X104221Y810250D01*
Y815250D01*
X114221D02*
Y70250D01*
X79221D01*
X134221Y815250D02*
X144221D01*
Y782750D01*
X141721Y277750D02*
Y270250D01*
X144221Y267750D01*
Y522750D02*
X134221D01*
Y322750D01*
X141721D01*
Y277750D01*
X144221Y532750D02*
Y522750D01*
Y772750D02*
X134221D01*
Y572750D01*
X144221D01*
Y532750D01*
Y782750D02*
Y772750D01*
D02*
D13*
X99221Y287750D03*
Y542750D03*
Y792750D03*
X106721Y77750D03*
Y332750D03*
Y582750D03*
X141721Y277750D03*
X144221Y532750D03*
Y782750D03*
D02*
D14*
X49221Y48734D02*
X59221D01*
X49221Y56608D02*
X59221D01*
X49221Y64482D02*
X59221D01*
X49221Y72356D02*
X59221D01*
X49221Y80230D02*
X59221D01*
X49221Y88104D02*
X59221D01*
X49221Y95978D02*
X59221D01*
X49221Y103852D02*
X59221D01*
X49221Y111726D02*
X59221D01*
X49221Y119600D02*
X59221D01*
X49221Y127474D02*
X59221D01*
X49221Y135348D02*
X59221D01*
X49221Y143222D02*
X59221D01*
X49221Y151096D02*
X59221D01*
X49221Y158970D02*
X59221D01*
X49221Y166844D02*
X59221D01*
X49221Y174719D02*
X59221D01*
X49221Y182593D02*
X59221D01*
X49221Y190467D02*
X59221D01*
X49221Y198341D02*
X59221D01*
X49221Y206215D02*
X59221D01*
X49221Y214089D02*
X59221D01*
X49221Y221963D02*
X59221D01*
X49221Y229837D02*
X59221D01*
X49221Y237711D02*
X59221D01*
X49221Y245585D02*
X59221D01*
X49221Y253459D02*
X59221D01*
X49221Y261333D02*
X59221D01*
X49221Y269207D02*
X59221D01*
X49221Y277081D02*
X59221D01*
X49221Y284955D02*
X59221D01*
X49221Y292829D02*
X59221D01*
X49221Y300703D02*
X59221D01*
X49221Y308577D02*
X59221D01*
X49221Y316451D02*
X59221D01*
X49221Y324325D02*
X59221D01*
X49221Y332199D02*
X59221D01*
X49221Y340073D02*
X59221D01*
X49221Y347947D02*
X59221D01*
X49221Y355821D02*
X59221D01*
X49221Y363695D02*
X59221D01*
X49221Y371569D02*
X59221D01*
X49221Y379443D02*
X59221D01*
X49221Y387317D02*
X59221D01*
X49221Y395191D02*
X59221D01*
X49221Y403065D02*
X59221D01*
X49221Y410939D02*
X59221D01*
X49221Y418813D02*
X59221D01*
X49221Y426687D02*
X59221D01*
X49221Y434561D02*
X59221D01*
X49221Y442435D02*
X59221D01*
X49221Y450309D02*
X59221D01*
X49221Y458183D02*
X59221D01*
X49221Y466057D02*
X59221D01*
X49221Y473931D02*
X59221D01*
X49221Y481805D02*
X59221D01*
X49221Y489679D02*
X59221D01*
X49221Y497553D02*
X59221D01*
X49221Y505427D02*
X59221D01*
X49221Y513301D02*
X59221D01*
X49221Y521175D02*
X59221D01*
X49221Y529049D02*
X59221D01*
X49221Y536923D02*
X59221D01*
X49221Y544797D02*
X59221D01*
X49221Y552671D02*
X59221D01*
X49221Y560545D02*
X59221D01*
X49221Y568419D02*
X59221D01*
X49221Y576293D02*
X59221D01*
X49221Y584167D02*
X59221D01*
X49221Y592041D02*
X59221D01*
X49221Y599915D02*
X59221D01*
X49221Y607789D02*
X59221D01*
X49221Y615663D02*
X59221D01*
X49221Y623537D02*
X59221D01*
X49221Y631411D02*
X59221D01*
X49221Y639285D02*
X59221D01*
X49221Y647159D02*
X59221D01*
X49221Y655033D02*
X59221D01*
X49221Y662907D02*
X59221D01*
X49221Y670781D02*
X59221D01*
X49221Y678656D02*
X59221D01*
X49221Y686530D02*
X59221D01*
X49221Y694404D02*
X59221D01*
X49221Y702278D02*
X59221D01*
X49221Y710152D02*
X59221D01*
X49221Y718026D02*
X59221D01*
X49221Y725900D02*
X59221D01*
X49221Y733774D02*
X59221D01*
X49221Y741648D02*
X59221D01*
X49221Y749522D02*
X59221D01*
X49221Y757396D02*
X59221D01*
X49221Y765270D02*
X59221D01*
X49221Y773144D02*
X59221D01*
X49221Y781018D02*
X59221D01*
X49221Y788892D02*
X59221D01*
X49221Y796766D02*
X59221D01*
Y88104D02*
X69221D01*
Y97750D01*
X71721D01*
X59221Y103852D02*
X66721D01*
X59221Y119600D02*
X66721D01*
X59221Y135348D02*
X74221D01*
Y142750D01*
X79221D01*
X84221Y147750D01*
X59221Y151096D02*
X74221D01*
Y152750D01*
X79221D01*
X84221Y157750D01*
X59221Y166844D02*
X83316D01*
X84221Y167750D01*
X59221Y182593D02*
X79379D01*
X84221Y177750D01*
X59221Y198341D02*
X74221D01*
Y192750D01*
X79221D01*
X84221Y187750D01*
X59221Y214089D02*
X71721D01*
Y210250D01*
X74221D01*
Y202750D01*
X79221D01*
X84221Y197750D01*
X59221Y229837D02*
X69221D01*
Y227750D01*
X71721D01*
Y220250D01*
X74221D01*
Y212750D01*
X79221D01*
X84221Y207750D01*
X59221Y245585D02*
X66721D01*
Y242750D01*
X69221D01*
Y237750D01*
X71721D01*
Y230250D01*
X74221D01*
Y222750D01*
X79221D01*
X84221Y217750D01*
X59221Y261333D02*
X69221D01*
Y247750D01*
X71721D01*
Y240250D01*
X74221D01*
Y232750D01*
X79221D01*
X59221Y277081D02*
X69221D01*
Y270250D01*
X71721Y267750D01*
Y250250D01*
X74221D01*
Y242750D01*
X79221D01*
X84221Y237750D01*
X59221Y292829D02*
X71721D01*
Y272750D01*
X74221Y270250D01*
Y252750D01*
X79221D01*
X84221Y247750D01*
X59221Y308577D02*
X66721D01*
Y320250D01*
X71721D01*
Y332750D01*
X74221D01*
Y347750D01*
X79221D01*
X84221Y352750D01*
X59221Y324325D02*
X69221D01*
Y335250D01*
X71721D01*
Y350250D01*
X74221D01*
Y357750D01*
X79221D01*
X84221Y362750D01*
X59221Y340073D02*
X69221D01*
Y352750D01*
X71721D01*
X59221Y387317D02*
X71721D01*
X59221Y403065D02*
X74221D01*
Y407750D01*
X79221D01*
X84221Y412750D01*
X59221Y418813D02*
X80284D01*
X84221Y422750D01*
X59221Y434561D02*
X74221D01*
X59221Y450309D02*
X74221D01*
Y447750D01*
X79221D01*
X84221Y442750D01*
X59221Y466057D02*
X71721D01*
Y462750D01*
X74221D01*
Y457750D01*
X79221D01*
X84221Y452750D01*
X59221Y481805D02*
X71721D01*
Y475250D01*
X74221D01*
Y467750D01*
X79221D01*
X84221Y462750D01*
X59221Y497553D02*
X69221D01*
Y492750D01*
X71721D01*
Y485250D01*
X74221D01*
Y477750D01*
X79221D01*
X84221Y472750D01*
X59221Y513301D02*
X69221D01*
Y502750D01*
X71721D01*
Y495250D01*
X74221D01*
Y487750D01*
X79221D01*
X84221Y482750D01*
X59221Y529049D02*
X69221D01*
Y525250D01*
X71721Y522750D01*
Y505250D01*
X74221D01*
Y497750D01*
X79221D01*
X84221Y492750D01*
X59221Y544797D02*
X71721D01*
Y527750D01*
X74221Y525250D01*
Y507750D01*
X79221D01*
X84221Y502750D01*
X59221Y560545D02*
X74221D01*
Y597750D01*
X79221D01*
X84221Y602750D01*
X59221Y576293D02*
X71721D01*
Y600250D01*
X74221D01*
Y607750D01*
X79221D01*
X84221Y612750D01*
X59221Y607789D02*
X69221D01*
Y612750D01*
X71721D01*
Y620250D01*
X74221D01*
Y627750D01*
X79221D01*
X84221Y632750D01*
X59221Y639285D02*
X66721D01*
X59221Y655033D02*
X74221D01*
Y657750D01*
X79221D01*
X84221Y662750D01*
X59221Y670781D02*
X82253D01*
X84221Y672750D01*
X59221Y686530D02*
X80442D01*
X84221Y682750D01*
X59221Y702278D02*
X74221D01*
Y697750D01*
X79221D01*
X84221Y692750D01*
X59221Y718026D02*
X69221D01*
Y715250D01*
X74221D01*
Y707750D01*
X79221D01*
X84221Y702750D01*
X59221Y733774D02*
X69221D01*
Y732750D01*
X71721D01*
X59221Y749522D02*
X66721D01*
Y742750D01*
X71721D01*
Y735250D01*
X74221D01*
Y727750D01*
X59221Y765270D02*
X69221D01*
Y745250D01*
X74221D01*
Y737750D01*
X79221D01*
X84221Y732750D01*
X59221Y796766D02*
X76721D01*
Y770250D01*
X74221D01*
X66721Y592041D02*
X59221D01*
X66721Y623537D02*
X59221D01*
X74221Y434561D02*
X82410D01*
X84221Y432750D01*
X74221Y727750D02*
X79221D01*
X84221Y722750D01*
X79221Y232750D02*
X84221Y227750D01*
Y87750D02*
X94221D01*
Y342750D01*
X84221Y97750D02*
X79221Y92750D01*
X74221D01*
Y80250D01*
X66721D01*
Y56608D01*
X59221D01*
X84221Y107750D02*
X79221Y102750D01*
X74221D01*
Y95250D01*
X71721D01*
Y82750D01*
X64221D01*
Y72356D01*
X59221D01*
X84221Y117750D02*
X79221Y112750D01*
X74221D01*
Y105250D01*
X71721D01*
Y97750D01*
X84221Y127750D02*
X79221Y122750D01*
X74221D01*
Y115250D01*
X71721D01*
Y107750D01*
X69221D01*
Y103852D01*
X66721D01*
X84221Y137750D02*
X79221Y132750D01*
X74221D01*
Y125250D01*
X71721D01*
Y119600D01*
X66721D01*
X84221Y257750D02*
X86721D01*
X91721Y262750D01*
Y295250D01*
X86721Y300250D01*
X84221Y372750D02*
X79221Y367750D01*
X74221D01*
Y360250D01*
X71721D01*
Y352750D01*
X84221Y382750D02*
X79221Y377750D01*
X74221D01*
Y370250D01*
X71721D01*
Y362750D01*
X69221D01*
Y355821D01*
X59221D01*
X84221Y392750D02*
X79221Y387750D01*
X74221D01*
Y380250D01*
X71721D01*
Y375250D01*
X69221D01*
Y371569D01*
X59221D01*
X84221Y402750D02*
X79221Y397750D01*
X74221D01*
Y390250D01*
X71721D01*
Y387317D01*
X84221Y622750D02*
X79221Y617750D01*
X74221D01*
Y610250D01*
X71721D01*
Y602750D01*
X69221D01*
Y592041D01*
X66721D01*
X84221Y642750D02*
X79221Y637750D01*
X74221D01*
Y630250D01*
X71721D01*
Y623537D01*
X66721D01*
X84221Y652750D02*
X79221Y647750D01*
X74221D01*
Y642750D01*
X71721D01*
Y639285D01*
X66721D01*
X84221Y712750D02*
X79221Y717750D01*
X74221D01*
Y725250D01*
X71721D01*
Y732750D01*
X84221Y742750D02*
X79221Y747750D01*
X71721D01*
Y770250D01*
X66721D01*
Y781018D01*
X59221D01*
X84221Y752750D02*
X74221D01*
Y770250D01*
X94221Y342750D02*
X84221D01*
X94221Y592750D02*
Y797750D01*
X89221Y802750D01*
Y820250D01*
X94221Y825250D01*
Y592750D02*
Y342750D01*
Y592750D02*
X84221D01*
X121721Y332750D02*
Y77750D01*
Y582750D02*
Y802750D01*
Y582750D02*
Y332750D01*
X124221Y815250D02*
X129221Y810250D01*
X134221D01*
Y780250D01*
X126721Y772750D01*
Y592750D01*
Y342750D02*
Y320250D01*
X134221Y312750D01*
Y275250D01*
X126721Y267750D01*
Y87750D01*
Y592750D02*
Y570250D01*
X134221Y562750D01*
Y530250D01*
X126721Y522750D01*
Y342750D01*
X149221Y300250D02*
X154221D01*
Y820250D01*
X119221D01*
X114221Y825250D01*
D02*
D15*
X121721Y77750D03*
Y332750D03*
Y582750D03*
Y802750D03*
X126721Y87750D03*
Y342750D03*
Y592750D03*
X149221Y300250D03*
D02*
D16*
X19221Y12750D03*
Y832750D03*
X149221Y12750D03*
Y832750D03*
D02*
D17*
X84221Y77750D03*
Y87750D03*
Y97750D03*
Y107750D03*
Y117750D03*
Y127750D03*
Y137750D03*
Y147750D03*
Y157750D03*
Y167750D03*
Y177750D03*
Y187750D03*
Y197750D03*
Y207750D03*
Y217750D03*
Y227750D03*
Y237750D03*
Y247750D03*
Y257750D03*
Y267750D03*
Y332750D03*
Y342750D03*
Y352750D03*
Y362750D03*
Y372750D03*
Y382750D03*
Y392750D03*
Y402750D03*
Y412750D03*
Y422750D03*
Y432750D03*
Y442750D03*
Y452750D03*
Y462750D03*
Y472750D03*
Y482750D03*
Y492750D03*
Y502750D03*
Y512750D03*
Y522750D03*
Y582750D03*
Y592750D03*
Y602750D03*
Y612750D03*
Y622750D03*
Y632750D03*
Y642750D03*
Y652750D03*
Y662750D03*
Y672750D03*
Y682750D03*
Y692750D03*
Y702750D03*
Y712750D03*
Y722750D03*
Y732750D03*
Y742750D03*
Y752750D03*
Y762750D03*
Y772750D03*
X144221Y77750D03*
Y87750D03*
Y97750D03*
Y107750D03*
Y117750D03*
Y127750D03*
Y137750D03*
Y147750D03*
Y157750D03*
Y167750D03*
Y177750D03*
Y187750D03*
Y197750D03*
Y207750D03*
Y217750D03*
Y227750D03*
Y237750D03*
Y247750D03*
Y257750D03*
Y267750D03*
Y332750D03*
Y342750D03*
Y352750D03*
Y362750D03*
Y372750D03*
Y382750D03*
Y392750D03*
Y402750D03*
Y412750D03*
Y422750D03*
Y432750D03*
Y442750D03*
Y452750D03*
Y462750D03*
Y472750D03*
Y482750D03*
Y492750D03*
Y502750D03*
Y512750D03*
Y522750D03*
Y582750D03*
Y592750D03*
Y602750D03*
Y612750D03*
Y622750D03*
Y632750D03*
Y642750D03*
Y652750D03*
Y662750D03*
Y672750D03*
Y682750D03*
Y692750D03*
Y702750D03*
Y712750D03*
Y722750D03*
Y732750D03*
Y742750D03*
Y752750D03*
Y762750D03*
Y772750D03*
D02*
D18*
X19221Y27750D03*
Y37750D03*
Y47750D03*
Y57750D03*
Y67750D03*
Y77750D03*
Y87750D03*
Y97750D03*
Y107750D03*
Y117750D03*
Y127750D03*
Y137750D03*
Y147750D03*
Y157750D03*
Y167750D03*
Y177750D03*
Y187750D03*
Y197750D03*
Y207750D03*
Y217750D03*
Y227750D03*
Y237750D03*
Y247750D03*
Y257750D03*
Y267750D03*
Y277750D03*
Y287750D03*
Y297750D03*
Y307750D03*
Y317750D03*
Y327750D03*
Y337750D03*
Y347750D03*
Y357750D03*
Y367750D03*
Y377750D03*
Y387750D03*
Y397750D03*
Y407750D03*
Y417750D03*
Y427750D03*
Y437750D03*
Y447750D03*
Y457750D03*
Y467750D03*
Y477750D03*
Y487750D03*
Y497750D03*
Y507750D03*
Y517750D03*
Y527750D03*
Y537750D03*
Y547750D03*
Y557750D03*
Y567750D03*
Y577750D03*
Y587750D03*
Y597750D03*
Y607750D03*
Y617750D03*
Y627750D03*
Y637750D03*
Y647750D03*
Y657750D03*
Y667750D03*
Y677750D03*
Y687750D03*
Y697750D03*
Y707750D03*
Y717750D03*
Y727750D03*
Y737750D03*
Y747750D03*
Y757750D03*
Y767750D03*
Y777750D03*
Y787750D03*
Y797750D03*
Y807750D03*
Y817750D03*
D02*
D19*
X71721Y70250D03*
Y775250D03*
X84221Y815250D03*
Y825250D03*
X94221Y815250D03*
Y825250D03*
X104221Y815250D03*
Y825250D03*
X114221Y815250D03*
Y825250D03*
X124221Y815250D03*
Y825250D03*
X134221Y815250D03*
Y825250D03*
D02*
D70*
X31721Y12750D03*
Y832750D03*
X71721Y12750D03*
Y20250D03*
Y60250D03*
Y785250D03*
Y825250D03*
Y832750D03*
X86721Y287750D03*
Y300250D03*
Y542750D03*
Y792750D03*
X106721Y277750D03*
Y287750D03*
Y532750D03*
Y542750D03*
Y782750D03*
Y792750D03*
X126721Y277750D03*
Y300250D03*
Y532750D03*
Y782750D03*
D02*
D71*
X29221Y25112D03*
Y32986D03*
Y40860D03*
Y48734D03*
Y56608D03*
Y64482D03*
Y72356D03*
Y80230D03*
Y88104D03*
Y95978D03*
Y103852D03*
Y111726D03*
Y119600D03*
Y127474D03*
Y135348D03*
Y143222D03*
Y151096D03*
Y158970D03*
Y166844D03*
Y174719D03*
Y182593D03*
Y190467D03*
Y198341D03*
Y206215D03*
Y214089D03*
Y221963D03*
Y229837D03*
Y237711D03*
Y245585D03*
Y253459D03*
Y261333D03*
Y269207D03*
Y277081D03*
Y284955D03*
Y292829D03*
Y300703D03*
Y308577D03*
Y316451D03*
Y324325D03*
Y332199D03*
Y340073D03*
Y347947D03*
Y355821D03*
Y363695D03*
Y371569D03*
Y379443D03*
Y387317D03*
Y395191D03*
Y403065D03*
Y410939D03*
Y418813D03*
Y426687D03*
Y434561D03*
Y442435D03*
Y450309D03*
Y458183D03*
Y466057D03*
Y473931D03*
Y481805D03*
Y489679D03*
Y497553D03*
Y505427D03*
Y513301D03*
Y521175D03*
Y529049D03*
Y536923D03*
Y544797D03*
Y552671D03*
Y560545D03*
Y568419D03*
Y576293D03*
Y584167D03*
Y592041D03*
Y599915D03*
Y607789D03*
Y615663D03*
Y623537D03*
Y631411D03*
Y639285D03*
Y647159D03*
Y655033D03*
Y662907D03*
Y670781D03*
Y678656D03*
Y686530D03*
Y694404D03*
Y702278D03*
Y710152D03*
Y718026D03*
Y725900D03*
Y733774D03*
Y741648D03*
Y749522D03*
Y757396D03*
Y765270D03*
Y773144D03*
Y781018D03*
Y788892D03*
Y796766D03*
Y804640D03*
Y812514D03*
Y820388D03*
X39221Y25112D03*
Y32986D03*
Y40860D03*
Y48734D03*
Y56608D03*
Y64482D03*
Y72356D03*
Y80230D03*
Y88104D03*
Y95978D03*
Y103852D03*
Y111726D03*
Y119600D03*
Y127474D03*
Y135348D03*
Y143222D03*
Y151096D03*
Y158970D03*
Y166844D03*
Y174719D03*
Y182593D03*
Y190467D03*
Y198341D03*
Y206215D03*
Y214089D03*
Y221963D03*
Y229837D03*
Y237711D03*
Y245585D03*
Y253459D03*
Y261333D03*
Y269207D03*
Y277081D03*
Y284955D03*
Y292829D03*
Y300703D03*
Y308577D03*
Y316451D03*
Y324325D03*
Y332199D03*
Y340073D03*
Y347947D03*
Y355821D03*
Y363695D03*
Y371569D03*
Y379443D03*
Y387317D03*
Y395191D03*
Y403065D03*
Y410939D03*
Y418813D03*
Y426687D03*
Y434561D03*
Y442435D03*
Y450309D03*
Y458183D03*
Y466057D03*
Y473931D03*
Y481805D03*
Y489679D03*
Y497553D03*
Y505427D03*
Y513301D03*
Y521175D03*
Y529049D03*
Y536923D03*
Y544797D03*
Y552671D03*
Y560545D03*
Y568419D03*
Y576293D03*
Y584167D03*
Y592041D03*
Y599915D03*
Y607789D03*
Y615663D03*
Y623537D03*
Y631411D03*
Y639285D03*
Y647159D03*
Y655033D03*
Y662907D03*
Y670781D03*
Y678656D03*
Y686530D03*
Y694404D03*
Y702278D03*
Y710152D03*
Y718026D03*
Y725900D03*
Y733774D03*
Y741648D03*
Y749522D03*
Y757396D03*
Y765270D03*
Y773144D03*
Y781018D03*
Y788892D03*
Y796766D03*
Y804640D03*
Y812514D03*
Y820388D03*
X49221Y25112D03*
Y32986D03*
Y40860D03*
Y48734D03*
Y56608D03*
Y64482D03*
Y72356D03*
Y80230D03*
Y88104D03*
Y95978D03*
Y103852D03*
Y111726D03*
Y119600D03*
Y127474D03*
Y135348D03*
Y143222D03*
Y151096D03*
Y158970D03*
Y166844D03*
Y174719D03*
Y182593D03*
Y190467D03*
Y198341D03*
Y206215D03*
Y214089D03*
Y221963D03*
Y229837D03*
Y237711D03*
Y245585D03*
Y253459D03*
Y261333D03*
Y269207D03*
Y277081D03*
Y284955D03*
Y292829D03*
Y300703D03*
Y308577D03*
Y316451D03*
Y324325D03*
Y332199D03*
Y340073D03*
Y347947D03*
Y355821D03*
Y363695D03*
Y371569D03*
Y379443D03*
Y387317D03*
Y395191D03*
Y403065D03*
Y410939D03*
Y418813D03*
Y426687D03*
Y434561D03*
Y442435D03*
Y450309D03*
Y458183D03*
Y466057D03*
Y473931D03*
Y481805D03*
Y489679D03*
Y497553D03*
Y505427D03*
Y513301D03*
Y521175D03*
Y529049D03*
Y536923D03*
Y544797D03*
Y552671D03*
Y560545D03*
Y568419D03*
Y576293D03*
Y584167D03*
Y592041D03*
Y599915D03*
Y607789D03*
Y615663D03*
Y623537D03*
Y631411D03*
Y639285D03*
Y647159D03*
Y655033D03*
Y662907D03*
Y670781D03*
Y678656D03*
Y686530D03*
Y694404D03*
Y702278D03*
Y710152D03*
Y718026D03*
Y725900D03*
Y733774D03*
Y741648D03*
Y749522D03*
Y757396D03*
Y765270D03*
Y773144D03*
Y781018D03*
Y788892D03*
Y796766D03*
Y804640D03*
Y812514D03*
Y820388D03*
X59221Y25112D03*
Y32986D03*
Y40860D03*
Y48734D03*
Y56608D03*
Y64482D03*
Y72356D03*
Y80230D03*
Y88104D03*
Y95978D03*
Y103852D03*
Y111726D03*
Y119600D03*
Y127474D03*
Y135348D03*
Y143222D03*
Y151096D03*
Y158970D03*
Y166844D03*
Y174719D03*
Y182593D03*
Y190467D03*
Y198341D03*
Y206215D03*
Y214089D03*
Y221963D03*
Y229837D03*
Y237711D03*
Y245585D03*
Y253459D03*
Y261333D03*
Y269207D03*
Y277081D03*
Y284955D03*
Y292829D03*
Y300703D03*
Y308577D03*
Y316451D03*
Y324325D03*
Y332199D03*
Y340073D03*
Y347947D03*
Y355821D03*
Y363695D03*
Y371569D03*
Y379443D03*
Y387317D03*
Y395191D03*
Y403065D03*
Y410939D03*
Y418813D03*
Y426687D03*
Y434561D03*
Y442435D03*
Y450309D03*
Y458183D03*
Y466057D03*
Y473931D03*
Y481805D03*
Y489679D03*
Y497553D03*
Y505427D03*
Y513301D03*
Y521175D03*
Y529049D03*
Y536923D03*
Y544797D03*
Y552671D03*
Y560545D03*
Y568419D03*
Y576293D03*
Y584167D03*
Y592041D03*
Y599915D03*
Y607789D03*
Y615663D03*
Y623537D03*
Y631411D03*
Y639285D03*
Y647159D03*
Y655033D03*
Y662907D03*
Y670781D03*
Y678656D03*
Y686530D03*
Y694404D03*
Y702278D03*
Y710152D03*
Y718026D03*
Y725900D03*
Y733774D03*
Y741648D03*
Y749522D03*
Y757396D03*
Y765270D03*
Y773144D03*
Y781018D03*
Y788892D03*
Y796766D03*
Y804640D03*
Y812514D03*
Y820388D03*
D02*
D20*
X86721Y30250D03*
Y60250D03*
X96721Y30250D03*
Y60250D03*
X106721Y30250D03*
Y60250D03*
X116721Y30250D03*
Y60250D03*
X126721Y30250D03*
Y60250D03*
X136721Y30250D03*
Y60250D03*
X146721Y30250D03*
Y60250D03*
X0Y0D02*
M02*
