G04 DesignSpark PCB Gerber Version 13.0 Build *
%FSLAX35Y35*%
%MOIN*%
%ADD11C,0.00500*%
%ADD10C,0.01000*%
X0Y0D02*
D02*
D10*
X66721Y75250D02*
Y65250D01*
X76721D01*
Y75250D01*
X66721D01*
Y295313D02*
X69221D01*
Y296563D02*
X66721D01*
Y547813D02*
X69221D01*
Y549063D02*
X66721D01*
Y780250D02*
Y770250D01*
X76721D01*
Y780250D01*
X66721D01*
X79221Y810250D02*
X139221D01*
Y830250D01*
X79221D01*
Y810250D01*
X84221Y22437D02*
Y19625D01*
X84534Y19000D01*
X85159Y18687D01*
X86409D01*
X87034Y19000D01*
X87346Y19625D01*
Y22437D01*
X89221Y18687D02*
Y21187D01*
Y20250D02*
X89534Y20875D01*
X90159Y21187D01*
X90784D01*
X91409Y20875D01*
X91721Y20250D01*
Y18687D01*
X95471D02*
Y21187D01*
Y22125D02*
X99221Y21187D02*
X100471Y18687D01*
X101721Y21187D01*
X106721Y19000D02*
X106409Y18687D01*
X105784D01*
X105159D01*
X104534Y19000D01*
X104221Y19625D01*
Y20563D01*
X104534Y20875D01*
X105159Y21187D01*
X105784D01*
X106409Y20875D01*
X106721Y20563D01*
Y20250D01*
X106409Y19937D01*
X105784Y19625D01*
X105159D01*
X104534Y19937D01*
X104221Y20250D01*
X109221Y18687D02*
Y21187D01*
Y20250D02*
X109534Y20875D01*
X110159Y21187D01*
X110784D01*
X111409Y20875D01*
X114221Y19000D02*
X114846Y18687D01*
X116096D01*
X116721Y19000D01*
Y19625D01*
X116096Y19937D01*
X114846D01*
X114221Y20250D01*
Y20875D01*
X114846Y21187D01*
X116096D01*
X116721Y20875D01*
X119221D02*
X119846Y21187D01*
X120784D01*
X121409Y20875D01*
X121721Y20250D01*
Y19313D01*
X121409Y19000D01*
X120784Y18687D01*
X120159D01*
X119534Y19000D01*
X119221Y19313D01*
Y19625D01*
X119534Y19937D01*
X120159Y20250D01*
X120784D01*
X121409Y19937D01*
X121721Y19625D01*
Y19313D02*
Y18687D01*
X125784D02*
X125471D01*
Y22437D01*
X84221Y16437D02*
X85784Y12687D01*
X87346Y16437D01*
X89221Y12687D02*
Y16437D01*
X92346D01*
X91721Y14563D02*
X89221D01*
X94221Y12687D02*
Y16437D01*
X96096D01*
X96721Y16125D01*
X97034Y15813D01*
X97346Y15187D01*
Y13937D01*
X97034Y13313D01*
X96721Y13000D01*
X96096Y12687D01*
X94221D01*
X104221Y16437D02*
X105784Y12687D01*
X107346Y16437D01*
X109846Y12687D02*
X111096D01*
X110471D02*
Y16437D01*
X109846Y15813D01*
X114534Y12687D02*
X114846Y13000D01*
X114534Y13313D01*
X114221Y13000D01*
X114534Y12687D01*
X119846D02*
X121096D01*
X120471D02*
Y16437D01*
X119846Y15813D01*
X124534Y13000D02*
X125159Y12687D01*
X125784D01*
X126409Y13000D01*
X126721Y13625D01*
Y15500D01*
X126409Y16125D01*
X125784Y16437D01*
X125159D01*
X124534Y16125D01*
X124221Y15500D01*
Y13625D01*
X124534Y13000D01*
X126409Y16125D01*
D02*
D11*
X13946Y823026D02*
Y22474D01*
X24497D01*
Y823026D01*
X13946D01*
X14221Y825250D02*
G75*
G03*
Y820620I0J-2315D01*
G01*
G75*
G03*
Y825250I0J2315D01*
G01*
G36*
X14221Y825250D02*
G75*
G03*
Y820620I0J-2315D01*
G01*
G75*
G03*
Y825250I0J2315D01*
G01*
G37*
X24221Y825388D02*
G75*
G03*
Y821750I0J-1819D01*
G01*
G75*
G03*
Y825388I0J1819D01*
G01*
G36*
X24221Y825388D02*
G75*
G03*
Y821750I0J-1819D01*
G01*
G75*
G03*
Y825388I0J1819D01*
G01*
G37*
X24253Y824955D02*
Y20545D01*
X34190D01*
Y824955D01*
X24253D01*
X34221Y825388D02*
G75*
G03*
Y821750I0J-1819D01*
G01*
G75*
G03*
Y825388I0J1819D01*
G01*
G36*
X34221Y825388D02*
G75*
G03*
Y821750I0J-1819D01*
G01*
G75*
G03*
Y825388I0J1819D01*
G01*
G37*
X34253Y824955D02*
Y20545D01*
X44190D01*
Y824955D01*
X34253D01*
X36721Y12750D02*
X41721D01*
X36721Y832750D02*
X41721D01*
Y7750D02*
Y17750D01*
X61721D01*
Y7750D01*
X41721D01*
Y827750D02*
Y837750D01*
X61721D01*
Y827750D01*
X41721D01*
X44221Y11187D02*
Y14937D01*
X46409D01*
X47034Y14625D01*
X47346Y14000D01*
X47034Y13375D01*
X46409Y13063D01*
X44221D01*
X46409D02*
X47346Y11187D01*
X50784D02*
Y14937D01*
X49221Y12437D01*
X51721D01*
X44221Y825388D02*
G75*
G03*
Y821750I0J-1819D01*
G01*
G75*
G03*
Y825388I0J1819D01*
G01*
G36*
X44221Y825388D02*
G75*
G03*
Y821750I0J-1819D01*
G01*
G75*
G03*
Y825388I0J1819D01*
G01*
G37*
Y831187D02*
Y834937D01*
X46409D01*
X47034Y834625D01*
X47346Y834000D01*
X47034Y833375D01*
X46409Y833063D01*
X44221D01*
X46409D02*
X47346Y831187D01*
X49534Y831500D02*
X50159Y831187D01*
X50784D01*
X51409Y831500D01*
X51721Y832125D01*
X51409Y832750D01*
X50784Y833063D01*
X50159D01*
X50784D02*
X51409Y833375D01*
X51721Y834000D01*
X51409Y834625D01*
X50784Y834937D01*
X50159D01*
X49534Y834625D01*
X44253Y824955D02*
Y20545D01*
X54190D01*
Y824955D01*
X44253D01*
X54221Y825388D02*
G75*
G03*
Y821750I0J-1819D01*
G01*
G75*
G03*
Y825388I0J1819D01*
G01*
G36*
X54221Y825388D02*
G75*
G03*
Y821750I0J-1819D01*
G01*
G75*
G03*
Y825388I0J1819D01*
G01*
G37*
X54253Y824955D02*
Y20545D01*
X64190D01*
Y824955D01*
X54253D01*
X61721Y12750D02*
X66721D01*
X61721Y832750D02*
X66721D01*
X66784Y77187D02*
Y80937D01*
X65221D02*
X68346D01*
X70221Y77187D02*
Y80937D01*
X72409D01*
X73034Y80625D01*
X73346Y80000D01*
X73034Y79375D01*
X72409Y79063D01*
X70221D01*
X77721Y77187D02*
X75221D01*
X77409Y79375D01*
X77721Y80000D01*
X77409Y80625D01*
X76784Y80937D01*
X75846D01*
X75221Y80625D01*
X66784Y763687D02*
Y767437D01*
X65221D02*
X68346D01*
X70221Y763687D02*
Y767437D01*
X72409D01*
X73034Y767125D01*
X73346Y766500D01*
X73034Y765875D01*
X72409Y765563D01*
X70221D01*
X75846Y763687D02*
X77096D01*
X76471D02*
Y767437D01*
X75846Y766813D01*
X66721Y50250D02*
X76721D01*
Y30250D01*
X66721D01*
Y50250D01*
X71721Y30250D02*
Y25250D01*
Y55250D02*
Y50250D01*
Y790250D02*
Y795250D01*
Y815250D02*
Y820250D01*
X73284Y32750D02*
X69534D01*
Y34937D01*
X69846Y35563D01*
X70471Y35875D01*
X71096Y35563D01*
X71409Y34937D01*
Y32750D01*
Y34937D02*
X73284Y35875D01*
Y40250D02*
Y37750D01*
X71096Y39937D01*
X70471Y40250D01*
X69846Y39937D01*
X69534Y39313D01*
Y38375D01*
X69846Y37750D01*
X73284Y797750D02*
X69534D01*
Y799937D01*
X69846Y800563D01*
X70471Y800875D01*
X71096Y800563D01*
X71409Y799937D01*
Y797750D01*
Y799937D02*
X73284Y800875D01*
Y803375D02*
Y804625D01*
Y804000D02*
X69534D01*
X70159Y803375D01*
X76721Y795250D02*
X66721D01*
Y815250D01*
X76721D01*
Y795250D01*
X79221Y832687D02*
Y836437D01*
X81409D01*
X82034Y836125D01*
X82346Y835500D01*
X82034Y834875D01*
X81409Y834563D01*
X79221D01*
X84221Y836437D02*
Y832687D01*
X87346D01*
X89846D02*
X91096D01*
X90471D02*
Y836437D01*
X89846Y835813D01*
X95346Y291813D02*
X95034Y291500D01*
X94409Y291187D01*
X93471D01*
X92846Y291500D01*
X92534Y291813D01*
X92221Y292437D01*
Y293687D01*
X92534Y294313D01*
X92846Y294625D01*
X93471Y294937D01*
X94409D01*
X95034Y294625D01*
X95346Y294313D01*
X97846Y291187D02*
X99096D01*
X98471D02*
Y294937D01*
X97846Y294313D01*
X95346Y546813D02*
X95034Y546500D01*
X94409Y546187D01*
X93471D01*
X92846Y546500D01*
X92534Y546813D01*
X92221Y547437D01*
Y548687D01*
X92534Y549313D01*
X92846Y549625D01*
X93471Y549937D01*
X94409D01*
X95034Y549625D01*
X95346Y549313D01*
X99721Y546187D02*
X97221D01*
X99409Y548375D01*
X99721Y549000D01*
X99409Y549625D01*
X98784Y549937D01*
X97846D01*
X97221Y549625D01*
X95346Y796813D02*
X95034Y796500D01*
X94409Y796187D01*
X93471D01*
X92846Y796500D01*
X92534Y796813D01*
X92221Y797437D01*
Y798687D01*
X92534Y799313D01*
X92846Y799625D01*
X93471Y799937D01*
X94409D01*
X95034Y799625D01*
X95346Y799313D01*
X97534Y796500D02*
X98159Y796187D01*
X98784D01*
X99409Y796500D01*
X99721Y797125D01*
X99409Y797750D01*
X98784Y798063D01*
X98159D01*
X98784D02*
X99409Y798375D01*
X99721Y799000D01*
X99409Y799625D01*
X98784Y799937D01*
X98159D01*
X97534Y799625D01*
X94221Y75250D02*
Y270250D01*
X109221D01*
X114221Y265250D01*
X119221Y270250D01*
X134221D01*
Y75250D01*
X94221D01*
Y276437D02*
Y273625D01*
X94534Y273000D01*
X95159Y272687D01*
X96409D01*
X97034Y273000D01*
X97346Y273625D01*
Y276437D01*
X99534Y273000D02*
X100159Y272687D01*
X100784D01*
X101409Y273000D01*
X101721Y273625D01*
X101409Y274250D01*
X100784Y274563D01*
X100159D01*
X100784D02*
X101409Y274875D01*
X101721Y275500D01*
X101409Y276125D01*
X100784Y276437D01*
X100159D01*
X99534Y276125D01*
X94221Y285250D02*
Y290250D01*
X99221D01*
Y285250D01*
X94221D01*
Y287750D02*
X91721D01*
X94221Y330250D02*
Y525250D01*
X109221D01*
X114221Y520250D01*
X119221Y525250D01*
X134221D01*
Y330250D01*
X94221D01*
Y531437D02*
Y528625D01*
X94534Y528000D01*
X95159Y527687D01*
X96409D01*
X97034Y528000D01*
X97346Y528625D01*
Y531437D01*
X101721Y527687D02*
X99221D01*
X101409Y529875D01*
X101721Y530500D01*
X101409Y531125D01*
X100784Y531437D01*
X99846D01*
X99221Y531125D01*
X94221Y540250D02*
Y545250D01*
X99221D01*
Y540250D01*
X94221D01*
Y542750D02*
X91721D01*
X94221Y580250D02*
Y775250D01*
X109221D01*
X114221Y770250D01*
X119221Y775250D01*
X134221D01*
Y580250D01*
X94221D01*
Y781437D02*
Y778625D01*
X94534Y778000D01*
X95159Y777687D01*
X96409D01*
X97034Y778000D01*
X97346Y778625D01*
Y781437D01*
X99846Y777687D02*
X101096D01*
X100471D02*
Y781437D01*
X99846Y780813D01*
X94221Y790250D02*
Y795250D01*
X99221D01*
Y790250D01*
X94221D01*
Y792750D02*
X91721D01*
X96721Y300250D02*
X91721D01*
X99221Y287750D02*
X101721D01*
X99221Y298687D02*
Y302437D01*
X101409D01*
X102034Y302125D01*
X102346Y301500D01*
X102034Y300875D01*
X101409Y300563D01*
X99221D01*
X101409D02*
X102346Y298687D01*
X104221Y299000D02*
X104846Y298687D01*
X105784D01*
X106409Y299000D01*
X106721Y299625D01*
Y299937D01*
X106409Y300563D01*
X105784Y300875D01*
X104221D01*
Y302437D01*
X106721D01*
X99221Y542750D02*
X101721D01*
X99221Y792750D02*
X101721D01*
X114221Y275250D02*
Y280250D01*
X119221D01*
Y275250D01*
X114221D01*
Y277750D02*
X111721D01*
X117346Y281813D02*
X117034Y281500D01*
X116409Y281187D01*
X115471D01*
X114846Y281500D01*
X114534Y281813D01*
X114221Y282437D01*
Y283687D01*
X114534Y284313D01*
X114846Y284625D01*
X115471Y284937D01*
X116409D01*
X117034Y284625D01*
X117346Y284313D01*
X120784Y281187D02*
Y284937D01*
X119221Y282437D01*
X121721D01*
X114221Y530250D02*
Y535250D01*
X119221D01*
Y530250D01*
X114221D01*
Y532750D02*
X111721D01*
X117346Y536813D02*
X117034Y536500D01*
X116409Y536187D01*
X115471D01*
X114846Y536500D01*
X114534Y536813D01*
X114221Y537437D01*
Y538687D01*
X114534Y539313D01*
X114846Y539625D01*
X115471Y539937D01*
X116409D01*
X117034Y539625D01*
X117346Y539313D01*
X119221Y536500D02*
X119846Y536187D01*
X120784D01*
X121409Y536500D01*
X121721Y537125D01*
Y537437D01*
X121409Y538063D01*
X120784Y538375D01*
X119221D01*
Y539937D01*
X121721D01*
X114221Y780250D02*
Y785250D01*
X119221D01*
Y780250D01*
X114221D01*
Y782750D02*
X111721D01*
X117346Y786813D02*
X117034Y786500D01*
X116409Y786187D01*
X115471D01*
X114846Y786500D01*
X114534Y786813D01*
X114221Y787437D01*
Y788687D01*
X114534Y789313D01*
X114846Y789625D01*
X115471Y789937D01*
X116409D01*
X117034Y789625D01*
X117346Y789313D01*
X119221Y787125D02*
X119534Y787750D01*
X120159Y788063D01*
X120784D01*
X121409Y787750D01*
X121721Y787125D01*
X121409Y786500D01*
X120784Y786187D01*
X120159D01*
X119534Y786500D01*
X119221Y787125D01*
Y788063D01*
X119534Y789000D01*
X120159Y789625D01*
X120784Y789937D01*
X116721Y305250D02*
Y295250D01*
X96721D01*
Y305250D01*
X116721D01*
X119221Y277750D02*
X121721D01*
X119221Y532750D02*
X121721D01*
X119221Y782750D02*
X121721D01*
Y300250D02*
X116721D01*
X149221Y40250D02*
X84221D01*
Y42750D01*
X86721Y45250D01*
X84221Y47750D01*
Y50250D01*
X149221D01*
Y40250D01*
X153846D02*
X154471Y40563D01*
X154784Y41187D01*
Y42437D01*
X154471Y43063D01*
X153846Y43375D01*
X153221Y43063D01*
X152909Y42437D01*
Y41187D01*
X152596Y40563D01*
X151971Y40250D01*
X151346Y40563D01*
X151034Y41187D01*
Y42437D01*
X151346Y43063D01*
X151971Y43375D01*
X154784Y45250D02*
X151034D01*
Y47437D01*
X151346Y48063D01*
X151971Y48375D01*
X152596Y48063D01*
X152909Y47437D01*
Y45250D01*
X154784Y50875D02*
Y52125D01*
Y51500D02*
X151034D01*
X151659Y50875D01*
X0Y0D02*
M02*
