G05
M48
;#@! TF.GenerationSoftware,DesignSpark,DesignSpark PCB,13.0.
;#@! TF.CreationDate,2026-01-09T07:29:33--8:00*
;#@! TF.FileFunction,Plated,1,2,PTH
;FILE_FORMAT=3:5
;TYPE=PLATED
INCH,TZ
FMAT,2
T1C000.02400
T2C000.02953
T3C000.03200
T4C000.03386
T5C000.03500
T6C000.09000
%
T001
X1.21721Y0.72888
X1.21721Y3.27888
X1.21721Y5.77888
X1.26721Y0.82888
X1.26721Y3.37888
X1.26721Y5.87888
X1.31721Y2.47888
X1.34221Y7.97888
T002
X0.29221Y0.20250
X0.29221Y0.28124
X0.29221Y0.35998
X0.29221Y0.43872
X0.29221Y0.51746
X0.29221Y0.59620
X0.29221Y0.67494
X0.29221Y0.75368
X0.29221Y0.83242
X0.29221Y0.91116
X0.29221Y0.98990
X0.29221Y1.06864
X0.29221Y1.14738
X0.29221Y1.22612
X0.29221Y1.30486
X0.29221Y1.38360
X0.29221Y1.46234
X0.29221Y1.54108
X0.29221Y1.61982
X0.29221Y1.69856
X0.29221Y1.77730
X0.29221Y1.85604
X0.29221Y1.93478
X0.29221Y2.01352
X0.29221Y2.09226
X0.29221Y2.17100
X0.29221Y2.24974
X0.29221Y2.32848
X0.29221Y2.40722
X0.29221Y2.48596
X0.29221Y2.56470
X0.29221Y2.64344
X0.29221Y2.72219
X0.29221Y2.80093
X0.29221Y2.87967
X0.29221Y2.95841
X0.29221Y3.03715
X0.29221Y3.11589
X0.29221Y3.19463
X0.29221Y3.27337
X0.29221Y3.35211
X0.29221Y3.43085
X0.29221Y3.50959
X0.29221Y3.58833
X0.29221Y3.66707
X0.29221Y3.74581
X0.29221Y3.82455
X0.29221Y3.90329
X0.29221Y3.98203
X0.29221Y4.06077
X0.29221Y4.13951
X0.29221Y4.21825
X0.29221Y4.29699
X0.29221Y4.37573
X0.29221Y4.45447
X0.29221Y4.53321
X0.29221Y4.61195
X0.29221Y4.69069
X0.29221Y4.76943
X0.29221Y4.84817
X0.29221Y4.92691
X0.29221Y5.00565
X0.29221Y5.08439
X0.29221Y5.16313
X0.29221Y5.24187
X0.29221Y5.32061
X0.29221Y5.39935
X0.29221Y5.47809
X0.29221Y5.55683
X0.29221Y5.63557
X0.29221Y5.71431
X0.29221Y5.79305
X0.29221Y5.87179
X0.29221Y5.95053
X0.29221Y6.02927
X0.29221Y6.10801
X0.29221Y6.18675
X0.29221Y6.26549
X0.29221Y6.34423
X0.29221Y6.42297
X0.29221Y6.50171
X0.29221Y6.58045
X0.29221Y6.65919
X0.29221Y6.73793
X0.29221Y6.81667
X0.29221Y6.89541
X0.29221Y6.97415
X0.29221Y7.05289
X0.29221Y7.13163
X0.29221Y7.21037
X0.29221Y7.28911
X0.29221Y7.36785
X0.29221Y7.44659
X0.29221Y7.52533
X0.29221Y7.60407
X0.29221Y7.68281
X0.29221Y7.76156
X0.29221Y7.84030
X0.29221Y7.91904
X0.29221Y7.99778
X0.29221Y8.07652
X0.29221Y8.15526
X0.39221Y0.20250
X0.39221Y0.28124
X0.39221Y0.35998
X0.39221Y0.43872
X0.39221Y0.51746
X0.39221Y0.59620
X0.39221Y0.67494
X0.39221Y0.75368
X0.39221Y0.83242
X0.39221Y0.91116
X0.39221Y0.98990
X0.39221Y1.06864
X0.39221Y1.14738
X0.39221Y1.22612
X0.39221Y1.30486
X0.39221Y1.38360
X0.39221Y1.46234
X0.39221Y1.54108
X0.39221Y1.61982
X0.39221Y1.69856
X0.39221Y1.77730
X0.39221Y1.85604
X0.39221Y1.93478
X0.39221Y2.01352
X0.39221Y2.09226
X0.39221Y2.17100
X0.39221Y2.24974
X0.39221Y2.32848
X0.39221Y2.40722
X0.39221Y2.48596
X0.39221Y2.56470
X0.39221Y2.64344
X0.39221Y2.72219
X0.39221Y2.80093
X0.39221Y2.87967
X0.39221Y2.95841
X0.39221Y3.03715
X0.39221Y3.11589
X0.39221Y3.19463
X0.39221Y3.27337
X0.39221Y3.35211
X0.39221Y3.43085
X0.39221Y3.50959
X0.39221Y3.58833
X0.39221Y3.66707
X0.39221Y3.74581
X0.39221Y3.82455
X0.39221Y3.90329
X0.39221Y3.98203
X0.39221Y4.06077
X0.39221Y4.13951
X0.39221Y4.21825
X0.39221Y4.29699
X0.39221Y4.37573
X0.39221Y4.45447
X0.39221Y4.53321
X0.39221Y4.61195
X0.39221Y4.69069
X0.39221Y4.76943
X0.39221Y4.84817
X0.39221Y4.92691
X0.39221Y5.00565
X0.39221Y5.08439
X0.39221Y5.16313
X0.39221Y5.24187
X0.39221Y5.32061
X0.39221Y5.39935
X0.39221Y5.47809
X0.39221Y5.55683
X0.39221Y5.63557
X0.39221Y5.71431
X0.39221Y5.79305
X0.39221Y5.87179
X0.39221Y5.95053
X0.39221Y6.02927
X0.39221Y6.10801
X0.39221Y6.18675
X0.39221Y6.26549
X0.39221Y6.34423
X0.39221Y6.42297
X0.39221Y6.50171
X0.39221Y6.58045
X0.39221Y6.65919
X0.39221Y6.73793
X0.39221Y6.81667
X0.39221Y6.89541
X0.39221Y6.97415
X0.39221Y7.05289
X0.39221Y7.13163
X0.39221Y7.21037
X0.39221Y7.28911
X0.39221Y7.36785
X0.39221Y7.44659
X0.39221Y7.52533
X0.39221Y7.60407
X0.39221Y7.68281
X0.39221Y7.76156
X0.39221Y7.84030
X0.39221Y7.91904
X0.39221Y7.99778
X0.39221Y8.07652
X0.39221Y8.15526
X0.49221Y0.20250
X0.49221Y0.28124
X0.49221Y0.35998
X0.49221Y0.43872
X0.49221Y0.51746
X0.49221Y0.59620
X0.49221Y0.67494
X0.49221Y0.75368
X0.49221Y0.83242
X0.49221Y0.91116
X0.49221Y0.98990
X0.49221Y1.06864
X0.49221Y1.14738
X0.49221Y1.22612
X0.49221Y1.30486
X0.49221Y1.38360
X0.49221Y1.46234
X0.49221Y1.54108
X0.49221Y1.61982
X0.49221Y1.69856
X0.49221Y1.77730
X0.49221Y1.85604
X0.49221Y1.93478
X0.49221Y2.01352
X0.49221Y2.09226
X0.49221Y2.17100
X0.49221Y2.24974
X0.49221Y2.32848
X0.49221Y2.40722
X0.49221Y2.48596
X0.49221Y2.56470
X0.49221Y2.64344
X0.49221Y2.72219
X0.49221Y2.80093
X0.49221Y2.87967
X0.49221Y2.95841
X0.49221Y3.03715
X0.49221Y3.11589
X0.49221Y3.19463
X0.49221Y3.27337
X0.49221Y3.35211
X0.49221Y3.43085
X0.49221Y3.50959
X0.49221Y3.58833
X0.49221Y3.66707
X0.49221Y3.74581
X0.49221Y3.82455
X0.49221Y3.90329
X0.49221Y3.98203
X0.49221Y4.06077
X0.49221Y4.13951
X0.49221Y4.21825
X0.49221Y4.29699
X0.49221Y4.37573
X0.49221Y4.45447
X0.49221Y4.53321
X0.49221Y4.61195
X0.49221Y4.69069
X0.49221Y4.76943
X0.49221Y4.84817
X0.49221Y4.92691
X0.49221Y5.00565
X0.49221Y5.08439
X0.49221Y5.16313
X0.49221Y5.24187
X0.49221Y5.32061
X0.49221Y5.39935
X0.49221Y5.47809
X0.49221Y5.55683
X0.49221Y5.63557
X0.49221Y5.71431
X0.49221Y5.79305
X0.49221Y5.87179
X0.49221Y5.95053
X0.49221Y6.02927
X0.49221Y6.10801
X0.49221Y6.18675
X0.49221Y6.26549
X0.49221Y6.34423
X0.49221Y6.42297
X0.49221Y6.50171
X0.49221Y6.58045
X0.49221Y6.65919
X0.49221Y6.73793
X0.49221Y6.81667
X0.49221Y6.89541
X0.49221Y6.97415
X0.49221Y7.05289
X0.49221Y7.13163
X0.49221Y7.21037
X0.49221Y7.28911
X0.49221Y7.36785
X0.49221Y7.44659
X0.49221Y7.52533
X0.49221Y7.60407
X0.49221Y7.68281
X0.49221Y7.76156
X0.49221Y7.84030
X0.49221Y7.91904
X0.49221Y7.99778
X0.49221Y8.07652
X0.49221Y8.15526
X0.59221Y0.20250
X0.59221Y0.28124
X0.59221Y0.35998
X0.59221Y0.43872
X0.59221Y0.51746
X0.59221Y0.59620
X0.59221Y0.67494
X0.59221Y0.75368
X0.59221Y0.83242
X0.59221Y0.91116
X0.59221Y0.98990
X0.59221Y1.06864
X0.59221Y1.14738
X0.59221Y1.22612
X0.59221Y1.30486
X0.59221Y1.38360
X0.59221Y1.46234
X0.59221Y1.54108
X0.59221Y1.61982
X0.59221Y1.69856
X0.59221Y1.77730
X0.59221Y1.85604
X0.59221Y1.93478
X0.59221Y2.01352
X0.59221Y2.09226
X0.59221Y2.17100
X0.59221Y2.24974
X0.59221Y2.32848
X0.59221Y2.40722
X0.59221Y2.48596
X0.59221Y2.56470
X0.59221Y2.64344
X0.59221Y2.72219
X0.59221Y2.80093
X0.59221Y2.87967
X0.59221Y2.95841
X0.59221Y3.03715
X0.59221Y3.11589
X0.59221Y3.19463
X0.59221Y3.27337
X0.59221Y3.35211
X0.59221Y3.43085
X0.59221Y3.50959
X0.59221Y3.58833
X0.59221Y3.66707
X0.59221Y3.74581
X0.59221Y3.82455
X0.59221Y3.90329
X0.59221Y3.98203
X0.59221Y4.06077
X0.59221Y4.13951
X0.59221Y4.21825
X0.59221Y4.29699
X0.59221Y4.37573
X0.59221Y4.45447
X0.59221Y4.53321
X0.59221Y4.61195
X0.59221Y4.69069
X0.59221Y4.76943
X0.59221Y4.84817
X0.59221Y4.92691
X0.59221Y5.00565
X0.59221Y5.08439
X0.59221Y5.16313
X0.59221Y5.24187
X0.59221Y5.32061
X0.59221Y5.39935
X0.59221Y5.47809
X0.59221Y5.55683
X0.59221Y5.63557
X0.59221Y5.71431
X0.59221Y5.79305
X0.59221Y5.87179
X0.59221Y5.95053
X0.59221Y6.02927
X0.59221Y6.10801
X0.59221Y6.18675
X0.59221Y6.26549
X0.59221Y6.34423
X0.59221Y6.42297
X0.59221Y6.50171
X0.59221Y6.58045
X0.59221Y6.65919
X0.59221Y6.73793
X0.59221Y6.81667
X0.59221Y6.89541
X0.59221Y6.97415
X0.59221Y7.05289
X0.59221Y7.13163
X0.59221Y7.21037
X0.59221Y7.28911
X0.59221Y7.36785
X0.59221Y7.44659
X0.59221Y7.52533
X0.59221Y7.60407
X0.59221Y7.68281
X0.59221Y7.76156
X0.59221Y7.84030
X0.59221Y7.91904
X0.59221Y7.99778
X0.59221Y8.07652
X0.59221Y8.15526
T003
X0.71721Y0.15388
X0.71721Y0.55388
X0.71721Y7.80388
X0.71721Y8.20388
X0.76721Y2.82888
X0.76721Y5.37888
X0.84221Y0.72888
X0.84221Y0.82888
X0.84221Y0.92888
X0.84221Y1.02888
X0.84221Y1.12888
X0.84221Y1.22888
X0.84221Y1.32888
X0.84221Y1.42888
X0.84221Y1.52888
X0.84221Y1.62888
X0.84221Y1.72888
X0.84221Y1.82888
X0.84221Y1.92888
X0.84221Y2.02888
X0.84221Y2.12888
X0.84221Y2.22888
X0.84221Y2.32888
X0.84221Y2.42888
X0.84221Y2.52888
X0.84221Y2.62888
X0.84221Y3.27888
X0.84221Y3.37888
X0.84221Y3.47888
X0.84221Y3.57888
X0.84221Y3.67888
X0.84221Y3.77888
X0.84221Y3.87888
X0.84221Y3.97888
X0.84221Y4.07888
X0.84221Y4.17888
X0.84221Y4.27888
X0.84221Y4.37888
X0.84221Y4.47888
X0.84221Y4.57888
X0.84221Y4.67888
X0.84221Y4.77888
X0.84221Y4.87888
X0.84221Y4.97888
X0.84221Y5.07888
X0.84221Y5.17888
X0.84221Y5.77888
X0.84221Y5.87888
X0.84221Y5.97888
X0.84221Y6.07888
X0.84221Y6.17888
X0.84221Y6.27888
X0.84221Y6.37888
X0.84221Y6.47888
X0.84221Y6.57888
X0.84221Y6.67888
X0.84221Y6.77888
X0.84221Y6.87888
X0.84221Y6.97888
X0.84221Y7.07888
X0.84221Y7.17888
X0.84221Y7.27888
X0.84221Y7.37888
X0.84221Y7.47888
X0.84221Y7.57888
X0.84221Y7.67888
X0.86721Y0.25388
X0.86721Y0.55388
X0.89221Y7.87888
X0.96721Y0.25388
X0.96721Y0.55388
X0.99221Y2.82888
X0.99221Y5.37888
X0.99221Y7.87888
X1.06721Y0.25388
X1.06721Y0.55388
X1.06721Y0.72888
X1.06721Y2.72888
X1.06721Y2.82888
X1.06721Y3.27888
X1.06721Y5.27888
X1.06721Y5.37888
X1.06721Y5.77888
X1.14221Y7.77888
X1.16721Y0.25388
X1.16721Y0.55388
X1.19221Y7.87888
X1.26721Y0.25388
X1.26721Y0.55388
X1.36721Y0.25388
X1.36721Y0.55388
X1.36721Y2.72888
X1.36721Y5.27888
X1.44221Y0.72888
X1.44221Y0.82888
X1.44221Y0.92888
X1.44221Y1.02888
X1.44221Y1.12888
X1.44221Y1.22888
X1.44221Y1.32888
X1.44221Y1.42888
X1.44221Y1.52888
X1.44221Y1.62888
X1.44221Y1.72888
X1.44221Y1.82888
X1.44221Y1.92888
X1.44221Y2.02888
X1.44221Y2.12888
X1.44221Y2.22888
X1.44221Y2.32888
X1.44221Y2.42888
X1.44221Y2.52888
X1.44221Y2.62888
X1.44221Y3.27888
X1.44221Y3.37888
X1.44221Y3.47888
X1.44221Y3.57888
X1.44221Y3.67888
X1.44221Y3.77888
X1.44221Y3.87888
X1.44221Y3.97888
X1.44221Y4.07888
X1.44221Y4.17888
X1.44221Y4.27888
X1.44221Y4.37888
X1.44221Y4.47888
X1.44221Y4.57888
X1.44221Y4.67888
X1.44221Y4.77888
X1.44221Y4.87888
X1.44221Y4.97888
X1.44221Y5.07888
X1.44221Y5.17888
X1.44221Y5.77888
X1.44221Y5.87888
X1.44221Y5.97888
X1.44221Y6.07888
X1.44221Y6.17888
X1.44221Y6.27888
X1.44221Y6.37888
X1.44221Y6.47888
X1.44221Y6.57888
X1.44221Y6.67888
X1.44221Y6.77888
X1.44221Y6.87888
X1.44221Y6.97888
X1.44221Y7.07888
X1.44221Y7.17888
X1.44221Y7.27888
X1.44221Y7.37888
X1.44221Y7.47888
X1.44221Y7.57888
X1.44221Y7.67888
X1.44221Y7.77888
X1.46721Y0.25388
X1.46721Y0.55388
T004
X0.19221Y0.22888
X0.19221Y0.32888
X0.19221Y0.42888
X0.19221Y0.52888
X0.19221Y0.62888
X0.19221Y0.72888
X0.19221Y0.82888
X0.19221Y0.92888
X0.19221Y1.02888
X0.19221Y1.12888
X0.19221Y1.22888
X0.19221Y1.32888
X0.19221Y1.42888
X0.19221Y1.52888
X0.19221Y1.62888
X0.19221Y1.72888
X0.19221Y1.82888
X0.19221Y1.92888
X0.19221Y2.02888
X0.19221Y2.12888
X0.19221Y2.22888
X0.19221Y2.32888
X0.19221Y2.42888
X0.19221Y2.52888
X0.19221Y2.62888
X0.19221Y2.72888
X0.19221Y2.82888
X0.19221Y2.92888
X0.19221Y3.02888
X0.19221Y3.12888
X0.19221Y3.22888
X0.19221Y3.32888
X0.19221Y3.42888
X0.19221Y3.52888
X0.19221Y3.62888
X0.19221Y3.72888
X0.19221Y3.82888
X0.19221Y3.92888
X0.19221Y4.02888
X0.19221Y4.12888
X0.19221Y4.22888
X0.19221Y4.32888
X0.19221Y4.42888
X0.19221Y4.52888
X0.19221Y4.62888
X0.19221Y4.72888
X0.19221Y4.82888
X0.19221Y4.92888
X0.19221Y5.02888
X0.19221Y5.12888
X0.19221Y5.22888
X0.19221Y5.32888
X0.19221Y5.42888
X0.19221Y5.52888
X0.19221Y5.62888
X0.19221Y5.72888
X0.19221Y5.82888
X0.19221Y5.92888
X0.19221Y6.02888
X0.19221Y6.12888
X0.19221Y6.22888
X0.19221Y6.32888
X0.19221Y6.42888
X0.19221Y6.52888
X0.19221Y6.62888
X0.19221Y6.72888
X0.19221Y6.82888
X0.19221Y6.92888
X0.19221Y7.02888
X0.19221Y7.12888
X0.19221Y7.22888
X0.19221Y7.32888
X0.19221Y7.42888
X0.19221Y7.52888
X0.19221Y7.62888
X0.19221Y7.72888
X0.19221Y7.82888
X0.19221Y7.92888
X0.19221Y8.02888
X0.19221Y8.12888
T005
X0.84221Y8.10388
X0.84221Y8.20388
X0.94221Y8.10388
X0.94221Y8.20388
X1.04221Y8.10388
X1.04221Y8.20388
X1.14221Y8.10388
X1.14221Y8.20388
X1.24221Y8.10388
X1.24221Y8.20388
X1.34221Y8.10388
X1.34221Y8.20388
T006
X0.19221Y0.10388
X0.19221Y8.25388
X1.49221Y0.10388
X1.49221Y8.25388
M30
