G04 DesignSpark PCB Gerber Version 13.0 Build *
%FSLAX35Y35*%
%MOIN*%
%ADD27O,0.07000X0.12000*%
%ADD24R,0.07000X0.07000*%
%ADD26C,0.06512*%
%ADD25C,0.07000*%
%ADD23C,0.07614*%
%ADD21C,0.11000*%
%ADD22O,0.12000X0.07000*%
X0Y0D02*
D02*
D21*
X19221Y10388D03*
Y825388D03*
X149221Y10388D03*
Y825388D03*
D02*
D22*
X84221Y72888D03*
Y82888D03*
Y92888D03*
Y102888D03*
Y112888D03*
Y122888D03*
Y132888D03*
Y142888D03*
Y152888D03*
Y162888D03*
Y172888D03*
Y182888D03*
Y192888D03*
Y202888D03*
Y212888D03*
Y222888D03*
Y232888D03*
Y242888D03*
Y252888D03*
Y262888D03*
Y327888D03*
Y337888D03*
Y347888D03*
Y357888D03*
Y367888D03*
Y377888D03*
Y387888D03*
Y397888D03*
Y407888D03*
Y417888D03*
Y427888D03*
Y437888D03*
Y447888D03*
Y457888D03*
Y467888D03*
Y477888D03*
Y487888D03*
Y497888D03*
Y507888D03*
Y517888D03*
Y577888D03*
Y587888D03*
Y597888D03*
Y607888D03*
Y617888D03*
Y627888D03*
Y637888D03*
Y647888D03*
Y657888D03*
Y667888D03*
Y677888D03*
Y687888D03*
Y697888D03*
Y707888D03*
Y717888D03*
Y727888D03*
Y737888D03*
Y747888D03*
Y757888D03*
Y767888D03*
X144221Y72888D03*
Y82888D03*
Y92888D03*
Y102888D03*
Y112888D03*
Y122888D03*
Y132888D03*
Y142888D03*
Y152888D03*
Y162888D03*
Y172888D03*
Y182888D03*
Y192888D03*
Y202888D03*
Y212888D03*
Y222888D03*
Y232888D03*
Y242888D03*
Y252888D03*
Y262888D03*
Y327888D03*
Y337888D03*
Y347888D03*
Y357888D03*
Y367888D03*
Y377888D03*
Y387888D03*
Y397888D03*
Y407888D03*
Y417888D03*
Y427888D03*
Y437888D03*
Y447888D03*
Y457888D03*
Y467888D03*
Y477888D03*
Y487888D03*
Y497888D03*
Y507888D03*
Y517888D03*
Y577888D03*
Y587888D03*
Y597888D03*
Y607888D03*
Y617888D03*
Y627888D03*
Y637888D03*
Y647888D03*
Y657888D03*
Y667888D03*
Y677888D03*
Y687888D03*
Y697888D03*
Y707888D03*
Y717888D03*
Y727888D03*
Y737888D03*
Y747888D03*
Y757888D03*
Y767888D03*
D02*
D23*
X19221Y22888D03*
Y32888D03*
Y42888D03*
Y52888D03*
Y62888D03*
Y72888D03*
Y82888D03*
Y92888D03*
Y102888D03*
Y112888D03*
Y122888D03*
Y132888D03*
Y142888D03*
Y152888D03*
Y162888D03*
Y172888D03*
Y182888D03*
Y192888D03*
Y202888D03*
Y212888D03*
Y222888D03*
Y232888D03*
Y242888D03*
Y252888D03*
Y262888D03*
Y272888D03*
Y282888D03*
Y292888D03*
Y302888D03*
Y312888D03*
Y322888D03*
Y332888D03*
Y342888D03*
Y352888D03*
Y362888D03*
Y372888D03*
Y382888D03*
Y392888D03*
Y402888D03*
Y412888D03*
Y422888D03*
Y432888D03*
Y442888D03*
Y452888D03*
Y462888D03*
Y472888D03*
Y482888D03*
Y492888D03*
Y502888D03*
Y512888D03*
Y522888D03*
Y532888D03*
Y542888D03*
Y552888D03*
Y562888D03*
Y572888D03*
Y582888D03*
Y592888D03*
Y602888D03*
Y612888D03*
Y622888D03*
Y632888D03*
Y642888D03*
Y652888D03*
Y662888D03*
Y672888D03*
Y682888D03*
Y692888D03*
Y702888D03*
Y712888D03*
Y722888D03*
Y732888D03*
Y742888D03*
Y752888D03*
Y762888D03*
Y772888D03*
Y782888D03*
Y792888D03*
Y802888D03*
Y812888D03*
D02*
D24*
X84221Y810388D03*
Y820388D03*
X94221Y810388D03*
Y820388D03*
X104221Y810388D03*
Y820388D03*
X114221Y810388D03*
Y820388D03*
X124221Y810388D03*
Y820388D03*
X134221Y810388D03*
Y820388D03*
D02*
D25*
X71721Y15388D03*
Y55388D03*
Y780388D03*
Y820388D03*
X76721Y282888D03*
Y537888D03*
X89221Y787888D03*
X106721Y272888D03*
Y282888D03*
Y527888D03*
Y537888D03*
X114221Y777888D03*
X119221Y787888D03*
X136721Y272888D03*
Y527888D03*
X144221Y777888D03*
D02*
D26*
X29221Y20250D03*
Y28124D03*
Y35998D03*
Y43872D03*
Y51746D03*
Y59620D03*
Y67494D03*
Y75368D03*
Y83242D03*
Y91116D03*
Y98990D03*
Y106864D03*
Y114738D03*
Y122612D03*
Y130486D03*
Y138360D03*
Y146234D03*
Y154108D03*
Y161982D03*
Y169856D03*
Y177730D03*
Y185604D03*
Y193478D03*
Y201352D03*
Y209226D03*
Y217100D03*
Y224974D03*
Y232848D03*
Y240722D03*
Y248596D03*
Y256470D03*
Y264344D03*
Y272219D03*
Y280093D03*
Y287967D03*
Y295841D03*
Y303715D03*
Y311589D03*
Y319463D03*
Y327337D03*
Y335211D03*
Y343085D03*
Y350959D03*
Y358833D03*
Y366707D03*
Y374581D03*
Y382455D03*
Y390329D03*
Y398203D03*
Y406077D03*
Y413951D03*
Y421825D03*
Y429699D03*
Y437573D03*
Y445447D03*
Y453321D03*
Y461195D03*
Y469069D03*
Y476943D03*
Y484817D03*
Y492691D03*
Y500565D03*
Y508439D03*
Y516313D03*
Y524187D03*
Y532061D03*
Y539935D03*
Y547809D03*
Y555683D03*
Y563557D03*
Y571431D03*
Y579305D03*
Y587179D03*
Y595053D03*
Y602927D03*
Y610801D03*
Y618675D03*
Y626549D03*
Y634423D03*
Y642297D03*
Y650171D03*
Y658045D03*
Y665919D03*
Y673793D03*
Y681667D03*
Y689541D03*
Y697415D03*
Y705289D03*
Y713163D03*
Y721037D03*
Y728911D03*
Y736785D03*
Y744659D03*
Y752533D03*
Y760407D03*
Y768281D03*
Y776156D03*
Y784030D03*
Y791904D03*
Y799778D03*
Y807652D03*
Y815526D03*
X39221Y20250D03*
Y28124D03*
Y35998D03*
Y43872D03*
Y51746D03*
Y59620D03*
Y67494D03*
Y75368D03*
Y83242D03*
Y91116D03*
Y98990D03*
Y106864D03*
Y114738D03*
Y122612D03*
Y130486D03*
Y138360D03*
Y146234D03*
Y154108D03*
Y161982D03*
Y169856D03*
Y177730D03*
Y185604D03*
Y193478D03*
Y201352D03*
Y209226D03*
Y217100D03*
Y224974D03*
Y232848D03*
Y240722D03*
Y248596D03*
Y256470D03*
Y264344D03*
Y272219D03*
Y280093D03*
Y287967D03*
Y295841D03*
Y303715D03*
Y311589D03*
Y319463D03*
Y327337D03*
Y335211D03*
Y343085D03*
Y350959D03*
Y358833D03*
Y366707D03*
Y374581D03*
Y382455D03*
Y390329D03*
Y398203D03*
Y406077D03*
Y413951D03*
Y421825D03*
Y429699D03*
Y437573D03*
Y445447D03*
Y453321D03*
Y461195D03*
Y469069D03*
Y476943D03*
Y484817D03*
Y492691D03*
Y500565D03*
Y508439D03*
Y516313D03*
Y524187D03*
Y532061D03*
Y539935D03*
Y547809D03*
Y555683D03*
Y563557D03*
Y571431D03*
Y579305D03*
Y587179D03*
Y595053D03*
Y602927D03*
Y610801D03*
Y618675D03*
Y626549D03*
Y634423D03*
Y642297D03*
Y650171D03*
Y658045D03*
Y665919D03*
Y673793D03*
Y681667D03*
Y689541D03*
Y697415D03*
Y705289D03*
Y713163D03*
Y721037D03*
Y728911D03*
Y736785D03*
Y744659D03*
Y752533D03*
Y760407D03*
Y768281D03*
Y776156D03*
Y784030D03*
Y791904D03*
Y799778D03*
Y807652D03*
Y815526D03*
X49221Y20250D03*
Y28124D03*
Y35998D03*
Y43872D03*
Y51746D03*
Y59620D03*
Y67494D03*
Y75368D03*
Y83242D03*
Y91116D03*
Y98990D03*
Y106864D03*
Y114738D03*
Y122612D03*
Y130486D03*
Y138360D03*
Y146234D03*
Y154108D03*
Y161982D03*
Y169856D03*
Y177730D03*
Y185604D03*
Y193478D03*
Y201352D03*
Y209226D03*
Y217100D03*
Y224974D03*
Y232848D03*
Y240722D03*
Y248596D03*
Y256470D03*
Y264344D03*
Y272219D03*
Y280093D03*
Y287967D03*
Y295841D03*
Y303715D03*
Y311589D03*
Y319463D03*
Y327337D03*
Y335211D03*
Y343085D03*
Y350959D03*
Y358833D03*
Y366707D03*
Y374581D03*
Y382455D03*
Y390329D03*
Y398203D03*
Y406077D03*
Y413951D03*
Y421825D03*
Y429699D03*
Y437573D03*
Y445447D03*
Y453321D03*
Y461195D03*
Y469069D03*
Y476943D03*
Y484817D03*
Y492691D03*
Y500565D03*
Y508439D03*
Y516313D03*
Y524187D03*
Y532061D03*
Y539935D03*
Y547809D03*
Y555683D03*
Y563557D03*
Y571431D03*
Y579305D03*
Y587179D03*
Y595053D03*
Y602927D03*
Y610801D03*
Y618675D03*
Y626549D03*
Y634423D03*
Y642297D03*
Y650171D03*
Y658045D03*
Y665919D03*
Y673793D03*
Y681667D03*
Y689541D03*
Y697415D03*
Y705289D03*
Y713163D03*
Y721037D03*
Y728911D03*
Y736785D03*
Y744659D03*
Y752533D03*
Y760407D03*
Y768281D03*
Y776156D03*
Y784030D03*
Y791904D03*
Y799778D03*
Y807652D03*
Y815526D03*
X59221Y20250D03*
Y28124D03*
Y35998D03*
Y43872D03*
Y51746D03*
Y59620D03*
Y67494D03*
Y75368D03*
Y83242D03*
Y91116D03*
Y98990D03*
Y106864D03*
Y114738D03*
Y122612D03*
Y130486D03*
Y138360D03*
Y146234D03*
Y154108D03*
Y161982D03*
Y169856D03*
Y177730D03*
Y185604D03*
Y193478D03*
Y201352D03*
Y209226D03*
Y217100D03*
Y224974D03*
Y232848D03*
Y240722D03*
Y248596D03*
Y256470D03*
Y264344D03*
Y272219D03*
Y280093D03*
Y287967D03*
Y295841D03*
Y303715D03*
Y311589D03*
Y319463D03*
Y327337D03*
Y335211D03*
Y343085D03*
Y350959D03*
Y358833D03*
Y366707D03*
Y374581D03*
Y382455D03*
Y390329D03*
Y398203D03*
Y406077D03*
Y413951D03*
Y421825D03*
Y429699D03*
Y437573D03*
Y445447D03*
Y453321D03*
Y461195D03*
Y469069D03*
Y476943D03*
Y484817D03*
Y492691D03*
Y500565D03*
Y508439D03*
Y516313D03*
Y524187D03*
Y532061D03*
Y539935D03*
Y547809D03*
Y555683D03*
Y563557D03*
Y571431D03*
Y579305D03*
Y587179D03*
Y595053D03*
Y602927D03*
Y610801D03*
Y618675D03*
Y626549D03*
Y634423D03*
Y642297D03*
Y650171D03*
Y658045D03*
Y665919D03*
Y673793D03*
Y681667D03*
Y689541D03*
Y697415D03*
Y705289D03*
Y713163D03*
Y721037D03*
Y728911D03*
Y736785D03*
Y744659D03*
Y752533D03*
Y760407D03*
Y768281D03*
Y776156D03*
Y784030D03*
Y791904D03*
Y799778D03*
Y807652D03*
Y815526D03*
D02*
D27*
X86721Y25388D03*
Y55388D03*
X96721Y25388D03*
Y55388D03*
X106721Y25388D03*
Y55388D03*
X116721Y25388D03*
Y55388D03*
X126721Y25388D03*
Y55388D03*
X136721Y25388D03*
Y55388D03*
X146721Y25388D03*
Y55388D03*
X0Y0D02*
M02*
