G04 DesignSpark PCB Gerber Version 13.0 Build *
%FSLAX35Y35*%
%MOIN*%
%ADD19R,0.06000X0.06000*%
%ADD20O,0.06000X0.11000*%
%ADD14C,0.01500*%
%ADD15C,0.04800*%
%ADD12C,0.05000*%
%ADD71C,0.05512*%
%ADD13C,0.05600*%
%ADD70C,0.06000*%
%ADD18C,0.06614*%
%ADD16C,0.10000*%
%ADD17O,0.11000X0.06000*%
X0Y0D02*
D02*
D12*
X59221Y20250D02*
X49221D01*
X59221Y28124D02*
X49221D01*
X59221Y35998D02*
X49221D01*
X59221Y799778D02*
X49221D01*
X59221Y807652D02*
X49221D01*
X59221Y815526D02*
X49221D01*
X76721Y282888D02*
Y270388D01*
X84221Y262888D01*
X76721Y537888D02*
Y525388D01*
X84221Y517888D01*
X79221Y65388D02*
Y55388D01*
X71721D01*
X89221Y787888D02*
Y772888D01*
X84221Y767888D01*
X94221Y810388D02*
Y800388D01*
X99221D01*
Y787888D01*
Y537888D02*
Y282888D01*
Y787888D02*
Y537888D01*
X104221Y820388D02*
Y810388D01*
X106721Y272888D02*
Y72888D01*
Y282888D02*
Y272888D01*
Y327888D02*
Y282888D01*
Y527888D02*
Y327888D01*
Y537888D02*
Y527888D01*
Y577888D02*
Y537888D01*
X114221Y777888D02*
X106721Y770388D01*
Y577888D01*
X114221Y810388D02*
Y795388D01*
X121721D01*
X126721Y790388D01*
Y780388D01*
X114221Y767888D01*
Y70388D01*
X109221Y65388D01*
X79221D01*
X119221Y787888D02*
X106721D01*
Y802888D01*
X104221Y805388D01*
Y810388D01*
X119221Y787888D02*
Y782888D01*
X114221Y777888D01*
X136721Y272888D02*
X144221D01*
Y262888D01*
X136721Y527888D02*
X144221D01*
Y517888D01*
X134221D01*
Y275388D01*
X136721Y272888D01*
X144221Y767888D02*
X134221D01*
Y530388D01*
X136721Y527888D01*
X144221Y777888D02*
Y767888D01*
Y777888D02*
X149221Y782888D01*
Y805388D01*
X144221Y810388D01*
X134221D01*
D02*
D13*
X99221Y282888D03*
Y537888D03*
Y787888D03*
X106721Y72888D03*
Y327888D03*
Y577888D03*
D02*
D14*
X49221Y43872D02*
X59221D01*
X49221Y51746D02*
X59221D01*
X49221Y59620D02*
X59221D01*
X49221Y67494D02*
X59221D01*
X49221Y75368D02*
X59221D01*
X49221Y83242D02*
X59221D01*
X49221Y91116D02*
X59221D01*
X49221Y98990D02*
X59221D01*
X49221Y106864D02*
X59221D01*
X49221Y114738D02*
X59221D01*
X49221Y122612D02*
X59221D01*
X49221Y130486D02*
X59221D01*
X49221Y138360D02*
X59221D01*
X49221Y146234D02*
X59221D01*
X49221Y154108D02*
X59221D01*
X49221Y161982D02*
X59221D01*
X49221Y169856D02*
X59221D01*
X49221Y177730D02*
X59221D01*
X49221Y185604D02*
X59221D01*
X49221Y193478D02*
X59221D01*
X49221Y201352D02*
X59221D01*
X49221Y209226D02*
X59221D01*
X49221Y217100D02*
X59221D01*
X49221Y224974D02*
X59221D01*
X49221Y232848D02*
X59221D01*
X49221Y240722D02*
X59221D01*
X49221Y248596D02*
X59221D01*
X49221Y256470D02*
X59221D01*
X49221Y264344D02*
X59221D01*
X49221Y272219D02*
X59221D01*
X49221Y280093D02*
X59221D01*
X49221Y287967D02*
X59221D01*
X49221Y295841D02*
X59221D01*
X49221Y303715D02*
X59221D01*
X49221Y311589D02*
X59221D01*
X49221Y319463D02*
X59221D01*
X49221Y327337D02*
X59221D01*
X49221Y335211D02*
X59221D01*
X49221Y343085D02*
X59221D01*
X49221Y350959D02*
X59221D01*
X49221Y358833D02*
X59221D01*
X49221Y366707D02*
X59221D01*
X49221Y374581D02*
X59221D01*
X49221Y382455D02*
X59221D01*
X49221Y390329D02*
X59221D01*
X49221Y398203D02*
X59221D01*
X49221Y406077D02*
X59221D01*
X49221Y413951D02*
X59221D01*
X49221Y421825D02*
X59221D01*
X49221Y429699D02*
X59221D01*
X49221Y437573D02*
X59221D01*
X49221Y445447D02*
X59221D01*
X49221Y453321D02*
X59221D01*
X49221Y461195D02*
X59221D01*
X49221Y469069D02*
X59221D01*
X49221Y476943D02*
X59221D01*
X49221Y484817D02*
X59221D01*
X49221Y492691D02*
X59221D01*
X49221Y500565D02*
X59221D01*
X49221Y508439D02*
X59221D01*
X49221Y516313D02*
X59221D01*
X49221Y524187D02*
X59221D01*
X49221Y532061D02*
X59221D01*
X49221Y539935D02*
X59221D01*
X49221Y547809D02*
X59221D01*
X49221Y555683D02*
X59221D01*
X49221Y563557D02*
X59221D01*
X49221Y571431D02*
X59221D01*
X49221Y579305D02*
X59221D01*
X49221Y587179D02*
X59221D01*
X49221Y595053D02*
X59221D01*
X49221Y602927D02*
X59221D01*
X49221Y610801D02*
X59221D01*
X49221Y618675D02*
X59221D01*
X49221Y626549D02*
X59221D01*
X49221Y634423D02*
X59221D01*
X49221Y642297D02*
X59221D01*
X49221Y650171D02*
X59221D01*
X49221Y658045D02*
X59221D01*
X49221Y665919D02*
X59221D01*
X49221Y673793D02*
X59221D01*
X49221Y681667D02*
X59221D01*
X49221Y689541D02*
X59221D01*
X49221Y697415D02*
X59221D01*
X49221Y705289D02*
X59221D01*
X49221Y713163D02*
X59221D01*
X49221Y721037D02*
X59221D01*
X49221Y728911D02*
X59221D01*
X49221Y736785D02*
X59221D01*
X49221Y744659D02*
X59221D01*
X49221Y752533D02*
X59221D01*
X49221Y760407D02*
X59221D01*
X49221Y768281D02*
X59221D01*
X49221Y776156D02*
X59221D01*
X49221Y784030D02*
X59221D01*
X49221Y791904D02*
X59221D01*
Y67494D02*
X71721D01*
Y90388D01*
X74221D01*
Y97888D01*
X79221D01*
X84221Y102888D01*
X59221Y83242D02*
X69221D01*
Y92888D01*
X71721D01*
X59221Y98990D02*
X66721D01*
X59221Y114738D02*
X66721D01*
X59221Y130486D02*
X74221D01*
Y137888D01*
X79221D01*
X84221Y142888D01*
X59221Y146234D02*
X74221D01*
Y147888D01*
X79221D01*
X84221Y152888D01*
X59221Y161982D02*
X83316D01*
X84221Y162888D01*
X59221Y177730D02*
X79379D01*
X84221Y172888D01*
X59221Y193478D02*
X74221D01*
Y187888D01*
X79221D01*
X84221Y182888D01*
X59221Y209226D02*
X71721D01*
Y205388D01*
X74221D01*
Y197888D01*
X79221D01*
X84221Y192888D01*
X59221Y224974D02*
X69221D01*
Y222888D01*
X71721D01*
Y215388D01*
X74221D01*
Y207888D01*
X79221D01*
X84221Y202888D01*
X59221Y240722D02*
X66721D01*
Y237888D01*
X69221D01*
Y232888D01*
X71721D01*
Y225388D01*
X74221D01*
Y217888D01*
X79221D01*
X84221Y212888D01*
X59221Y256470D02*
X69221D01*
Y242888D01*
X71721D01*
Y235388D01*
X74221D01*
Y227888D01*
X79221D01*
X59221Y272219D02*
X69221D01*
Y265388D01*
X71721Y262888D01*
Y245388D01*
X74221D01*
Y237888D01*
X79221D01*
X84221Y232888D01*
X59221Y287967D02*
X71721D01*
Y267888D01*
X74221Y265388D01*
Y247888D01*
X79221D01*
X84221Y242888D01*
X59221Y303715D02*
X66721D01*
Y315388D01*
X71721D01*
Y327888D01*
X74221D01*
Y342888D01*
X79221D01*
X84221Y347888D01*
X59221Y319463D02*
X69221D01*
Y330388D01*
X71721D01*
Y345388D01*
X74221D01*
Y352888D01*
X79221D01*
X84221Y357888D01*
X59221Y335211D02*
X69221D01*
Y347888D01*
X71721D01*
X59221Y382455D02*
X71721D01*
X59221Y398203D02*
X74221D01*
Y402888D01*
X79221D01*
X84221Y407888D01*
X59221Y413951D02*
X80284D01*
X84221Y417888D01*
X59221Y429699D02*
X74221D01*
X59221Y445447D02*
X74221D01*
Y442888D01*
X79221D01*
X84221Y437888D01*
X59221Y461195D02*
X71721D01*
Y457888D01*
X74221D01*
Y452888D01*
X79221D01*
X84221Y447888D01*
X59221Y476943D02*
X71721D01*
Y470388D01*
X74221D01*
Y462888D01*
X79221D01*
X84221Y457888D01*
X59221Y492691D02*
X69221D01*
Y487888D01*
X71721D01*
Y480388D01*
X74221D01*
Y472888D01*
X79221D01*
X84221Y467888D01*
X59221Y508439D02*
X69221D01*
Y497888D01*
X71721D01*
Y490388D01*
X74221D01*
Y482888D01*
X79221D01*
X84221Y477888D01*
X59221Y524187D02*
X69221D01*
Y520388D01*
X71721Y517888D01*
Y500388D01*
X74221D01*
Y492888D01*
X79221D01*
X84221Y487888D01*
X59221Y539935D02*
X71721D01*
Y522888D01*
X74221Y520388D01*
Y502888D01*
X79221D01*
X84221Y497888D01*
X59221Y555683D02*
X74221D01*
Y592888D01*
X79221D01*
X84221Y597888D01*
X59221Y571431D02*
X71721D01*
Y595388D01*
X74221D01*
Y602888D01*
X79221D01*
X84221Y607888D01*
X59221Y602927D02*
X69221D01*
Y607888D01*
X71721D01*
Y615388D01*
X74221D01*
Y622888D01*
X79221D01*
X84221Y627888D01*
X59221Y634423D02*
X66721D01*
X59221Y650171D02*
X74221D01*
Y652888D01*
X79221D01*
X84221Y657888D01*
X59221Y665919D02*
X82253D01*
X84221Y667888D01*
X59221Y681667D02*
X80442D01*
X84221Y677888D01*
X59221Y697415D02*
X74221D01*
Y692888D01*
X79221D01*
X84221Y687888D01*
X59221Y713163D02*
X69221D01*
Y710388D01*
X74221D01*
Y702888D01*
X79221D01*
X84221Y697888D01*
X59221Y728911D02*
X69221D01*
Y727888D01*
X71721D01*
X59221Y744659D02*
X66721D01*
Y737888D01*
X71721D01*
Y730388D01*
X74221D01*
Y722888D01*
X59221Y760407D02*
X69221D01*
Y740388D01*
X74221D01*
Y732888D01*
X79221D01*
X84221Y727888D01*
X66721Y587179D02*
X59221D01*
X66721Y618675D02*
X59221D01*
X74221Y429699D02*
X82410D01*
X84221Y427888D01*
X74221Y722888D02*
X79221D01*
X84221Y717888D01*
X79221Y227888D02*
X84221Y222888D01*
Y82888D02*
X94221D01*
Y337888D01*
X84221Y92888D02*
X79221Y87888D01*
X74221D01*
Y62888D01*
X66721D01*
Y51746D01*
X59221D01*
X84221Y112888D02*
X79221Y107888D01*
X74221D01*
Y100388D01*
X71721D01*
Y92888D01*
X84221Y122888D02*
X79221Y117888D01*
X74221D01*
Y110388D01*
X71721D01*
Y102888D01*
X69221D01*
Y98990D01*
X66721D01*
X84221Y132888D02*
X79221Y127888D01*
X74221D01*
Y120388D01*
X71721D01*
Y114738D01*
X66721D01*
X84221Y367888D02*
X79221Y362888D01*
X74221D01*
Y355388D01*
X71721D01*
Y347888D01*
X84221Y377888D02*
X79221Y372888D01*
X74221D01*
Y365388D01*
X71721D01*
Y357888D01*
X69221D01*
Y350959D01*
X59221D01*
X84221Y387888D02*
X79221Y382888D01*
X74221D01*
Y375388D01*
X71721D01*
Y370388D01*
X69221D01*
Y366707D01*
X59221D01*
X84221Y397888D02*
X79221Y392888D01*
X74221D01*
Y385388D01*
X71721D01*
Y382455D01*
X84221Y617888D02*
X79221Y612888D01*
X74221D01*
Y605388D01*
X71721D01*
Y597888D01*
X69221D01*
Y587179D01*
X66721D01*
X84221Y637888D02*
X79221Y632888D01*
X74221D01*
Y625388D01*
X71721D01*
Y618675D01*
X66721D01*
X84221Y647888D02*
X79221Y642888D01*
X74221D01*
Y637888D01*
X71721D01*
Y634423D01*
X66721D01*
X84221Y707888D02*
X79221Y712888D01*
X74221D01*
Y720388D01*
X71721D01*
Y727888D01*
X84221Y737888D02*
X79221Y742888D01*
X71721D01*
Y765388D01*
X66721D01*
Y776156D01*
X59221D01*
X84221Y747888D02*
X74221D01*
Y767888D01*
X76721Y770388D01*
Y791904D01*
X59221D01*
X94221Y337888D02*
X84221D01*
X94221Y587888D02*
Y792888D01*
X89221Y797888D01*
Y815388D01*
X94221Y820388D01*
Y587888D02*
Y337888D01*
Y587888D02*
X84221D01*
X114221Y820388D02*
X119221Y815388D01*
X154221D01*
Y250388D01*
X151721Y247888D01*
X131721D01*
X121721Y327888D02*
Y72888D01*
Y577888D02*
Y767888D01*
X134221Y780388D01*
Y797888D01*
X121721Y577888D02*
Y327888D01*
X126721Y337888D02*
Y82888D01*
Y587888D02*
Y767888D01*
X141721Y782888D01*
Y805388D01*
X129221D01*
X124221Y810388D01*
X126721Y587888D02*
Y337888D01*
D02*
D15*
X121721Y72888D03*
Y327888D03*
Y577888D03*
X126721Y82888D03*
Y337888D03*
Y587888D03*
X131721Y247888D03*
X134221Y797888D03*
D02*
D16*
X19221Y10388D03*
Y825388D03*
X149221Y10388D03*
Y825388D03*
D02*
D17*
X84221Y72888D03*
Y82888D03*
Y92888D03*
Y102888D03*
Y112888D03*
Y122888D03*
Y132888D03*
Y142888D03*
Y152888D03*
Y162888D03*
Y172888D03*
Y182888D03*
Y192888D03*
Y202888D03*
Y212888D03*
Y222888D03*
Y232888D03*
Y242888D03*
Y252888D03*
Y262888D03*
Y327888D03*
Y337888D03*
Y347888D03*
Y357888D03*
Y367888D03*
Y377888D03*
Y387888D03*
Y397888D03*
Y407888D03*
Y417888D03*
Y427888D03*
Y437888D03*
Y447888D03*
Y457888D03*
Y467888D03*
Y477888D03*
Y487888D03*
Y497888D03*
Y507888D03*
Y517888D03*
Y577888D03*
Y587888D03*
Y597888D03*
Y607888D03*
Y617888D03*
Y627888D03*
Y637888D03*
Y647888D03*
Y657888D03*
Y667888D03*
Y677888D03*
Y687888D03*
Y697888D03*
Y707888D03*
Y717888D03*
Y727888D03*
Y737888D03*
Y747888D03*
Y757888D03*
Y767888D03*
X144221Y72888D03*
Y82888D03*
Y92888D03*
Y102888D03*
Y112888D03*
Y122888D03*
Y132888D03*
Y142888D03*
Y152888D03*
Y162888D03*
Y172888D03*
Y182888D03*
Y192888D03*
Y202888D03*
Y212888D03*
Y222888D03*
Y232888D03*
Y242888D03*
Y252888D03*
Y262888D03*
Y327888D03*
Y337888D03*
Y347888D03*
Y357888D03*
Y367888D03*
Y377888D03*
Y387888D03*
Y397888D03*
Y407888D03*
Y417888D03*
Y427888D03*
Y437888D03*
Y447888D03*
Y457888D03*
Y467888D03*
Y477888D03*
Y487888D03*
Y497888D03*
Y507888D03*
Y517888D03*
Y577888D03*
Y587888D03*
Y597888D03*
Y607888D03*
Y617888D03*
Y627888D03*
Y637888D03*
Y647888D03*
Y657888D03*
Y667888D03*
Y677888D03*
Y687888D03*
Y697888D03*
Y707888D03*
Y717888D03*
Y727888D03*
Y737888D03*
Y747888D03*
Y757888D03*
Y767888D03*
D02*
D18*
X19221Y22888D03*
Y32888D03*
Y42888D03*
Y52888D03*
Y62888D03*
Y72888D03*
Y82888D03*
Y92888D03*
Y102888D03*
Y112888D03*
Y122888D03*
Y132888D03*
Y142888D03*
Y152888D03*
Y162888D03*
Y172888D03*
Y182888D03*
Y192888D03*
Y202888D03*
Y212888D03*
Y222888D03*
Y232888D03*
Y242888D03*
Y252888D03*
Y262888D03*
Y272888D03*
Y282888D03*
Y292888D03*
Y302888D03*
Y312888D03*
Y322888D03*
Y332888D03*
Y342888D03*
Y352888D03*
Y362888D03*
Y372888D03*
Y382888D03*
Y392888D03*
Y402888D03*
Y412888D03*
Y422888D03*
Y432888D03*
Y442888D03*
Y452888D03*
Y462888D03*
Y472888D03*
Y482888D03*
Y492888D03*
Y502888D03*
Y512888D03*
Y522888D03*
Y532888D03*
Y542888D03*
Y552888D03*
Y562888D03*
Y572888D03*
Y582888D03*
Y592888D03*
Y602888D03*
Y612888D03*
Y622888D03*
Y632888D03*
Y642888D03*
Y652888D03*
Y662888D03*
Y672888D03*
Y682888D03*
Y692888D03*
Y702888D03*
Y712888D03*
Y722888D03*
Y732888D03*
Y742888D03*
Y752888D03*
Y762888D03*
Y772888D03*
Y782888D03*
Y792888D03*
Y802888D03*
Y812888D03*
D02*
D19*
X84221Y810388D03*
Y820388D03*
X94221Y810388D03*
Y820388D03*
X104221Y810388D03*
Y820388D03*
X114221Y810388D03*
Y820388D03*
X124221Y810388D03*
Y820388D03*
X134221Y810388D03*
Y820388D03*
D02*
D70*
X71721Y15388D03*
Y55388D03*
Y780388D03*
Y820388D03*
X76721Y282888D03*
Y537888D03*
X89221Y787888D03*
X106721Y272888D03*
Y282888D03*
Y527888D03*
Y537888D03*
X114221Y777888D03*
X119221Y787888D03*
X136721Y272888D03*
Y527888D03*
X144221Y777888D03*
D02*
D71*
X29221Y20250D03*
Y28124D03*
Y35998D03*
Y43872D03*
Y51746D03*
Y59620D03*
Y67494D03*
Y75368D03*
Y83242D03*
Y91116D03*
Y98990D03*
Y106864D03*
Y114738D03*
Y122612D03*
Y130486D03*
Y138360D03*
Y146234D03*
Y154108D03*
Y161982D03*
Y169856D03*
Y177730D03*
Y185604D03*
Y193478D03*
Y201352D03*
Y209226D03*
Y217100D03*
Y224974D03*
Y232848D03*
Y240722D03*
Y248596D03*
Y256470D03*
Y264344D03*
Y272219D03*
Y280093D03*
Y287967D03*
Y295841D03*
Y303715D03*
Y311589D03*
Y319463D03*
Y327337D03*
Y335211D03*
Y343085D03*
Y350959D03*
Y358833D03*
Y366707D03*
Y374581D03*
Y382455D03*
Y390329D03*
Y398203D03*
Y406077D03*
Y413951D03*
Y421825D03*
Y429699D03*
Y437573D03*
Y445447D03*
Y453321D03*
Y461195D03*
Y469069D03*
Y476943D03*
Y484817D03*
Y492691D03*
Y500565D03*
Y508439D03*
Y516313D03*
Y524187D03*
Y532061D03*
Y539935D03*
Y547809D03*
Y555683D03*
Y563557D03*
Y571431D03*
Y579305D03*
Y587179D03*
Y595053D03*
Y602927D03*
Y610801D03*
Y618675D03*
Y626549D03*
Y634423D03*
Y642297D03*
Y650171D03*
Y658045D03*
Y665919D03*
Y673793D03*
Y681667D03*
Y689541D03*
Y697415D03*
Y705289D03*
Y713163D03*
Y721037D03*
Y728911D03*
Y736785D03*
Y744659D03*
Y752533D03*
Y760407D03*
Y768281D03*
Y776156D03*
Y784030D03*
Y791904D03*
Y799778D03*
Y807652D03*
Y815526D03*
X39221Y20250D03*
Y28124D03*
Y35998D03*
Y43872D03*
Y51746D03*
Y59620D03*
Y67494D03*
Y75368D03*
Y83242D03*
Y91116D03*
Y98990D03*
Y106864D03*
Y114738D03*
Y122612D03*
Y130486D03*
Y138360D03*
Y146234D03*
Y154108D03*
Y161982D03*
Y169856D03*
Y177730D03*
Y185604D03*
Y193478D03*
Y201352D03*
Y209226D03*
Y217100D03*
Y224974D03*
Y232848D03*
Y240722D03*
Y248596D03*
Y256470D03*
Y264344D03*
Y272219D03*
Y280093D03*
Y287967D03*
Y295841D03*
Y303715D03*
Y311589D03*
Y319463D03*
Y327337D03*
Y335211D03*
Y343085D03*
Y350959D03*
Y358833D03*
Y366707D03*
Y374581D03*
Y382455D03*
Y390329D03*
Y398203D03*
Y406077D03*
Y413951D03*
Y421825D03*
Y429699D03*
Y437573D03*
Y445447D03*
Y453321D03*
Y461195D03*
Y469069D03*
Y476943D03*
Y484817D03*
Y492691D03*
Y500565D03*
Y508439D03*
Y516313D03*
Y524187D03*
Y532061D03*
Y539935D03*
Y547809D03*
Y555683D03*
Y563557D03*
Y571431D03*
Y579305D03*
Y587179D03*
Y595053D03*
Y602927D03*
Y610801D03*
Y618675D03*
Y626549D03*
Y634423D03*
Y642297D03*
Y650171D03*
Y658045D03*
Y665919D03*
Y673793D03*
Y681667D03*
Y689541D03*
Y697415D03*
Y705289D03*
Y713163D03*
Y721037D03*
Y728911D03*
Y736785D03*
Y744659D03*
Y752533D03*
Y760407D03*
Y768281D03*
Y776156D03*
Y784030D03*
Y791904D03*
Y799778D03*
Y807652D03*
Y815526D03*
X49221Y20250D03*
Y28124D03*
Y35998D03*
Y43872D03*
Y51746D03*
Y59620D03*
Y67494D03*
Y75368D03*
Y83242D03*
Y91116D03*
Y98990D03*
Y106864D03*
Y114738D03*
Y122612D03*
Y130486D03*
Y138360D03*
Y146234D03*
Y154108D03*
Y161982D03*
Y169856D03*
Y177730D03*
Y185604D03*
Y193478D03*
Y201352D03*
Y209226D03*
Y217100D03*
Y224974D03*
Y232848D03*
Y240722D03*
Y248596D03*
Y256470D03*
Y264344D03*
Y272219D03*
Y280093D03*
Y287967D03*
Y295841D03*
Y303715D03*
Y311589D03*
Y319463D03*
Y327337D03*
Y335211D03*
Y343085D03*
Y350959D03*
Y358833D03*
Y366707D03*
Y374581D03*
Y382455D03*
Y390329D03*
Y398203D03*
Y406077D03*
Y413951D03*
Y421825D03*
Y429699D03*
Y437573D03*
Y445447D03*
Y453321D03*
Y461195D03*
Y469069D03*
Y476943D03*
Y484817D03*
Y492691D03*
Y500565D03*
Y508439D03*
Y516313D03*
Y524187D03*
Y532061D03*
Y539935D03*
Y547809D03*
Y555683D03*
Y563557D03*
Y571431D03*
Y579305D03*
Y587179D03*
Y595053D03*
Y602927D03*
Y610801D03*
Y618675D03*
Y626549D03*
Y634423D03*
Y642297D03*
Y650171D03*
Y658045D03*
Y665919D03*
Y673793D03*
Y681667D03*
Y689541D03*
Y697415D03*
Y705289D03*
Y713163D03*
Y721037D03*
Y728911D03*
Y736785D03*
Y744659D03*
Y752533D03*
Y760407D03*
Y768281D03*
Y776156D03*
Y784030D03*
Y791904D03*
Y799778D03*
Y807652D03*
Y815526D03*
X59221Y20250D03*
Y28124D03*
Y35998D03*
Y43872D03*
Y51746D03*
Y59620D03*
Y67494D03*
Y75368D03*
Y83242D03*
Y91116D03*
Y98990D03*
Y106864D03*
Y114738D03*
Y122612D03*
Y130486D03*
Y138360D03*
Y146234D03*
Y154108D03*
Y161982D03*
Y169856D03*
Y177730D03*
Y185604D03*
Y193478D03*
Y201352D03*
Y209226D03*
Y217100D03*
Y224974D03*
Y232848D03*
Y240722D03*
Y248596D03*
Y256470D03*
Y264344D03*
Y272219D03*
Y280093D03*
Y287967D03*
Y295841D03*
Y303715D03*
Y311589D03*
Y319463D03*
Y327337D03*
Y335211D03*
Y343085D03*
Y350959D03*
Y358833D03*
Y366707D03*
Y374581D03*
Y382455D03*
Y390329D03*
Y398203D03*
Y406077D03*
Y413951D03*
Y421825D03*
Y429699D03*
Y437573D03*
Y445447D03*
Y453321D03*
Y461195D03*
Y469069D03*
Y476943D03*
Y484817D03*
Y492691D03*
Y500565D03*
Y508439D03*
Y516313D03*
Y524187D03*
Y532061D03*
Y539935D03*
Y547809D03*
Y555683D03*
Y563557D03*
Y571431D03*
Y579305D03*
Y587179D03*
Y595053D03*
Y602927D03*
Y610801D03*
Y618675D03*
Y626549D03*
Y634423D03*
Y642297D03*
Y650171D03*
Y658045D03*
Y665919D03*
Y673793D03*
Y681667D03*
Y689541D03*
Y697415D03*
Y705289D03*
Y713163D03*
Y721037D03*
Y728911D03*
Y736785D03*
Y744659D03*
Y752533D03*
Y760407D03*
Y768281D03*
Y776156D03*
Y784030D03*
Y791904D03*
Y799778D03*
Y807652D03*
Y815526D03*
D02*
D20*
X86721Y25388D03*
Y55388D03*
X96721Y25388D03*
Y55388D03*
X106721Y25388D03*
Y55388D03*
X116721Y25388D03*
Y55388D03*
X126721Y25388D03*
Y55388D03*
X136721Y25388D03*
Y55388D03*
X146721Y25388D03*
Y55388D03*
X0Y0D02*
M02*
