G04 DesignSpark PCB Gerber Version 13.0 Build *
%FSLAX35Y35*%
%MOIN*%
%ADD71R,0.06000X0.06000*%
%ADD19C,0.01500*%
%ADD18C,0.02500*%
%ADD16C,0.04800*%
%ADD14C,0.05000*%
%ADD15C,0.05600*%
%ADD20C,0.06000*%
%ADD23C,0.07000*%
%ADD17C,0.08000*%
%ADD70C,0.15000*%
%ADD21O,0.11000X0.06000*%
%ADD22O,0.15000X0.12500*%
X0Y0D02*
D02*
D14*
X25250Y710250D02*
Y782750D01*
X40250Y797750D01*
Y810250D01*
X35250Y195250D02*
Y95250D01*
Y295250D02*
Y195250D01*
Y395250D02*
Y295250D01*
Y495250D02*
Y395250D01*
Y595250D02*
Y495250D01*
Y695250D02*
Y777750D01*
X52750Y795250D01*
X70250D01*
X35250Y695250D02*
Y595250D01*
X45250Y85250D02*
X70250D01*
X45250Y185250D02*
Y85250D01*
Y185250D02*
X70250D01*
X45250Y285250D02*
Y185250D01*
Y285250D02*
X70250D01*
X45250Y385250D02*
Y285250D01*
Y385250D02*
X70250D01*
X45250Y485250D02*
Y385250D01*
Y485250D02*
X70250D01*
X45250Y585250D02*
Y485250D01*
Y585250D02*
Y685250D01*
Y772750D01*
X57750Y785250D01*
X70250D01*
X45250Y685250D02*
X70250D01*
X65250Y110250D02*
X80250D01*
Y95250D01*
X65250Y210250D02*
X80250D01*
Y195250D01*
X65250Y310250D02*
X80250D01*
Y295250D01*
X65250Y410250D02*
X80250D01*
Y395250D01*
X65250Y510250D02*
X80250D01*
Y495250D01*
X65250Y610250D02*
X80250D01*
Y595250D01*
X65250Y710250D02*
X80250D01*
Y695250D01*
X70250Y585250D02*
X45250D01*
X80250Y75250D02*
X110250D01*
X80250Y775250D02*
X110250D01*
X80250Y810250D02*
Y795250D01*
X110250Y175250D02*
X80250D01*
X110250Y275250D02*
X80250D01*
X110250Y375250D02*
X80250D01*
X110250Y475250D02*
X80250D01*
X110250Y575250D02*
X80250D01*
X110250Y675250D02*
X80250D01*
X120250Y135250D02*
Y35250D01*
Y235250D02*
Y135250D01*
Y335250D02*
Y235250D01*
Y435250D02*
Y335250D01*
Y505250D02*
Y435250D01*
Y535250D02*
Y505250D01*
Y635250D02*
Y535250D01*
Y735250D02*
Y635250D01*
X240250Y810998D02*
X280250D01*
Y785250D01*
X270250Y160250D02*
X280250D01*
X270250Y310250D02*
X280250D01*
X270250Y380250D02*
X280250D01*
X270250Y550250D02*
X280250D01*
X270250Y700250D02*
X280250D01*
Y160250D02*
Y70250D01*
X270250D01*
X280250Y190250D02*
X260250D01*
X280250D02*
Y160250D01*
Y220250D02*
Y190250D01*
Y220250D02*
X270250D01*
X280250Y310250D02*
Y220250D01*
Y329650D02*
Y310250D01*
Y370250D02*
Y329650D01*
Y370250D02*
X270250D01*
X280250Y380250D02*
Y370250D01*
Y520250D02*
Y380250D01*
Y520250D02*
X270250D01*
X280250Y550250D02*
Y520250D01*
Y600250D02*
Y670250D01*
Y600250D02*
Y550250D01*
Y670250D02*
X270250D01*
X280250Y700250D02*
Y670250D01*
Y750250D02*
Y785250D01*
Y750250D02*
Y700250D01*
X290250Y310250D02*
Y160250D01*
X300250D01*
X290250Y310250D02*
X300250D01*
X290250Y440250D02*
Y505250D01*
Y440250D02*
Y310250D01*
Y440250D02*
X300250D01*
X290250Y590250D02*
Y505250D01*
Y590250D02*
X300250D01*
Y170250D02*
Y160250D01*
Y180250D02*
Y170250D01*
Y320250D02*
Y310250D01*
Y450250D02*
Y440250D01*
Y600250D02*
Y590250D01*
Y740250D02*
X290250D01*
Y590250D01*
X300250Y750250D02*
Y740250D01*
Y760250D02*
Y750250D01*
X335250Y280250D02*
X325250D01*
Y25250D01*
X55250D01*
Y55250D01*
X45250D01*
Y85250D01*
X345250Y810250D02*
Y800250D01*
X350250Y145250D02*
Y110250D01*
X375250Y165250D02*
Y145250D01*
X360250D01*
X375250Y190250D02*
Y165250D01*
Y222750D02*
Y190250D01*
Y255250D02*
Y222750D01*
Y280250D02*
Y255250D01*
X385250Y750250D02*
Y775250D01*
X395250Y500250D02*
Y630250D01*
Y650250D01*
X440250Y630250D02*
X460250D01*
Y670250D01*
X440250Y630250D02*
Y510250D01*
X460250Y245250D02*
X470250D01*
X460250Y670250D02*
Y740250D01*
X450250D01*
X465250Y410250D02*
X450250D01*
Y365250D01*
X465250Y420250D02*
X475250D01*
X470250Y222750D02*
X375250D01*
X470250D02*
Y200250D01*
X460250D01*
X470250Y222750D02*
X490250D01*
X470250Y245250D02*
Y222750D01*
Y365250D02*
X475250D01*
X470250Y465250D02*
X475250D01*
Y420250D01*
X470250Y650250D02*
Y750250D01*
X475250Y329650D02*
Y320250D01*
X470250Y315250D01*
Y245250D01*
X475250Y365250D02*
Y329650D01*
Y420250D02*
Y365250D01*
X490250Y500250D02*
Y410250D01*
X500250Y530250D02*
Y520250D01*
Y610250D02*
Y600250D01*
X520250Y175250D02*
Y150250D01*
Y175250D02*
X490250D01*
Y212750D01*
X520250Y265250D02*
X490250D01*
Y232750D01*
X520250Y290250D02*
Y265250D01*
Y435250D02*
Y460250D01*
X530250Y570250D02*
Y560250D01*
X535250Y780250D02*
Y800250D01*
X545250Y770250D02*
Y800250D01*
X550250Y510250D02*
Y505250D01*
X535250Y490250D01*
X525250D01*
X550250Y620250D02*
Y625250D01*
X535250Y640250D01*
X525250D01*
X565250Y520250D02*
Y500250D01*
Y560250D02*
Y545250D01*
X570250Y540250D01*
X565250Y600250D02*
X555250Y610250D01*
Y615250D01*
X550250Y620250D01*
X570250Y125250D02*
X575250D01*
Y60250D01*
X590250D01*
X570250Y135250D02*
X590250D01*
Y100250D01*
X570250Y530250D02*
X565250D01*
X555250Y520250D01*
Y515250D01*
X550250Y510250D01*
X575250Y600250D02*
X585250D01*
Y530250D01*
X570250D01*
X575250Y610250D02*
X565250D01*
X575250D02*
X595250D01*
Y462750D01*
X522750D01*
X520250Y460250D01*
X575250Y660250D02*
Y610250D01*
X605250Y470250D02*
Y500250D01*
Y560250D01*
Y625250D01*
X620250Y500250D02*
X605250D01*
X625250Y204850D02*
Y175250D01*
Y236050D02*
X605250D01*
Y150250D01*
X627850Y280250D02*
X625250Y282850D01*
X640250Y670250D02*
Y615250D01*
X650250D01*
D02*
D15*
X35250Y95250D03*
Y195250D03*
Y295250D03*
Y395250D03*
Y495250D03*
Y595250D03*
Y695250D03*
X110250Y320250D03*
X120250Y35250D03*
Y135250D03*
Y235250D03*
Y335250D03*
Y435250D03*
Y505250D03*
Y535250D03*
Y635250D03*
Y735250D03*
X280250Y329650D03*
Y785250D03*
X290250Y505250D03*
X385250Y750250D03*
X395250Y500250D03*
Y630250D03*
Y650250D03*
X440250Y510250D03*
X460250Y670250D03*
X470250Y650250D03*
Y750250D03*
X475250Y329650D03*
X490250Y410250D03*
Y500250D03*
X545250Y770250D03*
X565250Y500250D03*
X575250Y660250D03*
X605250Y150250D03*
Y470250D03*
Y560250D03*
Y625250D03*
X640250Y670250D03*
D02*
D16*
X140250Y525250D03*
Y715250D03*
Y735250D03*
X145250Y465250D03*
Y705250D03*
X150250Y365250D03*
Y695250D03*
X155250Y265250D03*
Y685250D03*
X160250Y165250D03*
Y675250D03*
X165250Y65250D03*
Y680250D03*
X170250Y270250D03*
Y425250D03*
Y440250D03*
Y470250D03*
Y545250D03*
Y565250D03*
Y575250D03*
Y645250D03*
Y665250D03*
Y725250D03*
X175250Y120250D03*
Y185250D03*
Y230250D03*
Y355250D03*
Y370250D03*
Y435250D03*
Y445250D03*
Y555250D03*
X180250Y80250D03*
Y385250D03*
Y410250D03*
Y770250D03*
X185250Y170250D03*
Y415250D03*
Y430250D03*
Y570250D03*
X190250Y55250D03*
Y290250D03*
Y345250D03*
Y545250D03*
X195250Y70250D03*
Y405250D03*
Y420250D03*
Y670250D03*
X200250Y155250D03*
Y270250D03*
Y295250D03*
Y755250D03*
X205250Y275250D03*
Y655250D03*
X210250Y255250D03*
Y550250D03*
X215250Y235250D03*
Y455250D03*
Y770250D03*
Y795250D03*
X220250Y245250D03*
Y535250D03*
Y585250D03*
Y745250D03*
X225250Y145250D03*
Y785250D03*
X230250Y125250D03*
Y690250D03*
X235250Y105250D03*
Y590250D03*
X240250Y85250D03*
Y485250D03*
Y560250D03*
Y650250D03*
Y660250D03*
Y710250D03*
Y775250D03*
X245250Y45250D03*
Y530250D03*
Y570250D03*
Y615250D03*
Y720250D03*
X250250Y100250D03*
Y285250D03*
Y580250D03*
Y610250D03*
Y730250D03*
X255250Y90250D03*
Y140250D03*
Y155250D03*
Y305250D03*
Y590250D03*
Y605250D03*
Y740250D03*
X260250Y475250D03*
X310250Y560250D03*
Y620250D03*
Y775250D03*
X315250Y550250D03*
Y630250D03*
Y770250D03*
X320250Y475250D03*
Y690250D03*
X325250Y370250D03*
Y570250D03*
Y615250D03*
X330250Y380250D03*
Y580250D03*
Y610250D03*
Y650250D03*
Y705250D03*
X335250Y390250D03*
Y590250D03*
Y605250D03*
Y615250D03*
Y630250D03*
Y660250D03*
Y710250D03*
X345250Y765250D03*
X350250Y680250D03*
X360250Y720250D03*
X370250Y530250D03*
X375250Y520250D03*
X380250Y650250D03*
X385250Y590250D03*
Y690250D03*
X395250D03*
X400250Y680250D03*
Y765250D03*
X415250Y690250D03*
Y730250D03*
X420250Y790250D03*
X425250Y590250D03*
Y610250D03*
Y720250D03*
X430250Y600250D03*
Y620250D03*
Y795250D03*
X535250Y780250D03*
X555250Y575250D03*
X575250Y790250D03*
X630250Y615250D03*
Y635250D03*
Y790250D03*
X635250Y795250D03*
D02*
D17*
X15250Y165250D02*
Y65250D01*
Y265250D02*
Y165250D01*
Y365250D02*
Y265250D01*
Y465250D02*
Y365250D01*
Y565250D02*
Y465250D01*
Y665250D02*
Y565250D01*
Y765250D02*
Y665250D01*
X25250Y210250D02*
Y110250D01*
Y310250D02*
Y210250D01*
Y410250D02*
Y310250D01*
Y510250D02*
Y410250D01*
Y610250D02*
Y510250D01*
Y710250D02*
Y610250D01*
X110250Y75250D02*
Y175250D01*
Y275250D02*
Y175250D01*
Y320250D02*
Y275250D01*
Y375250D02*
Y320250D01*
Y475250D02*
Y375250D01*
Y575250D02*
Y475250D01*
Y675250D02*
Y575250D01*
Y775250D02*
Y675250D01*
X470250Y100250D02*
X485250D01*
X500250D01*
X485250D02*
Y15250D01*
X45250D01*
Y45250D01*
X25250D01*
Y110250D01*
X520250Y205250D02*
X550250D01*
Y175250D01*
X520250Y235250D02*
X590250D01*
Y175250D01*
X520250Y375250D02*
X550250D01*
Y345250D01*
X625250Y251650D02*
X645250D01*
Y100250D01*
X590250D01*
X625250Y298450D02*
X590250D01*
Y265250D01*
X625250Y314050D02*
X575250D01*
Y435250D01*
X550250D01*
X625250Y329650D02*
X645250D01*
Y280250D01*
X627850D01*
X625250Y345250D02*
X610250D01*
Y435250D01*
X590250D01*
D02*
D18*
X535250Y810250D02*
X545250Y800250D01*
D02*
D19*
X140250Y525250D02*
Y145250D01*
X135250D01*
X140250Y715250D02*
Y565250D01*
X135250D01*
X140250Y735250D02*
Y765250D01*
X135250D01*
X145250Y705250D02*
Y465250D01*
X150250Y695250D02*
Y365250D01*
X155250Y685250D02*
Y265250D01*
X160250Y675250D02*
Y165250D01*
X165250Y680250D02*
Y65250D01*
X170250Y425250D02*
Y270250D01*
Y440250D02*
Y470250D01*
Y565250D02*
Y545250D01*
Y575250D02*
Y645250D01*
Y725250D02*
Y665250D01*
X175250Y120250D02*
Y185250D01*
Y230250D02*
Y355250D01*
Y435250D02*
Y370250D01*
Y555250D02*
Y445250D01*
X180250Y80250D02*
Y385250D01*
Y410250D02*
Y770250D01*
X185250Y415250D02*
Y170250D01*
Y430250D02*
Y570250D01*
X190250Y290250D02*
Y55250D01*
Y545250D02*
Y345250D01*
X195250Y405250D02*
Y70250D01*
Y670250D02*
Y420250D01*
X200250Y270250D02*
Y155250D01*
Y295250D02*
Y755250D01*
X205250Y275250D02*
Y655250D01*
X210250Y255250D02*
Y550250D01*
X215250Y235250D02*
Y455250D01*
Y795250D02*
Y770250D01*
X220250Y535250D02*
Y245250D01*
Y585250D02*
Y745250D01*
X225250Y785250D02*
Y145250D01*
X230250Y125250D02*
Y690250D01*
X235250Y105250D02*
Y590250D01*
X240250Y85250D02*
Y485250D01*
Y650250D02*
Y560250D01*
Y660250D02*
Y710250D01*
Y775250D02*
Y795250D01*
X245250Y530250D02*
Y45250D01*
Y615250D02*
Y720250D01*
Y615250D02*
Y570250D01*
X250250Y100250D02*
Y285250D01*
Y610250D02*
Y730250D01*
Y610250D02*
Y580250D01*
X255250Y140250D02*
Y90250D01*
Y155250D02*
Y180250D01*
X260250D01*
X255250Y305250D02*
Y180250D01*
Y605250D02*
Y590250D01*
Y740250D02*
Y605250D01*
X260250Y110250D02*
Y130250D01*
Y110250D02*
X270250D01*
X260250Y130250D02*
Y150250D01*
X270250D01*
X260250Y130250D02*
X270250D01*
X260250Y260250D02*
Y280250D01*
Y260250D02*
X270250D01*
X260250Y280250D02*
Y300250D01*
X270250D01*
X260250Y280250D02*
X270250D01*
X260250Y690250D02*
Y540250D01*
X270250D01*
X260250Y690250D02*
X270250D01*
X260250Y760250D02*
Y690250D01*
X270250Y90250D02*
X260250D01*
Y110250D01*
X270250Y240250D02*
X260250D01*
Y260250D01*
X270250Y400250D02*
X260250D01*
Y475250D01*
X300250Y130250D02*
X310250D01*
X300250Y280250D02*
X310250D01*
Y90250D02*
Y70250D01*
X300250D01*
X310250Y90250D02*
X300250D01*
X310250Y110250D02*
Y90250D01*
Y110250D02*
X300250D01*
X310250Y130250D02*
Y110250D01*
Y240250D02*
Y220250D01*
X300250D01*
X310250Y240250D02*
X300250D01*
X310250Y260250D02*
Y240250D01*
Y260250D02*
X300250D01*
X310250Y280250D02*
Y260250D01*
Y560250D02*
Y280250D01*
Y620250D02*
Y775250D01*
X315250Y550250D02*
Y130250D01*
X310250D01*
X315250Y630250D02*
Y770250D01*
X320250Y475250D02*
Y690250D01*
X325250Y570250D02*
Y370250D01*
Y570250D02*
Y615250D01*
Y800250D02*
Y775250D01*
Y810250D02*
X330250Y805250D01*
Y770250D01*
X325250Y765250D01*
X330250Y580250D02*
Y380250D01*
Y580250D02*
Y610250D01*
Y705250D02*
Y650250D01*
X335250Y590250D02*
Y390250D01*
Y590250D02*
Y605250D01*
Y615250D02*
Y630250D01*
Y710250D02*
Y660250D01*
Y800250D02*
Y775250D01*
Y810250D02*
X340250Y805250D01*
Y770250D01*
X335250Y765250D01*
X350250Y700250D02*
X355250D01*
X350250D02*
Y680250D01*
Y720250D02*
X340250D01*
Y600250D01*
X350250D01*
X355250Y700250D02*
Y725250D01*
X360250Y730250D01*
Y805250D01*
X365250Y810250D01*
X355250Y800250D02*
Y775250D01*
Y810250D02*
X350250Y805250D01*
Y790250D01*
X345250Y785250D01*
Y765250D01*
X360250Y720250D02*
Y660250D01*
X350250D01*
X365250Y800250D02*
Y540250D01*
X350250D01*
X370250Y700250D02*
Y530250D01*
Y790250D02*
Y730250D01*
X375250Y725250D01*
Y700250D01*
X370250D01*
Y790250D02*
Y805250D01*
X375250Y810250D01*
Y520250D02*
Y640250D01*
X385250D01*
Y680250D01*
X390250Y685250D01*
Y700250D01*
X375250Y800250D02*
Y775250D01*
X385250Y190250D02*
Y215250D01*
X405250D01*
X385250Y690250D02*
Y710250D01*
X390250D01*
Y720250D02*
X380250D01*
Y650250D01*
X395250Y690250D02*
Y680250D01*
X390250Y675250D01*
Y635250D01*
X385250D01*
Y590250D01*
X400250Y680250D02*
Y520250D01*
X410250D01*
X400250Y765250D02*
Y700250D01*
X390250D01*
X405250Y230250D02*
X385250D01*
Y255250D01*
X415250Y730250D02*
Y690250D01*
Y740250D02*
X420250Y745250D01*
Y790250D01*
X415250Y740250D02*
Y730250D01*
X425250Y610250D02*
Y590250D01*
Y720250D02*
Y685250D01*
X420250Y680250D01*
Y600250D01*
X410250D01*
X425250Y740250D02*
X430250Y745250D01*
Y795250D01*
X425250Y740250D02*
Y720250D01*
X430250Y620250D02*
Y600250D01*
X515250D02*
Y585250D01*
X510250Y580250D01*
X500250D01*
X555250Y600250D02*
Y575250D01*
X565250Y800250D02*
X575250Y790250D01*
X565250Y810250D02*
Y800250D01*
X615250Y605250D02*
X620250D01*
Y590250D01*
Y550250D02*
Y540250D01*
X630250Y550250D02*
Y540250D01*
Y590250D02*
X625250Y595250D01*
Y625250D01*
X615250Y635250D01*
X630250Y615250D02*
Y635250D01*
Y790250D02*
Y710250D01*
X650250D01*
X635250Y795250D02*
Y720250D01*
X650250D01*
D02*
D70*
X17750Y17750D03*
Y812750D03*
X365250Y357750D03*
Y472750D03*
X395250Y142750D03*
Y302750D03*
X425250Y357750D03*
Y472750D03*
X455250Y142750D03*
Y302750D03*
X500250Y60250D03*
Y100250D03*
X550250Y175250D03*
Y265250D03*
Y345250D03*
Y435250D03*
X590250Y60250D03*
Y100250D03*
Y175250D03*
Y265250D03*
Y345250D03*
Y435250D03*
X657750Y17750D03*
Y812750D03*
D02*
D71*
X70250Y45250D03*
Y55250D03*
Y65250D03*
Y75250D03*
Y85250D03*
Y95250D03*
Y145250D03*
Y155250D03*
Y165250D03*
Y175250D03*
Y185250D03*
Y195250D03*
Y245250D03*
Y255250D03*
Y265250D03*
Y275250D03*
Y285250D03*
Y295250D03*
Y345250D03*
Y355250D03*
Y365250D03*
Y375250D03*
Y385250D03*
Y395250D03*
Y445250D03*
Y455250D03*
Y465250D03*
Y475250D03*
Y485250D03*
Y495250D03*
Y545250D03*
Y555250D03*
Y565250D03*
Y575250D03*
Y585250D03*
Y595250D03*
Y645250D03*
Y655250D03*
Y665250D03*
Y675250D03*
Y685250D03*
Y695250D03*
Y745250D03*
Y755250D03*
Y765250D03*
Y775250D03*
Y785250D03*
Y795250D03*
X80250Y45250D03*
Y55250D03*
Y65250D03*
Y75250D03*
Y85250D03*
Y95250D03*
Y145250D03*
Y155250D03*
Y165250D03*
Y175250D03*
Y185250D03*
Y195250D03*
Y245250D03*
Y255250D03*
Y265250D03*
Y275250D03*
Y285250D03*
Y295250D03*
Y345250D03*
Y355250D03*
Y365250D03*
Y375250D03*
Y385250D03*
Y395250D03*
Y445250D03*
Y455250D03*
Y465250D03*
Y475250D03*
Y485250D03*
Y495250D03*
Y545250D03*
Y555250D03*
Y565250D03*
Y575250D03*
Y585250D03*
Y595250D03*
Y645250D03*
Y655250D03*
Y665250D03*
Y675250D03*
Y685250D03*
Y695250D03*
Y745250D03*
Y755250D03*
Y765250D03*
Y775250D03*
Y785250D03*
Y795250D03*
X260250Y190250D03*
X325250Y765250D03*
Y775250D03*
Y800250D03*
Y810250D03*
X335250Y765250D03*
Y775250D03*
Y800250D03*
Y810250D03*
X340250Y145250D03*
X345250Y210250D03*
Y235250D03*
Y800250D03*
Y810250D03*
X350250Y145250D03*
Y700250D03*
Y710250D03*
Y720250D03*
X355250Y775250D03*
Y800250D03*
Y810250D03*
X360250Y145250D03*
X365250Y800250D03*
Y810250D03*
X370250Y390250D03*
Y440250D03*
Y700250D03*
Y710250D03*
Y720250D03*
X375250Y775250D03*
Y800250D03*
Y810250D03*
X385250Y775250D03*
X390250Y700250D03*
Y710250D03*
Y720250D03*
X430250Y530250D03*
Y540250D03*
Y630250D03*
Y640250D03*
Y660250D03*
X440250Y630250D03*
Y660250D03*
X450250Y530250D03*
Y540250D03*
Y720250D03*
Y730250D03*
Y740250D03*
Y750250D03*
X465250Y410250D03*
Y420250D03*
X470250Y60250D03*
Y100250D03*
X490250Y212750D03*
Y222750D03*
Y232750D03*
X535250Y800250D03*
Y810250D03*
X545250Y800250D03*
Y810250D03*
X555250Y800250D03*
Y810250D03*
X565250Y800250D03*
Y810250D03*
X625250Y175250D03*
X640250Y540250D03*
Y550250D03*
X650250Y615250D03*
Y625250D03*
Y635250D03*
Y645250D03*
Y710250D03*
Y720250D03*
Y730250D03*
Y740250D03*
Y750250D03*
D02*
D20*
X15250Y65250D03*
Y165250D03*
Y265250D03*
Y365250D03*
Y465250D03*
Y565250D03*
Y665250D03*
Y765250D03*
X25250Y110250D03*
Y210250D03*
Y310250D03*
Y410250D03*
Y510250D03*
Y610250D03*
Y710250D03*
X40250Y810250D03*
X55250Y65250D03*
Y165250D03*
Y265250D03*
Y365250D03*
Y465250D03*
Y565250D03*
Y665250D03*
Y765250D03*
X65250Y110250D03*
Y210250D03*
Y310250D03*
Y410250D03*
Y510250D03*
Y610250D03*
Y710250D03*
X80250Y810250D03*
X95250Y45250D03*
Y55250D03*
Y65250D03*
Y85250D03*
Y145250D03*
Y155250D03*
Y165250D03*
Y185250D03*
Y245250D03*
Y255250D03*
Y265250D03*
Y285250D03*
Y345250D03*
Y355250D03*
Y365250D03*
Y385250D03*
Y445250D03*
Y455250D03*
Y465250D03*
Y485250D03*
Y545250D03*
Y555250D03*
Y565250D03*
Y585250D03*
Y645250D03*
Y655250D03*
Y665250D03*
Y685250D03*
Y745250D03*
Y755250D03*
Y765250D03*
Y785250D03*
X135250Y45250D03*
Y55250D03*
Y65250D03*
Y85250D03*
Y145250D03*
Y155250D03*
Y165250D03*
Y185250D03*
Y245250D03*
Y255250D03*
Y265250D03*
Y285250D03*
Y345250D03*
Y355250D03*
Y365250D03*
Y385250D03*
Y445250D03*
Y455250D03*
Y465250D03*
Y485250D03*
Y545250D03*
Y555250D03*
Y565250D03*
Y585250D03*
Y645250D03*
Y655250D03*
Y665250D03*
Y685250D03*
Y745250D03*
Y755250D03*
Y765250D03*
Y785250D03*
X260250Y180250D03*
Y760250D03*
X280250Y170250D03*
Y320250D03*
Y450250D03*
Y600250D03*
Y750250D03*
X300250Y170250D03*
Y180250D03*
Y320250D03*
Y450250D03*
Y600250D03*
Y750250D03*
Y760250D03*
X335250Y165250D03*
Y280250D03*
X345250Y190250D03*
Y255250D03*
X350250Y80250D03*
Y110250D03*
X355250Y190250D03*
Y255250D03*
X375250Y165250D03*
Y190250D03*
Y255250D03*
Y280250D03*
X380250Y80250D03*
Y90250D03*
X385250Y190250D03*
Y255250D03*
Y390250D03*
Y410250D03*
Y420250D03*
Y440250D03*
X405250Y185250D03*
Y215250D03*
Y230250D03*
Y260250D03*
Y390250D03*
Y410250D03*
Y420250D03*
Y440250D03*
X415250Y740250D03*
Y780250D03*
X425250Y175250D03*
Y215250D03*
Y230250D03*
Y270250D03*
Y740250D03*
Y780250D03*
X450250Y365250D03*
Y465250D03*
X460250Y180250D03*
Y200250D03*
Y245250D03*
Y265250D03*
X470250Y365250D03*
Y465250D03*
X480250Y150250D03*
Y290250D03*
X500250Y480250D03*
Y520250D03*
Y610250D03*
Y650250D03*
X515250Y530250D03*
Y600250D03*
X520250Y150250D03*
Y290250D03*
Y555250D03*
Y575250D03*
X525250Y480250D03*
Y490250D03*
Y640250D03*
Y650250D03*
X530250Y125250D03*
Y135250D03*
Y540250D03*
Y560250D03*
Y570250D03*
Y590250D03*
X550250Y480250D03*
Y510250D03*
Y620250D03*
Y650250D03*
X555250Y530250D03*
Y600250D03*
X565250Y480250D03*
Y520250D03*
Y560250D03*
Y600250D03*
Y610250D03*
Y650250D03*
X570250Y125250D03*
Y135250D03*
Y530250D03*
Y540250D03*
X575250Y560250D03*
Y600250D03*
X615250Y605250D03*
Y615250D03*
Y635250D03*
Y645250D03*
X620250Y500250D03*
Y540250D03*
Y550250D03*
Y590250D03*
X630250Y500250D03*
Y540250D03*
Y550250D03*
Y590250D03*
D02*
D21*
X270250Y70250D03*
Y80250D03*
Y90250D03*
Y100250D03*
Y110250D03*
Y120250D03*
Y130250D03*
Y140250D03*
Y150250D03*
Y160250D03*
Y220250D03*
Y230250D03*
Y240250D03*
Y250250D03*
Y260250D03*
Y270250D03*
Y280250D03*
Y290250D03*
Y300250D03*
Y310250D03*
Y370250D03*
Y380250D03*
Y390250D03*
Y400250D03*
Y410250D03*
Y420250D03*
Y430250D03*
Y440250D03*
Y520250D03*
Y530250D03*
Y540250D03*
Y550250D03*
Y560250D03*
Y570250D03*
Y580250D03*
Y590250D03*
Y670250D03*
Y680250D03*
Y690250D03*
Y700250D03*
Y710250D03*
Y720250D03*
Y730250D03*
Y740250D03*
X300250Y70250D03*
Y80250D03*
Y90250D03*
Y100250D03*
Y110250D03*
Y120250D03*
Y130250D03*
Y140250D03*
Y150250D03*
Y160250D03*
Y220250D03*
Y230250D03*
Y240250D03*
Y250250D03*
Y260250D03*
Y270250D03*
Y280250D03*
Y290250D03*
Y300250D03*
Y310250D03*
Y370250D03*
Y380250D03*
Y390250D03*
Y400250D03*
Y410250D03*
Y420250D03*
Y430250D03*
Y440250D03*
Y520250D03*
Y530250D03*
Y540250D03*
Y550250D03*
Y560250D03*
Y570250D03*
Y580250D03*
Y590250D03*
Y670250D03*
Y680250D03*
Y690250D03*
Y700250D03*
Y710250D03*
Y720250D03*
Y730250D03*
Y740250D03*
X350250Y520250D03*
Y530250D03*
Y540250D03*
Y550250D03*
Y560250D03*
Y570250D03*
Y580250D03*
Y590250D03*
Y600250D03*
Y610250D03*
Y620250D03*
Y630250D03*
Y640250D03*
Y650250D03*
Y660250D03*
X410250Y520250D03*
Y530250D03*
Y540250D03*
Y550250D03*
Y560250D03*
Y570250D03*
Y580250D03*
Y590250D03*
Y600250D03*
Y610250D03*
Y620250D03*
Y630250D03*
Y640250D03*
Y650250D03*
Y660250D03*
X470250Y530250D03*
Y540250D03*
Y550250D03*
Y560250D03*
Y570250D03*
Y580250D03*
Y590250D03*
Y600250D03*
X500250Y530250D03*
Y540250D03*
Y550250D03*
Y560250D03*
Y570250D03*
Y580250D03*
Y590250D03*
Y600250D03*
D02*
D22*
X520250Y175250D03*
Y205250D03*
Y235250D03*
Y265250D03*
Y345250D03*
Y375250D03*
Y405250D03*
Y435250D03*
X625250Y204850D03*
Y220450D03*
Y236050D03*
Y251650D03*
Y267250D03*
Y282850D03*
Y298450D03*
Y314050D03*
Y329650D03*
Y345250D03*
D02*
D23*
X190250Y795250D03*
Y810998D03*
X240250Y795250D03*
Y810998D03*
X385250Y355250D03*
Y470250D03*
X395250Y355250D03*
Y470250D03*
X405250Y355250D03*
Y470250D03*
X415250Y145250D03*
Y305250D03*
X425250Y145250D03*
Y305250D03*
X435250Y145250D03*
Y305250D03*
X0Y0D02*
M02*
