G04 DesignSpark PCB Gerber Version 13.0 Build *
%FSLAX35Y35*%
%MOIN*%
%ADD11C,0.00100*%
%ADD10C,0.00500*%
%ADD13C,0.00700*%
%ADD12C,0.01000*%
X0Y0D02*
D02*
D10*
X20250Y65250D02*
X25250D01*
X20250Y165250D02*
X25250D01*
X20250Y265250D02*
X25250D01*
X20250Y365250D02*
X25250D01*
X20250Y465250D02*
X25250D01*
X20250Y565250D02*
X25250D01*
X20250Y665250D02*
X25250D01*
X20250Y765250D02*
X25250D01*
Y60250D02*
Y70250D01*
X45250D01*
Y60250D01*
X25250D01*
Y71187D02*
Y74937D01*
X27437D01*
X28063Y74625D01*
X28375Y74000D01*
X28063Y73375D01*
X27437Y73063D01*
X25250D01*
X27437D02*
X28375Y71187D01*
X30875D02*
X32125D01*
X31500D02*
Y74937D01*
X30875Y74313D01*
X36187Y73063D02*
X36813D01*
X37437Y73375D01*
X37750Y74000D01*
X37437Y74625D01*
X36813Y74937D01*
X36187D01*
X35563Y74625D01*
X35250Y74000D01*
X35563Y73375D01*
X36187Y73063D01*
X35563Y72750D01*
X35250Y72125D01*
X35563Y71500D01*
X36187Y71187D01*
X36813D01*
X37437Y71500D01*
X37750Y72125D01*
X37437Y72750D01*
X36813Y73063D01*
X42750Y71187D02*
X40250D01*
X42437Y73375D01*
X42750Y74000D01*
X42437Y74625D01*
X41813Y74937D01*
X40875D01*
X40250Y74625D01*
X25250Y160250D02*
Y170250D01*
X45250D01*
Y160250D01*
X25250D01*
Y171187D02*
Y174937D01*
X27437D01*
X28063Y174625D01*
X28375Y174000D01*
X28063Y173375D01*
X27437Y173063D01*
X25250D01*
X27437D02*
X28375Y171187D01*
X30875D02*
X32125D01*
X31500D02*
Y174937D01*
X30875Y174313D01*
X35250Y171187D02*
X37750Y174937D01*
X35250D01*
X42750Y171187D02*
X40250D01*
X42437Y173375D01*
X42750Y174000D01*
X42437Y174625D01*
X41813Y174937D01*
X40875D01*
X40250Y174625D01*
X25250Y260250D02*
Y270250D01*
X45250D01*
Y260250D01*
X25250D01*
Y271187D02*
Y274937D01*
X27437D01*
X28063Y274625D01*
X28375Y274000D01*
X28063Y273375D01*
X27437Y273063D01*
X25250D01*
X27437D02*
X28375Y271187D01*
X30875D02*
X32125D01*
X31500D02*
Y274937D01*
X30875Y274313D01*
X35250Y272125D02*
X35563Y272750D01*
X36187Y273063D01*
X36813D01*
X37437Y272750D01*
X37750Y272125D01*
X37437Y271500D01*
X36813Y271187D01*
X36187D01*
X35563Y271500D01*
X35250Y272125D01*
Y273063D01*
X35563Y274000D01*
X36187Y274625D01*
X36813Y274937D01*
X42750Y271187D02*
X40250D01*
X42437Y273375D01*
X42750Y274000D01*
X42437Y274625D01*
X41813Y274937D01*
X40875D01*
X40250Y274625D01*
X25250Y360250D02*
Y370250D01*
X45250D01*
Y360250D01*
X25250D01*
Y371187D02*
Y374937D01*
X27437D01*
X28063Y374625D01*
X28375Y374000D01*
X28063Y373375D01*
X27437Y373063D01*
X25250D01*
X27437D02*
X28375Y371187D01*
X30875D02*
X32125D01*
X31500D02*
Y374937D01*
X30875Y374313D01*
X35250Y371500D02*
X35875Y371187D01*
X36813D01*
X37437Y371500D01*
X37750Y372125D01*
Y372437D01*
X37437Y373063D01*
X36813Y373375D01*
X35250D01*
Y374937D01*
X37750D01*
X42750Y371187D02*
X40250D01*
X42437Y373375D01*
X42750Y374000D01*
X42437Y374625D01*
X41813Y374937D01*
X40875D01*
X40250Y374625D01*
X25250Y460250D02*
Y470250D01*
X45250D01*
Y460250D01*
X25250D01*
Y471187D02*
Y474937D01*
X27437D01*
X28063Y474625D01*
X28375Y474000D01*
X28063Y473375D01*
X27437Y473063D01*
X25250D01*
X27437D02*
X28375Y471187D01*
X30875D02*
X32125D01*
X31500D02*
Y474937D01*
X30875Y474313D01*
X36813Y471187D02*
Y474937D01*
X35250Y472437D01*
X37750D01*
X42750Y471187D02*
X40250D01*
X42437Y473375D01*
X42750Y474000D01*
X42437Y474625D01*
X41813Y474937D01*
X40875D01*
X40250Y474625D01*
X25250Y560250D02*
Y570250D01*
X45250D01*
Y560250D01*
X25250D01*
Y571187D02*
Y574937D01*
X27437D01*
X28063Y574625D01*
X28375Y574000D01*
X28063Y573375D01*
X27437Y573063D01*
X25250D01*
X27437D02*
X28375Y571187D01*
X30875D02*
X32125D01*
X31500D02*
Y574937D01*
X30875Y574313D01*
X35563Y571500D02*
X36187Y571187D01*
X36813D01*
X37437Y571500D01*
X37750Y572125D01*
X37437Y572750D01*
X36813Y573063D01*
X36187D01*
X36813D02*
X37437Y573375D01*
X37750Y574000D01*
X37437Y574625D01*
X36813Y574937D01*
X36187D01*
X35563Y574625D01*
X42750Y571187D02*
X40250D01*
X42437Y573375D01*
X42750Y574000D01*
X42437Y574625D01*
X41813Y574937D01*
X40875D01*
X40250Y574625D01*
X25250Y660250D02*
Y670250D01*
X45250D01*
Y660250D01*
X25250D01*
Y671187D02*
Y674937D01*
X27437D01*
X28063Y674625D01*
X28375Y674000D01*
X28063Y673375D01*
X27437Y673063D01*
X25250D01*
X27437D02*
X28375Y671187D01*
X30875D02*
X32125D01*
X31500D02*
Y674937D01*
X30875Y674313D01*
X37750Y671187D02*
X35250D01*
X37437Y673375D01*
X37750Y674000D01*
X37437Y674625D01*
X36813Y674937D01*
X35875D01*
X35250Y674625D01*
X42750Y671187D02*
X40250D01*
X42437Y673375D01*
X42750Y674000D01*
X42437Y674625D01*
X41813Y674937D01*
X40875D01*
X40250Y674625D01*
X25250Y760250D02*
Y770250D01*
X45250D01*
Y760250D01*
X25250D01*
Y771187D02*
Y774937D01*
X27437D01*
X28063Y774625D01*
X28375Y774000D01*
X28063Y773375D01*
X27437Y773063D01*
X25250D01*
X27437D02*
X28375Y771187D01*
X30875D02*
X32125D01*
X31500D02*
Y774937D01*
X30875Y774313D01*
X35875Y771187D02*
X37125D01*
X36500D02*
Y774937D01*
X35875Y774313D01*
X42750Y771187D02*
X40250D01*
X42437Y773375D01*
X42750Y774000D01*
X42437Y774625D01*
X41813Y774937D01*
X40875D01*
X40250Y774625D01*
X35250Y110250D02*
X30250D01*
X35250Y116187D02*
Y119937D01*
X37437D01*
X38063Y119625D01*
X38375Y119000D01*
X38063Y118375D01*
X37437Y118063D01*
X35250D01*
X37437D02*
X38375Y116187D01*
X40875D02*
X42125D01*
X41500D02*
Y119937D01*
X40875Y119313D01*
X46187Y118063D02*
X46813D01*
X47437Y118375D01*
X47750Y119000D01*
X47437Y119625D01*
X46813Y119937D01*
X46187D01*
X45563Y119625D01*
X45250Y119000D01*
X45563Y118375D01*
X46187Y118063D01*
X45563Y117750D01*
X45250Y117125D01*
X45563Y116500D01*
X46187Y116187D01*
X46813D01*
X47437Y116500D01*
X47750Y117125D01*
X47437Y117750D01*
X46813Y118063D01*
X50875Y116187D02*
X52125D01*
X51500D02*
Y119937D01*
X50875Y119313D01*
X35250Y210250D02*
X30250D01*
X35250Y216187D02*
Y219937D01*
X37437D01*
X38063Y219625D01*
X38375Y219000D01*
X38063Y218375D01*
X37437Y218063D01*
X35250D01*
X37437D02*
X38375Y216187D01*
X40875D02*
X42125D01*
X41500D02*
Y219937D01*
X40875Y219313D01*
X45250Y216187D02*
X47750Y219937D01*
X45250D01*
X50875Y216187D02*
X52125D01*
X51500D02*
Y219937D01*
X50875Y219313D01*
X35250Y310250D02*
X30250D01*
X35250Y316187D02*
Y319937D01*
X37437D01*
X38063Y319625D01*
X38375Y319000D01*
X38063Y318375D01*
X37437Y318063D01*
X35250D01*
X37437D02*
X38375Y316187D01*
X40875D02*
X42125D01*
X41500D02*
Y319937D01*
X40875Y319313D01*
X45250Y317125D02*
X45563Y317750D01*
X46187Y318063D01*
X46813D01*
X47437Y317750D01*
X47750Y317125D01*
X47437Y316500D01*
X46813Y316187D01*
X46187D01*
X45563Y316500D01*
X45250Y317125D01*
Y318063D01*
X45563Y319000D01*
X46187Y319625D01*
X46813Y319937D01*
X50875Y316187D02*
X52125D01*
X51500D02*
Y319937D01*
X50875Y319313D01*
X35250Y410250D02*
X30250D01*
X35250Y416187D02*
Y419937D01*
X37437D01*
X38063Y419625D01*
X38375Y419000D01*
X38063Y418375D01*
X37437Y418063D01*
X35250D01*
X37437D02*
X38375Y416187D01*
X40875D02*
X42125D01*
X41500D02*
Y419937D01*
X40875Y419313D01*
X45250Y416500D02*
X45875Y416187D01*
X46813D01*
X47437Y416500D01*
X47750Y417125D01*
Y417437D01*
X47437Y418063D01*
X46813Y418375D01*
X45250D01*
Y419937D01*
X47750D01*
X50875Y416187D02*
X52125D01*
X51500D02*
Y419937D01*
X50875Y419313D01*
X35250Y510250D02*
X30250D01*
X35250Y516187D02*
Y519937D01*
X37437D01*
X38063Y519625D01*
X38375Y519000D01*
X38063Y518375D01*
X37437Y518063D01*
X35250D01*
X37437D02*
X38375Y516187D01*
X40875D02*
X42125D01*
X41500D02*
Y519937D01*
X40875Y519313D01*
X46813Y516187D02*
Y519937D01*
X45250Y517437D01*
X47750D01*
X50875Y516187D02*
X52125D01*
X51500D02*
Y519937D01*
X50875Y519313D01*
X35250Y610250D02*
X30250D01*
X35250Y616187D02*
Y619937D01*
X37437D01*
X38063Y619625D01*
X38375Y619000D01*
X38063Y618375D01*
X37437Y618063D01*
X35250D01*
X37437D02*
X38375Y616187D01*
X40875D02*
X42125D01*
X41500D02*
Y619937D01*
X40875Y619313D01*
X45563Y616500D02*
X46187Y616187D01*
X46813D01*
X47437Y616500D01*
X47750Y617125D01*
X47437Y617750D01*
X46813Y618063D01*
X46187D01*
X46813D02*
X47437Y618375D01*
X47750Y619000D01*
X47437Y619625D01*
X46813Y619937D01*
X46187D01*
X45563Y619625D01*
X50875Y616187D02*
X52125D01*
X51500D02*
Y619937D01*
X50875Y619313D01*
X35250Y710250D02*
X30250D01*
X35250Y716187D02*
Y719937D01*
X37437D01*
X38063Y719625D01*
X38375Y719000D01*
X38063Y718375D01*
X37437Y718063D01*
X35250D01*
X37437D02*
X38375Y716187D01*
X40875D02*
X42125D01*
X41500D02*
Y719937D01*
X40875Y719313D01*
X47750Y716187D02*
X45250D01*
X47437Y718375D01*
X47750Y719000D01*
X47437Y719625D01*
X46813Y719937D01*
X45875D01*
X45250Y719625D01*
X50875Y716187D02*
X52125D01*
X51500D02*
Y719937D01*
X50875Y719313D01*
X45250Y65250D02*
X50250D01*
X45250Y165250D02*
X50250D01*
X45250Y265250D02*
X50250D01*
X45250Y365250D02*
X50250D01*
X45250Y465250D02*
X50250D01*
X45250Y565250D02*
X50250D01*
X45250Y665250D02*
X50250D01*
X45250Y765250D02*
X50250D01*
Y810250D02*
X45250D01*
X50250Y816187D02*
Y819937D01*
X52437D01*
X53063Y819625D01*
X53375Y819000D01*
X53063Y818375D01*
X52437Y818063D01*
X50250D01*
X52437D02*
X53375Y816187D01*
X55875D02*
X57125D01*
X56500D02*
Y819937D01*
X55875Y819313D01*
X60875Y816187D02*
X62125D01*
X61500D02*
Y819937D01*
X60875Y819313D01*
X65875Y816187D02*
X67125D01*
X66500D02*
Y819937D01*
X65875Y819313D01*
X55250Y115250D02*
Y105250D01*
X35250D01*
Y115250D01*
X55250D01*
Y215250D02*
Y205250D01*
X35250D01*
Y215250D01*
X55250D01*
Y315250D02*
Y305250D01*
X35250D01*
Y315250D01*
X55250D01*
Y415250D02*
Y405250D01*
X35250D01*
Y415250D01*
X55250D01*
Y515250D02*
Y505250D01*
X35250D01*
Y515250D01*
X55250D01*
Y615250D02*
Y605250D01*
X35250D01*
Y615250D01*
X55250D01*
Y715250D02*
Y705250D01*
X35250D01*
Y715250D01*
X55250D01*
X60250Y110250D02*
X55250D01*
X60250Y210250D02*
X55250D01*
X60250Y310250D02*
X55250D01*
X60250Y410250D02*
X55250D01*
X60250Y510250D02*
X55250D01*
X60250Y610250D02*
X55250D01*
X60250Y710250D02*
X55250D01*
X70250Y815250D02*
Y805250D01*
X50250D01*
Y815250D01*
X70250D01*
X72750Y103687D02*
Y107437D01*
X74937D01*
X75563Y107125D01*
X75875Y106500D01*
X75563Y105875D01*
X74937Y105563D01*
X72750D01*
X77750Y107437D02*
Y103687D01*
X80875D01*
X83687Y105563D02*
X84313D01*
X84937Y105875D01*
X85250Y106500D01*
X84937Y107125D01*
X84313Y107437D01*
X83687D01*
X83063Y107125D01*
X82750Y106500D01*
X83063Y105875D01*
X83687Y105563D01*
X83063Y105250D01*
X82750Y104625D01*
X83063Y104000D01*
X83687Y103687D01*
X84313D01*
X84937Y104000D01*
X85250Y104625D01*
X84937Y105250D01*
X84313Y105563D01*
X72750Y233687D02*
Y237437D01*
X74937D01*
X75563Y237125D01*
X75875Y236500D01*
X75563Y235875D01*
X74937Y235563D01*
X72750D01*
X77750Y237437D02*
Y233687D01*
X80875D01*
X82750Y234625D02*
X83063Y235250D01*
X83687Y235563D01*
X84313D01*
X84937Y235250D01*
X85250Y234625D01*
X84937Y234000D01*
X84313Y233687D01*
X83687D01*
X83063Y234000D01*
X82750Y234625D01*
Y235563D01*
X83063Y236500D01*
X83687Y237125D01*
X84313Y237437D01*
X72750Y403687D02*
Y407437D01*
X74937D01*
X75563Y407125D01*
X75875Y406500D01*
X75563Y405875D01*
X74937Y405563D01*
X72750D01*
X77750Y407437D02*
Y403687D01*
X80875D01*
X82750Y404000D02*
X83375Y403687D01*
X84313D01*
X84937Y404000D01*
X85250Y404625D01*
Y404937D01*
X84937Y405563D01*
X84313Y405875D01*
X82750D01*
Y407437D01*
X85250D01*
X72750Y503687D02*
Y507437D01*
X74937D01*
X75563Y507125D01*
X75875Y506500D01*
X75563Y505875D01*
X74937Y505563D01*
X72750D01*
X77750Y507437D02*
Y503687D01*
X80875D01*
X84313D02*
Y507437D01*
X82750Y504937D01*
X85250D01*
X72750Y603687D02*
Y607437D01*
X74937D01*
X75563Y607125D01*
X75875Y606500D01*
X75563Y605875D01*
X74937Y605563D01*
X72750D01*
X77750Y607437D02*
Y603687D01*
X80875D01*
X83063Y604000D02*
X83687Y603687D01*
X84313D01*
X84937Y604000D01*
X85250Y604625D01*
X84937Y605250D01*
X84313Y605563D01*
X83687D01*
X84313D02*
X84937Y605875D01*
X85250Y606500D01*
X84937Y607125D01*
X84313Y607437D01*
X83687D01*
X83063Y607125D01*
X72750Y703687D02*
Y707437D01*
X74937D01*
X75563Y707125D01*
X75875Y706500D01*
X75563Y705875D01*
X74937Y705563D01*
X72750D01*
X77750Y707437D02*
Y703687D01*
X80875D01*
X85250D02*
X82750D01*
X84937Y705875D01*
X85250Y706500D01*
X84937Y707125D01*
X84313Y707437D01*
X83375D01*
X82750Y707125D01*
X72750Y803687D02*
Y807437D01*
X74937D01*
X75563Y807125D01*
X75875Y806500D01*
X75563Y805875D01*
X74937Y805563D01*
X72750D01*
X77750Y807437D02*
Y803687D01*
X80875D01*
X83375D02*
X84625D01*
X84000D02*
Y807437D01*
X83375Y806813D01*
X75250Y203687D02*
Y207437D01*
X77437D01*
X78063Y207125D01*
X78375Y206500D01*
X78063Y205875D01*
X77437Y205563D01*
X75250D01*
X80250Y207437D02*
Y203687D01*
X83375D01*
X85250D02*
X87750Y207437D01*
X85250D01*
X75250Y810250D02*
X70250D01*
X100250Y45250D02*
X105250D01*
X100250Y65250D02*
X105250D01*
X100250Y85250D02*
X105250D01*
X100250Y145250D02*
X105250D01*
X100250Y165250D02*
X105250D01*
X100250Y185250D02*
X105250D01*
X100250Y245250D02*
X105250D01*
X100250Y265250D02*
X105250D01*
X100250Y285250D02*
X105250D01*
X100250Y345250D02*
X105250D01*
X100250Y365250D02*
X105250D01*
X100250Y385250D02*
X105250D01*
X100250Y445250D02*
X105250D01*
X100250Y465250D02*
X105250D01*
X100250Y485250D02*
X105250D01*
X100250Y545250D02*
X105250D01*
X100250Y565250D02*
X105250D01*
X100250Y585250D02*
X105250D01*
X100250Y645250D02*
X105250D01*
X100250Y665250D02*
X105250D01*
X100250Y685250D02*
X105250D01*
X100250Y745250D02*
X105250D01*
X100250Y765250D02*
X105250D01*
X100250Y785250D02*
X105250D01*
Y40250D02*
Y50250D01*
X125250D01*
Y40250D01*
X105250D01*
Y55250D02*
X100250D01*
X105250Y60250D02*
Y70250D01*
X125250D01*
Y60250D01*
X105250D01*
Y80250D02*
Y90250D01*
X125250D01*
Y80250D01*
X105250D01*
Y140250D02*
Y150250D01*
X125250D01*
Y140250D01*
X105250D01*
Y155250D02*
X100250D01*
X105250Y160250D02*
Y170250D01*
X125250D01*
Y160250D01*
X105250D01*
Y180250D02*
Y190250D01*
X125250D01*
Y180250D01*
X105250D01*
Y240250D02*
Y250250D01*
X125250D01*
Y240250D01*
X105250D01*
Y255250D02*
X100250D01*
X105250Y260250D02*
Y270250D01*
X125250D01*
Y260250D01*
X105250D01*
Y280250D02*
Y290250D01*
X125250D01*
Y280250D01*
X105250D01*
Y340250D02*
Y350250D01*
X125250D01*
Y340250D01*
X105250D01*
Y355250D02*
X100250D01*
X105250Y360250D02*
Y370250D01*
X125250D01*
Y360250D01*
X105250D01*
Y380250D02*
Y390250D01*
X125250D01*
Y380250D01*
X105250D01*
Y440250D02*
Y450250D01*
X125250D01*
Y440250D01*
X105250D01*
Y455250D02*
X100250D01*
X105250Y460250D02*
Y470250D01*
X125250D01*
Y460250D01*
X105250D01*
Y480250D02*
Y490250D01*
X125250D01*
Y480250D01*
X105250D01*
Y540250D02*
Y550250D01*
X125250D01*
Y540250D01*
X105250D01*
Y555250D02*
X100250D01*
X105250Y560250D02*
Y570250D01*
X125250D01*
Y560250D01*
X105250D01*
Y580250D02*
Y590250D01*
X125250D01*
Y580250D01*
X105250D01*
Y640250D02*
Y650250D01*
X125250D01*
Y640250D01*
X105250D01*
Y655250D02*
X100250D01*
X105250Y660250D02*
Y670250D01*
X125250D01*
Y660250D01*
X105250D01*
Y680250D02*
Y690250D01*
X125250D01*
Y680250D01*
X105250D01*
Y740250D02*
Y750250D01*
X125250D01*
Y740250D01*
X105250D01*
Y755250D02*
X100250D01*
X105250Y760250D02*
Y770250D01*
X125250D01*
Y760250D01*
X105250D01*
Y780250D02*
Y790250D01*
X125250D01*
Y780250D01*
X105250D01*
X125250Y45250D02*
X130250D01*
X125250Y60250D02*
Y50250D01*
X105250D01*
Y60250D01*
X125250D01*
Y65250D02*
X130250D01*
X125250Y85250D02*
X130250D01*
X125250Y145250D02*
X130250D01*
X125250Y160250D02*
Y150250D01*
X105250D01*
Y160250D01*
X125250D01*
Y165250D02*
X130250D01*
X125250Y185250D02*
X130250D01*
X125250Y245250D02*
X130250D01*
X125250Y260250D02*
Y250250D01*
X105250D01*
Y260250D01*
X125250D01*
Y265250D02*
X130250D01*
X125250Y285250D02*
X130250D01*
X125250Y345250D02*
X130250D01*
X125250Y360250D02*
Y350250D01*
X105250D01*
Y360250D01*
X125250D01*
Y365250D02*
X130250D01*
X125250Y385250D02*
X130250D01*
X125250Y445250D02*
X130250D01*
X125250Y460250D02*
Y450250D01*
X105250D01*
Y460250D01*
X125250D01*
Y465250D02*
X130250D01*
X125250Y485250D02*
X130250D01*
X125250Y545250D02*
X130250D01*
X125250Y560250D02*
Y550250D01*
X105250D01*
Y560250D01*
X125250D01*
Y565250D02*
X130250D01*
X125250Y585250D02*
X130250D01*
X125250Y645250D02*
X130250D01*
X125250Y660250D02*
Y650250D01*
X105250D01*
Y660250D01*
X125250D01*
Y665250D02*
X130250D01*
X125250Y685250D02*
X130250D01*
X125250Y745250D02*
X130250D01*
X125250Y760250D02*
Y750250D01*
X105250D01*
Y760250D01*
X125250D01*
Y765250D02*
X130250D01*
X125250Y785250D02*
X130250D01*
Y55250D02*
X125250D01*
X130250Y155250D02*
X125250D01*
X130250Y255250D02*
X125250D01*
X130250Y355250D02*
X125250D01*
X130250Y455250D02*
X125250D01*
X130250Y555250D02*
X125250D01*
X130250Y655250D02*
X125250D01*
X130250Y755250D02*
X125250D01*
X140250Y43687D02*
Y47437D01*
X142437D01*
X143063Y47125D01*
X143375Y46500D01*
X143063Y45875D01*
X142437Y45563D01*
X140250D01*
X142437D02*
X143375Y43687D01*
X145875D02*
X147125D01*
X146500D02*
Y47437D01*
X145875Y46813D01*
X151187Y45563D02*
X151813D01*
X152437Y45875D01*
X152750Y46500D01*
X152437Y47125D01*
X151813Y47437D01*
X151187D01*
X150563Y47125D01*
X150250Y46500D01*
X150563Y45875D01*
X151187Y45563D01*
X150563Y45250D01*
X150250Y44625D01*
X150563Y44000D01*
X151187Y43687D01*
X151813D01*
X152437Y44000D01*
X152750Y44625D01*
X152437Y45250D01*
X151813Y45563D01*
X155250Y44625D02*
X155563Y45250D01*
X156187Y45563D01*
X156813D01*
X157437Y45250D01*
X157750Y44625D01*
X157437Y44000D01*
X156813Y43687D01*
X156187D01*
X155563Y44000D01*
X155250Y44625D01*
Y45563D01*
X155563Y46500D01*
X156187Y47125D01*
X156813Y47437D01*
X140250Y53687D02*
Y57437D01*
X142437D01*
X143063Y57125D01*
X143375Y56500D01*
X143063Y55875D01*
X142437Y55563D01*
X140250D01*
X142437D02*
X143375Y53687D01*
X145875D02*
X147125D01*
X146500D02*
Y57437D01*
X145875Y56813D01*
X151187Y55563D02*
X151813D01*
X152437Y55875D01*
X152750Y56500D01*
X152437Y57125D01*
X151813Y57437D01*
X151187D01*
X150563Y57125D01*
X150250Y56500D01*
X150563Y55875D01*
X151187Y55563D01*
X150563Y55250D01*
X150250Y54625D01*
X150563Y54000D01*
X151187Y53687D01*
X151813D01*
X152437Y54000D01*
X152750Y54625D01*
X152437Y55250D01*
X151813Y55563D01*
X155250Y54000D02*
X155875Y53687D01*
X156813D01*
X157437Y54000D01*
X157750Y54625D01*
Y54937D01*
X157437Y55563D01*
X156813Y55875D01*
X155250D01*
Y57437D01*
X157750D01*
X140250Y63687D02*
Y67437D01*
X142437D01*
X143063Y67125D01*
X143375Y66500D01*
X143063Y65875D01*
X142437Y65563D01*
X140250D01*
X142437D02*
X143375Y63687D01*
X145875D02*
X147125D01*
X146500D02*
Y67437D01*
X145875Y66813D01*
X151187Y65563D02*
X151813D01*
X152437Y65875D01*
X152750Y66500D01*
X152437Y67125D01*
X151813Y67437D01*
X151187D01*
X150563Y67125D01*
X150250Y66500D01*
X150563Y65875D01*
X151187Y65563D01*
X150563Y65250D01*
X150250Y64625D01*
X150563Y64000D01*
X151187Y63687D01*
X151813D01*
X152437Y64000D01*
X152750Y64625D01*
X152437Y65250D01*
X151813Y65563D01*
X156813Y63687D02*
Y67437D01*
X155250Y64937D01*
X157750D01*
X140250Y83687D02*
Y87437D01*
X142437D01*
X143063Y87125D01*
X143375Y86500D01*
X143063Y85875D01*
X142437Y85563D01*
X140250D01*
X142437D02*
X143375Y83687D01*
X145875D02*
X147125D01*
X146500D02*
Y87437D01*
X145875Y86813D01*
X151187Y85563D02*
X151813D01*
X152437Y85875D01*
X152750Y86500D01*
X152437Y87125D01*
X151813Y87437D01*
X151187D01*
X150563Y87125D01*
X150250Y86500D01*
X150563Y85875D01*
X151187Y85563D01*
X150563Y85250D01*
X150250Y84625D01*
X150563Y84000D01*
X151187Y83687D01*
X151813D01*
X152437Y84000D01*
X152750Y84625D01*
X152437Y85250D01*
X151813Y85563D01*
X155563Y84000D02*
X156187Y83687D01*
X156813D01*
X157437Y84000D01*
X157750Y84625D01*
X157437Y85250D01*
X156813Y85563D01*
X156187D01*
X156813D02*
X157437Y85875D01*
X157750Y86500D01*
X157437Y87125D01*
X156813Y87437D01*
X156187D01*
X155563Y87125D01*
X140250Y143687D02*
Y147437D01*
X142437D01*
X143063Y147125D01*
X143375Y146500D01*
X143063Y145875D01*
X142437Y145563D01*
X140250D01*
X142437D02*
X143375Y143687D01*
X145875D02*
X147125D01*
X146500D02*
Y147437D01*
X145875Y146813D01*
X150250Y143687D02*
X152750Y147437D01*
X150250D01*
X155250Y144625D02*
X155563Y145250D01*
X156187Y145563D01*
X156813D01*
X157437Y145250D01*
X157750Y144625D01*
X157437Y144000D01*
X156813Y143687D01*
X156187D01*
X155563Y144000D01*
X155250Y144625D01*
Y145563D01*
X155563Y146500D01*
X156187Y147125D01*
X156813Y147437D01*
X140250Y153687D02*
Y157437D01*
X142437D01*
X143063Y157125D01*
X143375Y156500D01*
X143063Y155875D01*
X142437Y155563D01*
X140250D01*
X142437D02*
X143375Y153687D01*
X145875D02*
X147125D01*
X146500D02*
Y157437D01*
X145875Y156813D01*
X150250Y153687D02*
X152750Y157437D01*
X150250D01*
X155250Y154000D02*
X155875Y153687D01*
X156813D01*
X157437Y154000D01*
X157750Y154625D01*
Y154937D01*
X157437Y155563D01*
X156813Y155875D01*
X155250D01*
Y157437D01*
X157750D01*
X140250Y163687D02*
Y167437D01*
X142437D01*
X143063Y167125D01*
X143375Y166500D01*
X143063Y165875D01*
X142437Y165563D01*
X140250D01*
X142437D02*
X143375Y163687D01*
X145875D02*
X147125D01*
X146500D02*
Y167437D01*
X145875Y166813D01*
X150250Y163687D02*
X152750Y167437D01*
X150250D01*
X156813Y163687D02*
Y167437D01*
X155250Y164937D01*
X157750D01*
X140250Y183687D02*
Y187437D01*
X142437D01*
X143063Y187125D01*
X143375Y186500D01*
X143063Y185875D01*
X142437Y185563D01*
X140250D01*
X142437D02*
X143375Y183687D01*
X145875D02*
X147125D01*
X146500D02*
Y187437D01*
X145875Y186813D01*
X150250Y183687D02*
X152750Y187437D01*
X150250D01*
X155563Y184000D02*
X156187Y183687D01*
X156813D01*
X157437Y184000D01*
X157750Y184625D01*
X157437Y185250D01*
X156813Y185563D01*
X156187D01*
X156813D02*
X157437Y185875D01*
X157750Y186500D01*
X157437Y187125D01*
X156813Y187437D01*
X156187D01*
X155563Y187125D01*
X140250Y243687D02*
Y247437D01*
X142437D01*
X143063Y247125D01*
X143375Y246500D01*
X143063Y245875D01*
X142437Y245563D01*
X140250D01*
X142437D02*
X143375Y243687D01*
X145875D02*
X147125D01*
X146500D02*
Y247437D01*
X145875Y246813D01*
X150250Y244625D02*
X150563Y245250D01*
X151187Y245563D01*
X151813D01*
X152437Y245250D01*
X152750Y244625D01*
X152437Y244000D01*
X151813Y243687D01*
X151187D01*
X150563Y244000D01*
X150250Y244625D01*
Y245563D01*
X150563Y246500D01*
X151187Y247125D01*
X151813Y247437D01*
X155250Y244625D02*
X155563Y245250D01*
X156187Y245563D01*
X156813D01*
X157437Y245250D01*
X157750Y244625D01*
X157437Y244000D01*
X156813Y243687D01*
X156187D01*
X155563Y244000D01*
X155250Y244625D01*
Y245563D01*
X155563Y246500D01*
X156187Y247125D01*
X156813Y247437D01*
X140250Y253687D02*
Y257437D01*
X142437D01*
X143063Y257125D01*
X143375Y256500D01*
X143063Y255875D01*
X142437Y255563D01*
X140250D01*
X142437D02*
X143375Y253687D01*
X145875D02*
X147125D01*
X146500D02*
Y257437D01*
X145875Y256813D01*
X150250Y254625D02*
X150563Y255250D01*
X151187Y255563D01*
X151813D01*
X152437Y255250D01*
X152750Y254625D01*
X152437Y254000D01*
X151813Y253687D01*
X151187D01*
X150563Y254000D01*
X150250Y254625D01*
Y255563D01*
X150563Y256500D01*
X151187Y257125D01*
X151813Y257437D01*
X155250Y254000D02*
X155875Y253687D01*
X156813D01*
X157437Y254000D01*
X157750Y254625D01*
Y254937D01*
X157437Y255563D01*
X156813Y255875D01*
X155250D01*
Y257437D01*
X157750D01*
X140250Y263687D02*
Y267437D01*
X142437D01*
X143063Y267125D01*
X143375Y266500D01*
X143063Y265875D01*
X142437Y265563D01*
X140250D01*
X142437D02*
X143375Y263687D01*
X145875D02*
X147125D01*
X146500D02*
Y267437D01*
X145875Y266813D01*
X150250Y264625D02*
X150563Y265250D01*
X151187Y265563D01*
X151813D01*
X152437Y265250D01*
X152750Y264625D01*
X152437Y264000D01*
X151813Y263687D01*
X151187D01*
X150563Y264000D01*
X150250Y264625D01*
Y265563D01*
X150563Y266500D01*
X151187Y267125D01*
X151813Y267437D01*
X156813Y263687D02*
Y267437D01*
X155250Y264937D01*
X157750D01*
X140250Y283687D02*
Y287437D01*
X142437D01*
X143063Y287125D01*
X143375Y286500D01*
X143063Y285875D01*
X142437Y285563D01*
X140250D01*
X142437D02*
X143375Y283687D01*
X145875D02*
X147125D01*
X146500D02*
Y287437D01*
X145875Y286813D01*
X150250Y284625D02*
X150563Y285250D01*
X151187Y285563D01*
X151813D01*
X152437Y285250D01*
X152750Y284625D01*
X152437Y284000D01*
X151813Y283687D01*
X151187D01*
X150563Y284000D01*
X150250Y284625D01*
Y285563D01*
X150563Y286500D01*
X151187Y287125D01*
X151813Y287437D01*
X155563Y284000D02*
X156187Y283687D01*
X156813D01*
X157437Y284000D01*
X157750Y284625D01*
X157437Y285250D01*
X156813Y285563D01*
X156187D01*
X156813D02*
X157437Y285875D01*
X157750Y286500D01*
X157437Y287125D01*
X156813Y287437D01*
X156187D01*
X155563Y287125D01*
X140250Y343687D02*
Y347437D01*
X142437D01*
X143063Y347125D01*
X143375Y346500D01*
X143063Y345875D01*
X142437Y345563D01*
X140250D01*
X142437D02*
X143375Y343687D01*
X145875D02*
X147125D01*
X146500D02*
Y347437D01*
X145875Y346813D01*
X150250Y344000D02*
X150875Y343687D01*
X151813D01*
X152437Y344000D01*
X152750Y344625D01*
Y344937D01*
X152437Y345563D01*
X151813Y345875D01*
X150250D01*
Y347437D01*
X152750D01*
X155250Y344625D02*
X155563Y345250D01*
X156187Y345563D01*
X156813D01*
X157437Y345250D01*
X157750Y344625D01*
X157437Y344000D01*
X156813Y343687D01*
X156187D01*
X155563Y344000D01*
X155250Y344625D01*
Y345563D01*
X155563Y346500D01*
X156187Y347125D01*
X156813Y347437D01*
X140250Y353687D02*
Y357437D01*
X142437D01*
X143063Y357125D01*
X143375Y356500D01*
X143063Y355875D01*
X142437Y355563D01*
X140250D01*
X142437D02*
X143375Y353687D01*
X145875D02*
X147125D01*
X146500D02*
Y357437D01*
X145875Y356813D01*
X150250Y354000D02*
X150875Y353687D01*
X151813D01*
X152437Y354000D01*
X152750Y354625D01*
Y354937D01*
X152437Y355563D01*
X151813Y355875D01*
X150250D01*
Y357437D01*
X152750D01*
X155250Y354000D02*
X155875Y353687D01*
X156813D01*
X157437Y354000D01*
X157750Y354625D01*
Y354937D01*
X157437Y355563D01*
X156813Y355875D01*
X155250D01*
Y357437D01*
X157750D01*
X140250Y363687D02*
Y367437D01*
X142437D01*
X143063Y367125D01*
X143375Y366500D01*
X143063Y365875D01*
X142437Y365563D01*
X140250D01*
X142437D02*
X143375Y363687D01*
X145875D02*
X147125D01*
X146500D02*
Y367437D01*
X145875Y366813D01*
X150250Y364000D02*
X150875Y363687D01*
X151813D01*
X152437Y364000D01*
X152750Y364625D01*
Y364937D01*
X152437Y365563D01*
X151813Y365875D01*
X150250D01*
Y367437D01*
X152750D01*
X156813Y363687D02*
Y367437D01*
X155250Y364937D01*
X157750D01*
X140250Y383687D02*
Y387437D01*
X142437D01*
X143063Y387125D01*
X143375Y386500D01*
X143063Y385875D01*
X142437Y385563D01*
X140250D01*
X142437D02*
X143375Y383687D01*
X145875D02*
X147125D01*
X146500D02*
Y387437D01*
X145875Y386813D01*
X150250Y384000D02*
X150875Y383687D01*
X151813D01*
X152437Y384000D01*
X152750Y384625D01*
Y384937D01*
X152437Y385563D01*
X151813Y385875D01*
X150250D01*
Y387437D01*
X152750D01*
X155563Y384000D02*
X156187Y383687D01*
X156813D01*
X157437Y384000D01*
X157750Y384625D01*
X157437Y385250D01*
X156813Y385563D01*
X156187D01*
X156813D02*
X157437Y385875D01*
X157750Y386500D01*
X157437Y387125D01*
X156813Y387437D01*
X156187D01*
X155563Y387125D01*
X140250Y443687D02*
Y447437D01*
X142437D01*
X143063Y447125D01*
X143375Y446500D01*
X143063Y445875D01*
X142437Y445563D01*
X140250D01*
X142437D02*
X143375Y443687D01*
X145875D02*
X147125D01*
X146500D02*
Y447437D01*
X145875Y446813D01*
X151813Y443687D02*
Y447437D01*
X150250Y444937D01*
X152750D01*
X155250Y444625D02*
X155563Y445250D01*
X156187Y445563D01*
X156813D01*
X157437Y445250D01*
X157750Y444625D01*
X157437Y444000D01*
X156813Y443687D01*
X156187D01*
X155563Y444000D01*
X155250Y444625D01*
Y445563D01*
X155563Y446500D01*
X156187Y447125D01*
X156813Y447437D01*
X140250Y453687D02*
Y457437D01*
X142437D01*
X143063Y457125D01*
X143375Y456500D01*
X143063Y455875D01*
X142437Y455563D01*
X140250D01*
X142437D02*
X143375Y453687D01*
X145875D02*
X147125D01*
X146500D02*
Y457437D01*
X145875Y456813D01*
X151813Y453687D02*
Y457437D01*
X150250Y454937D01*
X152750D01*
X155250Y454000D02*
X155875Y453687D01*
X156813D01*
X157437Y454000D01*
X157750Y454625D01*
Y454937D01*
X157437Y455563D01*
X156813Y455875D01*
X155250D01*
Y457437D01*
X157750D01*
X140250Y463687D02*
Y467437D01*
X142437D01*
X143063Y467125D01*
X143375Y466500D01*
X143063Y465875D01*
X142437Y465563D01*
X140250D01*
X142437D02*
X143375Y463687D01*
X145875D02*
X147125D01*
X146500D02*
Y467437D01*
X145875Y466813D01*
X151813Y463687D02*
Y467437D01*
X150250Y464937D01*
X152750D01*
X156813Y463687D02*
Y467437D01*
X155250Y464937D01*
X157750D01*
X140250Y483687D02*
Y487437D01*
X142437D01*
X143063Y487125D01*
X143375Y486500D01*
X143063Y485875D01*
X142437Y485563D01*
X140250D01*
X142437D02*
X143375Y483687D01*
X145875D02*
X147125D01*
X146500D02*
Y487437D01*
X145875Y486813D01*
X151813Y483687D02*
Y487437D01*
X150250Y484937D01*
X152750D01*
X155563Y484000D02*
X156187Y483687D01*
X156813D01*
X157437Y484000D01*
X157750Y484625D01*
X157437Y485250D01*
X156813Y485563D01*
X156187D01*
X156813D02*
X157437Y485875D01*
X157750Y486500D01*
X157437Y487125D01*
X156813Y487437D01*
X156187D01*
X155563Y487125D01*
X140250Y543687D02*
Y547437D01*
X142437D01*
X143063Y547125D01*
X143375Y546500D01*
X143063Y545875D01*
X142437Y545563D01*
X140250D01*
X142437D02*
X143375Y543687D01*
X145875D02*
X147125D01*
X146500D02*
Y547437D01*
X145875Y546813D01*
X150563Y544000D02*
X151187Y543687D01*
X151813D01*
X152437Y544000D01*
X152750Y544625D01*
X152437Y545250D01*
X151813Y545563D01*
X151187D01*
X151813D02*
X152437Y545875D01*
X152750Y546500D01*
X152437Y547125D01*
X151813Y547437D01*
X151187D01*
X150563Y547125D01*
X155250Y544625D02*
X155563Y545250D01*
X156187Y545563D01*
X156813D01*
X157437Y545250D01*
X157750Y544625D01*
X157437Y544000D01*
X156813Y543687D01*
X156187D01*
X155563Y544000D01*
X155250Y544625D01*
Y545563D01*
X155563Y546500D01*
X156187Y547125D01*
X156813Y547437D01*
X140250Y553687D02*
Y557437D01*
X142437D01*
X143063Y557125D01*
X143375Y556500D01*
X143063Y555875D01*
X142437Y555563D01*
X140250D01*
X142437D02*
X143375Y553687D01*
X145875D02*
X147125D01*
X146500D02*
Y557437D01*
X145875Y556813D01*
X150563Y554000D02*
X151187Y553687D01*
X151813D01*
X152437Y554000D01*
X152750Y554625D01*
X152437Y555250D01*
X151813Y555563D01*
X151187D01*
X151813D02*
X152437Y555875D01*
X152750Y556500D01*
X152437Y557125D01*
X151813Y557437D01*
X151187D01*
X150563Y557125D01*
X155250Y554000D02*
X155875Y553687D01*
X156813D01*
X157437Y554000D01*
X157750Y554625D01*
Y554937D01*
X157437Y555563D01*
X156813Y555875D01*
X155250D01*
Y557437D01*
X157750D01*
X140250Y563687D02*
Y567437D01*
X142437D01*
X143063Y567125D01*
X143375Y566500D01*
X143063Y565875D01*
X142437Y565563D01*
X140250D01*
X142437D02*
X143375Y563687D01*
X145875D02*
X147125D01*
X146500D02*
Y567437D01*
X145875Y566813D01*
X150563Y564000D02*
X151187Y563687D01*
X151813D01*
X152437Y564000D01*
X152750Y564625D01*
X152437Y565250D01*
X151813Y565563D01*
X151187D01*
X151813D02*
X152437Y565875D01*
X152750Y566500D01*
X152437Y567125D01*
X151813Y567437D01*
X151187D01*
X150563Y567125D01*
X156813Y563687D02*
Y567437D01*
X155250Y564937D01*
X157750D01*
X140250Y583687D02*
Y587437D01*
X142437D01*
X143063Y587125D01*
X143375Y586500D01*
X143063Y585875D01*
X142437Y585563D01*
X140250D01*
X142437D02*
X143375Y583687D01*
X145875D02*
X147125D01*
X146500D02*
Y587437D01*
X145875Y586813D01*
X150563Y584000D02*
X151187Y583687D01*
X151813D01*
X152437Y584000D01*
X152750Y584625D01*
X152437Y585250D01*
X151813Y585563D01*
X151187D01*
X151813D02*
X152437Y585875D01*
X152750Y586500D01*
X152437Y587125D01*
X151813Y587437D01*
X151187D01*
X150563Y587125D01*
X155563Y584000D02*
X156187Y583687D01*
X156813D01*
X157437Y584000D01*
X157750Y584625D01*
X157437Y585250D01*
X156813Y585563D01*
X156187D01*
X156813D02*
X157437Y585875D01*
X157750Y586500D01*
X157437Y587125D01*
X156813Y587437D01*
X156187D01*
X155563Y587125D01*
X140250Y643687D02*
Y647437D01*
X142437D01*
X143063Y647125D01*
X143375Y646500D01*
X143063Y645875D01*
X142437Y645563D01*
X140250D01*
X142437D02*
X143375Y643687D01*
X145875D02*
X147125D01*
X146500D02*
Y647437D01*
X145875Y646813D01*
X152750Y643687D02*
X150250D01*
X152437Y645875D01*
X152750Y646500D01*
X152437Y647125D01*
X151813Y647437D01*
X150875D01*
X150250Y647125D01*
X155250Y644625D02*
X155563Y645250D01*
X156187Y645563D01*
X156813D01*
X157437Y645250D01*
X157750Y644625D01*
X157437Y644000D01*
X156813Y643687D01*
X156187D01*
X155563Y644000D01*
X155250Y644625D01*
Y645563D01*
X155563Y646500D01*
X156187Y647125D01*
X156813Y647437D01*
X140250Y653687D02*
Y657437D01*
X142437D01*
X143063Y657125D01*
X143375Y656500D01*
X143063Y655875D01*
X142437Y655563D01*
X140250D01*
X142437D02*
X143375Y653687D01*
X145875D02*
X147125D01*
X146500D02*
Y657437D01*
X145875Y656813D01*
X152750Y653687D02*
X150250D01*
X152437Y655875D01*
X152750Y656500D01*
X152437Y657125D01*
X151813Y657437D01*
X150875D01*
X150250Y657125D01*
X155250Y654000D02*
X155875Y653687D01*
X156813D01*
X157437Y654000D01*
X157750Y654625D01*
Y654937D01*
X157437Y655563D01*
X156813Y655875D01*
X155250D01*
Y657437D01*
X157750D01*
X140250Y663687D02*
Y667437D01*
X142437D01*
X143063Y667125D01*
X143375Y666500D01*
X143063Y665875D01*
X142437Y665563D01*
X140250D01*
X142437D02*
X143375Y663687D01*
X145875D02*
X147125D01*
X146500D02*
Y667437D01*
X145875Y666813D01*
X152750Y663687D02*
X150250D01*
X152437Y665875D01*
X152750Y666500D01*
X152437Y667125D01*
X151813Y667437D01*
X150875D01*
X150250Y667125D01*
X156813Y663687D02*
Y667437D01*
X155250Y664937D01*
X157750D01*
X140250Y683687D02*
Y687437D01*
X142437D01*
X143063Y687125D01*
X143375Y686500D01*
X143063Y685875D01*
X142437Y685563D01*
X140250D01*
X142437D02*
X143375Y683687D01*
X145875D02*
X147125D01*
X146500D02*
Y687437D01*
X145875Y686813D01*
X152750Y683687D02*
X150250D01*
X152437Y685875D01*
X152750Y686500D01*
X152437Y687125D01*
X151813Y687437D01*
X150875D01*
X150250Y687125D01*
X155563Y684000D02*
X156187Y683687D01*
X156813D01*
X157437Y684000D01*
X157750Y684625D01*
X157437Y685250D01*
X156813Y685563D01*
X156187D01*
X156813D02*
X157437Y685875D01*
X157750Y686500D01*
X157437Y687125D01*
X156813Y687437D01*
X156187D01*
X155563Y687125D01*
X140250Y743687D02*
Y747437D01*
X142437D01*
X143063Y747125D01*
X143375Y746500D01*
X143063Y745875D01*
X142437Y745563D01*
X140250D01*
X142437D02*
X143375Y743687D01*
X145875D02*
X147125D01*
X146500D02*
Y747437D01*
X145875Y746813D01*
X150875Y743687D02*
X152125D01*
X151500D02*
Y747437D01*
X150875Y746813D01*
X155250Y744625D02*
X155563Y745250D01*
X156187Y745563D01*
X156813D01*
X157437Y745250D01*
X157750Y744625D01*
X157437Y744000D01*
X156813Y743687D01*
X156187D01*
X155563Y744000D01*
X155250Y744625D01*
Y745563D01*
X155563Y746500D01*
X156187Y747125D01*
X156813Y747437D01*
X140250Y753687D02*
Y757437D01*
X142437D01*
X143063Y757125D01*
X143375Y756500D01*
X143063Y755875D01*
X142437Y755563D01*
X140250D01*
X142437D02*
X143375Y753687D01*
X145875D02*
X147125D01*
X146500D02*
Y757437D01*
X145875Y756813D01*
X150875Y753687D02*
X152125D01*
X151500D02*
Y757437D01*
X150875Y756813D01*
X155250Y754000D02*
X155875Y753687D01*
X156813D01*
X157437Y754000D01*
X157750Y754625D01*
Y754937D01*
X157437Y755563D01*
X156813Y755875D01*
X155250D01*
Y757437D01*
X157750D01*
X140250Y763687D02*
Y767437D01*
X142437D01*
X143063Y767125D01*
X143375Y766500D01*
X143063Y765875D01*
X142437Y765563D01*
X140250D01*
X142437D02*
X143375Y763687D01*
X145875D02*
X147125D01*
X146500D02*
Y767437D01*
X145875Y766813D01*
X150875Y763687D02*
X152125D01*
X151500D02*
Y767437D01*
X150875Y766813D01*
X156813Y763687D02*
Y767437D01*
X155250Y764937D01*
X157750D01*
X140250Y783687D02*
Y787437D01*
X142437D01*
X143063Y787125D01*
X143375Y786500D01*
X143063Y785875D01*
X142437Y785563D01*
X140250D01*
X142437D02*
X143375Y783687D01*
X145875D02*
X147125D01*
X146500D02*
Y787437D01*
X145875Y786813D01*
X150875Y783687D02*
X152125D01*
X151500D02*
Y787437D01*
X150875Y786813D01*
X155563Y784000D02*
X156187Y783687D01*
X156813D01*
X157437Y784000D01*
X157750Y784625D01*
X157437Y785250D01*
X156813Y785563D01*
X156187D01*
X156813D02*
X157437Y785875D01*
X157750Y786500D01*
X157437Y787125D01*
X156813Y787437D01*
X156187D01*
X155563Y787125D01*
X180250Y778687D02*
Y782437D01*
X183375Y778687D01*
Y782437D01*
X185250Y778687D02*
Y782437D01*
X188375D01*
X187750Y780563D02*
X185250D01*
Y778687D02*
X188375D01*
X190250D02*
X193375Y782437D01*
X190250D02*
X193375Y778687D01*
X196813D02*
Y782437D01*
X195250D02*
X198375D01*
X180250Y787125D02*
X180563Y786500D01*
X181187Y786187D01*
X182437D01*
X183063Y786500D01*
X183375Y787125D01*
X183063Y787750D01*
X182437Y788063D01*
X181187D01*
X180563Y788375D01*
X180250Y789000D01*
X180563Y789625D01*
X181187Y789937D01*
X182437D01*
X183063Y789625D01*
X183375Y789000D01*
X185250Y789937D02*
X185563Y786187D01*
X186813Y788063D01*
X188063Y786187D01*
X188375Y789937D01*
X192750Y786187D02*
X190250D01*
X192437Y788375D01*
X192750Y789000D01*
X192437Y789625D01*
X191813Y789937D01*
X190875D01*
X190250Y789625D01*
X195563Y786500D02*
X196187Y786187D01*
X196813D01*
X197437Y786500D01*
X197750Y787125D01*
Y789000D01*
X197437Y789625D01*
X196813Y789937D01*
X196187D01*
X195563Y789625D01*
X195250Y789000D01*
Y787125D01*
X195563Y786500D01*
X197437Y789625D01*
X200875Y786187D02*
X202125D01*
X201500D02*
Y789937D01*
X200875Y789313D01*
X186825Y803124D02*
G75*
G03*
X193715I3445J0D01*
G01*
G75*
G03*
X186825I-3445J0D01*
G01*
X202553Y793774D02*
Y812474D01*
G75*
G03*
X199600Y815427I-2953J0D01*
G01*
X180900D01*
G75*
G03*
X177947Y812474I0J-2953D01*
G01*
Y793774D01*
G75*
G03*
X180900Y790821I2953J0D01*
G01*
X199600D01*
G75*
G03*
X202553Y793774I0J2953D01*
G01*
X231813Y193687D02*
Y197437D01*
X230250D02*
X233375D01*
X235250Y193687D02*
Y197437D01*
X237437D01*
X238063Y197125D01*
X238375Y196500D01*
X238063Y195875D01*
X237437Y195563D01*
X235250D01*
X240875Y193687D02*
X242125D01*
X241500D02*
Y197437D01*
X240875Y196813D01*
X245563Y194000D02*
X246187Y193687D01*
X246813D01*
X247437Y194000D01*
X247750Y194625D01*
Y196500D01*
X247437Y197125D01*
X246813Y197437D01*
X246187D01*
X245563Y197125D01*
X245250Y196500D01*
Y194625D01*
X245563Y194000D01*
X247437Y197125D01*
X250875Y193687D02*
X252125D01*
X251500D02*
Y197437D01*
X250875Y196813D01*
X230250Y779625D02*
X230563Y779000D01*
X231187Y778687D01*
X232437D01*
X233063Y779000D01*
X233375Y779625D01*
X233063Y780250D01*
X232437Y780563D01*
X231187D01*
X230563Y780875D01*
X230250Y781500D01*
X230563Y782125D01*
X231187Y782437D01*
X232437D01*
X233063Y782125D01*
X233375Y781500D01*
X235250Y778687D02*
Y782437D01*
X238375D01*
X237750Y780563D02*
X235250D01*
Y778687D02*
X238375D01*
X240250Y782437D02*
Y778687D01*
X243375D01*
X245250D02*
Y782437D01*
X248375D01*
X247750Y780563D02*
X245250D01*
Y778687D02*
X248375D01*
X253375Y779313D02*
X253063Y779000D01*
X252437Y778687D01*
X251500D01*
X250875Y779000D01*
X250563Y779313D01*
X250250Y779937D01*
Y781187D01*
X250563Y781813D01*
X250875Y782125D01*
X251500Y782437D01*
X252437D01*
X253063Y782125D01*
X253375Y781813D01*
X256813Y778687D02*
Y782437D01*
X255250D02*
X258375D01*
X230250Y787125D02*
X230563Y786500D01*
X231187Y786187D01*
X232437D01*
X233063Y786500D01*
X233375Y787125D01*
X233063Y787750D01*
X232437Y788063D01*
X231187D01*
X230563Y788375D01*
X230250Y789000D01*
X230563Y789625D01*
X231187Y789937D01*
X232437D01*
X233063Y789625D01*
X233375Y789000D01*
X235250Y789937D02*
X235563Y786187D01*
X236813Y788063D01*
X238063Y786187D01*
X238375Y789937D01*
X242750Y786187D02*
X240250D01*
X242437Y788375D01*
X242750Y789000D01*
X242437Y789625D01*
X241813Y789937D01*
X240875D01*
X240250Y789625D01*
X245563Y786500D02*
X246187Y786187D01*
X246813D01*
X247437Y786500D01*
X247750Y787125D01*
Y789000D01*
X247437Y789625D01*
X246813Y789937D01*
X246187D01*
X245563Y789625D01*
X245250Y789000D01*
Y787125D01*
X245563Y786500D01*
X247437Y789625D01*
X252750Y786187D02*
X250250D01*
X252437Y788375D01*
X252750Y789000D01*
X252437Y789625D01*
X251813Y789937D01*
X250875D01*
X250250Y789625D01*
X236825Y803124D02*
G75*
G03*
X243715I3445J0D01*
G01*
G75*
G03*
X236825I-3445J0D01*
G01*
X239937Y187750D02*
X240875D01*
Y187437D01*
X240563Y186813D01*
X240250Y186500D01*
X239625Y186187D01*
X239000D01*
X238375Y186500D01*
X238063Y186813D01*
X237750Y187437D01*
Y188687D01*
X238063Y189313D01*
X238375Y189625D01*
X239000Y189937D01*
X239625D01*
X240250Y189625D01*
X240563Y189313D01*
X240875Y188687D01*
X242750Y186187D02*
Y189937D01*
X245875Y186187D01*
Y189937D01*
X247750Y186187D02*
Y189937D01*
X249625D01*
X250250Y189625D01*
X250563Y189313D01*
X250875Y188687D01*
Y187437D01*
X250563Y186813D01*
X250250Y186500D01*
X249625Y186187D01*
X247750D01*
X252553Y793774D02*
Y812474D01*
G75*
G03*
X249600Y815427I-2953J0D01*
G01*
X230900D01*
G75*
G03*
X227947Y812474I0J-2953D01*
G01*
Y793774D01*
G75*
G03*
X230900Y790821I2953J0D01*
G01*
X249600D01*
G75*
G03*
X252553Y793774I0J2953D01*
G01*
X261187Y166187D02*
X262437D01*
X261813D02*
Y169937D01*
X261187D02*
X262437D01*
X268375Y166813D02*
X268063Y166500D01*
X267437Y166187D01*
X266500D01*
X265875Y166500D01*
X265563Y166813D01*
X265250Y167437D01*
Y168687D01*
X265563Y169313D01*
X265875Y169625D01*
X266500Y169937D01*
X267437D01*
X268063Y169625D01*
X268375Y169313D01*
X270250Y167125D02*
X270563Y167750D01*
X271187Y168063D01*
X271813D01*
X272437Y167750D01*
X272750Y167125D01*
X272437Y166500D01*
X271813Y166187D01*
X271187D01*
X270563Y166500D01*
X270250Y167125D01*
Y168063D01*
X270563Y169000D01*
X271187Y169625D01*
X271813Y169937D01*
X261187Y316187D02*
X262437D01*
X261813D02*
Y319937D01*
X261187D02*
X262437D01*
X268375Y316813D02*
X268063Y316500D01*
X267437Y316187D01*
X266500D01*
X265875Y316500D01*
X265563Y316813D01*
X265250Y317437D01*
Y318687D01*
X265563Y319313D01*
X265875Y319625D01*
X266500Y319937D01*
X267437D01*
X268063Y319625D01*
X268375Y319313D01*
X270250Y316500D02*
X270875Y316187D01*
X271813D01*
X272437Y316500D01*
X272750Y317125D01*
Y317437D01*
X272437Y318063D01*
X271813Y318375D01*
X270250D01*
Y319937D01*
X272750D01*
X261187Y446187D02*
X262437D01*
X261813D02*
Y449937D01*
X261187D02*
X262437D01*
X268375Y446813D02*
X268063Y446500D01*
X267437Y446187D01*
X266500D01*
X265875Y446500D01*
X265563Y446813D01*
X265250Y447437D01*
Y448687D01*
X265563Y449313D01*
X265875Y449625D01*
X266500Y449937D01*
X267437D01*
X268063Y449625D01*
X268375Y449313D01*
X271813Y446187D02*
Y449937D01*
X270250Y447437D01*
X272750D01*
X261187Y596187D02*
X262437D01*
X261813D02*
Y599937D01*
X261187D02*
X262437D01*
X268375Y596813D02*
X268063Y596500D01*
X267437Y596187D01*
X266500D01*
X265875Y596500D01*
X265563Y596813D01*
X265250Y597437D01*
Y598687D01*
X265563Y599313D01*
X265875Y599625D01*
X266500Y599937D01*
X267437D01*
X268063Y599625D01*
X268375Y599313D01*
X270563Y596500D02*
X271187Y596187D01*
X271813D01*
X272437Y596500D01*
X272750Y597125D01*
X272437Y597750D01*
X271813Y598063D01*
X271187D01*
X271813D02*
X272437Y598375D01*
X272750Y599000D01*
X272437Y599625D01*
X271813Y599937D01*
X271187D01*
X270563Y599625D01*
X261187Y746187D02*
X262437D01*
X261813D02*
Y749937D01*
X261187D02*
X262437D01*
X268375Y746813D02*
X268063Y746500D01*
X267437Y746187D01*
X266500D01*
X265875Y746500D01*
X265563Y746813D01*
X265250Y747437D01*
Y748687D01*
X265563Y749313D01*
X265875Y749625D01*
X266500Y749937D01*
X267437D01*
X268063Y749625D01*
X268375Y749313D01*
X272750Y746187D02*
X270250D01*
X272437Y748375D01*
X272750Y749000D01*
X272437Y749625D01*
X271813Y749937D01*
X270875D01*
X270250Y749625D01*
Y180250D02*
X265250D01*
X270250Y186187D02*
Y189937D01*
X272437D01*
X273063Y189625D01*
X273375Y189000D01*
X273063Y188375D01*
X272437Y188063D01*
X270250D01*
X272437D02*
X273375Y186187D01*
X275875D02*
X277125D01*
X276500D02*
Y189937D01*
X275875Y189313D01*
X280563Y186500D02*
X281187Y186187D01*
X281813D01*
X282437Y186500D01*
X282750Y187125D01*
Y189000D01*
X282437Y189625D01*
X281813Y189937D01*
X281187D01*
X280563Y189625D01*
X280250Y189000D01*
Y187125D01*
X280563Y186500D01*
X282437Y189625D01*
X285875Y186187D02*
X287125D01*
X286500D02*
Y189937D01*
X285875Y189313D01*
X270250Y760250D02*
X265250D01*
X270250Y766187D02*
Y769937D01*
X272437D01*
X273063Y769625D01*
X273375Y769000D01*
X273063Y768375D01*
X272437Y768063D01*
X270250D01*
X272437D02*
X273375Y766187D01*
X275875D02*
X277125D01*
X276500D02*
Y769937D01*
X275875Y769313D01*
X280563Y766500D02*
X281187Y766187D01*
X281813D01*
X282437Y766500D01*
X282750Y767125D01*
Y769000D01*
X282437Y769625D01*
X281813Y769937D01*
X281187D01*
X280563Y769625D01*
X280250Y769000D01*
Y767125D01*
X280563Y766500D01*
X282437Y769625D01*
X285563Y766500D02*
X286187Y766187D01*
X286813D01*
X287437Y766500D01*
X287750Y767125D01*
Y769000D01*
X287437Y769625D01*
X286813Y769937D01*
X286187D01*
X285563Y769625D01*
X285250Y769000D01*
Y767125D01*
X285563Y766500D01*
X287437Y769625D01*
X280250Y67750D02*
Y162750D01*
X282750D01*
X285250Y160250D01*
X287750Y162750D01*
X290250D01*
Y67750D01*
X280250D01*
Y217750D02*
Y312750D01*
X282750D01*
X285250Y310250D01*
X287750Y312750D01*
X290250D01*
Y217750D01*
X280250D01*
Y367750D02*
Y442750D01*
X282750D01*
X285250Y440250D01*
X287750Y442750D01*
X290250D01*
Y367750D01*
X280250D01*
Y517750D02*
Y592750D01*
X282750D01*
X285250Y590250D01*
X287750Y592750D01*
X290250D01*
Y517750D01*
X280250D01*
Y667750D02*
Y742750D01*
X282750D01*
X285250Y740250D01*
X287750Y742750D01*
X290250D01*
Y667750D01*
X280250D01*
X285875Y456813D02*
X285563Y456500D01*
X284937Y456187D01*
X284000D01*
X283375Y456500D01*
X283063Y456813D01*
X282750Y457437D01*
Y458687D01*
X283063Y459313D01*
X283375Y459625D01*
X284000Y459937D01*
X284937D01*
X285563Y459625D01*
X285875Y459313D01*
X288063Y456500D02*
X288687Y456187D01*
X289313D01*
X289937Y456500D01*
X290250Y457125D01*
X289937Y457750D01*
X289313Y458063D01*
X288687D01*
X289313D02*
X289937Y458375D01*
X290250Y459000D01*
X289937Y459625D01*
X289313Y459937D01*
X288687D01*
X288063Y459625D01*
X293063Y456500D02*
X293687Y456187D01*
X294313D01*
X294937Y456500D01*
X295250Y457125D01*
Y459000D01*
X294937Y459625D01*
X294313Y459937D01*
X293687D01*
X293063Y459625D01*
X292750Y459000D01*
Y457125D01*
X293063Y456500D01*
X294937Y459625D01*
X299313Y456187D02*
Y459937D01*
X297750Y457437D01*
X300250D01*
X285875Y606813D02*
X285563Y606500D01*
X284937Y606187D01*
X284000D01*
X283375Y606500D01*
X283063Y606813D01*
X282750Y607437D01*
Y608687D01*
X283063Y609313D01*
X283375Y609625D01*
X284000Y609937D01*
X284937D01*
X285563Y609625D01*
X285875Y609313D01*
X288063Y606500D02*
X288687Y606187D01*
X289313D01*
X289937Y606500D01*
X290250Y607125D01*
X289937Y607750D01*
X289313Y608063D01*
X288687D01*
X289313D02*
X289937Y608375D01*
X290250Y609000D01*
X289937Y609625D01*
X289313Y609937D01*
X288687D01*
X288063Y609625D01*
X293063Y606500D02*
X293687Y606187D01*
X294313D01*
X294937Y606500D01*
X295250Y607125D01*
Y609000D01*
X294937Y609625D01*
X294313Y609937D01*
X293687D01*
X293063Y609625D01*
X292750Y609000D01*
Y607125D01*
X293063Y606500D01*
X294937Y609625D01*
X298063Y606500D02*
X298687Y606187D01*
X299313D01*
X299937Y606500D01*
X300250Y607125D01*
X299937Y607750D01*
X299313Y608063D01*
X298687D01*
X299313D02*
X299937Y608375D01*
X300250Y609000D01*
X299937Y609625D01*
X299313Y609937D01*
X298687D01*
X298063Y609625D01*
X288375Y329313D02*
X288063Y329000D01*
X287437Y328687D01*
X286500D01*
X285875Y329000D01*
X285563Y329313D01*
X285250Y329937D01*
Y331187D01*
X285563Y331813D01*
X285875Y332125D01*
X286500Y332437D01*
X287437D01*
X288063Y332125D01*
X288375Y331813D01*
X290563Y329000D02*
X291187Y328687D01*
X291813D01*
X292437Y329000D01*
X292750Y329625D01*
X292437Y330250D01*
X291813Y330563D01*
X291187D01*
X291813D02*
X292437Y330875D01*
X292750Y331500D01*
X292437Y332125D01*
X291813Y332437D01*
X291187D01*
X290563Y332125D01*
X295563Y329000D02*
X296187Y328687D01*
X296813D01*
X297437Y329000D01*
X297750Y329625D01*
Y331500D01*
X297437Y332125D01*
X296813Y332437D01*
X296187D01*
X295563Y332125D01*
X295250Y331500D01*
Y329625D01*
X295563Y329000D01*
X297437Y332125D01*
X300250Y329000D02*
X300875Y328687D01*
X301813D01*
X302437Y329000D01*
X302750Y329625D01*
Y329937D01*
X302437Y330563D01*
X301813Y330875D01*
X300250D01*
Y332437D01*
X302750D01*
X285250Y809625D02*
X285563Y809000D01*
X286187Y808687D01*
X287437D01*
X288063Y809000D01*
X288375Y809625D01*
X288063Y810250D01*
X287437Y810563D01*
X286187D01*
X285563Y810875D01*
X285250Y811500D01*
X285563Y812125D01*
X286187Y812437D01*
X287437D01*
X288063Y812125D01*
X288375Y811500D01*
X290250Y808687D02*
Y812437D01*
X292437D01*
X293063Y812125D01*
X293375Y811500D01*
X293063Y810875D01*
X292437Y810563D01*
X290250D01*
X296187Y808687D02*
X297437D01*
X296813D02*
Y812437D01*
X296187D02*
X297437D01*
X305250Y808687D02*
Y812437D01*
X306813Y810563D01*
X308375Y812437D01*
Y808687D01*
X310250D02*
X313375Y812437D01*
X315250Y809625D02*
X315563Y809000D01*
X316187Y808687D01*
X317437D01*
X318063Y809000D01*
X318375Y809625D01*
X318063Y810250D01*
X317437Y810563D01*
X316187D01*
X315563Y810875D01*
X315250Y811500D01*
X315563Y812125D01*
X316187Y812437D01*
X317437D01*
X318063Y812125D01*
X318375Y811500D01*
X287750Y167750D02*
Y172750D01*
X292750D01*
Y167750D01*
X287750D01*
Y170250D02*
X285250D01*
X287750Y317750D02*
Y322750D01*
X292750D01*
Y317750D01*
X287750D01*
Y320250D02*
X285250D01*
X287750Y447750D02*
Y452750D01*
X292750D01*
Y447750D01*
X287750D01*
Y450250D02*
X285250D01*
X287750Y597750D02*
Y602750D01*
X292750D01*
Y597750D01*
X287750D01*
Y600250D02*
X285250D01*
X287750Y747750D02*
Y752750D01*
X292750D01*
Y747750D01*
X287750D01*
Y750250D02*
X285250D01*
X290250Y185250D02*
Y175250D01*
X270250D01*
Y185250D01*
X290250D01*
Y765250D02*
Y755250D01*
X270250D01*
Y765250D01*
X290250D01*
X292750Y170250D02*
X295250D01*
X292750Y320250D02*
X295250D01*
X292750Y450250D02*
X295250D01*
X292750Y600250D02*
X295250D01*
X292750Y750250D02*
X295250D01*
Y180250D02*
X290250D01*
X295250Y760250D02*
X290250D01*
X308375Y169313D02*
X308063Y169000D01*
X307437Y168687D01*
X306500D01*
X305875Y169000D01*
X305563Y169313D01*
X305250Y169937D01*
Y171187D01*
X305563Y171813D01*
X305875Y172125D01*
X306500Y172437D01*
X307437D01*
X308063Y172125D01*
X308375Y171813D01*
X310563Y169000D02*
X311187Y168687D01*
X311813D01*
X312437Y169000D01*
X312750Y169625D01*
X312437Y170250D01*
X311813Y170563D01*
X311187D01*
X311813D02*
X312437Y170875D01*
X312750Y171500D01*
X312437Y172125D01*
X311813Y172437D01*
X311187D01*
X310563Y172125D01*
X315563Y169000D02*
X316187Y168687D01*
X316813D01*
X317437Y169000D01*
X317750Y169625D01*
Y171500D01*
X317437Y172125D01*
X316813Y172437D01*
X316187D01*
X315563Y172125D01*
X315250Y171500D01*
Y169625D01*
X315563Y169000D01*
X317437Y172125D01*
X320250Y169625D02*
X320563Y170250D01*
X321187Y170563D01*
X321813D01*
X322437Y170250D01*
X322750Y169625D01*
X322437Y169000D01*
X321813Y168687D01*
X321187D01*
X320563Y169000D01*
X320250Y169625D01*
Y170563D01*
X320563Y171500D01*
X321187Y172125D01*
X321813Y172437D01*
X308375Y746813D02*
X308063Y746500D01*
X307437Y746187D01*
X306500D01*
X305875Y746500D01*
X305563Y746813D01*
X305250Y747437D01*
Y748687D01*
X305563Y749313D01*
X305875Y749625D01*
X306500Y749937D01*
X307437D01*
X308063Y749625D01*
X308375Y749313D01*
X310563Y746500D02*
X311187Y746187D01*
X311813D01*
X312437Y746500D01*
X312750Y747125D01*
X312437Y747750D01*
X311813Y748063D01*
X311187D01*
X311813D02*
X312437Y748375D01*
X312750Y749000D01*
X312437Y749625D01*
X311813Y749937D01*
X311187D01*
X310563Y749625D01*
X315563Y746500D02*
X316187Y746187D01*
X316813D01*
X317437Y746500D01*
X317750Y747125D01*
Y749000D01*
X317437Y749625D01*
X316813Y749937D01*
X316187D01*
X315563Y749625D01*
X315250Y749000D01*
Y747125D01*
X315563Y746500D01*
X317437Y749625D01*
X322750Y746187D02*
X320250D01*
X322437Y748375D01*
X322750Y749000D01*
X322437Y749625D01*
X321813Y749937D01*
X320875D01*
X320250Y749625D01*
X305250Y798687D02*
Y802437D01*
X307437D01*
X308063Y802125D01*
X308375Y801500D01*
X308063Y800875D01*
X307437Y800563D01*
X305250D01*
X310250Y802437D02*
Y798687D01*
X313375D01*
X316187D02*
X316813Y799000D01*
X317437Y799625D01*
X317750Y800563D01*
Y801500D01*
X317437Y802125D01*
X316813Y802437D01*
X316187D01*
X315563Y802125D01*
X315250Y801500D01*
X315563Y800875D01*
X316187Y800563D01*
X316813D01*
X317437Y800875D01*
X317750Y801500D01*
X309313Y753687D02*
Y757437D01*
X307750D02*
X310875D01*
X312750Y753687D02*
Y757437D01*
X314937D01*
X315563Y757125D01*
X315875Y756500D01*
X315563Y755875D01*
X314937Y755563D01*
X312750D01*
X320250Y753687D02*
X317750D01*
X319937Y755875D01*
X320250Y756500D01*
X319937Y757125D01*
X319313Y757437D01*
X318375D01*
X317750Y757125D01*
X323063Y754000D02*
X323687Y753687D01*
X324313D01*
X324937Y754000D01*
X325250Y754625D01*
Y756500D01*
X324937Y757125D01*
X324313Y757437D01*
X323687D01*
X323063Y757125D01*
X322750Y756500D01*
Y754625D01*
X323063Y754000D01*
X324937Y757125D01*
X330250Y753687D02*
X327750D01*
X329937Y755875D01*
X330250Y756500D01*
X329937Y757125D01*
X329313Y757437D01*
X328375D01*
X327750Y757125D01*
X309313Y781187D02*
Y784937D01*
X307750D02*
X310875D01*
X312750Y781187D02*
Y784937D01*
X314937D01*
X315563Y784625D01*
X315875Y784000D01*
X315563Y783375D01*
X314937Y783063D01*
X312750D01*
X320250Y781187D02*
X317750D01*
X319937Y783375D01*
X320250Y784000D01*
X319937Y784625D01*
X319313Y784937D01*
X318375D01*
X317750Y784625D01*
X323063Y781500D02*
X323687Y781187D01*
X324313D01*
X324937Y781500D01*
X325250Y782125D01*
Y784000D01*
X324937Y784625D01*
X324313Y784937D01*
X323687D01*
X323063Y784625D01*
X322750Y784000D01*
Y782125D01*
X323063Y781500D01*
X324937Y784625D01*
X328375Y781187D02*
X329625D01*
X329000D02*
Y784937D01*
X328375Y784313D01*
X316813Y211187D02*
Y214937D01*
X315250D02*
X318375D01*
X320250Y211187D02*
Y214937D01*
X322437D01*
X323063Y214625D01*
X323375Y214000D01*
X323063Y213375D01*
X322437Y213063D01*
X320250D01*
X325563Y211500D02*
X326187Y211187D01*
X326813D01*
X327437Y211500D01*
X327750Y212125D01*
X327437Y212750D01*
X326813Y213063D01*
X326187D01*
X326813D02*
X327437Y213375D01*
X327750Y214000D01*
X327437Y214625D01*
X326813Y214937D01*
X326187D01*
X325563Y214625D01*
X331813Y211187D02*
Y214937D01*
X330250Y212437D01*
X332750D01*
X335563Y211500D02*
X336187Y211187D01*
X336813D01*
X337437Y211500D01*
X337750Y212125D01*
Y214000D01*
X337437Y214625D01*
X336813Y214937D01*
X336187D01*
X335563Y214625D01*
X335250Y214000D01*
Y212125D01*
X335563Y211500D01*
X337437Y214625D01*
X316813Y236187D02*
Y239937D01*
X315250D02*
X318375D01*
X320250Y236187D02*
Y239937D01*
X322437D01*
X323063Y239625D01*
X323375Y239000D01*
X323063Y238375D01*
X322437Y238063D01*
X320250D01*
X325563Y236500D02*
X326187Y236187D01*
X326813D01*
X327437Y236500D01*
X327750Y237125D01*
X327437Y237750D01*
X326813Y238063D01*
X326187D01*
X326813D02*
X327437Y238375D01*
X327750Y239000D01*
X327437Y239625D01*
X326813Y239937D01*
X326187D01*
X325563Y239625D01*
X330563Y236500D02*
X331187Y236187D01*
X331813D01*
X332437Y236500D01*
X332750Y237125D01*
X332437Y237750D01*
X331813Y238063D01*
X331187D01*
X331813D02*
X332437Y238375D01*
X332750Y239000D01*
X332437Y239625D01*
X331813Y239937D01*
X331187D01*
X330563Y239625D01*
X335563Y236500D02*
X336187Y236187D01*
X336813D01*
X337437Y236500D01*
X337750Y237125D01*
Y239000D01*
X337437Y239625D01*
X336813Y239937D01*
X336187D01*
X335563Y239625D01*
X335250Y239000D01*
Y237125D01*
X335563Y236500D01*
X337437Y239625D01*
X320250Y207437D02*
X321813Y203687D01*
X323375Y207437D01*
X325250Y204625D02*
X325563Y204000D01*
X326187Y203687D01*
X326813D01*
X327437Y204000D01*
X327750Y204625D01*
Y205250D01*
X327437Y205875D01*
X326813Y206187D01*
X326187D01*
X325563Y205875D01*
X325250Y205250D01*
Y203687D02*
Y207437D01*
X330250Y204625D02*
X330563Y204000D01*
X331187Y203687D01*
X331813D01*
X332437Y204000D01*
X332750Y204625D01*
Y205250D01*
X332437Y205875D01*
X331813Y206187D01*
X331187D01*
X330563Y205875D01*
X330250Y205250D01*
Y203687D02*
Y207437D01*
X335250Y204937D02*
X337750D01*
X320250Y232437D02*
X321813Y228687D01*
X323375Y232437D01*
X325250Y229625D02*
X325563Y229000D01*
X326187Y228687D01*
X326813D01*
X327437Y229000D01*
X327750Y229625D01*
Y230250D01*
X327437Y230875D01*
X326813Y231187D01*
X326187D01*
X325563Y230875D01*
X325250Y230250D01*
Y228687D02*
Y232437D01*
X330250Y229625D02*
X330563Y229000D01*
X331187Y228687D01*
X331813D01*
X332437Y229000D01*
X332750Y229625D01*
Y230250D01*
X332437Y230875D01*
X331813Y231187D01*
X331187D01*
X330563Y230875D01*
X330250Y230250D01*
Y228687D02*
Y232437D01*
X335250Y229937D02*
X337750D01*
X336500Y228687D02*
Y231187D01*
X325875Y194313D02*
X325563Y194000D01*
X324937Y193687D01*
X324000D01*
X323375Y194000D01*
X323063Y194313D01*
X322750Y194937D01*
Y196187D01*
X323063Y196813D01*
X323375Y197125D01*
X324000Y197437D01*
X324937D01*
X325563Y197125D01*
X325875Y196813D01*
X328063Y194000D02*
X328687Y193687D01*
X329313D01*
X329937Y194000D01*
X330250Y194625D01*
X329937Y195250D01*
X329313Y195563D01*
X328687D01*
X329313D02*
X329937Y195875D01*
X330250Y196500D01*
X329937Y197125D01*
X329313Y197437D01*
X328687D01*
X328063Y197125D01*
X334313Y193687D02*
Y197437D01*
X332750Y194937D01*
X335250D01*
X338063Y194000D02*
X338687Y193687D01*
X339313D01*
X339937Y194000D01*
X340250Y194625D01*
Y196500D01*
X339937Y197125D01*
X339313Y197437D01*
X338687D01*
X338063Y197125D01*
X337750Y196500D01*
Y194625D01*
X338063Y194000D01*
X339937Y197125D01*
X332750Y729313D02*
X333063Y729000D01*
X333687Y728687D01*
X334313Y729000D01*
X334625Y729313D01*
Y732437D01*
X335250D01*
X334625D02*
X333375D01*
X337750Y728687D02*
Y732437D01*
X339937D01*
X340563Y732125D01*
X340875Y731500D01*
X340563Y730875D01*
X339937Y730563D01*
X337750D01*
X345250Y728687D02*
X342750D01*
X344937Y730875D01*
X345250Y731500D01*
X344937Y732125D01*
X344313Y732437D01*
X343375D01*
X342750Y732125D01*
X348063Y729000D02*
X348687Y728687D01*
X349313D01*
X349937Y729000D01*
X350250Y729625D01*
Y731500D01*
X349937Y732125D01*
X349313Y732437D01*
X348687D01*
X348063Y732125D01*
X347750Y731500D01*
Y729625D01*
X348063Y729000D01*
X349937Y732125D01*
X353063Y729000D02*
X353687Y728687D01*
X354313D01*
X354937Y729000D01*
X355250Y729625D01*
Y731500D01*
X354937Y732125D01*
X354313Y732437D01*
X353687D01*
X353063Y732125D01*
X352750Y731500D01*
Y729625D01*
X353063Y729000D01*
X354937Y732125D01*
X334313Y753687D02*
Y757437D01*
X332750D02*
X335875D01*
X337750Y753687D02*
Y757437D01*
X339937D01*
X340563Y757125D01*
X340875Y756500D01*
X340563Y755875D01*
X339937Y755563D01*
X337750D01*
X345250Y753687D02*
X342750D01*
X344937Y755875D01*
X345250Y756500D01*
X344937Y757125D01*
X344313Y757437D01*
X343375D01*
X342750Y757125D01*
X348063Y754000D02*
X348687Y753687D01*
X349313D01*
X349937Y754000D01*
X350250Y754625D01*
Y756500D01*
X349937Y757125D01*
X349313Y757437D01*
X348687D01*
X348063Y757125D01*
X347750Y756500D01*
Y754625D01*
X348063Y754000D01*
X349937Y757125D01*
X354313Y753687D02*
Y757437D01*
X352750Y754937D01*
X355250D01*
X334313Y781187D02*
Y784937D01*
X332750D02*
X335875D01*
X337750Y781187D02*
Y784937D01*
X339937D01*
X340563Y784625D01*
X340875Y784000D01*
X340563Y783375D01*
X339937Y783063D01*
X337750D01*
X345250Y781187D02*
X342750D01*
X344937Y783375D01*
X345250Y784000D01*
X344937Y784625D01*
X344313Y784937D01*
X343375D01*
X342750Y784625D01*
X348063Y781500D02*
X348687Y781187D01*
X349313D01*
X349937Y781500D01*
X350250Y782125D01*
Y784000D01*
X349937Y784625D01*
X349313Y784937D01*
X348687D01*
X348063Y784625D01*
X347750Y784000D01*
Y782125D01*
X348063Y781500D01*
X349937Y784625D01*
X353063Y781500D02*
X353687Y781187D01*
X354313D01*
X354937Y781500D01*
X355250Y782125D01*
X354937Y782750D01*
X354313Y783063D01*
X353687D01*
X354313D02*
X354937Y783375D01*
X355250Y784000D01*
X354937Y784625D01*
X354313Y784937D01*
X353687D01*
X353063Y784625D01*
X335250Y151813D02*
X335563Y151500D01*
X336187Y151187D01*
X336813Y151500D01*
X337125Y151813D01*
Y154937D01*
X337750D01*
X337125D02*
X335875D01*
X340250Y151187D02*
Y154937D01*
X342437D01*
X343063Y154625D01*
X343375Y154000D01*
X343063Y153375D01*
X342437Y153063D01*
X340250D01*
X345563Y151500D02*
X346187Y151187D01*
X346813D01*
X347437Y151500D01*
X347750Y152125D01*
X347437Y152750D01*
X346813Y153063D01*
X346187D01*
X346813D02*
X347437Y153375D01*
X347750Y154000D01*
X347437Y154625D01*
X346813Y154937D01*
X346187D01*
X345563Y154625D01*
X350250Y151500D02*
X350875Y151187D01*
X351813D01*
X352437Y151500D01*
X352750Y152125D01*
Y152437D01*
X352437Y153063D01*
X351813Y153375D01*
X350250D01*
Y154937D01*
X352750D01*
X355563Y151500D02*
X356187Y151187D01*
X356813D01*
X357437Y151500D01*
X357750Y152125D01*
Y154000D01*
X357437Y154625D01*
X356813Y154937D01*
X356187D01*
X355563Y154625D01*
X355250Y154000D01*
Y152125D01*
X355563Y151500D01*
X357437Y154625D01*
X337750Y264937D02*
X340250D01*
X339000Y263687D02*
Y266187D01*
X340250Y255250D02*
G75*
G02*
X350250Y265250I10000J0D01*
G01*
G75*
G02*
X360250Y255250I0J-10000D01*
G01*
G75*
G02*
X350250Y245250I-10000J0D01*
G01*
G75*
G02*
X340250Y255250I0J10000D01*
G01*
X341813Y391187D02*
Y394937D01*
X340250D02*
X343375D01*
X345250Y391187D02*
Y394937D01*
X347437D01*
X348063Y394625D01*
X348375Y394000D01*
X348063Y393375D01*
X347437Y393063D01*
X345250D01*
X350563Y391500D02*
X351187Y391187D01*
X351813D01*
X352437Y391500D01*
X352750Y392125D01*
X352437Y392750D01*
X351813Y393063D01*
X351187D01*
X351813D02*
X352437Y393375D01*
X352750Y394000D01*
X352437Y394625D01*
X351813Y394937D01*
X351187D01*
X350563Y394625D01*
X357750Y391187D02*
X355250D01*
X357437Y393375D01*
X357750Y394000D01*
X357437Y394625D01*
X356813Y394937D01*
X355875D01*
X355250Y394625D01*
X360563Y391500D02*
X361187Y391187D01*
X361813D01*
X362437Y391500D01*
X362750Y392125D01*
Y394000D01*
X362437Y394625D01*
X361813Y394937D01*
X361187D01*
X360563Y394625D01*
X360250Y394000D01*
Y392125D01*
X360563Y391500D01*
X362437Y394625D01*
X341813Y441187D02*
Y444937D01*
X340250D02*
X343375D01*
X345250Y441187D02*
Y444937D01*
X347437D01*
X348063Y444625D01*
X348375Y444000D01*
X348063Y443375D01*
X347437Y443063D01*
X345250D01*
X350563Y441500D02*
X351187Y441187D01*
X351813D01*
X352437Y441500D01*
X352750Y442125D01*
X352437Y442750D01*
X351813Y443063D01*
X351187D01*
X351813D02*
X352437Y443375D01*
X352750Y444000D01*
X352437Y444625D01*
X351813Y444937D01*
X351187D01*
X350563Y444625D01*
X355875Y441187D02*
X357125D01*
X356500D02*
Y444937D01*
X355875Y444313D01*
X360563Y441500D02*
X361187Y441187D01*
X361813D01*
X362437Y441500D01*
X362750Y442125D01*
Y444000D01*
X362437Y444625D01*
X361813Y444937D01*
X361187D01*
X360563Y444625D01*
X360250Y444000D01*
Y442125D01*
X360563Y441500D01*
X362437Y444625D01*
X345875Y266813D02*
X345563Y266500D01*
X344937Y266187D01*
X344000D01*
X343375Y266500D01*
X343063Y266813D01*
X342750Y267437D01*
Y268687D01*
X343063Y269313D01*
X343375Y269625D01*
X344000Y269937D01*
X344937D01*
X345563Y269625D01*
X345875Y269313D01*
X348063Y266500D02*
X348687Y266187D01*
X349313D01*
X349937Y266500D01*
X350250Y267125D01*
X349937Y267750D01*
X349313Y268063D01*
X348687D01*
X349313D02*
X349937Y268375D01*
X350250Y269000D01*
X349937Y269625D01*
X349313Y269937D01*
X348687D01*
X348063Y269625D01*
X353063Y266500D02*
X353687Y266187D01*
X354313D01*
X354937Y266500D01*
X355250Y267125D01*
X354937Y267750D01*
X354313Y268063D01*
X353687D01*
X354313D02*
X354937Y268375D01*
X355250Y269000D01*
X354937Y269625D01*
X354313Y269937D01*
X353687D01*
X353063Y269625D01*
X358063Y266500D02*
X358687Y266187D01*
X359313D01*
X359937Y266500D01*
X360250Y267125D01*
Y269000D01*
X359937Y269625D01*
X359313Y269937D01*
X358687D01*
X358063Y269625D01*
X357750Y269000D01*
Y267125D01*
X358063Y266500D01*
X359937Y269625D01*
X340563Y85250D02*
Y88375D01*
X344313Y85250D01*
Y88375D01*
Y90250D02*
X340563D01*
Y92125D01*
X340875Y92750D01*
X341187Y93063D01*
X341813Y93375D01*
X343063D01*
X343687Y93063D01*
X344000Y92750D01*
X344313Y92125D01*
Y90250D01*
X344000Y95563D02*
X344313Y96187D01*
Y96813D01*
X344000Y97437D01*
X343375Y97750D01*
X342750Y97437D01*
X342437Y96813D01*
Y96187D01*
Y96813D02*
X342125Y97437D01*
X341500Y97750D01*
X340875Y97437D01*
X340563Y96813D01*
Y96187D01*
X340875Y95563D01*
X344000Y100250D02*
X344313Y100875D01*
Y101813D01*
X344000Y102437D01*
X343375Y102750D01*
X343063D01*
X342437Y102437D01*
X342125Y101813D01*
Y100250D01*
X340563D01*
Y102750D01*
X344000Y105563D02*
X344313Y106187D01*
Y106813D01*
X344000Y107437D01*
X343375Y107750D01*
X341500D01*
X340875Y107437D01*
X340563Y106813D01*
Y106187D01*
X340875Y105563D01*
X341500Y105250D01*
X343375D01*
X344000Y105563D01*
X340875Y107437D01*
X345250Y102750D02*
X355250D01*
Y87750D01*
X345250D01*
Y102750D01*
Y165250D02*
X340250D01*
X345250Y171187D02*
Y174937D01*
X347437D01*
X348063Y174625D01*
X348375Y174000D01*
X348063Y173375D01*
X347437Y173063D01*
X345250D01*
X347437D02*
X348375Y171187D01*
X350563Y171500D02*
X351187Y171187D01*
X351813D01*
X352437Y171500D01*
X352750Y172125D01*
X352437Y172750D01*
X351813Y173063D01*
X351187D01*
X351813D02*
X352437Y173375D01*
X352750Y174000D01*
X352437Y174625D01*
X351813Y174937D01*
X351187D01*
X350563Y174625D01*
X356813Y171187D02*
Y174937D01*
X355250Y172437D01*
X357750D01*
X360563Y171500D02*
X361187Y171187D01*
X361813D01*
X362437Y171500D01*
X362750Y172125D01*
Y174000D01*
X362437Y174625D01*
X361813Y174937D01*
X361187D01*
X360563Y174625D01*
X360250Y174000D01*
Y172125D01*
X360563Y171500D01*
X362437Y174625D01*
X345250Y280250D02*
X340250D01*
X345250Y286187D02*
Y289937D01*
X347437D01*
X348063Y289625D01*
X348375Y289000D01*
X348063Y288375D01*
X347437Y288063D01*
X345250D01*
X347437D02*
X348375Y286187D01*
X350563Y286500D02*
X351187Y286187D01*
X351813D01*
X352437Y286500D01*
X352750Y287125D01*
X352437Y287750D01*
X351813Y288063D01*
X351187D01*
X351813D02*
X352437Y288375D01*
X352750Y289000D01*
X352437Y289625D01*
X351813Y289937D01*
X351187D01*
X350563Y289625D01*
X355563Y286500D02*
X356187Y286187D01*
X356813D01*
X357437Y286500D01*
X357750Y287125D01*
X357437Y287750D01*
X356813Y288063D01*
X356187D01*
X356813D02*
X357437Y288375D01*
X357750Y289000D01*
X357437Y289625D01*
X356813Y289937D01*
X356187D01*
X355563Y289625D01*
X360563Y286500D02*
X361187Y286187D01*
X361813D01*
X362437Y286500D01*
X362750Y287125D01*
Y289000D01*
X362437Y289625D01*
X361813Y289937D01*
X361187D01*
X360563Y289625D01*
X360250Y289000D01*
Y287125D01*
X360563Y286500D01*
X362437Y289625D01*
X345250Y387437D02*
X346813Y383687D01*
X348375Y387437D01*
X352750Y385875D02*
X352125Y386187D01*
X351187D01*
X350563Y385875D01*
X350250Y385250D01*
Y384625D01*
X350563Y384000D01*
X351187Y383687D01*
X352125D01*
X352750Y384000D01*
X357750Y385875D02*
X357125Y386187D01*
X356187D01*
X355563Y385875D01*
X355250Y385250D01*
Y384625D01*
X355563Y384000D01*
X356187Y383687D01*
X357125D01*
X357750Y384000D01*
X360250Y384937D02*
X362750D01*
X345250Y437437D02*
X346813Y433687D01*
X348375Y437437D01*
X352750Y435875D02*
X352125Y436187D01*
X351187D01*
X350563Y435875D01*
X350250Y435250D01*
Y434625D01*
X350563Y434000D01*
X351187Y433687D01*
X352125D01*
X352750Y434000D01*
X357750Y435875D02*
X357125Y436187D01*
X356187D01*
X355563Y435875D01*
X355250Y435250D01*
Y434625D01*
X355563Y434000D01*
X356187Y433687D01*
X357125D01*
X357750Y434000D01*
X360250Y434937D02*
X362750D01*
X361500Y433687D02*
Y436187D01*
X346813Y763687D02*
Y767437D01*
X345250D02*
X348375D01*
X350250Y763687D02*
Y767437D01*
X352437D01*
X353063Y767125D01*
X353375Y766500D01*
X353063Y765875D01*
X352437Y765563D01*
X350250D01*
X357750Y763687D02*
X355250D01*
X357437Y765875D01*
X357750Y766500D01*
X357437Y767125D01*
X356813Y767437D01*
X355875D01*
X355250Y767125D01*
X360563Y764000D02*
X361187Y763687D01*
X361813D01*
X362437Y764000D01*
X362750Y764625D01*
Y766500D01*
X362437Y767125D01*
X361813Y767437D01*
X361187D01*
X360563Y767125D01*
X360250Y766500D01*
Y764625D01*
X360563Y764000D01*
X362437Y767125D01*
X365250Y763687D02*
X367750Y767437D01*
X365250D01*
X350250Y87750D02*
Y85250D01*
Y105250D02*
Y102750D01*
X357750Y729313D02*
X358063Y729000D01*
X358687Y728687D01*
X359313Y729000D01*
X359625Y729313D01*
Y732437D01*
X360250D01*
X359625D02*
X358375D01*
X362750Y728687D02*
Y732437D01*
X364937D01*
X365563Y732125D01*
X365875Y731500D01*
X365563Y730875D01*
X364937Y730563D01*
X362750D01*
X370250Y728687D02*
X367750D01*
X369937Y730875D01*
X370250Y731500D01*
X369937Y732125D01*
X369313Y732437D01*
X368375D01*
X367750Y732125D01*
X373063Y729000D02*
X373687Y728687D01*
X374313D01*
X374937Y729000D01*
X375250Y729625D01*
Y731500D01*
X374937Y732125D01*
X374313Y732437D01*
X373687D01*
X373063Y732125D01*
X372750Y731500D01*
Y729625D01*
X373063Y729000D01*
X374937Y732125D01*
X378375Y728687D02*
X379625D01*
X379000D02*
Y732437D01*
X378375Y731813D01*
X360250Y190250D02*
G75*
G02*
X350250Y180250I-10000J0D01*
G01*
G75*
G02*
X340250Y190250I0J10000D01*
G01*
G75*
G02*
X350250Y200250I10000J0D01*
G01*
G75*
G02*
X360250Y190250I0J-10000D01*
G01*
Y517750D02*
Y662750D01*
X375250D01*
X380250Y657750D01*
X385250Y662750D01*
X400250D01*
Y517750D01*
X360250D01*
X361187Y666187D02*
X362437D01*
X361813D02*
Y669937D01*
X361187D02*
X362437D01*
X368375Y666813D02*
X368063Y666500D01*
X367437Y666187D01*
X366500D01*
X365875Y666500D01*
X365563Y666813D01*
X365250Y667437D01*
Y668687D01*
X365563Y669313D01*
X365875Y669625D01*
X366500Y669937D01*
X367437D01*
X368063Y669625D01*
X368375Y669313D01*
X370875Y666187D02*
X372125D01*
X371500D02*
Y669937D01*
X370875Y669313D01*
X362750Y180563D02*
X360250D01*
X361500Y181813D02*
Y179313D01*
X365250Y170250D02*
Y160250D01*
X345250D01*
Y170250D01*
X365250D01*
Y285250D02*
Y275250D01*
X345250D01*
Y285250D01*
X365250D01*
X367750Y199937D02*
X370250D01*
X369000Y198687D02*
Y201187D01*
X370250Y165250D02*
X365250D01*
X370250Y190250D02*
G75*
G02*
X380250Y200250I10000J0D01*
G01*
G75*
G02*
X390250Y190250I0J-10000D01*
G01*
G75*
G02*
X380250Y180250I-10000J0D01*
G01*
G75*
G02*
X370250Y190250I0J10000D01*
G01*
Y280250D02*
X365250D01*
X370250Y781813D02*
X370563Y781500D01*
X371187Y781187D01*
X371813Y781500D01*
X372125Y781813D01*
Y784937D01*
X372750D01*
X372125D02*
X370875D01*
X375250Y781187D02*
Y784937D01*
X377437D01*
X378063Y784625D01*
X378375Y784000D01*
X378063Y783375D01*
X377437Y783063D01*
X375250D01*
X382750Y781187D02*
X380250D01*
X382437Y783375D01*
X382750Y784000D01*
X382437Y784625D01*
X381813Y784937D01*
X380875D01*
X380250Y784625D01*
X385875Y781187D02*
X387125D01*
X386500D02*
Y784937D01*
X385875Y784313D01*
X390875Y781187D02*
X392125D01*
X391500D02*
Y784937D01*
X390875Y784313D01*
X370563Y72750D02*
Y75250D01*
X371813Y74000D02*
X369313D01*
X375875Y96813D02*
X375563Y96500D01*
X374937Y96187D01*
X374000D01*
X373375Y96500D01*
X373063Y96813D01*
X372750Y97437D01*
Y98687D01*
X373063Y99313D01*
X373375Y99625D01*
X374000Y99937D01*
X374937D01*
X375563Y99625D01*
X375875Y99313D01*
X378063Y96500D02*
X378687Y96187D01*
X379313D01*
X379937Y96500D01*
X380250Y97125D01*
X379937Y97750D01*
X379313Y98063D01*
X378687D01*
X379313D02*
X379937Y98375D01*
X380250Y99000D01*
X379937Y99625D01*
X379313Y99937D01*
X378687D01*
X378063Y99625D01*
X382750Y96500D02*
X383375Y96187D01*
X384313D01*
X384937Y96500D01*
X385250Y97125D01*
Y97437D01*
X384937Y98063D01*
X384313Y98375D01*
X382750D01*
Y99937D01*
X385250D01*
X388063Y96500D02*
X388687Y96187D01*
X389313D01*
X389937Y96500D01*
X390250Y97125D01*
Y99000D01*
X389937Y99625D01*
X389313Y99937D01*
X388687D01*
X388063Y99625D01*
X387750Y99000D01*
Y97125D01*
X388063Y96500D01*
X389937Y99625D01*
X375875Y201813D02*
X375563Y201500D01*
X374937Y201187D01*
X374000D01*
X373375Y201500D01*
X373063Y201813D01*
X372750Y202437D01*
Y203687D01*
X373063Y204313D01*
X373375Y204625D01*
X374000Y204937D01*
X374937D01*
X375563Y204625D01*
X375875Y204313D01*
X378063Y201500D02*
X378687Y201187D01*
X379313D01*
X379937Y201500D01*
X380250Y202125D01*
X379937Y202750D01*
X379313Y203063D01*
X378687D01*
X379313D02*
X379937Y203375D01*
X380250Y204000D01*
X379937Y204625D01*
X379313Y204937D01*
X378687D01*
X378063Y204625D01*
X384313Y201187D02*
Y204937D01*
X382750Y202437D01*
X385250D01*
X388375Y201187D02*
X389625D01*
X389000D02*
Y204937D01*
X388375Y204313D01*
X375875Y266813D02*
X375563Y266500D01*
X374937Y266187D01*
X374000D01*
X373375Y266500D01*
X373063Y266813D01*
X372750Y267437D01*
Y268687D01*
X373063Y269313D01*
X373375Y269625D01*
X374000Y269937D01*
X374937D01*
X375563Y269625D01*
X375875Y269313D01*
X378063Y266500D02*
X378687Y266187D01*
X379313D01*
X379937Y266500D01*
X380250Y267125D01*
X379937Y267750D01*
X379313Y268063D01*
X378687D01*
X379313D02*
X379937Y268375D01*
X380250Y269000D01*
X379937Y269625D01*
X379313Y269937D01*
X378687D01*
X378063Y269625D01*
X383063Y266500D02*
X383687Y266187D01*
X384313D01*
X384937Y266500D01*
X385250Y267125D01*
X384937Y267750D01*
X384313Y268063D01*
X383687D01*
X384313D02*
X384937Y268375D01*
X385250Y269000D01*
X384937Y269625D01*
X384313Y269937D01*
X383687D01*
X383063Y269625D01*
X388375Y266187D02*
X389625D01*
X389000D02*
Y269937D01*
X388375Y269313D01*
X377750Y367437D02*
X379313Y363687D01*
X380875Y367437D01*
X382750Y363687D02*
Y367437D01*
X384937D01*
X385563Y367125D01*
X385875Y366500D01*
X385563Y365875D01*
X384937Y365563D01*
X382750D01*
X384937D02*
X385875Y363687D01*
X388063Y364000D02*
X388687Y363687D01*
X389313D01*
X389937Y364000D01*
X390250Y364625D01*
X389937Y365250D01*
X389313Y365563D01*
X388687D01*
X389313D02*
X389937Y365875D01*
X390250Y366500D01*
X389937Y367125D01*
X389313Y367437D01*
X388687D01*
X388063Y367125D01*
X395250Y363687D02*
X392750D01*
X394937Y365875D01*
X395250Y366500D01*
X394937Y367125D01*
X394313Y367437D01*
X393375D01*
X392750Y367125D01*
X398063Y364000D02*
X398687Y363687D01*
X399313D01*
X399937Y364000D01*
X400250Y364625D01*
Y366500D01*
X399937Y367125D01*
X399313Y367437D01*
X398687D01*
X398063Y367125D01*
X397750Y366500D01*
Y364625D01*
X398063Y364000D01*
X399937Y367125D01*
X377750Y482437D02*
X379313Y478687D01*
X380875Y482437D01*
X382750Y478687D02*
Y482437D01*
X384937D01*
X385563Y482125D01*
X385875Y481500D01*
X385563Y480875D01*
X384937Y480563D01*
X382750D01*
X384937D02*
X385875Y478687D01*
X388063Y479000D02*
X388687Y478687D01*
X389313D01*
X389937Y479000D01*
X390250Y479625D01*
X389937Y480250D01*
X389313Y480563D01*
X388687D01*
X389313D02*
X389937Y480875D01*
X390250Y481500D01*
X389937Y482125D01*
X389313Y482437D01*
X388687D01*
X388063Y482125D01*
X393375Y478687D02*
X394625D01*
X394000D02*
Y482437D01*
X393375Y481813D01*
X398063Y479000D02*
X398687Y478687D01*
X399313D01*
X399937Y479000D01*
X400250Y479625D01*
Y481500D01*
X399937Y482125D01*
X399313Y482437D01*
X398687D01*
X398063Y482125D01*
X397750Y481500D01*
Y479625D01*
X398063Y479000D01*
X399937Y482125D01*
X380250Y75250D02*
G75*
G02*
X370250Y85250I0J10000D01*
G01*
G75*
G02*
X380250Y95250I10000J0D01*
G01*
G75*
G02*
X390250Y85250I0J-10000D01*
G01*
G75*
G02*
X380250Y75250I-10000J0D01*
G01*
X381187Y395875D02*
X381500Y395563D01*
X381813Y394937D01*
Y394000D01*
X381500Y393375D01*
X381187Y393063D01*
X380563Y392750D01*
X379313D01*
X378687Y393063D01*
X378375Y393375D01*
X378063Y394000D01*
Y394937D01*
X378375Y395563D01*
X378687Y395875D01*
X381500Y398063D02*
X381813Y398687D01*
Y399313D01*
X381500Y399937D01*
X380875Y400250D01*
X380250Y399937D01*
X379937Y399313D01*
Y398687D01*
Y399313D02*
X379625Y399937D01*
X379000Y400250D01*
X378375Y399937D01*
X378063Y399313D01*
Y398687D01*
X378375Y398063D01*
X381813Y405250D02*
Y402750D01*
X379625Y404937D01*
X379000Y405250D01*
X378375Y404937D01*
X378063Y404313D01*
Y403375D01*
X378375Y402750D01*
X381500Y408063D02*
X381813Y408687D01*
Y409313D01*
X381500Y409937D01*
X380875Y410250D01*
X379000D01*
X378375Y409937D01*
X378063Y409313D01*
Y408687D01*
X378375Y408063D01*
X379000Y407750D01*
X380875D01*
X381500Y408063D01*
X378375Y409937D01*
X382750Y402750D02*
X387750D01*
Y397750D01*
X382750D01*
Y402750D01*
X381187Y425875D02*
X381500Y425563D01*
X381813Y424937D01*
Y424000D01*
X381500Y423375D01*
X381187Y423063D01*
X380563Y422750D01*
X379313D01*
X378687Y423063D01*
X378375Y423375D01*
X378063Y424000D01*
Y424937D01*
X378375Y425563D01*
X378687Y425875D01*
X381500Y428063D02*
X381813Y428687D01*
Y429313D01*
X381500Y429937D01*
X380875Y430250D01*
X380250Y429937D01*
X379937Y429313D01*
Y428687D01*
Y429313D02*
X379625Y429937D01*
X379000Y430250D01*
X378375Y429937D01*
X378063Y429313D01*
Y428687D01*
X378375Y428063D01*
X381813Y433375D02*
Y434625D01*
Y434000D02*
X378063D01*
X378687Y433375D01*
X381500Y438063D02*
X381813Y438687D01*
Y439313D01*
X381500Y439937D01*
X380875Y440250D01*
X379000D01*
X378375Y439937D01*
X378063Y439313D01*
Y438687D01*
X378375Y438063D01*
X379000Y437750D01*
X380875D01*
X381500Y438063D01*
X378375Y439937D01*
X382750Y729313D02*
X383063Y729000D01*
X383687Y728687D01*
X384313Y729000D01*
X384625Y729313D01*
Y732437D01*
X385250D01*
X384625D02*
X383375D01*
X387750Y728687D02*
Y732437D01*
X389937D01*
X390563Y732125D01*
X390875Y731500D01*
X390563Y730875D01*
X389937Y730563D01*
X387750D01*
X395250Y728687D02*
X392750D01*
X394937Y730875D01*
X395250Y731500D01*
X394937Y732125D01*
X394313Y732437D01*
X393375D01*
X392750Y732125D01*
X398063Y729000D02*
X398687Y728687D01*
X399313D01*
X399937Y729000D01*
X400250Y729625D01*
Y731500D01*
X399937Y732125D01*
X399313Y732437D01*
X398687D01*
X398063Y732125D01*
X397750Y731500D01*
Y729625D01*
X398063Y729000D01*
X399937Y732125D01*
X405250Y728687D02*
X402750D01*
X404937Y730875D01*
X405250Y731500D01*
X404937Y732125D01*
X404313Y732437D01*
X403375D01*
X402750Y732125D01*
X385250Y397750D02*
Y395250D01*
Y402750D02*
Y405250D01*
Y427750D02*
Y425250D01*
Y432750D02*
Y435250D01*
X387750Y427750D02*
X382750D01*
Y432750D01*
X387750D01*
Y427750D01*
X390250Y255250D02*
G75*
G02*
X380250Y245250I-10000J0D01*
G01*
G75*
G02*
X370250Y255250I0J10000D01*
G01*
G75*
G02*
X380250Y265250I10000J0D01*
G01*
G75*
G02*
X390250Y255250I0J-10000D01*
G01*
X392750Y122750D02*
X457750D01*
Y162750D01*
X392750D01*
Y122750D01*
Y245563D02*
X390250D01*
X391500Y246813D02*
Y244313D01*
X392750Y282750D02*
X457750D01*
Y322750D01*
X392750D01*
Y282750D01*
X397750Y699625D02*
X398063Y699000D01*
X398687Y698687D01*
X399937D01*
X400563Y699000D01*
X400875Y699625D01*
X400563Y700250D01*
X399937Y700563D01*
X398687D01*
X398063Y700875D01*
X397750Y701500D01*
X398063Y702125D01*
X398687Y702437D01*
X399937D01*
X400563Y702125D01*
X400875Y701500D01*
X402750Y698687D02*
Y702437D01*
X404937D01*
X405563Y702125D01*
X405875Y701500D01*
X405563Y700875D01*
X404937Y700563D01*
X402750D01*
X408687Y698687D02*
X409937D01*
X409313D02*
Y702437D01*
X408687D02*
X409937D01*
X397750Y708687D02*
Y712437D01*
X399937D01*
X400563Y712125D01*
X400875Y711500D01*
X400563Y710875D01*
X399937Y710563D01*
X397750D01*
X402750Y712437D02*
Y708687D01*
X405875D01*
X408375D02*
X409625D01*
X409000D02*
Y712437D01*
X408375Y711813D01*
X412750Y709937D02*
X415250D01*
X417750Y708687D02*
Y712437D01*
X419937D01*
X420563Y712125D01*
X420875Y711500D01*
X420563Y710875D01*
X419937Y710563D01*
X417750D01*
X422750Y712437D02*
Y708687D01*
X425875D01*
X428687Y710563D02*
X429313D01*
X429937Y710875D01*
X430250Y711500D01*
X429937Y712125D01*
X429313Y712437D01*
X428687D01*
X428063Y712125D01*
X427750Y711500D01*
X428063Y710875D01*
X428687Y710563D01*
X428063Y710250D01*
X427750Y709625D01*
X428063Y709000D01*
X428687Y708687D01*
X429313D01*
X429937Y709000D01*
X430250Y709625D01*
X429937Y710250D01*
X429313Y710563D01*
X397750Y722437D02*
Y719625D01*
X398063Y719000D01*
X398687Y718687D01*
X399937D01*
X400563Y719000D01*
X400875Y719625D01*
Y722437D01*
X402750Y718687D02*
X404313Y722437D01*
X405875Y718687D01*
X403375Y720250D02*
X405250D01*
X407750Y718687D02*
Y722437D01*
X409937D01*
X410563Y722125D01*
X410875Y721500D01*
X410563Y720875D01*
X409937Y720563D01*
X407750D01*
X409937D02*
X410875Y718687D01*
X414313D02*
Y722437D01*
X412750D02*
X415875D01*
X395563Y190250D02*
Y193375D01*
X399313Y190250D01*
Y193375D01*
Y195250D02*
X395563D01*
Y197125D01*
X395875Y197750D01*
X396187Y198063D01*
X396813Y198375D01*
X398063D01*
X398687Y198063D01*
X399000Y197750D01*
X399313Y197125D01*
Y195250D01*
X399000Y200563D02*
X399313Y201187D01*
Y201813D01*
X399000Y202437D01*
X398375Y202750D01*
X397750Y202437D01*
X397437Y201813D01*
Y201187D01*
Y201813D02*
X397125Y202437D01*
X396500Y202750D01*
X395875Y202437D01*
X395563Y201813D01*
Y201187D01*
X395875Y200563D01*
X399313Y206813D02*
X395563D01*
X398063Y205250D01*
Y207750D01*
X399000Y210563D02*
X399313Y211187D01*
Y211813D01*
X399000Y212437D01*
X398375Y212750D01*
X396500D01*
X395875Y212437D01*
X395563Y211813D01*
Y211187D01*
X395875Y210563D01*
X396500Y210250D01*
X398375D01*
X399000Y210563D01*
X395875Y212437D01*
X400250Y207750D02*
X410250D01*
Y192750D01*
X400250D01*
Y207750D01*
X395563Y235250D02*
Y238375D01*
X399313Y235250D01*
Y238375D01*
Y240250D02*
X395563D01*
Y242125D01*
X395875Y242750D01*
X396187Y243063D01*
X396813Y243375D01*
X398063D01*
X398687Y243063D01*
X399000Y242750D01*
X399313Y242125D01*
Y240250D01*
X399000Y245563D02*
X399313Y246187D01*
Y246813D01*
X399000Y247437D01*
X398375Y247750D01*
X397750Y247437D01*
X397437Y246813D01*
Y246187D01*
Y246813D02*
X397125Y247437D01*
X396500Y247750D01*
X395875Y247437D01*
X395563Y246813D01*
Y246187D01*
X395875Y245563D01*
X399000Y250563D02*
X399313Y251187D01*
Y251813D01*
X399000Y252437D01*
X398375Y252750D01*
X397750Y252437D01*
X397437Y251813D01*
Y251187D01*
Y251813D02*
X397125Y252437D01*
X396500Y252750D01*
X395875Y252437D01*
X395563Y251813D01*
Y251187D01*
X395875Y250563D01*
X399000Y255563D02*
X399313Y256187D01*
Y256813D01*
X399000Y257437D01*
X398375Y257750D01*
X396500D01*
X395875Y257437D01*
X395563Y256813D01*
Y256187D01*
X395875Y255563D01*
X396500Y255250D01*
X398375D01*
X399000Y255563D01*
X395875Y257437D01*
X400250Y252750D02*
X410250D01*
Y237750D01*
X400250D01*
Y252750D01*
X401187Y395875D02*
X401500Y395563D01*
X401813Y394937D01*
Y394000D01*
X401500Y393375D01*
X401187Y393063D01*
X400563Y392750D01*
X399313D01*
X398687Y393063D01*
X398375Y393375D01*
X398063Y394000D01*
Y394937D01*
X398375Y395563D01*
X398687Y395875D01*
X401500Y398063D02*
X401813Y398687D01*
Y399313D01*
X401500Y399937D01*
X400875Y400250D01*
X400250Y399937D01*
X399937Y399313D01*
Y398687D01*
Y399313D02*
X399625Y399937D01*
X399000Y400250D01*
X398375Y399937D01*
X398063Y399313D01*
Y398687D01*
X398375Y398063D01*
X401813Y405250D02*
Y402750D01*
X399625Y404937D01*
X399000Y405250D01*
X398375Y404937D01*
X398063Y404313D01*
Y403375D01*
X398375Y402750D01*
X401813Y408375D02*
Y409625D01*
Y409000D02*
X398063D01*
X398687Y408375D01*
X402750Y402750D02*
X407750D01*
Y397750D01*
X402750D01*
Y402750D01*
X401187Y425875D02*
X401500Y425563D01*
X401813Y424937D01*
Y424000D01*
X401500Y423375D01*
X401187Y423063D01*
X400563Y422750D01*
X399313D01*
X398687Y423063D01*
X398375Y423375D01*
X398063Y424000D01*
Y424937D01*
X398375Y425563D01*
X398687Y425875D01*
X401500Y428063D02*
X401813Y428687D01*
Y429313D01*
X401500Y429937D01*
X400875Y430250D01*
X400250Y429937D01*
X399937Y429313D01*
Y428687D01*
Y429313D02*
X399625Y429937D01*
X399000Y430250D01*
X398375Y429937D01*
X398063Y429313D01*
Y428687D01*
X398375Y428063D01*
X401813Y433375D02*
Y434625D01*
Y434000D02*
X398063D01*
X398687Y433375D01*
X401813Y438375D02*
Y439625D01*
Y439000D02*
X398063D01*
X398687Y438375D01*
X405250Y151250D02*
X445250D01*
X405250Y156250D02*
Y139250D01*
X445250D01*
Y156250D01*
X405250D01*
Y192750D02*
Y190250D01*
Y210250D02*
Y207750D01*
Y237750D02*
Y235250D01*
Y255250D02*
Y252750D01*
Y311250D02*
X445250D01*
X405250Y316250D02*
Y299250D01*
X445250D01*
Y316250D01*
X405250D01*
Y397750D02*
Y395250D01*
Y402750D02*
Y405250D01*
Y427750D02*
Y425250D01*
Y432750D02*
Y435250D01*
X407750Y134937D02*
Y136187D01*
X408063Y136813D01*
X408375Y137125D01*
X409000Y137437D01*
X409625D01*
X410250Y137125D01*
X410563Y136813D01*
X410875Y136187D01*
Y134937D01*
X410563Y134313D01*
X410250Y134000D01*
X409625Y133687D01*
X409000D01*
X408375Y134000D01*
X408063Y134313D01*
X407750Y134937D01*
X409937Y134625D02*
X410875Y133687D01*
X413063Y134000D02*
X413687Y133687D01*
X414313D01*
X414937Y134000D01*
X415250Y134625D01*
X414937Y135250D01*
X414313Y135563D01*
X413687D01*
X414313D02*
X414937Y135875D01*
X415250Y136500D01*
X414937Y137125D01*
X414313Y137437D01*
X413687D01*
X413063Y137125D01*
X419313Y133687D02*
Y137437D01*
X417750Y134937D01*
X420250D01*
X423063Y134000D02*
X423687Y133687D01*
X424313D01*
X424937Y134000D01*
X425250Y134625D01*
Y136500D01*
X424937Y137125D01*
X424313Y137437D01*
X423687D01*
X423063Y137125D01*
X422750Y136500D01*
Y134625D01*
X423063Y134000D01*
X424937Y137125D01*
X407750Y427750D02*
X402750D01*
Y432750D01*
X407750D01*
Y427750D01*
X410250Y294937D02*
Y296187D01*
X410563Y296813D01*
X410875Y297125D01*
X411500Y297437D01*
X412125D01*
X412750Y297125D01*
X413063Y296813D01*
X413375Y296187D01*
Y294937D01*
X413063Y294313D01*
X412750Y294000D01*
X412125Y293687D01*
X411500D01*
X410875Y294000D01*
X410563Y294313D01*
X410250Y294937D01*
X412437Y294625D02*
X413375Y293687D01*
X415563Y294000D02*
X416187Y293687D01*
X416813D01*
X417437Y294000D01*
X417750Y294625D01*
X417437Y295250D01*
X416813Y295563D01*
X416187D01*
X416813D02*
X417437Y295875D01*
X417750Y296500D01*
X417437Y297125D01*
X416813Y297437D01*
X416187D01*
X415563Y297125D01*
X420563Y294000D02*
X421187Y293687D01*
X421813D01*
X422437Y294000D01*
X422750Y294625D01*
X422437Y295250D01*
X421813Y295563D01*
X421187D01*
X421813D02*
X422437Y295875D01*
X422750Y296500D01*
X422437Y297125D01*
X421813Y297437D01*
X421187D01*
X420563Y297125D01*
X425563Y294000D02*
X426187Y293687D01*
X426813D01*
X427437Y294000D01*
X427750Y294625D01*
Y296500D01*
X427437Y297125D01*
X426813Y297437D01*
X426187D01*
X425563Y297125D01*
X425250Y296500D01*
Y294625D01*
X425563Y294000D01*
X427437Y297125D01*
X409313Y750250D02*
X405563D01*
Y752437D01*
X405875Y753063D01*
X406500Y753375D01*
X407125Y753063D01*
X407437Y752437D01*
Y750250D01*
Y752437D02*
X409313Y753375D01*
Y757750D02*
Y755250D01*
X407125Y757437D01*
X406500Y757750D01*
X405875Y757437D01*
X405563Y756813D01*
Y755875D01*
X405875Y755250D01*
X409000Y760563D02*
X409313Y761187D01*
Y761813D01*
X409000Y762437D01*
X408375Y762750D01*
X406500D01*
X405875Y762437D01*
X405563Y761813D01*
Y761187D01*
X405875Y760563D01*
X406500Y760250D01*
X408375D01*
X409000Y760563D01*
X405875Y762437D01*
X409313Y765875D02*
Y767125D01*
Y766500D02*
X405563D01*
X406187Y765875D01*
X415250Y344250D02*
Y361250D01*
X375250D01*
Y344250D01*
X415250D01*
Y349250D02*
X375250D01*
X415250Y459250D02*
Y476250D01*
X375250D01*
Y459250D01*
X415250D01*
Y464250D02*
X375250D01*
X416813Y518687D02*
Y522437D01*
X415250D02*
X418375D01*
X420250Y518687D02*
Y522437D01*
X422437D01*
X423063Y522125D01*
X423375Y521500D01*
X423063Y520875D01*
X422437Y520563D01*
X420250D01*
X427750Y518687D02*
X425250D01*
X427437Y520875D01*
X427750Y521500D01*
X427437Y522125D01*
X426813Y522437D01*
X425875D01*
X425250Y522125D01*
X430875Y518687D02*
X432125D01*
X431500D02*
Y522437D01*
X430875Y521813D01*
X436187Y518687D02*
X436813Y519000D01*
X437437Y519625D01*
X437750Y520563D01*
Y521500D01*
X437437Y522125D01*
X436813Y522437D01*
X436187D01*
X435563Y522125D01*
X435250Y521500D01*
X435563Y520875D01*
X436187Y520563D01*
X436813D01*
X437437Y520875D01*
X437750Y521500D01*
X416813Y548687D02*
Y552437D01*
X415250D02*
X418375D01*
X420250Y548687D02*
Y552437D01*
X422437D01*
X423063Y552125D01*
X423375Y551500D01*
X423063Y550875D01*
X422437Y550563D01*
X420250D01*
X427750Y548687D02*
X425250D01*
X427437Y550875D01*
X427750Y551500D01*
X427437Y552125D01*
X426813Y552437D01*
X425875D01*
X425250Y552125D01*
X430875Y548687D02*
X432125D01*
X431500D02*
Y552437D01*
X430875Y551813D01*
X436187Y550563D02*
X436813D01*
X437437Y550875D01*
X437750Y551500D01*
X437437Y552125D01*
X436813Y552437D01*
X436187D01*
X435563Y552125D01*
X435250Y551500D01*
X435563Y550875D01*
X436187Y550563D01*
X435563Y550250D01*
X435250Y549625D01*
X435563Y549000D01*
X436187Y548687D01*
X436813D01*
X437437Y549000D01*
X437750Y549625D01*
X437437Y550250D01*
X436813Y550563D01*
X415250Y745250D02*
Y750250D01*
Y770250D02*
Y775250D01*
X419313Y185250D02*
X415563D01*
Y187437D01*
X415875Y188063D01*
X416500Y188375D01*
X417125Y188063D01*
X417437Y187437D01*
Y185250D01*
Y187437D02*
X419313Y188375D01*
X419000Y190563D02*
X419313Y191187D01*
Y191813D01*
X419000Y192437D01*
X418375Y192750D01*
X417750Y192437D01*
X417437Y191813D01*
Y191187D01*
Y191813D02*
X417125Y192437D01*
X416500Y192750D01*
X415875Y192437D01*
X415563Y191813D01*
Y191187D01*
X415875Y190563D01*
X419313Y196813D02*
X415563D01*
X418063Y195250D01*
Y197750D01*
X419313Y200875D02*
Y202125D01*
Y201500D02*
X415563D01*
X416187Y200875D01*
X420250Y205250D02*
X430250D01*
Y185250D01*
X420250D01*
Y205250D01*
X419313Y240250D02*
X415563D01*
Y242437D01*
X415875Y243063D01*
X416500Y243375D01*
X417125Y243063D01*
X417437Y242437D01*
Y240250D01*
Y242437D02*
X419313Y243375D01*
X419000Y245563D02*
X419313Y246187D01*
Y246813D01*
X419000Y247437D01*
X418375Y247750D01*
X417750Y247437D01*
X417437Y246813D01*
Y246187D01*
Y246813D02*
X417125Y247437D01*
X416500Y247750D01*
X415875Y247437D01*
X415563Y246813D01*
Y246187D01*
X415875Y245563D01*
X419000Y250563D02*
X419313Y251187D01*
Y251813D01*
X419000Y252437D01*
X418375Y252750D01*
X417750Y252437D01*
X417437Y251813D01*
Y251187D01*
Y251813D02*
X417125Y252437D01*
X416500Y252750D01*
X415875Y252437D01*
X415563Y251813D01*
Y251187D01*
X415875Y250563D01*
X419313Y255875D02*
Y257125D01*
Y256500D02*
X415563D01*
X416187Y255875D01*
X420250Y750250D02*
X410250D01*
Y770250D01*
X420250D01*
Y750250D01*
X422750Y619313D02*
X423063Y619000D01*
X423687Y618687D01*
X424313Y619000D01*
X424625Y619313D01*
Y622437D01*
X425250D01*
X424625D02*
X423375D01*
X427750Y618687D02*
Y622437D01*
X429937D01*
X430563Y622125D01*
X430875Y621500D01*
X430563Y620875D01*
X429937Y620563D01*
X427750D01*
X435250Y618687D02*
X432750D01*
X434937Y620875D01*
X435250Y621500D01*
X434937Y622125D01*
X434313Y622437D01*
X433375D01*
X432750Y622125D01*
X440250Y618687D02*
X437750D01*
X439937Y620875D01*
X440250Y621500D01*
X439937Y622125D01*
X439313Y622437D01*
X438375D01*
X437750Y622125D01*
X442750Y618687D02*
X445250Y622437D01*
X442750D01*
X424313Y646187D02*
Y649937D01*
X422750D02*
X425875D01*
X427750Y646187D02*
Y649937D01*
X429937D01*
X430563Y649625D01*
X430875Y649000D01*
X430563Y648375D01*
X429937Y648063D01*
X427750D01*
X435250Y646187D02*
X432750D01*
X434937Y648375D01*
X435250Y649000D01*
X434937Y649625D01*
X434313Y649937D01*
X433375D01*
X432750Y649625D01*
X440250Y646187D02*
X437750D01*
X439937Y648375D01*
X440250Y649000D01*
X439937Y649625D01*
X439313Y649937D01*
X438375D01*
X437750Y649625D01*
X443687Y648063D02*
X444313D01*
X444937Y648375D01*
X445250Y649000D01*
X444937Y649625D01*
X444313Y649937D01*
X443687D01*
X443063Y649625D01*
X442750Y649000D01*
X443063Y648375D01*
X443687Y648063D01*
X443063Y647750D01*
X442750Y647125D01*
X443063Y646500D01*
X443687Y646187D01*
X444313D01*
X444937Y646500D01*
X445250Y647125D01*
X444937Y647750D01*
X444313Y648063D01*
X422750Y669313D02*
X423063Y669000D01*
X423687Y668687D01*
X424313Y669000D01*
X424625Y669313D01*
Y672437D01*
X425250D01*
X424625D02*
X423375D01*
X427750Y668687D02*
Y672437D01*
X429937D01*
X430563Y672125D01*
X430875Y671500D01*
X430563Y670875D01*
X429937Y670563D01*
X427750D01*
X435250Y668687D02*
X432750D01*
X434937Y670875D01*
X435250Y671500D01*
X434937Y672125D01*
X434313Y672437D01*
X433375D01*
X432750Y672125D01*
X438063Y669000D02*
X438687Y668687D01*
X439313D01*
X439937Y669000D01*
X440250Y669625D01*
X439937Y670250D01*
X439313Y670563D01*
X438687D01*
X439313D02*
X439937Y670875D01*
X440250Y671500D01*
X439937Y672125D01*
X439313Y672437D01*
X438687D01*
X438063Y672125D01*
X443063Y669000D02*
X443687Y668687D01*
X444313D01*
X444937Y669000D01*
X445250Y669625D01*
Y671500D01*
X444937Y672125D01*
X444313Y672437D01*
X443687D01*
X443063Y672125D01*
X442750Y671500D01*
Y669625D01*
X443063Y669000D01*
X444937Y672125D01*
X425250Y185250D02*
Y180250D01*
Y210250D02*
Y205250D01*
Y235250D02*
Y240250D01*
Y260250D02*
Y265250D01*
Y745250D02*
Y750250D01*
Y770250D02*
Y775250D01*
X427750Y377750D02*
X362750D01*
Y337750D01*
X427750D01*
Y377750D01*
Y492750D02*
X362750D01*
Y452750D01*
X427750D01*
Y492750D01*
X430250Y240250D02*
X420250D01*
Y260250D01*
X430250D01*
Y240250D01*
Y750250D02*
X420250D01*
Y770250D01*
X430250D01*
Y750250D01*
X434313D02*
X430563D01*
Y752437D01*
X430875Y753063D01*
X431500Y753375D01*
X432125Y753063D01*
X432437Y752437D01*
Y750250D01*
Y752437D02*
X434313Y753375D01*
Y757750D02*
Y755250D01*
X432125Y757437D01*
X431500Y757750D01*
X430875Y757437D01*
X430563Y756813D01*
Y755875D01*
X430875Y755250D01*
X434000Y760563D02*
X434313Y761187D01*
Y761813D01*
X434000Y762437D01*
X433375Y762750D01*
X431500D01*
X430875Y762437D01*
X430563Y761813D01*
Y761187D01*
X430875Y760563D01*
X431500Y760250D01*
X433375D01*
X434000Y760563D01*
X430875Y762437D01*
X434000Y765563D02*
X434313Y766187D01*
Y766813D01*
X434000Y767437D01*
X433375Y767750D01*
X431500D01*
X430875Y767437D01*
X430563Y766813D01*
Y766187D01*
X430875Y765563D01*
X431500Y765250D01*
X433375D01*
X434000Y765563D01*
X430875Y767437D01*
X441813Y63687D02*
Y67437D01*
X440250D02*
X443375D01*
X445250Y63687D02*
Y67437D01*
X447437D01*
X448063Y67125D01*
X448375Y66500D01*
X448063Y65875D01*
X447437Y65563D01*
X445250D01*
X450563Y64000D02*
X451187Y63687D01*
X451813D01*
X452437Y64000D01*
X452750Y64625D01*
X452437Y65250D01*
X451813Y65563D01*
X451187D01*
X451813D02*
X452437Y65875D01*
X452750Y66500D01*
X452437Y67125D01*
X451813Y67437D01*
X451187D01*
X450563Y67125D01*
X455250Y64000D02*
X455875Y63687D01*
X456813D01*
X457437Y64000D01*
X457750Y64625D01*
Y64937D01*
X457437Y65563D01*
X456813Y65875D01*
X455250D01*
Y67437D01*
X457750D01*
X462750Y63687D02*
X460250D01*
X462437Y65875D01*
X462750Y66500D01*
X462437Y67125D01*
X461813Y67437D01*
X460875D01*
X460250Y67125D01*
X441813Y101187D02*
Y104937D01*
X440250D02*
X443375D01*
X445250Y101187D02*
Y104937D01*
X447437D01*
X448063Y104625D01*
X448375Y104000D01*
X448063Y103375D01*
X447437Y103063D01*
X445250D01*
X450563Y101500D02*
X451187Y101187D01*
X451813D01*
X452437Y101500D01*
X452750Y102125D01*
X452437Y102750D01*
X451813Y103063D01*
X451187D01*
X451813D02*
X452437Y103375D01*
X452750Y104000D01*
X452437Y104625D01*
X451813Y104937D01*
X451187D01*
X450563Y104625D01*
X455250Y101500D02*
X455875Y101187D01*
X456813D01*
X457437Y101500D01*
X457750Y102125D01*
Y102437D01*
X457437Y103063D01*
X456813Y103375D01*
X455250D01*
Y104937D01*
X457750D01*
X460875Y101187D02*
X462125D01*
X461500D02*
Y104937D01*
X460875Y104313D01*
X440250Y465250D02*
G75*
G02*
X460250Y485250I20000J0D01*
G01*
G75*
G02*
X480250Y465250I0J-20000D01*
G01*
G75*
G02*
X460250Y445250I-20000J0D01*
G01*
G75*
G02*
X440250Y465250I0J20000D01*
G01*
X441813Y518687D02*
Y522437D01*
X440250D02*
X443375D01*
X445250Y518687D02*
Y522437D01*
X447437D01*
X448063Y522125D01*
X448375Y521500D01*
X448063Y520875D01*
X447437Y520563D01*
X445250D01*
X451187D02*
X451813D01*
X452437Y520875D01*
X452750Y521500D01*
X452437Y522125D01*
X451813Y522437D01*
X451187D01*
X450563Y522125D01*
X450250Y521500D01*
X450563Y520875D01*
X451187Y520563D01*
X450563Y520250D01*
X450250Y519625D01*
X450563Y519000D01*
X451187Y518687D01*
X451813D01*
X452437Y519000D01*
X452750Y519625D01*
X452437Y520250D01*
X451813Y520563D01*
X455563Y519000D02*
X456187Y518687D01*
X456813D01*
X457437Y519000D01*
X457750Y519625D01*
Y521500D01*
X457437Y522125D01*
X456813Y522437D01*
X456187D01*
X455563Y522125D01*
X455250Y521500D01*
Y519625D01*
X455563Y519000D01*
X457437Y522125D01*
X460875Y518687D02*
X462125D01*
X461500D02*
Y522437D01*
X460875Y521813D01*
X441813Y548687D02*
Y552437D01*
X440250D02*
X443375D01*
X445250Y548687D02*
Y552437D01*
X447437D01*
X448063Y552125D01*
X448375Y551500D01*
X448063Y550875D01*
X447437Y550563D01*
X445250D01*
X451187D02*
X451813D01*
X452437Y550875D01*
X452750Y551500D01*
X452437Y552125D01*
X451813Y552437D01*
X451187D01*
X450563Y552125D01*
X450250Y551500D01*
X450563Y550875D01*
X451187Y550563D01*
X450563Y550250D01*
X450250Y549625D01*
X450563Y549000D01*
X451187Y548687D01*
X451813D01*
X452437Y549000D01*
X452750Y549625D01*
X452437Y550250D01*
X451813Y550563D01*
X455563Y549000D02*
X456187Y548687D01*
X456813D01*
X457437Y549000D01*
X457750Y549625D01*
Y551500D01*
X457437Y552125D01*
X456813Y552437D01*
X456187D01*
X455563Y552125D01*
X455250Y551500D01*
Y549625D01*
X455563Y549000D01*
X457437Y552125D01*
X460563Y549000D02*
X461187Y548687D01*
X461813D01*
X462437Y549000D01*
X462750Y549625D01*
Y551500D01*
X462437Y552125D01*
X461813Y552437D01*
X461187D01*
X460563Y552125D01*
X460250Y551500D01*
Y549625D01*
X460563Y549000D01*
X462437Y552125D01*
X442750Y758687D02*
Y762437D01*
X444937D01*
X445563Y762125D01*
X445875Y761500D01*
X445563Y760875D01*
X444937Y760563D01*
X442750D01*
X447750Y762437D02*
Y758687D01*
X450875D01*
X453375D02*
X454625D01*
X454000D02*
Y762437D01*
X453375Y761813D01*
X459313Y758687D02*
Y762437D01*
X457750Y759937D01*
X460250D01*
X445250Y56187D02*
Y59937D01*
X448375D01*
X447750Y58063D02*
X445250D01*
X451187Y56187D02*
X452437D01*
X451813D02*
Y59937D01*
X451187D02*
X452437D01*
X455250D02*
Y56187D01*
X458375D01*
X462750D02*
X460250D01*
X462437Y58375D01*
X462750Y59000D01*
X462437Y59625D01*
X461813Y59937D01*
X460875D01*
X460250Y59625D01*
X445250Y93687D02*
Y97437D01*
X448375D01*
X447750Y95563D02*
X445250D01*
X451187Y93687D02*
X452437D01*
X451813D02*
Y97437D01*
X451187D02*
X452437D01*
X455250D02*
Y93687D01*
X458375D01*
X460875D02*
X462125D01*
X461500D02*
Y97437D01*
X460875Y96813D01*
X445250Y766187D02*
Y769937D01*
X447437D01*
X448063Y769625D01*
X448375Y769000D01*
X448063Y768375D01*
X447437Y768063D01*
X445250D01*
X447437D02*
X448375Y766187D01*
X451813D02*
Y769937D01*
X450250D02*
X453375D01*
X458375Y766813D02*
X458063Y766500D01*
X457437Y766187D01*
X456500D01*
X455875Y766500D01*
X455563Y766813D01*
X455250Y767437D01*
Y768687D01*
X455563Y769313D01*
X455875Y769625D01*
X456500Y769937D01*
X457437D01*
X458063Y769625D01*
X458375Y769313D01*
X450875Y386813D02*
X450563Y386500D01*
X449937Y386187D01*
X449000D01*
X448375Y386500D01*
X448063Y386813D01*
X447750Y387437D01*
Y388687D01*
X448063Y389313D01*
X448375Y389625D01*
X449000Y389937D01*
X449937D01*
X450563Y389625D01*
X450875Y389313D01*
X453063Y386500D02*
X453687Y386187D01*
X454313D01*
X454937Y386500D01*
X455250Y387125D01*
X454937Y387750D01*
X454313Y388063D01*
X453687D01*
X454313D02*
X454937Y388375D01*
X455250Y389000D01*
X454937Y389625D01*
X454313Y389937D01*
X453687D01*
X453063Y389625D01*
X460250Y386187D02*
X457750D01*
X459937Y388375D01*
X460250Y389000D01*
X459937Y389625D01*
X459313Y389937D01*
X458375D01*
X457750Y389625D01*
X465250Y386187D02*
X462750D01*
X464937Y388375D01*
X465250Y389000D01*
X464937Y389625D01*
X464313Y389937D01*
X463375D01*
X462750Y389625D01*
X447750Y474437D02*
X450250D01*
X449000Y473187D02*
Y475687D01*
X450875Y486813D02*
X450563Y486500D01*
X449937Y486187D01*
X449000D01*
X448375Y486500D01*
X448063Y486813D01*
X447750Y487437D01*
Y488687D01*
X448063Y489313D01*
X448375Y489625D01*
X449000Y489937D01*
X449937D01*
X450563Y489625D01*
X450875Y489313D01*
X453063Y486500D02*
X453687Y486187D01*
X454313D01*
X454937Y486500D01*
X455250Y487125D01*
X454937Y487750D01*
X454313Y488063D01*
X453687D01*
X454313D02*
X454937Y488375D01*
X455250Y489000D01*
X454937Y489625D01*
X454313Y489937D01*
X453687D01*
X453063Y489625D01*
X458375Y486187D02*
X459625D01*
X459000D02*
Y489937D01*
X458375Y489313D01*
X465250Y486187D02*
X462750D01*
X464937Y488375D01*
X465250Y489000D01*
X464937Y489625D01*
X464313Y489937D01*
X463375D01*
X462750Y489625D01*
X453375Y211813D02*
X453063Y211500D01*
X452437Y211187D01*
X451500D01*
X450875Y211500D01*
X450563Y211813D01*
X450250Y212437D01*
Y213687D01*
X450563Y214313D01*
X450875Y214625D01*
X451500Y214937D01*
X452437D01*
X453063Y214625D01*
X453375Y214313D01*
X455563Y211500D02*
X456187Y211187D01*
X456813D01*
X457437Y211500D01*
X457750Y212125D01*
X457437Y212750D01*
X456813Y213063D01*
X456187D01*
X456813D02*
X457437Y213375D01*
X457750Y214000D01*
X457437Y214625D01*
X456813Y214937D01*
X456187D01*
X455563Y214625D01*
X461813Y211187D02*
Y214937D01*
X460250Y212437D01*
X462750D01*
X467750Y211187D02*
X465250D01*
X467437Y213375D01*
X467750Y214000D01*
X467437Y214625D01*
X466813Y214937D01*
X465875D01*
X465250Y214625D01*
X453375Y276813D02*
X453063Y276500D01*
X452437Y276187D01*
X451500D01*
X450875Y276500D01*
X450563Y276813D01*
X450250Y277437D01*
Y278687D01*
X450563Y279313D01*
X450875Y279625D01*
X451500Y279937D01*
X452437D01*
X453063Y279625D01*
X453375Y279313D01*
X455563Y276500D02*
X456187Y276187D01*
X456813D01*
X457437Y276500D01*
X457750Y277125D01*
X457437Y277750D01*
X456813Y278063D01*
X456187D01*
X456813D02*
X457437Y278375D01*
X457750Y279000D01*
X457437Y279625D01*
X456813Y279937D01*
X456187D01*
X455563Y279625D01*
X460563Y276500D02*
X461187Y276187D01*
X461813D01*
X462437Y276500D01*
X462750Y277125D01*
X462437Y277750D01*
X461813Y278063D01*
X461187D01*
X461813D02*
X462437Y278375D01*
X462750Y279000D01*
X462437Y279625D01*
X461813Y279937D01*
X461187D01*
X460563Y279625D01*
X467750Y276187D02*
X465250D01*
X467437Y278375D01*
X467750Y279000D01*
X467437Y279625D01*
X466813Y279937D01*
X465875D01*
X465250Y279625D01*
X455250Y426813D02*
X455563Y426500D01*
X456187Y426187D01*
X456813Y426500D01*
X457125Y426813D01*
Y429937D01*
X457750D01*
X457125D02*
X455875D01*
X460250Y426187D02*
Y429937D01*
X462437D01*
X463063Y429625D01*
X463375Y429000D01*
X463063Y428375D01*
X462437Y428063D01*
X460250D01*
X465563Y426500D02*
X466187Y426187D01*
X466813D01*
X467437Y426500D01*
X467750Y427125D01*
X467437Y427750D01*
X466813Y428063D01*
X466187D01*
X466813D02*
X467437Y428375D01*
X467750Y429000D01*
X467437Y429625D01*
X466813Y429937D01*
X466187D01*
X465563Y429625D01*
X470875Y426187D02*
X472125D01*
X471500D02*
Y429937D01*
X470875Y429313D01*
X475563Y426500D02*
X476187Y426187D01*
X476813D01*
X477437Y426500D01*
X477750Y427125D01*
Y429000D01*
X477437Y429625D01*
X476813Y429937D01*
X476187D01*
X475563Y429625D01*
X475250Y429000D01*
Y427125D01*
X475563Y426500D01*
X477437Y429625D01*
X457750Y719625D02*
X458063Y719000D01*
X458687Y718687D01*
X459937D01*
X460563Y719000D01*
X460875Y719625D01*
X460563Y720250D01*
X459937Y720563D01*
X458687D01*
X458063Y720875D01*
X457750Y721500D01*
X458063Y722125D01*
X458687Y722437D01*
X459937D01*
X460563Y722125D01*
X460875Y721500D01*
X465875Y719313D02*
X465563Y719000D01*
X464937Y718687D01*
X464000D01*
X463375Y719000D01*
X463063Y719313D01*
X462750Y719937D01*
Y721187D01*
X463063Y721813D01*
X463375Y722125D01*
X464000Y722437D01*
X464937D01*
X465563Y722125D01*
X465875Y721813D01*
X467750Y722437D02*
Y718687D01*
X470875D01*
X457750Y729625D02*
X458063Y729000D01*
X458687Y728687D01*
X459937D01*
X460563Y729000D01*
X460875Y729625D01*
X460563Y730250D01*
X459937Y730563D01*
X458687D01*
X458063Y730875D01*
X457750Y731500D01*
X458063Y732125D01*
X458687Y732437D01*
X459937D01*
X460563Y732125D01*
X460875Y731500D01*
X462750Y728687D02*
Y732437D01*
X464625D01*
X465250Y732125D01*
X465563Y731813D01*
X465875Y731187D01*
Y729937D01*
X465563Y729313D01*
X465250Y729000D01*
X464625Y728687D01*
X462750D01*
X467750D02*
X469313Y732437D01*
X470875Y728687D01*
X468375Y730250D02*
X470250D01*
X457750Y742437D02*
X459313Y738687D01*
X460875Y742437D01*
X465250Y740875D02*
X464625Y741187D01*
X463687D01*
X463063Y740875D01*
X462750Y740250D01*
Y739625D01*
X463063Y739000D01*
X463687Y738687D01*
X464625D01*
X465250Y739000D01*
X470250Y740875D02*
X469625Y741187D01*
X468687D01*
X468063Y740875D01*
X467750Y740250D01*
Y739625D01*
X468063Y739000D01*
X468687Y738687D01*
X469625D01*
X470250Y739000D01*
X472750Y739937D02*
X475250D01*
X474000Y738687D02*
Y741187D01*
X459937Y750250D02*
X460875D01*
Y749937D01*
X460563Y749313D01*
X460250Y749000D01*
X459625Y748687D01*
X459000D01*
X458375Y749000D01*
X458063Y749313D01*
X457750Y749937D01*
Y751187D01*
X458063Y751813D01*
X458375Y752125D01*
X459000Y752437D01*
X459625D01*
X460250Y752125D01*
X460563Y751813D01*
X460875Y751187D01*
X462750Y748687D02*
Y752437D01*
X465875Y748687D01*
Y752437D01*
X467750Y748687D02*
Y752437D01*
X469625D01*
X470250Y752125D01*
X470563Y751813D01*
X470875Y751187D01*
Y749937D01*
X470563Y749313D01*
X470250Y749000D01*
X469625Y748687D01*
X467750D01*
X460250Y210250D02*
G75*
G02*
X480250Y190250I0J-20000D01*
G01*
G75*
G02*
X460250Y170250I-20000J0D01*
G01*
G75*
G02*
X440250Y190250I0J20000D01*
G01*
G75*
G02*
X460250Y210250I20000J0D01*
G01*
Y275250D02*
G75*
G02*
X480250Y255250I0J-20000D01*
G01*
G75*
G02*
X460250Y235250I-20000J0D01*
G01*
G75*
G02*
X440250Y255250I0J20000D01*
G01*
G75*
G02*
X460250Y275250I20000J0D01*
G01*
X466187Y606187D02*
X467437D01*
X466813D02*
Y609937D01*
X466187D02*
X467437D01*
X473375Y606813D02*
X473063Y606500D01*
X472437Y606187D01*
X471500D01*
X470875Y606500D01*
X470563Y606813D01*
X470250Y607437D01*
Y608687D01*
X470563Y609313D01*
X470875Y609625D01*
X471500Y609937D01*
X472437D01*
X473063Y609625D01*
X473375Y609313D01*
X476187Y608063D02*
X476813D01*
X477437Y608375D01*
X477750Y609000D01*
X477437Y609625D01*
X476813Y609937D01*
X476187D01*
X475563Y609625D01*
X475250Y609000D01*
X475563Y608375D01*
X476187Y608063D01*
X475563Y607750D01*
X475250Y607125D01*
X475563Y606500D01*
X476187Y606187D01*
X476813D01*
X477437Y606500D01*
X477750Y607125D01*
X477437Y607750D01*
X476813Y608063D01*
X480563Y606500D02*
X481187Y606187D01*
X481813D01*
X482437Y606500D01*
X482750Y607125D01*
Y609000D01*
X482437Y609625D01*
X481813Y609937D01*
X481187D01*
X480563Y609625D01*
X480250Y609000D01*
Y607125D01*
X480563Y606500D01*
X482437Y609625D01*
X485563Y606500D02*
X486187Y606187D01*
X486813D01*
X487437Y606500D01*
X487750Y607125D01*
X487437Y607750D01*
X486813Y608063D01*
X486187D01*
X486813D02*
X487437Y608375D01*
X487750Y609000D01*
X487437Y609625D01*
X486813Y609937D01*
X486187D01*
X485563Y609625D01*
X469437Y202750D02*
Y200250D01*
X468187Y201500D02*
X470687D01*
X469437Y267750D02*
Y265250D01*
X468187Y266500D02*
X470687D01*
X472750Y356063D02*
X470250D01*
X471500Y357313D02*
Y354813D01*
X480250Y239313D02*
X480563Y239000D01*
X481187Y238687D01*
X481813Y239000D01*
X482125Y239313D01*
Y242437D01*
X482750D01*
X482125D02*
X480875D01*
X485250Y238687D02*
Y242437D01*
X487437D01*
X488063Y242125D01*
X488375Y241500D01*
X488063Y240875D01*
X487437Y240563D01*
X485250D01*
X490563Y239000D02*
X491187Y238687D01*
X491813D01*
X492437Y239000D01*
X492750Y239625D01*
X492437Y240250D01*
X491813Y240563D01*
X491187D01*
X491813D02*
X492437Y240875D01*
X492750Y241500D01*
X492437Y242125D01*
X491813Y242437D01*
X491187D01*
X490563Y242125D01*
X495563Y239000D02*
X496187Y238687D01*
X496813D01*
X497437Y239000D01*
X497750Y239625D01*
X497437Y240250D01*
X496813Y240563D01*
X496187D01*
X496813D02*
X497437Y240875D01*
X497750Y241500D01*
X497437Y242125D01*
X496813Y242437D01*
X496187D01*
X495563Y242125D01*
X501813Y238687D02*
Y242437D01*
X500250Y239937D01*
X502750D01*
X480250Y365250D02*
G75*
G02*
X460250Y345250I-20000J0D01*
G01*
G75*
G02*
X440250Y365250I0J20000D01*
G01*
G75*
G02*
X460250Y385250I20000J0D01*
G01*
G75*
G02*
X480250Y365250I0J-20000D01*
G01*
Y527750D02*
Y602750D01*
X482750D01*
X485250Y600250D01*
X487750Y602750D01*
X490250D01*
Y527750D01*
X480250D01*
X485250Y150250D02*
X490250D01*
X485250Y290250D02*
X490250D01*
Y145250D02*
Y155250D01*
X510250D01*
Y145250D01*
X490250D01*
Y156187D02*
Y159937D01*
X492437D01*
X493063Y159625D01*
X493375Y159000D01*
X493063Y158375D01*
X492437Y158063D01*
X490250D01*
X492437D02*
X493375Y156187D01*
X495563Y156500D02*
X496187Y156187D01*
X496813D01*
X497437Y156500D01*
X497750Y157125D01*
X497437Y157750D01*
X496813Y158063D01*
X496187D01*
X496813D02*
X497437Y158375D01*
X497750Y159000D01*
X497437Y159625D01*
X496813Y159937D01*
X496187D01*
X495563Y159625D01*
X501813Y156187D02*
Y159937D01*
X500250Y157437D01*
X502750D01*
X507750Y156187D02*
X505250D01*
X507437Y158375D01*
X507750Y159000D01*
X507437Y159625D01*
X506813Y159937D01*
X505875D01*
X505250Y159625D01*
X490250Y285250D02*
Y295250D01*
X510250D01*
Y285250D01*
X490250D01*
Y296187D02*
Y299937D01*
X492437D01*
X493063Y299625D01*
X493375Y299000D01*
X493063Y298375D01*
X492437Y298063D01*
X490250D01*
X492437D02*
X493375Y296187D01*
X495563Y296500D02*
X496187Y296187D01*
X496813D01*
X497437Y296500D01*
X497750Y297125D01*
X497437Y297750D01*
X496813Y298063D01*
X496187D01*
X496813D02*
X497437Y298375D01*
X497750Y299000D01*
X497437Y299625D01*
X496813Y299937D01*
X496187D01*
X495563Y299625D01*
X500563Y296500D02*
X501187Y296187D01*
X501813D01*
X502437Y296500D01*
X502750Y297125D01*
X502437Y297750D01*
X501813Y298063D01*
X501187D01*
X501813D02*
X502437Y298375D01*
X502750Y299000D01*
X502437Y299625D01*
X501813Y299937D01*
X501187D01*
X500563Y299625D01*
X507750Y296187D02*
X505250D01*
X507437Y298375D01*
X507750Y299000D01*
X507437Y299625D01*
X506813Y299937D01*
X505875D01*
X505250Y299625D01*
X490563Y490250D02*
X494313D01*
Y493375D01*
X492437Y496187D02*
Y496813D01*
X492125Y497437D01*
X491500Y497750D01*
X490875Y497437D01*
X490563Y496813D01*
Y496187D01*
X490875Y495563D01*
X491500Y495250D01*
X492125Y495563D01*
X492437Y496187D01*
X492750Y495563D01*
X493375Y495250D01*
X494000Y495563D01*
X494313Y496187D01*
Y496813D01*
X494000Y497437D01*
X493375Y497750D01*
X492750Y497437D01*
X492437Y496813D01*
X494000Y500563D02*
X494313Y501187D01*
Y501813D01*
X494000Y502437D01*
X493375Y502750D01*
X491500D01*
X490875Y502437D01*
X490563Y501813D01*
Y501187D01*
X490875Y500563D01*
X491500Y500250D01*
X493375D01*
X494000Y500563D01*
X490875Y502437D01*
X494000Y505563D02*
X494313Y506187D01*
Y506813D01*
X494000Y507437D01*
X493375Y507750D01*
X492750Y507437D01*
X492437Y506813D01*
Y506187D01*
Y506813D02*
X492125Y507437D01*
X491500Y507750D01*
X490875Y507437D01*
X490563Y506813D01*
Y506187D01*
X490875Y505563D01*
X490563Y620250D02*
X494313D01*
Y623375D01*
X492437Y626187D02*
Y626813D01*
X492125Y627437D01*
X491500Y627750D01*
X490875Y627437D01*
X490563Y626813D01*
Y626187D01*
X490875Y625563D01*
X491500Y625250D01*
X492125Y625563D01*
X492437Y626187D01*
X492750Y625563D01*
X493375Y625250D01*
X494000Y625563D01*
X494313Y626187D01*
Y626813D01*
X494000Y627437D01*
X493375Y627750D01*
X492750Y627437D01*
X492437Y626813D01*
X494000Y630563D02*
X494313Y631187D01*
Y631813D01*
X494000Y632437D01*
X493375Y632750D01*
X491500D01*
X490875Y632437D01*
X490563Y631813D01*
Y631187D01*
X490875Y630563D01*
X491500Y630250D01*
X493375D01*
X494000Y630563D01*
X490875Y632437D01*
X494313Y637750D02*
Y635250D01*
X492125Y637437D01*
X491500Y637750D01*
X490875Y637437D01*
X490563Y636813D01*
Y635875D01*
X490875Y635250D01*
X500250Y50250D02*
Y42750D01*
X590250D01*
Y50250D01*
X500250Y70250D02*
Y77750D01*
X590250D01*
Y70250D01*
X500250Y90250D02*
Y82750D01*
X590250D01*
Y90250D01*
X500250Y110250D02*
Y117750D01*
X590250D01*
Y110250D01*
X505250Y792437D02*
Y793687D01*
X505563Y794313D01*
X505875Y794625D01*
X506500Y794937D01*
X507125D01*
X507750Y794625D01*
X508063Y794313D01*
X508375Y793687D01*
Y792437D01*
X508063Y791813D01*
X507750Y791500D01*
X507125Y791187D01*
X506500D01*
X505875Y791500D01*
X505563Y791813D01*
X505250Y792437D01*
X510250Y794937D02*
Y791187D01*
X513375D01*
X515250D02*
Y794937D01*
X518375D01*
X517750Y793063D02*
X515250D01*
Y791187D02*
X518375D01*
X520250D02*
Y794937D01*
X522125D01*
X522750Y794625D01*
X523063Y794313D01*
X523375Y793687D01*
Y792437D01*
X523063Y791813D01*
X522750Y791500D01*
X522125Y791187D01*
X520250D01*
X505250Y798687D02*
Y802437D01*
X507437D01*
X508063Y802125D01*
X508375Y801500D01*
X508063Y800875D01*
X507437Y800563D01*
X505250D01*
X510250Y802437D02*
Y798687D01*
X513375D01*
X515875D02*
X517125D01*
X516500D02*
Y802437D01*
X515875Y801813D01*
X522750Y798687D02*
X520250D01*
X522437Y800875D01*
X522750Y801500D01*
X522437Y802125D01*
X521813Y802437D01*
X520875D01*
X520250Y802125D01*
X525250Y799625D02*
X525563Y799000D01*
X526187Y798687D01*
X526813D01*
X527437Y799000D01*
X527750Y799625D01*
Y800250D01*
X527437Y800875D01*
X526813Y801187D01*
X526187D01*
X525563Y800875D01*
X525250Y800250D01*
Y798687D02*
Y802437D01*
X505250Y808687D02*
Y812437D01*
X507437D01*
X508063Y812125D01*
X508375Y811500D01*
X508063Y810875D01*
X507437Y810563D01*
X505250D01*
X510250Y812437D02*
Y808687D01*
X513375D01*
X515875D02*
X517125D01*
X516500D02*
Y812437D01*
X515875Y811813D01*
X522750Y808687D02*
X520250D01*
X522437Y810875D01*
X522750Y811500D01*
X522437Y812125D01*
X521813Y812437D01*
X520875D01*
X520250Y812125D01*
X525250Y810875D02*
X525875Y811187D01*
X526813D01*
X527437Y810875D01*
X527750Y810250D01*
Y809313D01*
X527437Y809000D01*
X526813Y808687D01*
X526187D01*
X525563Y809000D01*
X525250Y809313D01*
Y809625D01*
X525563Y809937D01*
X526187Y810250D01*
X526813D01*
X527437Y809937D01*
X527750Y809625D01*
Y809313D02*
Y808687D01*
X510250Y150250D02*
X515250D01*
X510250Y162750D02*
Y272750D01*
X515250Y277750D01*
X530250D01*
Y162750D01*
X510250D01*
X512437Y280563D02*
X513063Y280250D01*
X513375Y279625D01*
X513063Y279000D01*
X512437Y278687D01*
X510250D01*
Y282437D01*
X512437D01*
X513063Y282125D01*
X513375Y281500D01*
X513063Y280875D01*
X512437Y280563D01*
X510250D01*
X515250Y278687D02*
Y282437D01*
X517437D01*
X518063Y282125D01*
X518375Y281500D01*
X518063Y280875D01*
X517437Y280563D01*
X515250D01*
X517437D02*
X518375Y278687D01*
X520563Y279000D02*
X521187Y278687D01*
X521813D01*
X522437Y279000D01*
X522750Y279625D01*
X522437Y280250D01*
X521813Y280563D01*
X521187D01*
X521813D02*
X522437Y280875D01*
X522750Y281500D01*
X522437Y282125D01*
X521813Y282437D01*
X521187D01*
X520563Y282125D01*
X525563Y279000D02*
X526187Y278687D01*
X526813D01*
X527437Y279000D01*
X527750Y279625D01*
Y281500D01*
X527437Y282125D01*
X526813Y282437D01*
X526187D01*
X525563Y282125D01*
X525250Y281500D01*
Y279625D01*
X525563Y279000D01*
X527437Y282125D01*
X530875Y278687D02*
X532125D01*
X531500D02*
Y282437D01*
X530875Y281813D01*
X510250Y290250D02*
X515250D01*
X510250Y332750D02*
Y442750D01*
X515250Y447750D01*
X530250D01*
Y332750D01*
X510250D01*
X512437Y450563D02*
X513063Y450250D01*
X513375Y449625D01*
X513063Y449000D01*
X512437Y448687D01*
X510250D01*
Y452437D01*
X512437D01*
X513063Y452125D01*
X513375Y451500D01*
X513063Y450875D01*
X512437Y450563D01*
X510250D01*
X515250Y448687D02*
Y452437D01*
X517437D01*
X518063Y452125D01*
X518375Y451500D01*
X518063Y450875D01*
X517437Y450563D01*
X515250D01*
X517437D02*
X518375Y448687D01*
X520563Y449000D02*
X521187Y448687D01*
X521813D01*
X522437Y449000D01*
X522750Y449625D01*
X522437Y450250D01*
X521813Y450563D01*
X521187D01*
X521813D02*
X522437Y450875D01*
X522750Y451500D01*
X522437Y452125D01*
X521813Y452437D01*
X521187D01*
X520563Y452125D01*
X525563Y449000D02*
X526187Y448687D01*
X526813D01*
X527437Y449000D01*
X527750Y449625D01*
Y451500D01*
X527437Y452125D01*
X526813Y452437D01*
X526187D01*
X525563Y452125D01*
X525250Y451500D01*
Y449625D01*
X525563Y449000D01*
X527437Y452125D01*
X530563Y449000D02*
X531187Y448687D01*
X531813D01*
X532437Y449000D01*
X532750Y449625D01*
Y451500D01*
X532437Y452125D01*
X531813Y452437D01*
X531187D01*
X530563Y452125D01*
X530250Y451500D01*
Y449625D01*
X530563Y449000D01*
X532437Y452125D01*
X515875Y656813D02*
X515563Y656500D01*
X514937Y656187D01*
X514000D01*
X513375Y656500D01*
X513063Y656813D01*
X512750Y657437D01*
Y658687D01*
X513063Y659313D01*
X513375Y659625D01*
X514000Y659937D01*
X514937D01*
X515563Y659625D01*
X515875Y659313D01*
X518687Y658063D02*
X519313D01*
X519937Y658375D01*
X520250Y659000D01*
X519937Y659625D01*
X519313Y659937D01*
X518687D01*
X518063Y659625D01*
X517750Y659000D01*
X518063Y658375D01*
X518687Y658063D01*
X518063Y657750D01*
X517750Y657125D01*
X518063Y656500D01*
X518687Y656187D01*
X519313D01*
X519937Y656500D01*
X520250Y657125D01*
X519937Y657750D01*
X519313Y658063D01*
X523375Y656187D02*
X524625D01*
X524000D02*
Y659937D01*
X523375Y659313D01*
X527750Y656500D02*
X528375Y656187D01*
X529313D01*
X529937Y656500D01*
X530250Y657125D01*
Y657437D01*
X529937Y658063D01*
X529313Y658375D01*
X527750D01*
Y659937D01*
X530250D01*
X518375Y471813D02*
X518063Y471500D01*
X517437Y471187D01*
X516500D01*
X515875Y471500D01*
X515563Y471813D01*
X515250Y472437D01*
Y473687D01*
X515563Y474313D01*
X515875Y474625D01*
X516500Y474937D01*
X517437D01*
X518063Y474625D01*
X518375Y474313D01*
X521187Y473063D02*
X521813D01*
X522437Y473375D01*
X522750Y474000D01*
X522437Y474625D01*
X521813Y474937D01*
X521187D01*
X520563Y474625D01*
X520250Y474000D01*
X520563Y473375D01*
X521187Y473063D01*
X520563Y472750D01*
X520250Y472125D01*
X520563Y471500D01*
X521187Y471187D01*
X521813D01*
X522437Y471500D01*
X522750Y472125D01*
X522437Y472750D01*
X521813Y473063D01*
X527750Y471187D02*
X525250D01*
X527437Y473375D01*
X527750Y474000D01*
X527437Y474625D01*
X526813Y474937D01*
X525875D01*
X525250Y474625D01*
X530563Y471500D02*
X531187Y471187D01*
X531813D01*
X532437Y471500D01*
X532750Y472125D01*
Y474000D01*
X532437Y474625D01*
X531813Y474937D01*
X531187D01*
X530563Y474625D01*
X530250Y474000D01*
Y472125D01*
X530563Y471500D01*
X532437Y474625D01*
X516187Y560875D02*
X516500Y560563D01*
X516813Y559937D01*
Y559000D01*
X516500Y558375D01*
X516187Y558063D01*
X515563Y557750D01*
X514313D01*
X513687Y558063D01*
X513375Y558375D01*
X513063Y559000D01*
Y559937D01*
X513375Y560563D01*
X513687Y560875D01*
X514937Y563687D02*
Y564313D01*
X514625Y564937D01*
X514000Y565250D01*
X513375Y564937D01*
X513063Y564313D01*
Y563687D01*
X513375Y563063D01*
X514000Y562750D01*
X514625Y563063D01*
X514937Y563687D01*
X515250Y563063D01*
X515875Y562750D01*
X516500Y563063D01*
X516813Y563687D01*
Y564313D01*
X516500Y564937D01*
X515875Y565250D01*
X515250Y564937D01*
X514937Y564313D01*
X516813Y568375D02*
Y569625D01*
Y569000D02*
X513063D01*
X513687Y568375D01*
X516813Y573687D02*
X516500Y574313D01*
X515875Y574937D01*
X514937Y575250D01*
X514000D01*
X513375Y574937D01*
X513063Y574313D01*
Y573687D01*
X513375Y573063D01*
X514000Y572750D01*
X514625Y573063D01*
X514937Y573687D01*
Y574313D01*
X514625Y574937D01*
X514000Y575250D01*
X520250Y530250D02*
X525250D01*
X520250Y562750D02*
Y560250D01*
Y567750D02*
Y570250D01*
Y600250D02*
X525250D01*
X522750Y562750D02*
X517750D01*
Y567750D01*
X522750D01*
Y562750D01*
X525250Y495250D02*
G75*
G02*
X535250Y485250I0J-10000D01*
G01*
G75*
G02*
X525250Y475250I-10000J0D01*
G01*
G75*
G02*
X515250Y485250I0J10000D01*
G01*
G75*
G02*
X525250Y495250I10000J0D01*
G01*
Y521187D02*
Y524937D01*
X527437D01*
X528063Y524625D01*
X528375Y524000D01*
X528063Y523375D01*
X527437Y523063D01*
X525250D01*
X527437D02*
X528375Y521187D01*
X531187Y523063D02*
X531813D01*
X532437Y523375D01*
X532750Y524000D01*
X532437Y524625D01*
X531813Y524937D01*
X531187D01*
X530563Y524625D01*
X530250Y524000D01*
X530563Y523375D01*
X531187Y523063D01*
X530563Y522750D01*
X530250Y522125D01*
X530563Y521500D01*
X531187Y521187D01*
X531813D01*
X532437Y521500D01*
X532750Y522125D01*
X532437Y522750D01*
X531813Y523063D01*
X535563Y521500D02*
X536187Y521187D01*
X536813D01*
X537437Y521500D01*
X537750Y522125D01*
X537437Y522750D01*
X536813Y523063D01*
X536187D01*
X536813D02*
X537437Y523375D01*
X537750Y524000D01*
X537437Y524625D01*
X536813Y524937D01*
X536187D01*
X535563Y524625D01*
X540563Y521500D02*
X541187Y521187D01*
X541813D01*
X542437Y521500D01*
X542750Y522125D01*
Y524000D01*
X542437Y524625D01*
X541813Y524937D01*
X541187D01*
X540563Y524625D01*
X540250Y524000D01*
Y522125D01*
X540563Y521500D01*
X542437Y524625D01*
X525250Y525250D02*
Y535250D01*
X545250D01*
Y525250D01*
X525250D01*
Y595250D02*
Y605250D01*
X545250D01*
Y595250D01*
X525250D01*
Y606187D02*
Y609937D01*
X527437D01*
X528063Y609625D01*
X528375Y609000D01*
X528063Y608375D01*
X527437Y608063D01*
X525250D01*
X527437D02*
X528375Y606187D01*
X531187Y608063D02*
X531813D01*
X532437Y608375D01*
X532750Y609000D01*
X532437Y609625D01*
X531813Y609937D01*
X531187D01*
X530563Y609625D01*
X530250Y609000D01*
X530563Y608375D01*
X531187Y608063D01*
X530563Y607750D01*
X530250Y607125D01*
X530563Y606500D01*
X531187Y606187D01*
X531813D01*
X532437Y606500D01*
X532750Y607125D01*
X532437Y607750D01*
X531813Y608063D01*
X535563Y606500D02*
X536187Y606187D01*
X536813D01*
X537437Y606500D01*
X537750Y607125D01*
X537437Y607750D01*
X536813Y608063D01*
X536187D01*
X536813D02*
X537437Y608375D01*
X537750Y609000D01*
X537437Y609625D01*
X536813Y609937D01*
X536187D01*
X535563Y609625D01*
X540875Y606187D02*
X542125D01*
X541500D02*
Y609937D01*
X540875Y609313D01*
X525250Y655250D02*
G75*
G02*
X535250Y645250I0J-10000D01*
G01*
G75*
G02*
X525250Y635250I-10000J0D01*
G01*
G75*
G02*
X515250Y645250I0J10000D01*
G01*
G75*
G02*
X525250Y655250I10000J0D01*
G01*
X530250Y547750D02*
Y545250D01*
Y552750D02*
Y555250D01*
Y577750D02*
Y575250D01*
Y582750D02*
Y585250D01*
X534937Y497750D02*
Y495250D01*
X533687Y496500D02*
X536187D01*
X532750Y547750D02*
X527750D01*
Y552750D01*
X532750D01*
Y547750D01*
Y577750D02*
X527750D01*
Y582750D01*
X532750D01*
Y577750D01*
X534937Y657750D02*
Y655250D01*
X533687Y656500D02*
X536187D01*
X536813Y788687D02*
Y789313D02*
Y792437D01*
X541813Y788687D02*
Y789313D02*
Y792437D01*
X540250Y125250D02*
X535250D01*
X540250Y135250D02*
X535250D01*
X540250Y175250D02*
X532750D01*
Y265250D01*
X540250D01*
Y273687D02*
Y277437D01*
X543375D01*
X542750Y275563D02*
X540250D01*
X545250Y274625D02*
X545563Y274000D01*
X546187Y273687D01*
X547437D01*
X548063Y274000D01*
X548375Y274625D01*
X548063Y275250D01*
X547437Y275563D01*
X546187D01*
X545563Y275875D01*
X545250Y276500D01*
X545563Y277125D01*
X546187Y277437D01*
X547437D01*
X548063Y277125D01*
X548375Y276500D01*
X550563Y274000D02*
X551187Y273687D01*
X551813D01*
X552437Y274000D01*
X552750Y274625D01*
X552437Y275250D01*
X551813Y275563D01*
X551187D01*
X551813D02*
X552437Y275875D01*
X552750Y276500D01*
X552437Y277125D01*
X551813Y277437D01*
X551187D01*
X550563Y277125D01*
X555563Y274000D02*
X556187Y273687D01*
X556813D01*
X557437Y274000D01*
X557750Y274625D01*
Y276500D01*
X557437Y277125D01*
X556813Y277437D01*
X556187D01*
X555563Y277125D01*
X555250Y276500D01*
Y274625D01*
X555563Y274000D01*
X557437Y277125D01*
X560563Y274000D02*
X561187Y273687D01*
X561813D01*
X562437Y274000D01*
X562750Y274625D01*
X562437Y275250D01*
X561813Y275563D01*
X561187D01*
X561813D02*
X562437Y275875D01*
X562750Y276500D01*
X562437Y277125D01*
X561813Y277437D01*
X561187D01*
X560563Y277125D01*
X540250Y345250D02*
X532750D01*
Y435250D01*
X540250D01*
Y443687D02*
Y447437D01*
X543375D01*
X542750Y445563D02*
X540250D01*
X545250Y444625D02*
X545563Y444000D01*
X546187Y443687D01*
X547437D01*
X548063Y444000D01*
X548375Y444625D01*
X548063Y445250D01*
X547437Y445563D01*
X546187D01*
X545563Y445875D01*
X545250Y446500D01*
X545563Y447125D01*
X546187Y447437D01*
X547437D01*
X548063Y447125D01*
X548375Y446500D01*
X550563Y444000D02*
X551187Y443687D01*
X551813D01*
X552437Y444000D01*
X552750Y444625D01*
X552437Y445250D01*
X551813Y445563D01*
X551187D01*
X551813D02*
X552437Y445875D01*
X552750Y446500D01*
X552437Y447125D01*
X551813Y447437D01*
X551187D01*
X550563Y447125D01*
X555563Y444000D02*
X556187Y443687D01*
X556813D01*
X557437Y444000D01*
X557750Y444625D01*
Y446500D01*
X557437Y447125D01*
X556813Y447437D01*
X556187D01*
X555563Y447125D01*
X555250Y446500D01*
Y444625D01*
X555563Y444000D01*
X557437Y447125D01*
X560875Y443687D02*
X562125D01*
X561500D02*
Y447437D01*
X560875Y446813D01*
X538687Y543375D02*
X539000Y543063D01*
X539313Y542437D01*
Y541500D01*
X539000Y540875D01*
X538687Y540563D01*
X538063Y540250D01*
X536813D01*
X536187Y540563D01*
X535875Y540875D01*
X535563Y541500D01*
Y542437D01*
X535875Y543063D01*
X536187Y543375D01*
X537437Y546187D02*
Y546813D01*
X537125Y547437D01*
X536500Y547750D01*
X535875Y547437D01*
X535563Y546813D01*
Y546187D01*
X535875Y545563D01*
X536500Y545250D01*
X537125Y545563D01*
X537437Y546187D01*
X537750Y545563D01*
X538375Y545250D01*
X539000Y545563D01*
X539313Y546187D01*
Y546813D01*
X539000Y547437D01*
X538375Y547750D01*
X537750Y547437D01*
X537437Y546813D01*
X539313Y550875D02*
Y552125D01*
Y551500D02*
X535563D01*
X536187Y550875D01*
X539313Y555250D02*
X535563Y557750D01*
Y555250D01*
X538687Y573375D02*
X539000Y573063D01*
X539313Y572437D01*
Y571500D01*
X539000Y570875D01*
X538687Y570563D01*
X538063Y570250D01*
X536813D01*
X536187Y570563D01*
X535875Y570875D01*
X535563Y571500D01*
Y572437D01*
X535875Y573063D01*
X536187Y573375D01*
X537437Y576187D02*
Y576813D01*
X537125Y577437D01*
X536500Y577750D01*
X535875Y577437D01*
X535563Y576813D01*
Y576187D01*
X535875Y575563D01*
X536500Y575250D01*
X537125Y575563D01*
X537437Y576187D01*
X537750Y575563D01*
X538375Y575250D01*
X539000Y575563D01*
X539313Y576187D01*
Y576813D01*
X539000Y577437D01*
X538375Y577750D01*
X537750Y577437D01*
X537437Y576813D01*
X539313Y580875D02*
Y582125D01*
Y581500D02*
X535563D01*
X536187Y580875D01*
X537437Y586187D02*
Y586813D01*
X537125Y587437D01*
X536500Y587750D01*
X535875Y587437D01*
X535563Y586813D01*
Y586187D01*
X535875Y585563D01*
X536500Y585250D01*
X537125Y585563D01*
X537437Y586187D01*
X537750Y585563D01*
X538375Y585250D01*
X539000Y585563D01*
X539313Y586187D01*
Y586813D01*
X539000Y587437D01*
X538375Y587750D01*
X537750Y587437D01*
X537437Y586813D01*
X540563Y485250D02*
Y488375D01*
X544313Y485250D01*
Y488375D01*
Y490250D02*
X540563D01*
Y492125D01*
X540875Y492750D01*
X541187Y493063D01*
X541813Y493375D01*
X543063D01*
X543687Y493063D01*
X544000Y492750D01*
X544313Y492125D01*
Y490250D01*
X542437Y496187D02*
Y496813D01*
X542125Y497437D01*
X541500Y497750D01*
X540875Y497437D01*
X540563Y496813D01*
Y496187D01*
X540875Y495563D01*
X541500Y495250D01*
X542125Y495563D01*
X542437Y496187D01*
X542750Y495563D01*
X543375Y495250D01*
X544000Y495563D01*
X544313Y496187D01*
Y496813D01*
X544000Y497437D01*
X543375Y497750D01*
X542750Y497437D01*
X542437Y496813D01*
X544000Y500563D02*
X544313Y501187D01*
Y501813D01*
X544000Y502437D01*
X543375Y502750D01*
X541500D01*
X540875Y502437D01*
X540563Y501813D01*
Y501187D01*
X540875Y500563D01*
X541500Y500250D01*
X543375D01*
X544000Y500563D01*
X540875Y502437D01*
X544313Y506187D02*
X544000Y506813D01*
X543375Y507437D01*
X542437Y507750D01*
X541500D01*
X540875Y507437D01*
X540563Y506813D01*
Y506187D01*
X540875Y505563D01*
X541500Y505250D01*
X542125Y505563D01*
X542437Y506187D01*
Y506813D01*
X542125Y507437D01*
X541500Y507750D01*
X545250Y530250D02*
X550250D01*
X545250Y600250D02*
X550250D01*
X540563Y622750D02*
Y625875D01*
X544313Y622750D01*
Y625875D01*
Y627750D02*
X540563D01*
Y629625D01*
X540875Y630250D01*
X541187Y630563D01*
X541813Y630875D01*
X543063D01*
X543687Y630563D01*
X544000Y630250D01*
X544313Y629625D01*
Y627750D01*
X542437Y633687D02*
Y634313D01*
X542125Y634937D01*
X541500Y635250D01*
X540875Y634937D01*
X540563Y634313D01*
Y633687D01*
X540875Y633063D01*
X541500Y632750D01*
X542125Y633063D01*
X542437Y633687D01*
X542750Y633063D01*
X543375Y632750D01*
X544000Y633063D01*
X544313Y633687D01*
Y634313D01*
X544000Y634937D01*
X543375Y635250D01*
X542750Y634937D01*
X542437Y634313D01*
X544000Y638063D02*
X544313Y638687D01*
Y639313D01*
X544000Y639937D01*
X543375Y640250D01*
X541500D01*
X540875Y639937D01*
X540563Y639313D01*
Y638687D01*
X540875Y638063D01*
X541500Y637750D01*
X543375D01*
X544000Y638063D01*
X540875Y639937D01*
X542437Y643687D02*
Y644313D01*
X542125Y644937D01*
X541500Y645250D01*
X540875Y644937D01*
X540563Y644313D01*
Y643687D01*
X540875Y643063D01*
X541500Y642750D01*
X542125Y643063D01*
X542437Y643687D01*
X542750Y643063D01*
X543375Y642750D01*
X544000Y643063D01*
X544313Y643687D01*
Y644313D01*
X544000Y644937D01*
X543375Y645250D01*
X542750Y644937D01*
X542437Y644313D01*
X550250Y485250D02*
Y487750D01*
Y502750D02*
Y505250D01*
Y625250D02*
Y627750D01*
Y642750D02*
Y645250D01*
X555250Y487750D02*
X545250D01*
Y502750D01*
X555250D01*
Y487750D01*
Y627750D02*
X545250D01*
Y642750D01*
X555250D01*
Y627750D01*
X555875Y780250D02*
X556500Y780563D01*
X556813Y781187D01*
Y782437D01*
X556500Y783063D01*
X555875Y783375D01*
X555250Y783063D01*
X554937Y782437D01*
Y781187D01*
X554625Y780563D01*
X554000Y780250D01*
X553375Y780563D01*
X553063Y781187D01*
Y782437D01*
X553375Y783063D01*
X554000Y783375D01*
X556187Y788375D02*
X556500Y788063D01*
X556813Y787437D01*
Y786500D01*
X556500Y785875D01*
X556187Y785563D01*
X555563Y785250D01*
X554313D01*
X553687Y785563D01*
X553375Y785875D01*
X553063Y786500D01*
Y787437D01*
X553375Y788063D01*
X553687Y788375D01*
X553063Y790250D02*
X556813D01*
Y793375D01*
X560250Y130250D02*
Y120250D01*
X540250D01*
Y130250D01*
X560250D01*
Y140250D02*
Y130250D01*
X540250D01*
Y140250D01*
X560250D01*
Y175250D02*
X567750D01*
Y265250D01*
X560250D01*
Y345250D02*
X567750D01*
Y435250D01*
X560250D01*
X559313Y490250D02*
X555563D01*
Y492437D01*
X555875Y493063D01*
X556500Y493375D01*
X557125Y493063D01*
X557437Y492437D01*
Y490250D01*
Y492437D02*
X559313Y493375D01*
X557437Y496187D02*
Y496813D01*
X557125Y497437D01*
X556500Y497750D01*
X555875Y497437D01*
X555563Y496813D01*
Y496187D01*
X555875Y495563D01*
X556500Y495250D01*
X557125Y495563D01*
X557437Y496187D01*
X557750Y495563D01*
X558375Y495250D01*
X559000Y495563D01*
X559313Y496187D01*
Y496813D01*
X559000Y497437D01*
X558375Y497750D01*
X557750Y497437D01*
X557437Y496813D01*
X559313Y502750D02*
Y500250D01*
X557125Y502437D01*
X556500Y502750D01*
X555875Y502437D01*
X555563Y501813D01*
Y500875D01*
X555875Y500250D01*
X557437Y506187D02*
Y506813D01*
X557125Y507437D01*
X556500Y507750D01*
X555875Y507437D01*
X555563Y506813D01*
Y506187D01*
X555875Y505563D01*
X556500Y505250D01*
X557125Y505563D01*
X557437Y506187D01*
X557750Y505563D01*
X558375Y505250D01*
X559000Y505563D01*
X559313Y506187D01*
Y506813D01*
X559000Y507437D01*
X558375Y507750D01*
X557750Y507437D01*
X557437Y506813D01*
X563375Y546813D02*
X563063Y546500D01*
X562437Y546187D01*
X561500D01*
X560875Y546500D01*
X560563Y546813D01*
X560250Y547437D01*
Y548687D01*
X560563Y549313D01*
X560875Y549625D01*
X561500Y549937D01*
X562437D01*
X563063Y549625D01*
X563375Y549313D01*
X566187Y548063D02*
X566813D01*
X567437Y548375D01*
X567750Y549000D01*
X567437Y549625D01*
X566813Y549937D01*
X566187D01*
X565563Y549625D01*
X565250Y549000D01*
X565563Y548375D01*
X566187Y548063D01*
X565563Y547750D01*
X565250Y547125D01*
X565563Y546500D01*
X566187Y546187D01*
X566813D01*
X567437Y546500D01*
X567750Y547125D01*
X567437Y547750D01*
X566813Y548063D01*
X570875Y546187D02*
X572125D01*
X571500D02*
Y549937D01*
X570875Y549313D01*
X575250Y547125D02*
X575563Y547750D01*
X576187Y548063D01*
X576813D01*
X577437Y547750D01*
X577750Y547125D01*
X577437Y546500D01*
X576813Y546187D01*
X576187D01*
X575563Y546500D01*
X575250Y547125D01*
Y548063D01*
X575563Y549000D01*
X576187Y549625D01*
X576813Y549937D01*
X559313Y570250D02*
X555563D01*
Y572437D01*
X555875Y573063D01*
X556500Y573375D01*
X557125Y573063D01*
X557437Y572437D01*
Y570250D01*
Y572437D02*
X559313Y573375D01*
X557437Y576187D02*
Y576813D01*
X557125Y577437D01*
X556500Y577750D01*
X555875Y577437D01*
X555563Y576813D01*
Y576187D01*
X555875Y575563D01*
X556500Y575250D01*
X557125Y575563D01*
X557437Y576187D01*
X557750Y575563D01*
X558375Y575250D01*
X559000Y575563D01*
X559313Y576187D01*
Y576813D01*
X559000Y577437D01*
X558375Y577750D01*
X557750Y577437D01*
X557437Y576813D01*
X559000Y580563D02*
X559313Y581187D01*
Y581813D01*
X559000Y582437D01*
X558375Y582750D01*
X557750Y582437D01*
X557437Y581813D01*
Y581187D01*
Y581813D02*
X557125Y582437D01*
X556500Y582750D01*
X555875Y582437D01*
X555563Y581813D01*
Y581187D01*
X555875Y580563D01*
X559313Y587750D02*
Y585250D01*
X557125Y587437D01*
X556500Y587750D01*
X555875Y587437D01*
X555563Y586813D01*
Y585875D01*
X555875Y585250D01*
X559313Y620250D02*
X555563D01*
Y622437D01*
X555875Y623063D01*
X556500Y623375D01*
X557125Y623063D01*
X557437Y622437D01*
Y620250D01*
Y622437D02*
X559313Y623375D01*
X557437Y626187D02*
Y626813D01*
X557125Y627437D01*
X556500Y627750D01*
X555875Y627437D01*
X555563Y626813D01*
Y626187D01*
X555875Y625563D01*
X556500Y625250D01*
X557125Y625563D01*
X557437Y626187D01*
X557750Y625563D01*
X558375Y625250D01*
X559000Y625563D01*
X559313Y626187D01*
Y626813D01*
X559000Y627437D01*
X558375Y627750D01*
X557750Y627437D01*
X557437Y626813D01*
X559313Y632750D02*
Y630250D01*
X557125Y632437D01*
X556500Y632750D01*
X555875Y632437D01*
X555563Y631813D01*
Y630875D01*
X555875Y630250D01*
X559313Y636187D02*
X559000Y636813D01*
X558375Y637437D01*
X557437Y637750D01*
X556500D01*
X555875Y637437D01*
X555563Y636813D01*
Y636187D01*
X555875Y635563D01*
X556500Y635250D01*
X557125Y635563D01*
X557437Y636187D01*
Y636813D01*
X557125Y637437D01*
X556500Y637750D01*
X560250Y640250D02*
X570250D01*
Y620250D01*
X560250D01*
Y640250D01*
X560563Y522750D02*
Y525250D01*
X561813Y524000D02*
X559313D01*
X565250Y125250D02*
X560250D01*
X565250Y135250D02*
X560250D01*
X565250Y485250D02*
Y490250D01*
Y510250D02*
Y515250D01*
Y565250D02*
Y570250D01*
Y590250D02*
Y595250D01*
Y620250D02*
Y615250D01*
Y645250D02*
Y640250D01*
X570250Y490250D02*
X560250D01*
Y510250D01*
X570250D01*
Y490250D01*
Y525250D02*
G75*
G02*
X560250Y535250I0J10000D01*
G01*
G75*
G02*
X570250Y545250I10000J0D01*
G01*
G75*
G02*
X580250Y535250I0J-10000D01*
G01*
G75*
G02*
X570250Y525250I-10000J0D01*
G01*
Y570250D02*
X560250D01*
Y590250D01*
X570250D01*
Y570250D01*
X568375Y780250D02*
X569000Y780563D01*
X569313Y781187D01*
Y782437D01*
X569000Y783063D01*
X568375Y783375D01*
X567750Y783063D01*
X567437Y782437D01*
Y781187D01*
X567125Y780563D01*
X566500Y780250D01*
X565875Y780563D01*
X565563Y781187D01*
Y782437D01*
X565875Y783063D01*
X566500Y783375D01*
X569313Y785250D02*
X565563D01*
Y787125D01*
X565875Y787750D01*
X566187Y788063D01*
X566813Y788375D01*
X568063D01*
X568687Y788063D01*
X569000Y787750D01*
X569313Y787125D01*
Y785250D01*
Y790250D02*
X565563Y791813D01*
X569313Y793375D01*
X567750Y790875D02*
Y792750D01*
X575250Y123687D02*
Y127437D01*
X577437D01*
X578063Y127125D01*
X578375Y126500D01*
X578063Y125875D01*
X577437Y125563D01*
X575250D01*
X577437D02*
X578375Y123687D01*
X580563Y124000D02*
X581187Y123687D01*
X581813D01*
X582437Y124000D01*
X582750Y124625D01*
X582437Y125250D01*
X581813Y125563D01*
X581187D01*
X581813D02*
X582437Y125875D01*
X582750Y126500D01*
X582437Y127125D01*
X581813Y127437D01*
X581187D01*
X580563Y127125D01*
X585250Y124000D02*
X585875Y123687D01*
X586813D01*
X587437Y124000D01*
X587750Y124625D01*
Y124937D01*
X587437Y125563D01*
X586813Y125875D01*
X585250D01*
Y127437D01*
X587750D01*
X592750Y123687D02*
X590250D01*
X592437Y125875D01*
X592750Y126500D01*
X592437Y127125D01*
X591813Y127437D01*
X590875D01*
X590250Y127125D01*
X575250Y133687D02*
Y137437D01*
X577437D01*
X578063Y137125D01*
X578375Y136500D01*
X578063Y135875D01*
X577437Y135563D01*
X575250D01*
X577437D02*
X578375Y133687D01*
X580563Y134000D02*
X581187Y133687D01*
X581813D01*
X582437Y134000D01*
X582750Y134625D01*
X582437Y135250D01*
X581813Y135563D01*
X581187D01*
X581813D02*
X582437Y135875D01*
X582750Y136500D01*
X582437Y137125D01*
X581813Y137437D01*
X581187D01*
X580563Y137125D01*
X585250Y134000D02*
X585875Y133687D01*
X586813D01*
X587437Y134000D01*
X587750Y134625D01*
Y134937D01*
X587437Y135563D01*
X586813Y135875D01*
X585250D01*
Y137437D01*
X587750D01*
X590875Y133687D02*
X592125D01*
X591500D02*
Y137437D01*
X590875Y136813D01*
X580250Y175250D02*
X572750D01*
Y265250D01*
X580250D01*
Y273687D02*
Y277437D01*
X583375D01*
X582750Y275563D02*
X580250D01*
X585250Y274625D02*
X585563Y274000D01*
X586187Y273687D01*
X587437D01*
X588063Y274000D01*
X588375Y274625D01*
X588063Y275250D01*
X587437Y275563D01*
X586187D01*
X585563Y275875D01*
X585250Y276500D01*
X585563Y277125D01*
X586187Y277437D01*
X587437D01*
X588063Y277125D01*
X588375Y276500D01*
X590563Y274000D02*
X591187Y273687D01*
X591813D01*
X592437Y274000D01*
X592750Y274625D01*
X592437Y275250D01*
X591813Y275563D01*
X591187D01*
X591813D02*
X592437Y275875D01*
X592750Y276500D01*
X592437Y277125D01*
X591813Y277437D01*
X591187D01*
X590563Y277125D01*
X595563Y274000D02*
X596187Y273687D01*
X596813D01*
X597437Y274000D01*
X597750Y274625D01*
Y276500D01*
X597437Y277125D01*
X596813Y277437D01*
X596187D01*
X595563Y277125D01*
X595250Y276500D01*
Y274625D01*
X595563Y274000D01*
X597437Y277125D01*
X602750Y273687D02*
X600250D01*
X602437Y275875D01*
X602750Y276500D01*
X602437Y277125D01*
X601813Y277437D01*
X600875D01*
X600250Y277125D01*
X580250Y345250D02*
X572750D01*
Y435250D01*
X580250D01*
Y443687D02*
Y447437D01*
X583375D01*
X582750Y445563D02*
X580250D01*
X585250Y444625D02*
X585563Y444000D01*
X586187Y443687D01*
X587437D01*
X588063Y444000D01*
X588375Y444625D01*
X588063Y445250D01*
X587437Y445563D01*
X586187D01*
X585563Y445875D01*
X585250Y446500D01*
X585563Y447125D01*
X586187Y447437D01*
X587437D01*
X588063Y447125D01*
X588375Y446500D01*
X590563Y444000D02*
X591187Y443687D01*
X591813D01*
X592437Y444000D01*
X592750Y444625D01*
X592437Y445250D01*
X591813Y445563D01*
X591187D01*
X591813D02*
X592437Y445875D01*
X592750Y446500D01*
X592437Y447125D01*
X591813Y447437D01*
X591187D01*
X590563Y447125D01*
X595563Y444000D02*
X596187Y443687D01*
X596813D01*
X597437Y444000D01*
X597750Y444625D01*
Y446500D01*
X597437Y447125D01*
X596813Y447437D01*
X596187D01*
X595563Y447125D01*
X595250Y446500D01*
Y444625D01*
X595563Y444000D01*
X597437Y447125D01*
X600563Y444000D02*
X601187Y443687D01*
X601813D01*
X602437Y444000D01*
X602750Y444625D01*
Y446500D01*
X602437Y447125D01*
X601813Y447437D01*
X601187D01*
X600563Y447125D01*
X600250Y446500D01*
Y444625D01*
X600563Y444000D01*
X602437Y447125D01*
X580563Y570250D02*
X584313D01*
Y573375D01*
X582437Y576187D02*
Y576813D01*
X582125Y577437D01*
X581500Y577750D01*
X580875Y577437D01*
X580563Y576813D01*
Y576187D01*
X580875Y575563D01*
X581500Y575250D01*
X582125Y575563D01*
X582437Y576187D01*
X582750Y575563D01*
X583375Y575250D01*
X584000Y575563D01*
X584313Y576187D01*
Y576813D01*
X584000Y577437D01*
X583375Y577750D01*
X582750Y577437D01*
X582437Y576813D01*
X584000Y580563D02*
X584313Y581187D01*
Y581813D01*
X584000Y582437D01*
X583375Y582750D01*
X581500D01*
X580875Y582437D01*
X580563Y581813D01*
Y581187D01*
X580875Y580563D01*
X581500Y580250D01*
X583375D01*
X584000Y580563D01*
X580875Y582437D01*
X584313Y586813D02*
X580563D01*
X583063Y585250D01*
Y587750D01*
X600250Y58687D02*
Y62437D01*
X603375D01*
X602750Y60563D02*
X600250D01*
X605250Y59625D02*
X605563Y59000D01*
X606187Y58687D01*
X607437D01*
X608063Y59000D01*
X608375Y59625D01*
X608063Y60250D01*
X607437Y60563D01*
X606187D01*
X605563Y60875D01*
X605250Y61500D01*
X605563Y62125D01*
X606187Y62437D01*
X607437D01*
X608063Y62125D01*
X608375Y61500D01*
X610563Y59000D02*
X611187Y58687D01*
X611813D01*
X612437Y59000D01*
X612750Y59625D01*
X612437Y60250D01*
X611813Y60563D01*
X611187D01*
X611813D02*
X612437Y60875D01*
X612750Y61500D01*
X612437Y62125D01*
X611813Y62437D01*
X611187D01*
X610563Y62125D01*
X615250Y59000D02*
X615875Y58687D01*
X616813D01*
X617437Y59000D01*
X617750Y59625D01*
Y59937D01*
X617437Y60563D01*
X616813Y60875D01*
X615250D01*
Y62437D01*
X617750D01*
X622750Y58687D02*
X620250D01*
X622437Y60875D01*
X622750Y61500D01*
X622437Y62125D01*
X621813Y62437D01*
X620875D01*
X620250Y62125D01*
X600250Y98687D02*
Y102437D01*
X603375D01*
X602750Y100563D02*
X600250D01*
X605250Y99625D02*
X605563Y99000D01*
X606187Y98687D01*
X607437D01*
X608063Y99000D01*
X608375Y99625D01*
X608063Y100250D01*
X607437Y100563D01*
X606187D01*
X605563Y100875D01*
X605250Y101500D01*
X605563Y102125D01*
X606187Y102437D01*
X607437D01*
X608063Y102125D01*
X608375Y101500D01*
X610563Y99000D02*
X611187Y98687D01*
X611813D01*
X612437Y99000D01*
X612750Y99625D01*
X612437Y100250D01*
X611813Y100563D01*
X611187D01*
X611813D02*
X612437Y100875D01*
X612750Y101500D01*
X612437Y102125D01*
X611813Y102437D01*
X611187D01*
X610563Y102125D01*
X615250Y99000D02*
X615875Y98687D01*
X616813D01*
X617437Y99000D01*
X617750Y99625D01*
Y99937D01*
X617437Y100563D01*
X616813Y100875D01*
X615250D01*
Y102437D01*
X617750D01*
X620875Y98687D02*
X622125D01*
X621500D02*
Y102437D01*
X620875Y101813D01*
X600250Y175250D02*
X607750D01*
Y265250D01*
X600250D01*
Y345250D02*
X607750D01*
Y435250D01*
X600250D01*
X601813Y748687D02*
Y752437D01*
X600250D02*
X603375D01*
X605250Y748687D02*
Y752437D01*
X607437D01*
X608063Y752125D01*
X608375Y751500D01*
X608063Y750875D01*
X607437Y750563D01*
X605250D01*
X612750Y748687D02*
X610250D01*
X612437Y750875D01*
X612750Y751500D01*
X612437Y752125D01*
X611813Y752437D01*
X610875D01*
X610250Y752125D01*
X615563Y749000D02*
X616187Y748687D01*
X616813D01*
X617437Y749000D01*
X617750Y749625D01*
Y751500D01*
X617437Y752125D01*
X616813Y752437D01*
X616187D01*
X615563Y752125D01*
X615250Y751500D01*
Y749625D01*
X615563Y749000D01*
X617437Y752125D01*
X620250Y749000D02*
X620875Y748687D01*
X621813D01*
X622437Y749000D01*
X622750Y749625D01*
Y749937D01*
X622437Y750563D01*
X621813Y750875D01*
X620250D01*
Y752437D01*
X622750D01*
X605563Y597750D02*
Y600250D01*
X606813Y599000D02*
X604313D01*
X605563Y627750D02*
Y630250D01*
X606813Y629000D02*
X604313D01*
X610250Y363687D02*
X611813Y367437D01*
X613375Y363687D01*
X610875Y365250D02*
X612750D01*
X618375Y364313D02*
X618063Y364000D01*
X617437Y363687D01*
X616500D01*
X615875Y364000D01*
X615563Y364313D01*
X615250Y364937D01*
Y366187D01*
X615563Y366813D01*
X615875Y367125D01*
X616500Y367437D01*
X617437D01*
X618063Y367125D01*
X618375Y366813D01*
X625250Y363687D02*
Y367437D01*
X627437D01*
X628063Y367125D01*
X628375Y366500D01*
X628063Y365875D01*
X627437Y365563D01*
X625250D01*
X630250Y364625D02*
X630563Y364000D01*
X631187Y363687D01*
X631813D01*
X632437Y364000D01*
X632750Y364625D01*
Y365250D01*
X632437Y365875D01*
X631813Y366187D01*
X631187D01*
X630563Y365875D01*
X630250Y365250D01*
Y364625D01*
X635250Y366187D02*
Y364000D01*
X635563Y363687D01*
X636187D01*
X636500Y364000D01*
Y364937D01*
Y364000D02*
X636813Y363687D01*
X637437D01*
X637750Y364000D01*
Y366187D01*
X642750Y364000D02*
X642437Y363687D01*
X641813D01*
X641187D01*
X640563Y364000D01*
X640250Y364625D01*
Y365563D01*
X640563Y365875D01*
X641187Y366187D01*
X641813D01*
X642437Y365875D01*
X642750Y365563D01*
Y365250D01*
X642437Y364937D01*
X641813Y364625D01*
X641187D01*
X640563Y364937D01*
X640250Y365250D01*
X645250Y363687D02*
Y366187D01*
Y365250D02*
X645563Y365875D01*
X646187Y366187D01*
X646813D01*
X647437Y365875D01*
X613375Y621813D02*
X613063Y621500D01*
X612437Y621187D01*
X611500D01*
X610875Y621500D01*
X610563Y621813D01*
X610250Y622437D01*
Y623687D01*
X610563Y624313D01*
X610875Y624625D01*
X611500Y624937D01*
X612437D01*
X613063Y624625D01*
X613375Y624313D01*
X616187Y623063D02*
X616813D01*
X617437Y623375D01*
X617750Y624000D01*
X617437Y624625D01*
X616813Y624937D01*
X616187D01*
X615563Y624625D01*
X615250Y624000D01*
X615563Y623375D01*
X616187Y623063D01*
X615563Y622750D01*
X615250Y622125D01*
X615563Y621500D01*
X616187Y621187D01*
X616813D01*
X617437Y621500D01*
X617750Y622125D01*
X617437Y622750D01*
X616813Y623063D01*
X622750Y621187D02*
X620250D01*
X622437Y623375D01*
X622750Y624000D01*
X622437Y624625D01*
X621813Y624937D01*
X620875D01*
X620250Y624625D01*
X627750Y621187D02*
X625250D01*
X627437Y623375D01*
X627750Y624000D01*
X627437Y624625D01*
X626813Y624937D01*
X625875D01*
X625250Y624625D01*
X613375Y651813D02*
X613063Y651500D01*
X612437Y651187D01*
X611500D01*
X610875Y651500D01*
X610563Y651813D01*
X610250Y652437D01*
Y653687D01*
X610563Y654313D01*
X610875Y654625D01*
X611500Y654937D01*
X612437D01*
X613063Y654625D01*
X613375Y654313D01*
X616187Y653063D02*
X616813D01*
X617437Y653375D01*
X617750Y654000D01*
X617437Y654625D01*
X616813Y654937D01*
X616187D01*
X615563Y654625D01*
X615250Y654000D01*
X615563Y653375D01*
X616187Y653063D01*
X615563Y652750D01*
X615250Y652125D01*
X615563Y651500D01*
X616187Y651187D01*
X616813D01*
X617437Y651500D01*
X617750Y652125D01*
X617437Y652750D01*
X616813Y653063D01*
X622750Y651187D02*
X620250D01*
X622437Y653375D01*
X622750Y654000D01*
X622437Y654625D01*
X621813Y654937D01*
X620875D01*
X620250Y654625D01*
X625875Y651187D02*
X627125D01*
X626500D02*
Y654937D01*
X625875Y654313D01*
X614950Y194650D02*
Y352350D01*
X617450Y354850D01*
X634950D01*
Y194650D01*
X614950D01*
X616813Y163687D02*
Y167437D01*
X615250D02*
X618375D01*
X620250Y163687D02*
Y167437D01*
X622437D01*
X623063Y167125D01*
X623375Y166500D01*
X623063Y165875D01*
X622437Y165563D01*
X620250D01*
X625563Y164000D02*
X626187Y163687D01*
X626813D01*
X627437Y164000D01*
X627750Y164625D01*
X627437Y165250D01*
X626813Y165563D01*
X626187D01*
X626813D02*
X627437Y165875D01*
X627750Y166500D01*
X627437Y167125D01*
X626813Y167437D01*
X626187D01*
X625563Y167125D01*
X630563Y164000D02*
X631187Y163687D01*
X631813D01*
X632437Y164000D01*
X632750Y164625D01*
Y166500D01*
X632437Y167125D01*
X631813Y167437D01*
X631187D01*
X630563Y167125D01*
X630250Y166500D01*
Y164625D01*
X630563Y164000D01*
X632437Y167125D01*
X635563Y164000D02*
X636187Y163687D01*
X636813D01*
X637437Y164000D01*
X637750Y164625D01*
Y166500D01*
X637437Y167125D01*
X636813Y167437D01*
X636187D01*
X635563Y167125D01*
X635250Y166500D01*
Y164625D01*
X635563Y164000D01*
X637437Y167125D01*
X614313Y510250D02*
X610563D01*
Y512437D01*
X610875Y513063D01*
X611500Y513375D01*
X612125Y513063D01*
X612437Y512437D01*
Y510250D01*
Y512437D02*
X614313Y513375D01*
X612437Y516187D02*
Y516813D01*
X612125Y517437D01*
X611500Y517750D01*
X610875Y517437D01*
X610563Y516813D01*
Y516187D01*
X610875Y515563D01*
X611500Y515250D01*
X612125Y515563D01*
X612437Y516187D01*
X612750Y515563D01*
X613375Y515250D01*
X614000Y515563D01*
X614313Y516187D01*
Y516813D01*
X614000Y517437D01*
X613375Y517750D01*
X612750Y517437D01*
X612437Y516813D01*
X614000Y520563D02*
X614313Y521187D01*
Y521813D01*
X614000Y522437D01*
X613375Y522750D01*
X612750Y522437D01*
X612437Y521813D01*
Y521187D01*
Y521813D02*
X612125Y522437D01*
X611500Y522750D01*
X610875Y522437D01*
X610563Y521813D01*
Y521187D01*
X610875Y520563D01*
X612437Y526187D02*
Y526813D01*
X612125Y527437D01*
X611500Y527750D01*
X610875Y527437D01*
X610563Y526813D01*
Y526187D01*
X610875Y525563D01*
X611500Y525250D01*
X612125Y525563D01*
X612437Y526187D01*
X612750Y525563D01*
X613375Y525250D01*
X614000Y525563D01*
X614313Y526187D01*
Y526813D01*
X614000Y527437D01*
X613375Y527750D01*
X612750Y527437D01*
X612437Y526813D01*
X614313Y560250D02*
X610563D01*
Y562437D01*
X610875Y563063D01*
X611500Y563375D01*
X612125Y563063D01*
X612437Y562437D01*
Y560250D01*
Y562437D02*
X614313Y563375D01*
X612437Y566187D02*
Y566813D01*
X612125Y567437D01*
X611500Y567750D01*
X610875Y567437D01*
X610563Y566813D01*
Y566187D01*
X610875Y565563D01*
X611500Y565250D01*
X612125Y565563D01*
X612437Y566187D01*
X612750Y565563D01*
X613375Y565250D01*
X614000Y565563D01*
X614313Y566187D01*
Y566813D01*
X614000Y567437D01*
X613375Y567750D01*
X612750Y567437D01*
X612437Y566813D01*
X614000Y570563D02*
X614313Y571187D01*
Y571813D01*
X614000Y572437D01*
X613375Y572750D01*
X612750Y572437D01*
X612437Y571813D01*
Y571187D01*
Y571813D02*
X612125Y572437D01*
X611500Y572750D01*
X610875Y572437D01*
X610563Y571813D01*
Y571187D01*
X610875Y570563D01*
X613375Y575250D02*
X612750Y575563D01*
X612437Y576187D01*
Y576813D01*
X612750Y577437D01*
X613375Y577750D01*
X614000Y577437D01*
X614313Y576813D01*
Y576187D01*
X614000Y575563D01*
X613375Y575250D01*
X612437D01*
X611500Y575563D01*
X610875Y576187D01*
X610563Y576813D01*
X615250Y600250D02*
G75*
G02*
X605250Y610250I0J10000D01*
G01*
G75*
G02*
X615250Y620250I10000J0D01*
G01*
G75*
G02*
X625250Y610250I0J-10000D01*
G01*
G75*
G02*
X615250Y600250I-10000J0D01*
G01*
Y630250D02*
G75*
G02*
X605250Y640250I0J10000D01*
G01*
G75*
G02*
X615250Y650250I10000J0D01*
G01*
G75*
G02*
X625250Y640250I0J-10000D01*
G01*
G75*
G02*
X615250Y630250I-10000J0D01*
G01*
X617450Y356187D02*
Y359937D01*
X619637D01*
X620263Y359625D01*
X620575Y359000D01*
X620263Y358375D01*
X619637Y358063D01*
X617450D01*
X622450Y359937D02*
Y356187D01*
X625575D01*
X628075D02*
X629325D01*
X628700D02*
Y359937D01*
X628075Y359313D01*
X632763Y356500D02*
X633387Y356187D01*
X634013D01*
X634637Y356500D01*
X634950Y357125D01*
Y359000D01*
X634637Y359625D01*
X634013Y359937D01*
X633387D01*
X632763Y359625D01*
X632450Y359000D01*
Y357125D01*
X632763Y356500D01*
X634637Y359625D01*
X620250Y505250D02*
Y510250D01*
Y530250D02*
Y535250D01*
Y555250D02*
Y560250D01*
Y580250D02*
Y585250D01*
X625250Y510250D02*
X615250D01*
Y530250D01*
X625250D01*
Y510250D01*
Y560250D02*
X615250D01*
Y580250D01*
X625250D01*
Y560250D01*
Y661187D02*
X626813Y664937D01*
X628375Y661187D01*
X625875Y662750D02*
X627750D01*
X630250Y663687D02*
Y662125D01*
X630563Y661500D01*
X631187Y661187D01*
X631813D01*
X632437Y661500D01*
X632750Y662125D01*
Y663687D02*
Y661187D01*
X637750Y662750D02*
X637437Y663375D01*
X636813Y663687D01*
X636187D01*
X635563Y663375D01*
X635250Y662750D01*
Y662125D01*
X635563Y661500D01*
X636187Y661187D01*
X636813D01*
X637437Y661500D01*
X637750Y662125D01*
Y661187D02*
Y664937D01*
X641500Y661187D02*
Y663687D01*
Y664625D02*
X645250Y662125D02*
X645563Y661500D01*
X646187Y661187D01*
X646813D01*
X647437Y661500D01*
X647750Y662125D01*
Y662750D01*
X647437Y663375D01*
X646813Y663687D01*
X646187D01*
X645563Y663375D01*
X645250Y662750D01*
Y662125D01*
X656187Y661187D02*
X657437D01*
X656813D02*
Y664937D01*
X656187D02*
X657437D01*
X660250Y661187D02*
Y663687D01*
Y662750D02*
X660563Y663375D01*
X661187Y663687D01*
X661813D01*
X662437Y663375D01*
X662750Y662750D01*
Y661187D01*
X625250Y742437D02*
X626813Y738687D01*
X628375Y742437D01*
X632750Y740875D02*
X632125Y741187D01*
X631187D01*
X630563Y740875D01*
X630250Y740250D01*
Y739625D01*
X630563Y739000D01*
X631187Y738687D01*
X632125D01*
X632750Y739000D01*
X637750Y740875D02*
X637125Y741187D01*
X636187D01*
X635563Y740875D01*
X635250Y740250D01*
Y739625D01*
X635563Y739000D01*
X636187Y738687D01*
X637125D01*
X637750Y739000D01*
X640250Y739937D02*
X642750D01*
X641500Y738687D02*
Y741187D01*
X625250Y752437D02*
X626813Y748687D01*
X628375Y752437D01*
X632750Y750875D02*
X632125Y751187D01*
X631187D01*
X630563Y750875D01*
X630250Y750250D01*
Y749625D01*
X630563Y749000D01*
X631187Y748687D01*
X632125D01*
X632750Y749000D01*
X637750Y750875D02*
X637125Y751187D01*
X636187D01*
X635563Y750875D01*
X635250Y750250D01*
Y749625D01*
X635563Y749000D01*
X636187Y748687D01*
X637125D01*
X637750Y749000D01*
X640250Y749937D02*
X642750D01*
X641500Y748687D02*
Y751187D01*
X626750Y612437D02*
X628313Y608687D01*
X629875Y612437D01*
X634250Y610875D02*
X633625Y611187D01*
X632687D01*
X632063Y610875D01*
X631750Y610250D01*
Y609625D01*
X632063Y609000D01*
X632687Y608687D01*
X633625D01*
X634250Y609000D01*
X639250Y610875D02*
X638625Y611187D01*
X637687D01*
X637063Y610875D01*
X636750Y610250D01*
Y609625D01*
X637063Y609000D01*
X637687Y608687D01*
X638625D01*
X639250Y609000D01*
X641750Y609937D02*
X644250D01*
X643000Y608687D02*
Y611187D01*
X630250Y505250D02*
Y510250D01*
Y530250D02*
Y535250D01*
Y555250D02*
Y560250D01*
Y580250D02*
Y585250D01*
X632437Y625250D02*
X633375D01*
Y624937D01*
X633063Y624313D01*
X632750Y624000D01*
X632125Y623687D01*
X631500D01*
X630875Y624000D01*
X630563Y624313D01*
X630250Y624937D01*
Y626187D01*
X630563Y626813D01*
X630875Y627125D01*
X631500Y627437D01*
X632125D01*
X632750Y627125D01*
X633063Y626813D01*
X633375Y626187D01*
X635250Y623687D02*
Y627437D01*
X638375Y623687D01*
Y627437D01*
X640250Y623687D02*
Y627437D01*
X642125D01*
X642750Y627125D01*
X643063Y626813D01*
X643375Y626187D01*
Y624937D01*
X643063Y624313D01*
X642750Y624000D01*
X642125Y623687D01*
X640250D01*
X630250Y709625D02*
X630563Y709000D01*
X631187Y708687D01*
X632437D01*
X633063Y709000D01*
X633375Y709625D01*
X633063Y710250D01*
X632437Y710563D01*
X631187D01*
X630563Y710875D01*
X630250Y711500D01*
X630563Y712125D01*
X631187Y712437D01*
X632437D01*
X633063Y712125D01*
X633375Y711500D01*
X635250Y708687D02*
Y712437D01*
X637125D01*
X637750Y712125D01*
X638063Y711813D01*
X638375Y711187D01*
Y709937D01*
X638063Y709313D01*
X637750Y709000D01*
X637125Y708687D01*
X635250D01*
X640250D02*
X641813Y712437D01*
X643375Y708687D01*
X640875Y710250D02*
X642750D01*
X630250Y719625D02*
X630563Y719000D01*
X631187Y718687D01*
X632437D01*
X633063Y719000D01*
X633375Y719625D01*
X633063Y720250D01*
X632437Y720563D01*
X631187D01*
X630563Y720875D01*
X630250Y721500D01*
X630563Y722125D01*
X631187Y722437D01*
X632437D01*
X633063Y722125D01*
X633375Y721500D01*
X638375Y719313D02*
X638063Y719000D01*
X637437Y718687D01*
X636500D01*
X635875Y719000D01*
X635563Y719313D01*
X635250Y719937D01*
Y721187D01*
X635563Y721813D01*
X635875Y722125D01*
X636500Y722437D01*
X637437D01*
X638063Y722125D01*
X638375Y721813D01*
X640250Y722437D02*
Y718687D01*
X643375D01*
X632437Y730250D02*
X633375D01*
Y729937D01*
X633063Y729313D01*
X632750Y729000D01*
X632125Y728687D01*
X631500D01*
X630875Y729000D01*
X630563Y729313D01*
X630250Y729937D01*
Y731187D01*
X630563Y731813D01*
X630875Y732125D01*
X631500Y732437D01*
X632125D01*
X632750Y732125D01*
X633063Y731813D01*
X633375Y731187D01*
X635250Y728687D02*
Y732437D01*
X638375Y728687D01*
Y732437D01*
X640250Y728687D02*
Y732437D01*
X642125D01*
X642750Y732125D01*
X643063Y731813D01*
X643375Y731187D01*
Y729937D01*
X643063Y729313D01*
X642750Y729000D01*
X642125Y728687D01*
X640250D01*
X635250Y510250D02*
X625250D01*
Y530250D01*
X635250D01*
Y510250D01*
Y560250D02*
X625250D01*
Y580250D01*
X635250D01*
Y560250D01*
Y766187D02*
X636813Y769937D01*
X638375Y766187D01*
X635875Y767750D02*
X637750D01*
X640250Y766187D02*
Y769937D01*
Y768063D02*
X643375D01*
Y766187D02*
Y769937D01*
X646813Y766187D02*
Y769937D01*
X645250D02*
X648375D01*
X650875Y766187D02*
X652125D01*
X651500D02*
Y769937D01*
X650875Y769313D01*
X655563Y766500D02*
X656187Y766187D01*
X656813D01*
X657437Y766500D01*
X657750Y767125D01*
Y769000D01*
X657437Y769625D01*
X656813Y769937D01*
X656187D01*
X655563Y769625D01*
X655250Y769000D01*
Y767125D01*
X655563Y766500D01*
X657437Y769625D01*
X635450Y194650D02*
X671450D01*
Y354850D01*
X635450D01*
Y194650D01*
X637750Y653687D02*
Y657437D01*
X639937D01*
X640563Y657125D01*
X640875Y656500D01*
X640563Y655875D01*
X639937Y655563D01*
X637750D01*
X642750Y657437D02*
Y653687D01*
X645875D01*
X648375D02*
X649625D01*
X649000D02*
Y657437D01*
X648375Y656813D01*
X653375Y653687D02*
X654625D01*
X654000D02*
Y657437D01*
X653375Y656813D01*
X637750Y758687D02*
Y762437D01*
X639937D01*
X640563Y762125D01*
X640875Y761500D01*
X640563Y760875D01*
X639937Y760563D01*
X637750D01*
X642750Y762437D02*
Y758687D01*
X645875D01*
X648375D02*
X649625D01*
X649000D02*
Y762437D01*
X648375Y761813D01*
X653063Y759000D02*
X653687Y758687D01*
X654313D01*
X654937Y759000D01*
X655250Y759625D01*
X654937Y760250D01*
X654313Y760563D01*
X653687D01*
X654313D02*
X654937Y760875D01*
X655250Y761500D01*
X654937Y762125D01*
X654313Y762437D01*
X653687D01*
X653063Y762125D01*
X639250Y637437D02*
Y633687D01*
X642375D01*
X639250Y643687D02*
Y647437D01*
X641437D01*
X642063Y647125D01*
X642375Y646500D01*
X642063Y645875D01*
X641437Y645563D01*
X639250D01*
X641437D02*
X642375Y643687D01*
X639313Y510250D02*
X635563D01*
Y512437D01*
X635875Y513063D01*
X636500Y513375D01*
X637125Y513063D01*
X637437Y512437D01*
Y510250D01*
Y512437D02*
X639313Y513375D01*
X637437Y516187D02*
Y516813D01*
X637125Y517437D01*
X636500Y517750D01*
X635875Y517437D01*
X635563Y516813D01*
Y516187D01*
X635875Y515563D01*
X636500Y515250D01*
X637125Y515563D01*
X637437Y516187D01*
X637750Y515563D01*
X638375Y515250D01*
X639000Y515563D01*
X639313Y516187D01*
Y516813D01*
X639000Y517437D01*
X638375Y517750D01*
X637750Y517437D01*
X637437Y516813D01*
X639000Y520563D02*
X639313Y521187D01*
Y521813D01*
X639000Y522437D01*
X638375Y522750D01*
X637750Y522437D01*
X637437Y521813D01*
Y521187D01*
Y521813D02*
X637125Y522437D01*
X636500Y522750D01*
X635875Y522437D01*
X635563Y521813D01*
Y521187D01*
X635875Y520563D01*
X639313Y525250D02*
X635563Y527750D01*
Y525250D01*
X639313Y560250D02*
X635563D01*
Y562437D01*
X635875Y563063D01*
X636500Y563375D01*
X637125Y563063D01*
X637437Y562437D01*
Y560250D01*
Y562437D02*
X639313Y563375D01*
X637437Y566187D02*
Y566813D01*
X637125Y567437D01*
X636500Y567750D01*
X635875Y567437D01*
X635563Y566813D01*
Y566187D01*
X635875Y565563D01*
X636500Y565250D01*
X637125Y565563D01*
X637437Y566187D01*
X637750Y565563D01*
X638375Y565250D01*
X639000Y565563D01*
X639313Y566187D01*
Y566813D01*
X639000Y567437D01*
X638375Y567750D01*
X637750Y567437D01*
X637437Y566813D01*
X639000Y570563D02*
X639313Y571187D01*
Y571813D01*
X639000Y572437D01*
X638375Y572750D01*
X637750Y572437D01*
X637437Y571813D01*
Y571187D01*
Y571813D02*
X637125Y572437D01*
X636500Y572750D01*
X635875Y572437D01*
X635563Y571813D01*
Y571187D01*
X635875Y570563D01*
X639000Y575250D02*
X639313Y575875D01*
Y576813D01*
X639000Y577437D01*
X638375Y577750D01*
X638063D01*
X637437Y577437D01*
X637125Y576813D01*
Y575250D01*
X635563D01*
Y577750D01*
X649687Y532750D02*
X650000Y533063D01*
X650313Y533687D01*
X650000Y534313D01*
X649687Y534625D01*
X646563D01*
Y535250D01*
Y534625D02*
Y533375D01*
X650313Y537750D02*
X646563D01*
Y539937D01*
X646875Y540563D01*
X647500Y540875D01*
X648125Y540563D01*
X648437Y539937D01*
Y537750D01*
Y543687D02*
Y544313D01*
X648125Y544937D01*
X647500Y545250D01*
X646875Y544937D01*
X646563Y544313D01*
Y543687D01*
X646875Y543063D01*
X647500Y542750D01*
X648125Y543063D01*
X648437Y543687D01*
X648750Y543063D01*
X649375Y542750D01*
X650000Y543063D01*
X650313Y543687D01*
Y544313D01*
X650000Y544937D01*
X649375Y545250D01*
X648750Y544937D01*
X648437Y544313D01*
X650000Y548063D02*
X650313Y548687D01*
Y549313D01*
X650000Y549937D01*
X649375Y550250D01*
X647500D01*
X646875Y549937D01*
X646563Y549313D01*
Y548687D01*
X646875Y548063D01*
X647500Y547750D01*
X649375D01*
X650000Y548063D01*
X646875Y549937D01*
X650000Y553063D02*
X650313Y553687D01*
Y554313D01*
X650000Y554937D01*
X649375Y555250D01*
X647500D01*
X646875Y554937D01*
X646563Y554313D01*
Y553687D01*
X646875Y553063D01*
X647500Y552750D01*
X649375D01*
X650000Y553063D01*
X646875Y554937D01*
D02*
D11*
X47750Y756187D02*
X47906Y755875D01*
X48219Y755719D01*
X48844D01*
X49156Y755875D01*
X49313Y756187D01*
X49156Y756500D01*
X48844Y756656D01*
X48219D01*
X47906Y756813D01*
X47750Y757125D01*
X47906Y757437D01*
X48219Y757594D01*
X48844D01*
X49156Y757437D01*
X49313Y757125D01*
X51031Y755719D02*
Y757594D01*
X50250D02*
X51813D01*
X52750Y755719D02*
Y757594D01*
X53844D01*
X54156Y757437D01*
X54313Y757125D01*
X54156Y756813D01*
X53844Y756656D01*
X52750D01*
X53844D02*
X54313Y755719D01*
X55250Y756344D02*
Y756969D01*
X55406Y757281D01*
X55563Y757437D01*
X55875Y757594D01*
X56187D01*
X56500Y757437D01*
X56656Y757281D01*
X56813Y756969D01*
Y756344D01*
X56656Y756031D01*
X56500Y755875D01*
X56187Y755719D01*
X55875D01*
X55563Y755875D01*
X55406Y756031D01*
X55250Y756344D01*
X58844Y756656D02*
X59156Y756500D01*
X59313Y756187D01*
X59156Y755875D01*
X58844Y755719D01*
X57750D01*
Y757594D01*
X58844D01*
X59156Y757437D01*
X59313Y757125D01*
X59156Y756813D01*
X58844Y756656D01*
X57750D01*
X60250Y755719D02*
Y757594D01*
X61813D01*
X61500Y756656D02*
X60250D01*
Y755719D02*
X61813D01*
X52750Y747594D02*
X53531Y745719D01*
X54313Y747594D01*
X56500Y746813D02*
X56187Y746969D01*
X55719D01*
X55406Y746813D01*
X55250Y746500D01*
Y746187D01*
X55406Y745875D01*
X55719Y745719D01*
X56187D01*
X56500Y745875D01*
X59000Y746813D02*
X58687Y746969D01*
X58219D01*
X57906Y746813D01*
X57750Y746500D01*
Y746187D01*
X57906Y745875D01*
X58219Y745719D01*
X58687D01*
X59000Y745875D01*
X60250Y746344D02*
X61500D01*
X60875Y745719D02*
Y746969D01*
X52750Y769719D02*
Y771594D01*
X54313D01*
X54000Y770656D02*
X52750D01*
X55719Y769719D02*
X56344D01*
X56031D02*
Y771594D01*
X55719D02*
X56344D01*
X57750D02*
Y769719D01*
X59313D01*
X61500D02*
X60250D01*
X61344Y770813D01*
X61500Y771125D01*
X61344Y771437D01*
X61031Y771594D01*
X60563D01*
X60250Y771437D01*
X52750Y787594D02*
X53531Y785719D01*
X54313Y787594D01*
X55250Y786187D02*
X55406Y785875D01*
X55719Y785719D01*
X56031D01*
X56344Y785875D01*
X56500Y786187D01*
Y786500D01*
X56344Y786813D01*
X56031Y786969D01*
X55719D01*
X55406Y786813D01*
X55250Y786500D01*
Y785719D02*
Y787594D01*
X57750Y786187D02*
X57906Y785875D01*
X58219Y785719D01*
X58531D01*
X58844Y785875D01*
X59000Y786187D01*
Y786500D01*
X58844Y786813D01*
X58531Y786969D01*
X58219D01*
X57906Y786813D01*
X57750Y786500D01*
Y785719D02*
Y787594D01*
X60250Y786344D02*
X61500D01*
X60875Y785719D02*
Y786969D01*
X52750Y797594D02*
X53531Y795719D01*
X54313Y797594D01*
X55250Y796187D02*
X55406Y795875D01*
X55719Y795719D01*
X56031D01*
X56344Y795875D01*
X56500Y796187D01*
Y796500D01*
X56344Y796813D01*
X56031Y796969D01*
X55719D01*
X55406Y796813D01*
X55250Y796500D01*
Y795719D02*
Y797594D01*
X57750Y796187D02*
X57906Y795875D01*
X58219Y795719D01*
X58531D01*
X58844Y795875D01*
X59000Y796187D01*
Y796500D01*
X58844Y796813D01*
X58531Y796969D01*
X58219D01*
X57906Y796813D01*
X57750Y796500D01*
Y795719D02*
Y797594D01*
X60250Y796344D02*
X61500D01*
X56344Y776500D02*
X56813D01*
Y776344D01*
X56656Y776031D01*
X56500Y775875D01*
X56187Y775719D01*
X55875D01*
X55563Y775875D01*
X55406Y776031D01*
X55250Y776344D01*
Y776969D01*
X55406Y777281D01*
X55563Y777437D01*
X55875Y777594D01*
X56187D01*
X56500Y777437D01*
X56656Y777281D01*
X56813Y776969D01*
X57750Y775719D02*
Y777594D01*
X59313Y775719D01*
Y777594D01*
X60250Y775719D02*
Y777594D01*
X61187D01*
X61500Y777437D01*
X61656Y777281D01*
X61813Y776969D01*
Y776344D01*
X61656Y776031D01*
X61500Y775875D01*
X61187Y775719D01*
X60250D01*
X87750Y749687D02*
X87906Y749375D01*
X88219Y749219D01*
X88844D01*
X89156Y749375D01*
X89313Y749687D01*
X89156Y750000D01*
X88844Y750156D01*
X88219D01*
X87906Y750313D01*
X87750Y750625D01*
X87906Y750937D01*
X88219Y751094D01*
X88844D01*
X89156Y750937D01*
X89313Y750625D01*
X90250Y749219D02*
Y751094D01*
X91187D01*
X91500Y750937D01*
X91656Y750781D01*
X91813Y750469D01*
Y749844D01*
X91656Y749531D01*
X91500Y749375D01*
X91187Y749219D01*
X90250D01*
X93219D02*
X93844D01*
X93531D02*
Y751094D01*
X93219D02*
X93844D01*
X95250Y749219D02*
Y751094D01*
X96813Y749219D01*
Y751094D01*
X89313Y759531D02*
X89156Y759375D01*
X88844Y759219D01*
X88375D01*
X88063Y759375D01*
X87906Y759531D01*
X87750Y759844D01*
Y760469D01*
X87906Y760781D01*
X88063Y760937D01*
X88375Y761094D01*
X88844D01*
X89156Y760937D01*
X89313Y760781D01*
X90250Y761094D02*
Y759219D01*
X91813D01*
X92750D02*
Y761094D01*
Y760156D02*
X93219D01*
X94313Y761094D01*
X93219Y760156D02*
X94313Y759219D01*
X87750Y770187D02*
X87906Y769875D01*
X88219Y769719D01*
X88844D01*
X89156Y769875D01*
X89313Y770187D01*
X89156Y770500D01*
X88844Y770656D01*
X88219D01*
X87906Y770813D01*
X87750Y771125D01*
X87906Y771437D01*
X88219Y771594D01*
X88844D01*
X89156Y771437D01*
X89313Y771125D01*
X90250Y769719D02*
Y771594D01*
X91187D01*
X91500Y771437D01*
X91656Y771281D01*
X91813Y770969D01*
Y770344D01*
X91656Y770031D01*
X91500Y769875D01*
X91187Y769719D01*
X90250D01*
X92750Y770344D02*
Y770969D01*
X92906Y771281D01*
X93063Y771437D01*
X93375Y771594D01*
X93687D01*
X94000Y771437D01*
X94156Y771281D01*
X94313Y770969D01*
Y770344D01*
X94156Y770031D01*
X94000Y769875D01*
X93687Y769719D01*
X93375D01*
X93063Y769875D01*
X92906Y770031D01*
X92750Y770344D01*
X95250Y771594D02*
Y770187D01*
X95406Y769875D01*
X95719Y769719D01*
X96344D01*
X96656Y769875D01*
X96813Y770187D01*
Y771594D01*
X98531Y769719D02*
Y771594D01*
X97750D02*
X99313D01*
X88844Y776500D02*
X89313D01*
Y776344D01*
X89156Y776031D01*
X89000Y775875D01*
X88687Y775719D01*
X88375D01*
X88063Y775875D01*
X87906Y776031D01*
X87750Y776344D01*
Y776969D01*
X87906Y777281D01*
X88063Y777437D01*
X88375Y777594D01*
X88687D01*
X89000Y777437D01*
X89156Y777281D01*
X89313Y776969D01*
X90250Y775719D02*
Y777594D01*
X91813Y775719D01*
Y777594D01*
X92750Y775719D02*
Y777594D01*
X93687D01*
X94000Y777437D01*
X94156Y777281D01*
X94313Y776969D01*
Y776344D01*
X94156Y776031D01*
X94000Y775875D01*
X93687Y775719D01*
X92750D01*
X88844Y791656D02*
X89156Y791500D01*
X89313Y791187D01*
X89156Y790875D01*
X88844Y790719D01*
X87750D01*
Y792594D01*
X88844D01*
X89156Y792437D01*
X89313Y792125D01*
X89156Y791813D01*
X88844Y791656D01*
X87750D01*
X90250Y792594D02*
Y790719D01*
X91813D01*
X92750D02*
X93531Y792594D01*
X94313Y790719D01*
X93063Y791500D02*
X94000D01*
X95250Y790719D02*
Y792594D01*
X96813Y790719D01*
Y792594D01*
X97750Y790719D02*
Y792594D01*
Y791656D02*
X98219D01*
X99313Y792594D01*
X98219Y791656D02*
X99313Y790719D01*
X87750Y795719D02*
Y797594D01*
X89313D01*
X89000Y796656D02*
X87750D01*
X90719Y795719D02*
X91344D01*
X91031D02*
Y797594D01*
X90719D02*
X91344D01*
X92750D02*
Y795719D01*
X94313D01*
X95563D02*
X96187D01*
X95875D02*
Y797594D01*
X95563Y797281D01*
X335250Y137594D02*
X336031Y135719D01*
X336813Y137594D01*
X337750Y136187D02*
X337906Y135875D01*
X338219Y135719D01*
X338531D01*
X338844Y135875D01*
X339000Y136187D01*
Y136500D01*
X338844Y136813D01*
X338531Y136969D01*
X338219D01*
X337906Y136813D01*
X337750Y136500D01*
Y135719D02*
Y137594D01*
X340250Y136187D02*
X340406Y135875D01*
X340719Y135719D01*
X341031D01*
X341344Y135875D01*
X341500Y136187D01*
Y136500D01*
X341344Y136813D01*
X341031Y136969D01*
X340719D01*
X340406Y136813D01*
X340250Y136500D01*
Y135719D02*
Y137594D01*
X342750Y136344D02*
X344000D01*
X347750Y135719D02*
Y137594D01*
X349313D01*
X349000Y136656D02*
X347750D01*
X350719Y135719D02*
X351344D01*
X351031D02*
Y137594D01*
X350719D02*
X351344D01*
X352750D02*
Y135719D01*
X354313D01*
X358844Y136500D02*
X359313D01*
Y136344D01*
X359156Y136031D01*
X359000Y135875D01*
X358687Y135719D01*
X358375D01*
X358063Y135875D01*
X357906Y136031D01*
X357750Y136344D01*
Y136969D01*
X357906Y137281D01*
X358063Y137437D01*
X358375Y137594D01*
X358687D01*
X359000Y137437D01*
X359156Y137281D01*
X359313Y136969D01*
X360250Y135719D02*
Y137594D01*
X361813Y135719D01*
Y137594D01*
X362750Y135719D02*
Y137594D01*
X363687D01*
X364000Y137437D01*
X364156Y137281D01*
X364313Y136969D01*
Y136344D01*
X364156Y136031D01*
X364000Y135875D01*
X363687Y135719D01*
X362750D01*
X447750Y630094D02*
X448531Y628219D01*
X449313Y630094D01*
X451500Y629313D02*
X451187Y629469D01*
X450719D01*
X450406Y629313D01*
X450250Y629000D01*
Y628687D01*
X450406Y628375D01*
X450719Y628219D01*
X451187D01*
X451500Y628375D01*
X454000Y629313D02*
X453687Y629469D01*
X453219D01*
X452906Y629313D01*
X452750Y629000D01*
Y628687D01*
X452906Y628375D01*
X453219Y628219D01*
X453687D01*
X454000Y628375D01*
X455250Y628844D02*
X456500D01*
X455875Y628219D02*
Y629469D01*
X447750Y660094D02*
X448531Y658219D01*
X449313Y660094D01*
X451500Y659313D02*
X451187Y659469D01*
X450719D01*
X450406Y659313D01*
X450250Y659000D01*
Y658687D01*
X450406Y658375D01*
X450719Y658219D01*
X451187D01*
X451500Y658375D01*
X454000Y659313D02*
X453687Y659469D01*
X453219D01*
X452906Y659313D01*
X452750Y659000D01*
Y658687D01*
X452906Y658375D01*
X453219Y658219D01*
X453687D01*
X454000Y658375D01*
X455250Y660094D02*
Y658687D01*
X455406Y658375D01*
X455719Y658219D01*
X456344D01*
X456656Y658375D01*
X456813Y658687D01*
Y660094D01*
X457750Y658219D02*
Y660094D01*
X459313Y658219D01*
Y660094D01*
X460250Y658219D02*
Y660094D01*
X461344D01*
X461656Y659937D01*
X461813Y659625D01*
X461656Y659313D01*
X461344Y659156D01*
X460250D01*
X461344D02*
X461813Y658219D01*
X462750D02*
Y660094D01*
X464313D01*
X464000Y659156D02*
X462750D01*
Y658219D02*
X464313D01*
X466344Y659000D02*
X466813D01*
Y658844D01*
X466656Y658531D01*
X466500Y658375D01*
X466187Y658219D01*
X465875D01*
X465563Y658375D01*
X465406Y658531D01*
X465250Y658844D01*
Y659469D01*
X465406Y659781D01*
X465563Y659937D01*
X465875Y660094D01*
X466187D01*
X466500Y659937D01*
X466656Y659781D01*
X466813Y659469D01*
D02*
D12*
X65250Y100250D02*
Y40250D01*
X85250D01*
Y100250D01*
X65250D01*
Y200250D02*
Y140250D01*
X85250D01*
Y200250D01*
X65250D01*
Y300250D02*
Y240250D01*
X85250D01*
Y300250D01*
X65250D01*
Y400250D02*
Y340250D01*
X85250D01*
Y400250D01*
X65250D01*
Y500250D02*
Y440250D01*
X85250D01*
Y500250D01*
X65250D01*
Y600250D02*
Y540250D01*
X85250D01*
Y600250D01*
X65250D01*
Y700250D02*
Y640250D01*
X85250D01*
Y700250D01*
X65250D01*
Y800250D02*
Y740250D01*
X85250D01*
Y800250D01*
X65250D01*
X255250Y195250D02*
Y185250D01*
X265250D01*
Y195250D01*
X255250D01*
X320250Y770250D02*
Y760250D01*
X330250D01*
Y770250D01*
X320250D01*
Y780250D02*
Y770250D01*
X330250D01*
Y780250D01*
X320250D01*
Y795250D02*
X380250D01*
Y815250D01*
X320250D01*
Y795250D01*
X330250Y770250D02*
Y760250D01*
X340250D01*
Y770250D01*
X330250D01*
Y780250D02*
Y770250D01*
X340250D01*
Y780250D01*
X330250D01*
X335250Y140250D02*
X365250D01*
Y150250D01*
X335250D01*
Y140250D01*
X337750Y43687D02*
Y38625D01*
X338313Y37500D01*
X339437Y36937D01*
X341687D01*
X342813Y37500D01*
X343375Y38625D01*
Y43687D01*
X346750Y36937D02*
Y41437D01*
Y39750D02*
X347313Y40875D01*
X348437Y41437D01*
X349563D01*
X350687Y40875D01*
X351250Y39750D01*
Y36937D01*
X358000D02*
Y41437D01*
Y43125D02*
X364750Y41437D02*
X367000Y36937D01*
X369250Y41437D01*
X378250Y37500D02*
X377687Y36937D01*
X376563D01*
X375437D01*
X374313Y37500D01*
X373750Y38625D01*
Y40313D01*
X374313Y40875D01*
X375437Y41437D01*
X376563D01*
X377687Y40875D01*
X378250Y40313D01*
Y39750D01*
X377687Y39187D01*
X376563Y38625D01*
X375437D01*
X374313Y39187D01*
X373750Y39750D01*
X382750Y36937D02*
Y41437D01*
Y39750D02*
X383313Y40875D01*
X384437Y41437D01*
X385563D01*
X386687Y40875D01*
X391750Y37500D02*
X392875Y36937D01*
X395125D01*
X396250Y37500D01*
Y38625D01*
X395125Y39187D01*
X392875D01*
X391750Y39750D01*
Y40875D01*
X392875Y41437D01*
X395125D01*
X396250Y40875D01*
X400750D02*
X401875Y41437D01*
X403563D01*
X404687Y40875D01*
X405250Y39750D01*
Y38063D01*
X404687Y37500D01*
X403563Y36937D01*
X402437D01*
X401313Y37500D01*
X400750Y38063D01*
Y38625D01*
X401313Y39187D01*
X402437Y39750D01*
X403563D01*
X404687Y39187D01*
X405250Y38625D01*
Y38063D02*
Y36937D01*
X412563D02*
X412000D01*
Y43687D01*
X427750D02*
X430563Y36937D01*
X433375Y43687D01*
X436750Y36937D02*
Y43687D01*
X442375D01*
X441250Y40313D02*
X436750D01*
X445750Y36937D02*
Y43687D01*
X449125D01*
X450250Y43125D01*
X450813Y42563D01*
X451375Y41437D01*
Y39187D01*
X450813Y38063D01*
X450250Y37500D01*
X449125Y36937D01*
X445750D01*
X343375Y27263D02*
X342813Y26700D01*
X341687Y26137D01*
X340000D01*
X338875Y26700D01*
X338313Y27263D01*
X337750Y28387D01*
Y30637D01*
X338313Y31763D01*
X338875Y32325D01*
X340000Y32887D01*
X341687D01*
X342813Y32325D01*
X343375Y31763D01*
X346750Y27825D02*
X347313Y26700D01*
X348437Y26137D01*
X349563D01*
X350687Y26700D01*
X351250Y27825D01*
Y28950D01*
X350687Y30075D01*
X349563Y30637D01*
X348437D01*
X347313Y30075D01*
X346750Y28950D01*
Y27825D01*
X355750Y26137D02*
Y30637D01*
Y28950D02*
X356313Y30075D01*
X357437Y30637D01*
X358563D01*
X359687Y30075D01*
X360250Y28950D01*
Y26137D01*
X365687Y30637D02*
X368313D01*
X367000Y31763D02*
Y26700D01*
X367563Y26137D01*
X368125D01*
X368687Y26700D01*
X373750Y26137D02*
Y30637D01*
Y28950D02*
X374313Y30075D01*
X375437Y30637D01*
X376563D01*
X377687Y30075D01*
X382750Y27825D02*
X383313Y26700D01*
X384437Y26137D01*
X385563D01*
X386687Y26700D01*
X387250Y27825D01*
Y28950D01*
X386687Y30075D01*
X385563Y30637D01*
X384437D01*
X383313Y30075D01*
X382750Y28950D01*
Y27825D01*
X394563Y26137D02*
X394000D01*
Y32887D01*
X403563Y26137D02*
X403000D01*
Y32887D01*
X414250Y26700D02*
X413687Y26137D01*
X412563D01*
X411437D01*
X410313Y26700D01*
X409750Y27825D01*
Y29513D01*
X410313Y30075D01*
X411437Y30637D01*
X412563D01*
X413687Y30075D01*
X414250Y29513D01*
Y28950D01*
X413687Y28387D01*
X412563Y27825D01*
X411437D01*
X410313Y28387D01*
X409750Y28950D01*
X418750Y26137D02*
Y30637D01*
Y28950D02*
X419313Y30075D01*
X420437Y30637D01*
X421563D01*
X422687Y30075D01*
X436750Y32887D02*
X439563Y26137D01*
X442375Y32887D01*
X446875Y26137D02*
X449125D01*
X448000D02*
Y32887D01*
X446875Y31763D01*
X455313Y26137D02*
X455875Y26700D01*
X455313Y27263D01*
X454750Y26700D01*
X455313Y26137D01*
X464313Y26700D02*
X465437Y26137D01*
X466563D01*
X467687Y26700D01*
X468250Y27825D01*
Y31200D01*
X467687Y32325D01*
X466563Y32887D01*
X465437D01*
X464313Y32325D01*
X463750Y31200D01*
Y27825D01*
X464313Y26700D01*
X467687Y32325D01*
X473313Y26700D02*
X474437Y26137D01*
X475563D01*
X476687Y26700D01*
X477250Y27825D01*
Y31200D01*
X476687Y32325D01*
X475563Y32887D01*
X474437D01*
X473313Y32325D01*
X472750Y31200D01*
Y27825D01*
X473313Y26700D01*
X476687Y32325D01*
X340250Y215250D02*
Y205250D01*
X350250D01*
Y215250D01*
X340250D01*
Y240250D02*
Y230250D01*
X350250D01*
Y240250D01*
X340250D01*
X345250Y725250D02*
Y695250D01*
X355250D01*
Y725250D01*
X345250D01*
X350250Y780250D02*
Y770250D01*
X360250D01*
Y780250D01*
X350250D01*
X354950Y91250D02*
X345550D01*
X365250Y395250D02*
Y385250D01*
X375250D01*
Y395250D01*
X365250D01*
Y445250D02*
Y435250D01*
X375250D01*
Y445250D01*
X365250D01*
Y725250D02*
Y695250D01*
X375250D01*
Y725250D01*
X365250D01*
X370250Y770250D02*
X390250D01*
Y780250D01*
X370250D01*
Y770250D01*
X385250Y725250D02*
Y695250D01*
X395250D01*
Y725250D01*
X385250D01*
X409950Y196250D02*
X400550D01*
X409950Y241250D02*
X400550D01*
X425250Y535250D02*
Y525250D01*
X435250D01*
Y535250D01*
X425250D01*
Y545250D02*
Y535250D01*
X435250D01*
Y545250D01*
X425250D01*
Y645250D02*
Y635250D01*
X435250D01*
Y645250D01*
X425250D01*
X445250Y535250D02*
Y525250D01*
X455250D01*
Y535250D01*
X445250D01*
Y545250D02*
Y535250D01*
X455250D01*
Y545250D01*
X445250D01*
Y635250D02*
X425250D01*
Y625250D01*
X445250D01*
Y635250D01*
Y665250D02*
X425250D01*
Y655250D01*
X445250D01*
Y665250D01*
Y755250D02*
Y715250D01*
X455250D01*
Y755250D01*
X445250D01*
X460250Y425250D02*
Y405250D01*
X470250D01*
Y425250D01*
X460250D01*
X465250Y65250D02*
Y55250D01*
X475250D01*
Y65250D01*
X465250D01*
Y105250D02*
Y95250D01*
X475250D01*
Y105250D01*
X465250D01*
X485250Y237750D02*
Y207750D01*
X495250D01*
Y237750D01*
X485250D01*
X530250Y795250D02*
X570250D01*
Y805250D01*
X530250D01*
Y795250D01*
Y805250D02*
X570250D01*
Y815250D01*
X530250D01*
Y805250D01*
X545550Y499250D02*
X554950D01*
X545550Y639250D02*
X554950D01*
X620250Y180250D02*
Y170250D01*
X630250D01*
Y180250D01*
X620250D01*
X635250Y555250D02*
Y535250D01*
X645250D01*
Y555250D01*
X635250D01*
X645250Y650250D02*
Y610250D01*
X655250D01*
Y650250D01*
X645250D01*
Y745250D02*
Y705250D01*
X655250D01*
Y745250D01*
X645250D01*
Y755250D02*
Y745250D01*
X655250D01*
Y755250D01*
X645250D01*
D02*
D13*
X495250Y510250D02*
X505250D01*
Y490250D01*
X495250D01*
Y510250D01*
X500250Y490250D02*
Y485250D01*
Y515250D02*
Y510250D01*
Y615250D02*
Y620250D01*
Y640250D02*
Y645250D01*
X505250Y620250D02*
X495250D01*
Y640250D01*
X505250D01*
Y620250D01*
X575250Y565250D02*
Y570250D01*
Y590250D02*
Y595250D01*
X580250Y570250D02*
X570250D01*
Y590250D01*
X580250D01*
Y570250D01*
X0Y0D02*
M02*
