G05
M48
;#@! TF.GenerationSoftware,DesignSpark,DesignSpark PCB,13.0.
;#@! TF.CreationDate,2026-02-18T09:52:38--8:00*
;#@! TF.FileFunction,Plated,1,2,PTH
;FILE_FORMAT=3:5
;TYPE=PLATED
INCH,TZ
FMAT,2
T1C000.02400
T2C000.03200
T3C000.03500
T4C000.03937
T5C000.04200
T6C000.06600
T7C000.07500
T8C000.14000
%
T001
X1.40250Y5.25250
X1.40250Y7.15250
X1.40250Y7.35250
X1.45250Y4.65250
X1.45250Y7.05250
X1.50250Y3.65250
X1.50250Y6.95250
X1.55250Y2.65250
X1.55250Y6.85250
X1.60250Y1.65250
X1.60250Y6.75250
X1.65250Y0.65250
X1.65250Y6.80250
X1.70250Y2.70250
X1.70250Y4.25250
X1.70250Y4.40250
X1.70250Y4.70250
X1.70250Y5.45250
X1.70250Y5.65250
X1.70250Y5.75250
X1.70250Y6.45250
X1.70250Y6.65250
X1.70250Y7.25250
X1.75250Y1.20250
X1.75250Y1.85250
X1.75250Y2.30250
X1.75250Y3.55250
X1.75250Y3.70250
X1.75250Y4.35250
X1.75250Y4.45250
X1.75250Y5.55250
X1.80250Y0.80250
X1.80250Y3.85250
X1.80250Y4.10250
X1.80250Y7.70250
X1.85250Y1.70250
X1.85250Y4.15250
X1.85250Y4.30250
X1.85250Y5.70250
X1.90250Y0.55250
X1.90250Y2.90250
X1.90250Y3.45250
X1.90250Y5.45250
X1.95250Y0.70250
X1.95250Y4.05250
X1.95250Y4.20250
X1.95250Y6.70250
X2.00250Y1.55250
X2.00250Y2.70250
X2.00250Y2.95250
X2.00250Y7.55250
X2.05250Y2.75250
X2.05250Y6.55250
X2.10250Y2.55250
X2.10250Y5.50250
X2.15250Y2.35250
X2.15250Y4.55250
X2.15250Y7.70250
X2.15250Y7.95250
X2.20250Y2.45250
X2.20250Y5.35250
X2.20250Y5.85250
X2.20250Y7.45250
X2.25250Y1.45250
X2.25250Y7.85250
X2.30250Y1.25250
X2.30250Y6.90250
X2.35250Y1.05250
X2.35250Y5.90250
X2.40250Y0.85250
X2.40250Y4.85250
X2.40250Y5.60250
X2.40250Y6.50250
X2.40250Y6.60250
X2.40250Y7.10250
X2.40250Y7.75250
X2.45250Y0.45250
X2.45250Y5.30250
X2.45250Y5.70250
X2.45250Y6.15250
X2.45250Y7.20250
X2.50250Y1.00250
X2.50250Y2.85250
X2.50250Y5.80250
X2.50250Y6.10250
X2.50250Y7.30250
X2.55250Y0.90250
X2.55250Y1.40250
X2.55250Y1.55250
X2.55250Y3.05250
X2.55250Y5.90250
X2.55250Y6.05250
X2.55250Y7.40250
X2.60250Y4.75250
X3.10250Y5.60250
X3.10250Y6.20250
X3.10250Y7.75250
X3.15250Y5.50250
X3.15250Y6.30250
X3.15250Y7.70250
X3.20250Y4.75250
X3.20250Y6.90250
X3.25250Y3.70250
X3.25250Y5.70250
X3.25250Y6.15250
X3.30250Y3.80250
X3.30250Y5.80250
X3.30250Y6.10250
X3.30250Y6.50250
X3.30250Y7.05250
X3.35250Y3.90250
X3.35250Y5.90250
X3.35250Y6.05250
X3.35250Y6.15250
X3.35250Y6.30250
X3.35250Y6.60250
X3.35250Y7.10250
X3.45250Y7.65250
X3.50250Y6.80250
X3.60250Y7.20250
X3.70250Y5.30250
X3.75250Y5.20250
X3.80250Y6.50250
X3.85250Y5.90250
X3.85250Y6.90250
X3.95250Y6.90250
X4.00250Y6.80250
X4.00250Y7.65250
X4.15250Y6.90250
X4.15250Y7.30250
X4.20250Y7.90250
X4.25250Y5.90250
X4.25250Y6.10250
X4.25250Y7.20250
X4.30250Y6.00250
X4.30250Y6.20250
X4.30250Y7.95250
X5.35250Y7.80250
X5.55250Y5.75250
X5.75250Y7.90250
X6.30250Y6.15250
X6.30250Y6.35250
X6.30250Y7.90250
X6.35250Y7.95250
T002
X0.15250Y0.65250
X0.15250Y1.65250
X0.15250Y2.65250
X0.15250Y3.65250
X0.15250Y4.65250
X0.15250Y5.65250
X0.15250Y6.65250
X0.15250Y7.65250
X0.25250Y1.10250
X0.25250Y2.10250
X0.25250Y3.10250
X0.25250Y4.10250
X0.25250Y5.10250
X0.25250Y6.10250
X0.25250Y7.10250
X0.35250Y0.95250
X0.35250Y1.95250
X0.35250Y2.95250
X0.35250Y3.95250
X0.35250Y4.95250
X0.35250Y5.95250
X0.35250Y6.95250
X0.40250Y8.10250
X0.55250Y0.65250
X0.55250Y1.65250
X0.55250Y2.65250
X0.55250Y3.65250
X0.55250Y4.65250
X0.55250Y5.65250
X0.55250Y6.65250
X0.55250Y7.65250
X0.65250Y1.10250
X0.65250Y2.10250
X0.65250Y3.10250
X0.65250Y4.10250
X0.65250Y5.10250
X0.65250Y6.10250
X0.65250Y7.10250
X0.80250Y8.10250
X0.95250Y0.45250
X0.95250Y0.55250
X0.95250Y0.65250
X0.95250Y0.85250
X0.95250Y1.45250
X0.95250Y1.55250
X0.95250Y1.65250
X0.95250Y1.85250
X0.95250Y2.45250
X0.95250Y2.55250
X0.95250Y2.65250
X0.95250Y2.85250
X0.95250Y3.45250
X0.95250Y3.55250
X0.95250Y3.65250
X0.95250Y3.85250
X0.95250Y4.45250
X0.95250Y4.55250
X0.95250Y4.65250
X0.95250Y4.85250
X0.95250Y5.45250
X0.95250Y5.55250
X0.95250Y5.65250
X0.95250Y5.85250
X0.95250Y6.45250
X0.95250Y6.55250
X0.95250Y6.65250
X0.95250Y6.85250
X0.95250Y7.45250
X0.95250Y7.55250
X0.95250Y7.65250
X0.95250Y7.85250
X1.10250Y3.20250
X1.20250Y0.35250
X1.20250Y1.35250
X1.20250Y2.35250
X1.20250Y3.35250
X1.20250Y4.35250
X1.20250Y5.05250
X1.20250Y5.35250
X1.20250Y6.35250
X1.20250Y7.35250
X1.35250Y0.45250
X1.35250Y0.55250
X1.35250Y0.65250
X1.35250Y0.85250
X1.35250Y1.45250
X1.35250Y1.55250
X1.35250Y1.65250
X1.35250Y1.85250
X1.35250Y2.45250
X1.35250Y2.55250
X1.35250Y2.65250
X1.35250Y2.85250
X1.35250Y3.45250
X1.35250Y3.55250
X1.35250Y3.65250
X1.35250Y3.85250
X1.35250Y4.45250
X1.35250Y4.55250
X1.35250Y4.65250
X1.35250Y4.85250
X1.35250Y5.45250
X1.35250Y5.55250
X1.35250Y5.65250
X1.35250Y5.85250
X1.35250Y6.45250
X1.35250Y6.55250
X1.35250Y6.65250
X1.35250Y6.85250
X1.35250Y7.45250
X1.35250Y7.55250
X1.35250Y7.65250
X1.35250Y7.85250
X2.60250Y1.80250
X2.60250Y7.60250
X2.70250Y0.70250
X2.70250Y0.80250
X2.70250Y0.90250
X2.70250Y1.00250
X2.70250Y1.10250
X2.70250Y1.20250
X2.70250Y1.30250
X2.70250Y1.40250
X2.70250Y1.50250
X2.70250Y1.60250
X2.70250Y2.20250
X2.70250Y2.30250
X2.70250Y2.40250
X2.70250Y2.50250
X2.70250Y2.60250
X2.70250Y2.70250
X2.70250Y2.80250
X2.70250Y2.90250
X2.70250Y3.00250
X2.70250Y3.10250
X2.70250Y3.70250
X2.70250Y3.80250
X2.70250Y3.90250
X2.70250Y4.00250
X2.70250Y4.10250
X2.70250Y4.20250
X2.70250Y4.30250
X2.70250Y4.40250
X2.70250Y5.20250
X2.70250Y5.30250
X2.70250Y5.40250
X2.70250Y5.50250
X2.70250Y5.60250
X2.70250Y5.70250
X2.70250Y5.80250
X2.70250Y5.90250
X2.70250Y6.70250
X2.70250Y6.80250
X2.70250Y6.90250
X2.70250Y7.00250
X2.70250Y7.10250
X2.70250Y7.20250
X2.70250Y7.30250
X2.70250Y7.40250
X2.80250Y1.70250
X2.80250Y3.20250
X2.80250Y3.29650
X2.80250Y4.50250
X2.80250Y6.00250
X2.80250Y7.50250
X2.80250Y7.85250
X2.90250Y5.05250
X3.00250Y0.70250
X3.00250Y0.80250
X3.00250Y0.90250
X3.00250Y1.00250
X3.00250Y1.10250
X3.00250Y1.20250
X3.00250Y1.30250
X3.00250Y1.40250
X3.00250Y1.50250
X3.00250Y1.60250
X3.00250Y1.70250
X3.00250Y1.80250
X3.00250Y2.20250
X3.00250Y2.30250
X3.00250Y2.40250
X3.00250Y2.50250
X3.00250Y2.60250
X3.00250Y2.70250
X3.00250Y2.80250
X3.00250Y2.90250
X3.00250Y3.00250
X3.00250Y3.10250
X3.00250Y3.20250
X3.00250Y3.70250
X3.00250Y3.80250
X3.00250Y3.90250
X3.00250Y4.00250
X3.00250Y4.10250
X3.00250Y4.20250
X3.00250Y4.30250
X3.00250Y4.40250
X3.00250Y4.50250
X3.00250Y5.20250
X3.00250Y5.30250
X3.00250Y5.40250
X3.00250Y5.50250
X3.00250Y5.60250
X3.00250Y5.70250
X3.00250Y5.80250
X3.00250Y5.90250
X3.00250Y6.00250
X3.00250Y6.70250
X3.00250Y6.80250
X3.00250Y6.90250
X3.00250Y7.00250
X3.00250Y7.10250
X3.00250Y7.20250
X3.00250Y7.30250
X3.00250Y7.40250
X3.00250Y7.50250
X3.00250Y7.60250
X3.35250Y1.65250
X3.35250Y2.80250
X3.45250Y1.90250
X3.45250Y2.55250
X3.50250Y0.80250
X3.50250Y1.10250
X3.50250Y5.20250
X3.50250Y5.30250
X3.50250Y5.40250
X3.50250Y5.50250
X3.50250Y5.60250
X3.50250Y5.70250
X3.50250Y5.80250
X3.50250Y5.90250
X3.50250Y6.00250
X3.50250Y6.10250
X3.50250Y6.20250
X3.50250Y6.30250
X3.50250Y6.40250
X3.50250Y6.50250
X3.50250Y6.60250
X3.55250Y1.90250
X3.55250Y2.55250
X3.75250Y1.65250
X3.75250Y1.90250
X3.75250Y2.55250
X3.75250Y2.80250
X3.80250Y0.80250
X3.80250Y0.90250
X3.85250Y1.90250
X3.85250Y2.55250
X3.85250Y3.90250
X3.85250Y4.10250
X3.85250Y4.20250
X3.85250Y4.40250
X3.85250Y7.50250
X3.95250Y5.00250
X3.95250Y6.30250
X3.95250Y6.50250
X4.05250Y1.85250
X4.05250Y2.15250
X4.05250Y2.30250
X4.05250Y2.60250
X4.05250Y3.90250
X4.05250Y4.10250
X4.05250Y4.20250
X4.05250Y4.40250
X4.10250Y5.20250
X4.10250Y5.30250
X4.10250Y5.40250
X4.10250Y5.50250
X4.10250Y5.60250
X4.10250Y5.70250
X4.10250Y5.80250
X4.10250Y5.90250
X4.10250Y6.00250
X4.10250Y6.10250
X4.10250Y6.20250
X4.10250Y6.30250
X4.10250Y6.40250
X4.10250Y6.50250
X4.10250Y6.60250
X4.15250Y7.40250
X4.15250Y7.80250
X4.25250Y1.75250
X4.25250Y2.15250
X4.25250Y2.30250
X4.25250Y2.70250
X4.25250Y7.40250
X4.25250Y7.80250
X4.40250Y5.10250
X4.50250Y3.65250
X4.50250Y4.65250
X4.60250Y1.80250
X4.60250Y2.00250
X4.60250Y2.45250
X4.60250Y2.65250
X4.60250Y6.70250
X4.70250Y3.65250
X4.70250Y4.65250
X4.70250Y5.30250
X4.70250Y5.40250
X4.70250Y5.50250
X4.70250Y5.60250
X4.70250Y5.70250
X4.70250Y5.80250
X4.70250Y5.90250
X4.70250Y6.00250
X4.70250Y6.50250
X4.70250Y7.50250
X4.75250Y3.29650
X4.80250Y1.50250
X4.80250Y2.90250
X4.90250Y4.10250
X4.90250Y5.00250
X5.00250Y4.80250
X5.00250Y5.20250
X5.00250Y5.30250
X5.00250Y5.40250
X5.00250Y5.50250
X5.00250Y5.60250
X5.00250Y5.70250
X5.00250Y5.80250
X5.00250Y5.90250
X5.00250Y6.00250
X5.00250Y6.10250
X5.00250Y6.50250
X5.15250Y5.30250
X5.15250Y6.00250
X5.20250Y1.50250
X5.20250Y2.90250
X5.20250Y5.55250
X5.20250Y5.75250
X5.25250Y4.80250
X5.25250Y4.90250
X5.25250Y6.40250
X5.25250Y6.50250
X5.30250Y1.25250
X5.30250Y1.35250
X5.30250Y5.40250
X5.30250Y5.60250
X5.30250Y5.70250
X5.30250Y5.90250
X5.45250Y7.70250
X5.50250Y4.80250
X5.50250Y5.10250
X5.50250Y6.20250
X5.50250Y6.50250
X5.55250Y5.30250
X5.55250Y6.00250
X5.65250Y4.80250
X5.65250Y5.00250
X5.65250Y5.20250
X5.65250Y5.60250
X5.65250Y6.00250
X5.65250Y6.10250
X5.65250Y6.50250
X5.70250Y1.25250
X5.70250Y1.35250
X5.70250Y5.30250
X5.70250Y5.40250
X5.75250Y5.60250
X5.75250Y6.00250
X5.75250Y6.60250
X6.05250Y1.50250
X6.05250Y4.70250
X6.05250Y5.60250
X6.05250Y6.25250
X6.15250Y6.05250
X6.15250Y6.15250
X6.15250Y6.35250
X6.15250Y6.45250
X6.20250Y5.00250
X6.20250Y5.40250
X6.20250Y5.50250
X6.20250Y5.90250
X6.30250Y5.00250
X6.30250Y5.40250
X6.30250Y5.50250
X6.30250Y5.90250
X6.40250Y6.70250
T003
X0.70250Y0.45250
X0.70250Y0.55250
X0.70250Y0.65250
X0.70250Y0.75250
X0.70250Y0.85250
X0.70250Y0.95250
X0.70250Y1.45250
X0.70250Y1.55250
X0.70250Y1.65250
X0.70250Y1.75250
X0.70250Y1.85250
X0.70250Y1.95250
X0.70250Y2.45250
X0.70250Y2.55250
X0.70250Y2.65250
X0.70250Y2.75250
X0.70250Y2.85250
X0.70250Y2.95250
X0.70250Y3.45250
X0.70250Y3.55250
X0.70250Y3.65250
X0.70250Y3.75250
X0.70250Y3.85250
X0.70250Y3.95250
X0.70250Y4.45250
X0.70250Y4.55250
X0.70250Y4.65250
X0.70250Y4.75250
X0.70250Y4.85250
X0.70250Y4.95250
X0.70250Y5.45250
X0.70250Y5.55250
X0.70250Y5.65250
X0.70250Y5.75250
X0.70250Y5.85250
X0.70250Y5.95250
X0.70250Y6.45250
X0.70250Y6.55250
X0.70250Y6.65250
X0.70250Y6.75250
X0.70250Y6.85250
X0.70250Y6.95250
X0.70250Y7.45250
X0.70250Y7.55250
X0.70250Y7.65250
X0.70250Y7.75250
X0.70250Y7.85250
X0.70250Y7.95250
X0.80250Y0.45250
X0.80250Y0.55250
X0.80250Y0.65250
X0.80250Y0.75250
X0.80250Y0.85250
X0.80250Y0.95250
X0.80250Y1.45250
X0.80250Y1.55250
X0.80250Y1.65250
X0.80250Y1.75250
X0.80250Y1.85250
X0.80250Y1.95250
X0.80250Y2.45250
X0.80250Y2.55250
X0.80250Y2.65250
X0.80250Y2.75250
X0.80250Y2.85250
X0.80250Y2.95250
X0.80250Y3.45250
X0.80250Y3.55250
X0.80250Y3.65250
X0.80250Y3.75250
X0.80250Y3.85250
X0.80250Y3.95250
X0.80250Y4.45250
X0.80250Y4.55250
X0.80250Y4.65250
X0.80250Y4.75250
X0.80250Y4.85250
X0.80250Y4.95250
X0.80250Y5.45250
X0.80250Y5.55250
X0.80250Y5.65250
X0.80250Y5.75250
X0.80250Y5.85250
X0.80250Y5.95250
X0.80250Y6.45250
X0.80250Y6.55250
X0.80250Y6.65250
X0.80250Y6.75250
X0.80250Y6.85250
X0.80250Y6.95250
X0.80250Y7.45250
X0.80250Y7.55250
X0.80250Y7.65250
X0.80250Y7.75250
X0.80250Y7.85250
X0.80250Y7.95250
X2.60250Y1.90250
X3.25250Y7.65250
X3.25250Y7.75250
X3.25250Y8.00250
X3.25250Y8.10250
X3.35250Y7.65250
X3.35250Y7.75250
X3.35250Y8.00250
X3.35250Y8.10250
X3.40250Y1.45250
X3.45250Y2.10250
X3.45250Y2.35250
X3.45250Y8.00250
X3.45250Y8.10250
X3.50250Y1.45250
X3.50250Y7.00250
X3.50250Y7.10250
X3.50250Y7.20250
X3.55250Y7.75250
X3.55250Y8.00250
X3.55250Y8.10250
X3.60250Y1.45250
X3.65250Y8.00250
X3.65250Y8.10250
X3.70250Y3.90250
X3.70250Y4.40250
X3.70250Y7.00250
X3.70250Y7.10250
X3.70250Y7.20250
X3.75250Y7.75250
X3.75250Y8.00250
X3.75250Y8.10250
X3.85250Y7.75250
X3.90250Y7.00250
X3.90250Y7.10250
X3.90250Y7.20250
X4.30250Y5.30250
X4.30250Y5.40250
X4.30250Y6.30250
X4.30250Y6.40250
X4.30250Y6.60250
X4.40250Y6.30250
X4.40250Y6.60250
X4.50250Y5.30250
X4.50250Y5.40250
X4.50250Y7.20250
X4.50250Y7.30250
X4.50250Y7.40250
X4.50250Y7.50250
X4.65250Y4.10250
X4.65250Y4.20250
X4.70250Y0.60250
X4.70250Y1.00250
X4.90250Y2.12750
X4.90250Y2.22750
X4.90250Y2.32750
X5.35250Y8.00250
X5.35250Y8.10250
X5.45250Y8.00250
X5.45250Y8.10250
X5.55250Y8.00250
X5.55250Y8.10250
X5.65250Y8.00250
X5.65250Y8.10250
X6.25250Y1.75250
X6.40250Y5.40250
X6.40250Y5.50250
X6.50250Y6.15250
X6.50250Y6.25250
X6.50250Y6.35250
X6.50250Y6.45250
X6.50250Y7.10250
X6.50250Y7.20250
X6.50250Y7.30250
X6.50250Y7.40250
X6.50250Y7.50250
T004
X1.90250Y7.95250
X1.90250Y8.10998
X2.40250Y7.95250
X2.40250Y8.10998
T005
X3.85250Y3.55250
X3.85250Y4.70250
X3.95250Y3.55250
X3.95250Y4.70250
X4.05250Y3.55250
X4.05250Y4.70250
X4.15250Y1.45250
X4.15250Y3.05250
X4.25250Y1.45250
X4.25250Y3.05250
X4.35250Y1.45250
X4.35250Y3.05250
T006
X5.20250Y1.75250
X5.20250Y2.05250
X5.20250Y2.35250
X5.20250Y2.65250
X5.20250Y3.45250
X5.20250Y3.75250
X5.20250Y4.05250
X5.20250Y4.35250
X6.25250Y2.04850
X6.25250Y2.20450
X6.25250Y2.36050
X6.25250Y2.51650
X6.25250Y2.67250
X6.25250Y2.82850
X6.25250Y2.98450
X6.25250Y3.14050
X6.25250Y3.29650
X6.25250Y3.45250
T007
X3.65250Y3.57750
X3.65250Y4.72750
X3.95250Y1.42750
X3.95250Y3.02750
X4.25250Y3.57750
X4.25250Y4.72750
X4.55250Y1.42750
X4.55250Y3.02750
X5.00250Y0.60250
X5.00250Y1.00250
X5.50250Y1.75250
X5.50250Y2.65250
X5.50250Y3.45250
X5.50250Y4.35250
X5.90250Y0.60250
X5.90250Y1.00250
X5.90250Y1.75250
X5.90250Y2.65250
X5.90250Y3.45250
X5.90250Y4.35250
T008
X0.17750Y0.17750
X0.17750Y8.12750
X6.57750Y0.17750
X6.57750Y8.12750
M30
